<?xml version="1.0" encoding="UTF-8" standalone="no"?>
<svg
   xmlns:dc="http://purl.org/dc/elements/1.1/"
   xmlns:cc="http://web.resource.org/cc/"
   xmlns:rdf="http://www.w3.org/1999/02/22-rdf-syntax-ns#"
   xmlns:svg="http://www.w3.org/2000/svg"
   xmlns="http://www.w3.org/2000/svg"
   xmlns:sodipodi="http://inkscape.sourceforge.net/DTD/sodipodi-0.dtd"
   xmlns:inkscape="http://www.inkscape.org/namespaces/inkscape"
   width="850"
   height="566"
   id="svg2"
   sodipodi:version="0.32"
   inkscape:version="0.42"
   sodipodi:docname="canada_novascotia.svg"
   sodipodi:docbase="/home/demailly/nnew/gis_data/flags/newsvg">
  <metadata
     id="metadata1331">
    <rdf:RDF>
      <cc:Work
         rdf:about="">
        <dc:format>image/svg+xml</dc:format>
        <dc:type
           rdf:resource="http://purl.org/dc/dcmitype/StillImage" />
      </cc:Work>
    </rdf:RDF>
  </metadata>
  <sodipodi:namedview
     inkscape:cy="538.32329"
     inkscape:cx="425.00000"
     inkscape:zoom="1.6423529"
     inkscape:window-height="1057"
     inkscape:window-width="1490"
     inkscape:pageshadow="2"
     inkscape:pageopacity="0.0"
     borderopacity="1.0"
     bordercolor="#666666"
     pagecolor="#ffffff"
     id="base"
     inkscape:window-x="63"
     inkscape:window-y="-24"
     inkscape:current-layer="svg2" />
  <defs
     id="defs4">
    <marker
       id="ArrowEnd"
       viewBox="0 0 10 10"
       refX="0"
       refY="5"
       markerUnits="strokeWidth"
       markerWidth="4"
       markerHeight="3"
       orient="auto">
      <path
         d="M 0 0 L 10 5 L 0 10 z"
         id="path7" />
    </marker>
    <marker
       id="ArrowStart"
       viewBox="0 0 10 10"
       refX="10"
       refY="5"
       markerUnits="strokeWidth"
       markerWidth="4"
       markerHeight="3"
       orient="auto">
      <path
         d="M 10 0 L 0 5 L 10 10 z"
         id="path10" />
    </marker>
  </defs>
  <g
     id="g1613">
    <path
       style="fill:#000000;stroke:none"
       d="M -753.72630,1601.0822 L -753.72630,1601.0822 L -753.72630,1601.0822 L -753.72630,1601.0822"
       id="path14" />
    <path
       style="fill:#ffffff;stroke:none"
       d="M 96.973700,-721.94820 L 92.801700,-717.91620 L 96.973700,-717.91620 L 96.973700,-721.94820"
       id="path44" />
    <path
       style="fill:#ffffff;stroke:none"
       d="M 96.973700,-713.87620 L 101.14570,-717.91620 L 96.973700,-717.91620 L 96.973700,-713.87620"
       id="path48" />
    <path
       style="fill:#ffffff;stroke:none"
       d="M 122.91370,-701.37620 L 119.48570,-703.63620 L 121.12570,-704.93980 L 117.32570,-704.93980 C 117.32570,-704.93980 110.82970,-709.12780 110.82570,-709.12780 L 110.82570,-712.76820 L 113.98170,-710.76020 L 114.75370,-708.52380 L 115.97370,-709.48820 L 117.56570,-708.48020 L 120.99370,-708.48020 L 117.51370,-710.70420 L 119.20170,-712.04020 L 115.40170,-712.04020 L 111.77370,-714.34420 C 111.77370,-714.34420 114.07770,-716.55580 114.07770,-716.57220 C 114.07770,-716.59580 131.70970,-716.55580 131.73370,-716.57220 L 132.88970,-715.40820 L 131.74570,-714.26020 C 131.74570,-714.26020 128.14170,-714.26020 128.17370,-714.26020 L 128.17370,-712.08020 C 128.17370,-712.11220 133.89770,-712.08020 133.89770,-712.08020 L 138.57770,-716.54820 L 138.57770,-711.22020 L 131.30570,-706.41620 L 131.30170,-702.98820 L 124.44170,-698.46420 L 121.22570,-699.76020 L 113.94570,-694.96420 L 98.777700,-694.97180 L 100.18170,-697.50820 L 108.85370,-697.50820 L 102.82170,-702.65980 L 102.82170,-700.05580 L 98.797700,-700.05580 L 98.797700,-705.32420 C 98.797700,-705.32420 101.18170,-707.48820 101.18970,-707.48820 L 106.21370,-704.23620 L 106.98170,-702.00020 L 108.20170,-702.97180 L 109.79370,-701.95620 L 113.22170,-701.95620 L 109.74170,-704.17980 L 111.43370,-705.51620 L 107.63370,-705.58020 L 103.52170,-708.17980 L 108.87370,-708.17980 L 115.90170,-703.65220 L 116.67370,-701.42420 L 117.89370,-702.38420 L 119.48570,-701.37620 L 122.91370,-701.37620"
       id="path60" />
    <path
       style="fill:#ffffff;stroke:none"
       d="M 50.665700,-637.98020 L 48.121700,-637.98020 L 49.873700,-641.23620 L 48.121700,-644.49620 L 50.665700,-644.49620 L 50.665700,-637.98020"
       id="path236" />
    <path
       style="fill:#ffffff;stroke:none"
       d="M 143.54970,-637.98020 L 146.09370,-637.98020 L 144.34570,-641.23620 L 146.09770,-644.49620 L 143.55370,-644.49620 L 143.55370,-637.98020"
       id="path240" />
    <path
       style="fill:#ffffff;stroke:none"
       d="M 81.453700,-626.29220 L 83.657700,-623.15220 L 79.245700,-623.15220 L 81.449700,-626.29220"
       id="path248" />
    <path
       style="fill:#ffffff;stroke:none"
       d="M 112.73770,-656.17220 L 110.53370,-659.31580 L 114.94170,-659.31580 L 112.73770,-656.17220"
       id="path252" />
    <path
       style="fill:#ffffff;stroke:none"
       d="M 112.73770,-626.29220 L 110.53370,-623.15220 L 114.94170,-623.15220 L 112.73770,-626.29220"
       id="path256" />
    <path
       style="fill:#ffffff;stroke:none"
       d="M 100.23370,-652.88420 L 100.23370,-657.71180 L 101.86170,-656.87620 L 101.86170,-667.22820 L 100.23370,-666.39980 L 97.093700,-669.63620 L 93.953700,-666.39980 L 92.325700,-667.22820 L 92.325700,-656.87620 L 93.953700,-657.71180 L 93.953700,-652.88420 L 100.22970,-652.88420"
       id="path268" />
    <path
       style="fill:#ffffff;stroke:none"
       d="M 100.23370,-629.57220 L 100.23370,-624.75180 L 101.86170,-625.57220 L 101.86170,-615.22820 L 100.23370,-616.05580 L 97.093700,-612.82420 L 93.953700,-616.05580 L 92.325700,-615.22820 L 92.325700,-625.57220 L 93.953700,-624.75180 L 93.953700,-629.57220 L 100.22970,-629.57220"
       id="path272" />
    <path
       style="fill:#ffffff;stroke:none"
       d="M 81.453700,-656.17220 L 83.657700,-659.31580 L 79.245700,-659.31580 L 81.449700,-656.17220"
       id="path280" />
    <path
       style="fill:#ffffff;stroke:none"
       d="M 86.193700,-641.22820 L 82.757700,-645.87620 L 82.757700,-636.58820 L 86.193700,-641.23620"
       id="path312" />
    <path
       style="fill:#ffffff;stroke:none"
       d="M 107.99770,-641.22820 L 111.43370,-645.87620 L 111.43370,-636.58820 L 107.99770,-641.23620"
       id="path316" />
    <path
       style="fill:#ffffff;stroke:none"
       d="M 97.097700,-645.90820 L 100.50170,-641.25180 L 97.097700,-636.58820 L 93.693700,-641.25180 L 97.097700,-645.90820"
       id="path328" />
    <path
       style="fill:#ffffff;stroke:none"
       d="M 96.977700,-581.93220 L 96.977700,-564.62780 L 72.161700,-564.62780 C 72.161700,-564.62780 72.161700,-574.08820 72.161700,-574.10420 C 72.161700,-574.11220 80.645700,-574.10420 80.645700,-574.10420 L 96.977700,-581.93220"
       id="path356" />
    <path
       style="fill:#ffffff;stroke:none"
       d="M 79.357700,-583.97180 L 79.357700,-576.26820 L 80.233700,-576.26820 L 96.973700,-584.28380 L 96.973700,-589.10420 L 85.749700,-589.10420 L 85.749700,-585.50020 L 87.681700,-585.50020 L 87.681700,-587.50820 L 95.341700,-587.50820 L 95.341700,-585.37620 L 85.885700,-580.78380 L 79.353700,-583.97180"
       id="path376" />
    <path
       style="fill:#ffffff;stroke:none"
       d="M 96.977700,-560.04020 L 88.213700,-564.62780 L 96.977700,-564.62780 L 96.977700,-560.04020"
       id="path388" />
    <path
       style="fill:#ffffff;stroke:none"
       d="M 139.99770,-564.60420 L 139.99770,-571.77620 L 130.84170,-571.77620 L 130.84170,-576.25180 L 126.79770,-576.25180 L 126.79770,-565.65980 L 134.79370,-565.65980 L 132.95370,-566.86020 L 132.95370,-569.38420 L 140.00170,-564.60420"
       id="path428" />
    <path
       style="fill:#ffffff;stroke:none"
       d="M 125.18170,-472.67220 L 130.22570,-477.72020"
       id="path596" />
    <path
       style="fill:#ffffff;stroke:none"
       d="M 130.22570,-498.33220 L 125.18170,-503.37620"
       id="path600" />
    <path
       style="fill:#ffffff;stroke:none"
       d="M 79.461700,-501.53220 L 76.605700,-498.50020 L 73.749700,-501.53220 L 79.461700,-501.53220"
       id="path700" />
    <path
       style="fill:#ffffff;stroke:none"
       d="M 99.833700,-501.53220 L 96.977700,-498.50020 L 94.121700,-501.53220 L 99.833700,-501.53220"
       id="path704" />
    <path
       style="fill:#ffffff;stroke:none"
       d="M 65.397700,-490.89980 L 68.429700,-488.04820 L 65.397700,-485.18820 L 65.397700,-490.90820"
       id="path708" />
    <path
       style="fill:#ffffff;stroke:none"
       d="M 79.461700,-474.51620 L 76.605700,-477.54820 L 73.749700,-474.51620 L 79.461700,-474.51620"
       id="path712" />
    <path
       style="fill:#ffffff;stroke:none"
       d="M 99.833700,-474.51620 L 96.977700,-477.54820 L 94.121700,-474.51620 L 99.833700,-474.51620"
       id="path716" />
    <path
       style="fill:#ffffff;stroke:none"
       d="M 114.48970,-501.53220 L 117.34570,-498.50020 L 120.19770,-501.53220 L 114.48970,-501.53220"
       id="path720" />
    <path
       style="fill:#ffffff;stroke:none"
       d="M 128.55370,-490.89980 L 125.51770,-488.04820 L 128.55370,-485.18820 L 128.55370,-490.90820"
       id="path724" />
    <path
       style="fill:#ffffff;stroke:none"
       d="M 114.48970,-474.51620 L 117.34570,-477.54820 L 120.19770,-474.51620 L 114.48970,-474.51620"
       id="path728" />
    <path
       style="fill:#ffffff;stroke:none"
       d="M 64.389700,-508.03220 L 62.429700,-509.99620 L 61.801700,-508.82420 L 59.101700,-508.82420 L 59.101700,-506.12780 L 57.929700,-505.49620 L 59.893700,-503.53220 L 64.389700,-508.03220"
       id="path736" />
    <path
       style="fill:#ffffff;stroke:none"
       d="M 64.389700,-468.01620 L 62.429700,-466.05580 L 61.801700,-467.22020 L 59.101700,-467.22020 L 59.101700,-469.92420 L 57.929700,-470.54820 L 59.893700,-472.51620 L 64.389700,-468.01620"
       id="path740" />
    <path
       style="fill:#ffffff;stroke:none"
       d="M 136.98970,-494.33220 C 137.00970,-494.33220 138.99770,-494.33220 138.99770,-494.33220 C 138.99770,-494.33220 137.28170,-492.48020 137.28170,-492.48020 L 143.08570,-492.48020 L 141.10170,-490.34420 L 143.85370,-490.34420 C 143.85370,-490.34420 146.57770,-488.10420 146.61370,-488.07220 C 146.58170,-488.04820 143.85370,-485.80020 143.85370,-485.80020 L 141.10570,-485.80020 L 143.08970,-483.66820 L 137.28570,-483.66820 C 137.28570,-483.66820 139.00170,-481.81580 139.00170,-481.81580 C 139.00170,-481.81580 137.01370,-481.81580 136.99370,-481.81580 L 136.99370,-494.33580"
       id="path744" />
    <path
       style="fill:#ffffff;stroke:none"
       d="M 129.56570,-508.03220 L 131.52570,-509.99620 L 132.15370,-508.82420 L 134.85370,-508.82420 L 134.85370,-506.12780 L 136.02570,-505.49620 L 134.06570,-503.53220 L 129.56570,-508.03220"
       id="path748" />
    <path
       style="fill:#ffffff;stroke:none"
       d="M 129.56570,-468.01620 L 131.52570,-466.05580 L 132.15370,-467.22020 L 134.85370,-467.22020 L 134.85370,-469.92420 L 136.02570,-470.54820 L 134.06570,-472.51620 L 129.56570,-468.01620"
       id="path752" />
    <path
       style="fill:#ffffff;stroke:none"
       d="M 105.62970,-509.76820 L 105.62970,-512.65220 L 101.36170,-510.39980 L 101.36170,-515.22020 L 98.941700,-513.94820 C 98.941700,-513.94820 98.913700,-515.56420 98.941700,-515.54820 C 98.945700,-515.54820 96.961700,-517.84420 96.973700,-517.83220 C 96.985700,-517.84420 94.997700,-515.54820 95.005700,-515.54820 C 95.033700,-515.56420 95.005700,-513.94820 95.005700,-513.94820 L 92.585700,-515.22020 L 92.585700,-510.39980 L 88.317700,-512.65220 L 88.317700,-509.76820 L 105.63370,-509.76820"
       id="path756" />
    <path
       style="fill:#ffffff;stroke:none"
       d="M 105.62970,-466.29220 L 105.62970,-463.40820 L 101.36170,-465.65980 L 101.36170,-460.83220 L 98.941700,-462.10420 C 98.941700,-462.10420 98.913700,-460.48820 98.941700,-460.50020 C 98.945700,-460.50020 96.961700,-458.20420 96.973700,-458.22020 C 96.985700,-458.21180 94.997700,-460.50020 95.005700,-460.50020 C 95.033700,-460.48820 95.005700,-462.10420 95.005700,-462.10420 L 92.585700,-460.83220 L 92.585700,-465.65980 L 88.317700,-463.40820 L 88.317700,-466.29220 L 105.63370,-466.29220"
       id="path760" />
    <path
       style="fill:#ffffff;stroke:none"
       d="M 96.977700,-479.03220 L 73.641700,-479.03220 L 70.453700,-482.22020 L 70.453700,-493.87620 L 73.641700,-497.06420 L 120.31770,-497.06420 L 123.50570,-493.87620 L 123.50570,-482.22020 L 120.31770,-479.03220 L 96.981700,-479.03220"
       id="path764" />
    <path
       style="fill:#ffffff;stroke:none"
       d="M 268.78170,-708.46420 L 259.90170,-716.44820 L 249.55770,-710.48820 L 254.39770,-721.39980 L 245.53770,-729.39212 L 257.40970,-728.15980 L 262.27770,-739.05596 L 264.77370,-727.38420 L 276.64170,-726.12780 L 266.31370,-720.15220 L 268.77770,-708.47180"
       id="path884" />
    <path
       style="fill:#ffffff;stroke:none"
       d="M 276.33370,-673.67220 L 267.59770,-681.80820 L 257.14970,-676.02380 L 262.18170,-686.85220 L 253.46170,-695.00020 L 265.30970,-693.56420 L 270.36570,-704.37620 L 272.65770,-692.65980 L 284.50170,-691.18820 L 274.06970,-685.39220 L 276.33370,-673.67220"
       id="path892" />
    <path
       style="fill:#ffffff;stroke:none"
       d="M 246.59370,-657.77620 L 237.62570,-665.65980 L 227.34970,-659.58820 L 232.07370,-670.54820 L 223.12570,-678.45620 L 235.00970,-677.34420 L 239.75770,-688.30020 L 242.37770,-676.65980 L 254.26170,-675.52380 L 243.99770,-669.43220 L 246.59370,-657.78380"
       id="path896" />
    <path
       style="fill:#ffffff;stroke:none"
       d="M 292.12570,-642.17220 L 282.10970,-648.66820 L 272.82570,-641.16420 L 275.90170,-652.69620 L 265.89770,-659.20420 L 277.81770,-659.84420 L 280.92170,-671.36780 L 285.20970,-660.22820 L 297.12970,-660.83580 L 287.86170,-653.31580 L 292.12570,-642.17220"
       id="path900" />
    <path
       style="fill:#ffffff;stroke:none"
       d="M 96.985700,-384.27620 L 83.765700,-384.27620"
       id="path952" />
    <path
       style="fill:#ffffff;stroke:none"
       d="M 60.129700,-427.04820 L 66.293700,-427.04820 L 66.293700,-433.83220 L 60.129700,-427.04820"
       id="path964" />
    <path
       style="fill:#ffffff;stroke:none"
       d="M 133.82170,-395.94020 L 127.65370,-395.94020 L 127.65370,-389.16020 L 133.82170,-395.94020"
       id="path968" />
    <path
       style="fill:#ffffff;stroke:none"
       d="M 96.985700,-393.55620 L 104.97770,-400.02420 L 119.20170,-400.02420 L 119.20170,-411.49620 L 113.95370,-411.49620 L 113.95370,-407.45620 L 106.26970,-402.39220 L 96.989700,-402.39220 L 96.989700,-393.56420"
       id="path1020" />
    <path
       style="fill:#ffffff;stroke:none"
       d="M 97.013700,-384.32420 L 109.96970,-384.32420 L 102.95770,-389.69620 L 102.95770,-386.66020 L 97.017700,-386.66020 L 97.017700,-384.32420"
       id="path1092" />
    <path
       style="fill:#ffffff;stroke:none"
       d="M 0.75770000,567.59820 L 850.94570,567.59820 L 850.94570,0.81020000 L 0.75770000,0.81020000 L 0.75770000,567.59820 z "
       id="path1116" />
    <path
       style="fill:#0018d1;stroke:none"
       d="M 850.94570,0.81020000 L 766.93370,0.81020000 L 426.59370,226.63820 L 86.253700,0.81020000 L 0.76170000,0.81020000 L 0.76170000,58.066200 L 340.70570,283.63020 L 0.76170000,509.19020 L 0.76170000,567.59820 L 84.521700,567.59820 L 426.59370,340.61420 L 768.66970,567.59820 L 850.94970,567.59820 L 850.94970,508.20620 L 512.48570,283.62220 L 850.94970,59.042200 L 850.94970,0.81020000"
       id="path1120" />
    <path
       style="fill:none;stroke:#0018d1;stroke-width:0.99959999"
       d="M 850.94570,0.81020000 L 766.93370,0.81020000 L 426.59370,226.63820 L 86.253700,0.81020000 L 0.76170000,0.81020000 L 0.76170000,58.066200 L 340.70570,283.63020 L 0.76170000,509.19020 L 0.76170000,567.59820 L 84.521700,567.59820 L 426.59370,340.61420 L 768.66970,567.59820 L 850.94970,567.59820 L 850.94970,508.20620 L 512.48570,283.62220 L 850.94970,59.042200 L 850.94970,0.81020000 L 850.94570,0.81020000 z "
       id="path1122" />
    <path
       style="fill:#ffd90f;stroke:none"
       d="M 552.96970,143.97420 C 552.96970,143.97420 552.96970,278.60620 552.96970,309.29420 C 552.96970,339.97420 542.07770,380.12220 505.38170,406.98220 C 479.70170,425.76220 439.62970,435.77820 425.84970,442.66620 C 412.07370,435.77820 369.48970,425.13820 346.31770,406.98220 C 310.52570,378.92620 298.72970,339.97420 298.72970,309.29420 C 298.72970,278.60620 298.72970,143.97420 298.72970,143.97420 L 552.96970,143.97420"
       id="path1124" />
    <path
       style="fill:none;stroke:#000000;stroke-width:1.2524000"
       d="M 552.96970,143.97420 C 552.96970,143.97420 552.96970,278.60620 552.96970,309.29420 C 552.96970,339.97420 542.07770,380.12220 505.38170,406.98220 C 479.70170,425.76220 439.62970,435.77820 425.84970,442.66620 C 412.07370,435.77820 369.48970,425.13820 346.31770,406.98220 C 310.52570,378.92620 298.72970,339.97420 298.72970,309.29420 C 298.72970,278.60620 298.72970,143.97420 298.72970,143.97420 L 552.96970,143.97420"
       id="path1126" />
    <path
       style="fill:#ff2020;stroke:none"
       d="M 534.15370,160.59020 L 315.34970,160.59020 L 315.34970,309.28620 C 315.34970,325.01020 319.36570,364.73020 356.57370,393.88620 C 370.42970,404.74620 394.30970,413.22220 411.74570,419.40220 C 417.18970,421.33820 421.32970,422.81820 425.03370,424.24620 L 425.82570,424.55820 L 426.62170,424.24620 C 430.22570,422.83820 434.23370,421.39420 439.50170,419.51020 C 456.51370,413.41820 479.81370,405.07420 495.55770,393.55020 C 532.36170,366.62220 536.33770,325.65420 536.33770,309.28620 L 536.33770,160.59020 L 534.14970,160.59020 L 534.15370,160.59020 z M 492.96970,390.01820 C 477.74170,401.16620 454.78970,409.38620 438.02970,415.38620 C 433.09770,417.15420 429.28170,418.52620 425.82570,419.86220 C 422.26570,418.50220 418.32170,417.09020 413.21370,415.27820 C 396.06170,409.19020 372.57370,400.86220 359.28170,390.44220 C 323.59370,362.46620 319.73770,324.37020 319.73770,309.28620 L 319.73770,164.97420 L 531.96570,164.97420 L 531.96570,309.28620 C 531.96570,324.98220 528.16570,364.27020 492.97770,390.01820"
       id="path1128" />
    <path
       style="fill:none;stroke:#000000;stroke-width:0.50080001"
       d="M 534.15370,160.59020 L 317.54570,160.59020 L 315.35370,160.59020 L 315.35370,162.78620 L 315.35370,309.28620 C 315.35370,325.01020 319.36970,364.73020 356.57770,393.88620 C 370.43370,404.74620 394.31370,413.22220 411.74970,419.40220 C 417.19370,421.33820 421.33370,422.81820 425.03770,424.24620 L 425.82970,424.55820 L 426.62570,424.24620 C 430.22970,422.83820 434.23770,421.39420 439.50570,419.51020 C 456.51770,413.41820 479.81770,405.07420 495.56170,393.55020 C 532.36970,366.62220 536.34570,325.65420 536.34570,309.28620 L 536.34570,162.77820 L 536.34570,160.59020 L 534.15370,160.59020 M 492.96970,390.01820 C 477.74170,401.16620 454.78970,409.38620 438.02970,415.38620 C 433.09770,417.15420 429.28170,418.52620 425.82570,419.86220 C 422.26570,418.50220 418.32170,417.09020 413.21370,415.27820 C 396.06170,409.19020 372.57370,400.86220 359.28170,390.44220 C 323.59370,362.46620 319.73770,324.37020 319.73770,309.28620 L 319.73770,164.97420 L 531.96570,164.97420 L 531.96570,309.28620 C 531.96570,324.98220 528.16570,364.27020 492.97770,390.01820 L 492.96970,390.01820 z "
       id="path1130" />
    <path
       style="fill:#ff2020;stroke:none"
       d="M 328.19370,171.23820 L 326.00570,171.23820 L 326.00570,309.28620 C 326.00570,323.45820 329.62570,359.23020 363.14970,385.51020 C 375.63770,395.29420 398.56970,403.42620 415.31770,409.37020 L 425.05770,412.87020 L 425.80570,413.13820 C 425.83770,413.13820 426.58170,412.87020 426.58170,412.87020 L 435.92170,409.48220 C 452.32170,403.61420 474.77370,395.56620 489.27370,384.96620 C 522.14570,360.91020 525.69370,324.02620 525.69370,309.28620 L 525.69370,171.23820 L 328.19370,171.23820 M 486.68570,381.42620 C 472.69770,391.66220 450.58970,399.57420 434.44570,405.35420 C 434.44570,405.35420 428.03770,407.68220 425.81370,408.49820 L 416.78170,405.23820 C 400.31770,399.40220 377.77770,391.40220 365.85370,382.05820 C 333.84570,356.97420 330.39370,322.81020 330.39370,309.29420 L 330.39370,175.63020 L 521.31370,175.63020 L 521.31370,309.29420 C 521.31370,323.36220 517.94170,358.55820 486.68970,381.43420"
       id="path1132" />
    <path
       style="fill:none;stroke:#000000;stroke-width:0.50080001"
       d="M 328.19370,171.23820 L 326.00570,171.23820 L 326.00570,173.43420 L 326.00570,309.28620 C 326.00570,323.45020 329.62570,359.23020 363.14970,385.51020 C 375.63770,395.29420 398.56970,403.42620 415.31770,409.37020 L 425.05770,412.87020 L 425.80570,413.13820 C 425.83770,413.13820 426.58170,412.87020 426.58170,412.87020 L 435.92170,409.48220 C 452.32170,403.61420 474.77370,395.56620 489.27370,384.95820 C 522.14570,360.91020 525.69370,324.02620 525.69370,309.28620 L 525.69370,173.43420 L 525.69370,171.23820 L 523.50570,171.23820 L 328.19370,171.23820 M 486.68570,381.42620 C 472.69770,391.66220 450.58970,399.57420 434.44570,405.35420 C 434.44570,405.35420 428.03770,407.68220 425.81370,408.49820 L 416.78170,405.23820 C 400.31770,399.40220 377.77770,391.40220 365.85370,382.05820 C 333.84570,356.97420 330.39370,322.81020 330.39370,309.29420 L 330.39370,175.63020 L 521.31370,175.63020 L 521.31370,309.29420 C 521.31370,323.36220 517.94170,358.55820 486.68970,381.43420 L 486.68570,381.42620 z "
       id="path1134" />
    <path
       style="fill:#ff2020;stroke:none"
       d="M 413.53370,249.17420 C 403.72170,245.83420 397.24970,239.15420 394.53770,232.26220 C 391.82570,225.37820 385.77370,215.04220 381.07370,212.54220 C 376.37770,210.03420 372.49370,207.17420 374.18570,203.45820 C 375.75370,200.01020 376.06570,197.81820 374.50170,195.94220 C 372.93370,194.06620 370.11770,192.50220 368.86570,194.69020 C 367.61370,196.88620 368.23770,196.57420 367.61370,198.13820 C 366.36570,195.31820 363.22970,193.13020 361.34970,195.00220 C 359.46970,196.88620 359.15770,196.88620 359.46970,199.69820 C 356.64970,198.45020 354.46170,199.07420 354.46170,201.88620 C 354.46170,204.70620 355.71370,208.15420 358.53370,207.21420 C 361.34970,206.27820 362.60170,205.01820 362.60170,205.01820 C 362.91370,206.58220 361.03370,210.33820 365.10970,211.91020 C 361.66570,211.91020 357.90970,211.91020 357.59370,213.79420 C 357.28170,215.66620 356.02970,218.80220 358.84570,220.67420 C 361.66570,222.55820 361.97770,220.36220 362.60170,218.17420 C 364.16570,218.49020 366.67370,216.30220 368.23770,217.86220 C 369.80570,219.42620 371.99770,224.74620 372.62170,226.95020 C 373.24970,229.13820 374.18570,225.05820 374.18570,223.49820 C 374.18570,227.87820 374.50170,232.26220 374.50170,232.26220 C 375.12970,230.69820 376.06570,228.19020 376.06570,228.19020 C 376.06570,231.63820 375.75370,236.01820 376.68970,238.83820 C 377.94170,236.33020 379.19370,235.08220 379.19370,233.19820 C 378.88170,239.15420 377.31370,241.66220 378.25770,246.98220 C 379.82170,245.41820 380.76170,243.22220 382.01370,240.71420 C 379.82570,246.35420 380.44970,249.49020 382.01370,252.93420 C 382.64170,250.42620 384.51770,249.49020 384.20170,247.61420 C 382.95770,250.73820 382.95770,255.13020 385.45370,257.31820 C 385.45370,254.18220 387.33370,255.12220 387.02170,252.93420 C 386.39370,256.69020 386.70570,257.00220 388.58570,259.82620 C 390.46570,262.63820 392.65770,263.26220 392.65770,266.70620 C 397.04170,268.90220 413.73770,254.81020 413.53370,249.17420"
       id="path1136" />
    <path
       style="fill:none;stroke:#000000;stroke-width:0.50080001"
       d="M 413.53370,249.17420 C 403.72170,245.83420 397.24970,239.15420 394.53770,232.26220 C 391.82570,225.37820 385.77370,215.04220 381.07370,212.54220 C 376.37770,210.03420 372.49370,207.17420 374.18570,203.45820 C 375.75370,200.01020 376.06570,197.81820 374.50170,195.94220 C 372.93370,194.06620 370.11770,192.50220 368.86570,194.69020 C 367.61370,196.88620 368.23770,196.57420 367.61370,198.13820 C 366.36570,195.31820 363.22970,193.13020 361.34970,195.00220 C 359.46970,196.88620 359.15770,196.88620 359.46970,199.69820 C 356.64970,198.45020 354.46170,199.07420 354.46170,201.88620 C 354.46170,204.70620 355.71370,208.15420 358.53370,207.21420 C 361.34970,206.27820 362.60170,205.01820 362.60170,205.01820 C 362.91370,206.58220 361.03370,210.33820 365.10970,211.91020 C 361.66570,211.91020 357.90970,211.91020 357.59370,213.79420 C 357.28170,215.66620 356.02970,218.80220 358.84570,220.67420 C 361.66570,222.55820 361.97770,220.36220 362.60170,218.17420 C 364.16570,218.49020 366.67370,216.30220 368.23770,217.86220 C 369.80570,219.42620 371.99770,224.74620 372.62170,226.95020 C 373.24970,229.13820 374.18570,225.05820 374.18570,223.49820 C 374.18570,227.87820 374.50170,232.26220 374.50170,232.26220 C 375.12970,230.69820 376.06570,228.19020 376.06570,228.19020 C 376.06570,231.63820 375.75370,236.01820 376.68970,238.83820 C 377.94170,236.33020 379.19370,235.08220 379.19370,233.19820 C 378.88170,239.15420 377.31370,241.66220 378.25770,246.98220 C 379.82170,245.41820 380.76170,243.22220 382.01370,240.71420 C 379.82570,246.35420 380.44970,249.49020 382.01370,252.93420 C 382.64170,250.42620 384.51770,249.49020 384.20170,247.61420 C 382.95770,250.73820 382.95770,255.13020 385.45370,257.31820 C 385.45370,254.18220 387.33370,255.12220 387.02170,252.93420 C 386.39370,256.69020 386.70570,257.00220 388.58570,259.82620 C 390.46570,262.63820 392.65770,263.26220 392.65770,266.70620 C 397.04170,268.90220 413.73770,254.81020 413.53370,249.17420 z "
       id="path1138" />
    <path
       style="fill:#ff2020;stroke:none"
       d="M 438.68570,304.59020 C 434.61370,304.59020 431.79770,303.96620 428.35770,304.90220 C 424.60170,301.46620 418.96570,301.14620 414.89370,303.65420 C 410.81770,306.16220 407.00170,312.01820 400.17370,308.03420 C 396.41770,305.84620 398.91770,301.15420 400.48970,299.89420 C 395.16570,300.52620 391.72170,305.22220 397.04570,310.85420 C 393.60170,308.98220 390.46970,312.10620 385.45770,305.21420 C 385.77370,311.48220 389.52570,316.80220 398.91770,313.99020 C 391.09370,316.17420 395.47370,323.37820 386.39770,320.87020 C 390.15370,325.57420 395.47770,323.37820 398.91770,318.05020 C 397.98170,322.13020 397.66970,321.81820 398.91770,324.63020 C 402.04970,321.18220 402.98970,324.94220 406.12170,323.06620 C 404.55770,326.19020 406.12170,329.64620 407.68970,331.83420 C 409.25370,334.01820 409.88170,334.33820 408.00170,336.83820 C 400.80170,336.21420 390.46970,334.96620 387.02570,335.90220 C 383.89370,333.39420 382.95370,332.15420 380.44970,330.89420 C 380.76170,326.51020 379.82570,324.32620 377.31770,325.57420 C 374.81370,326.82620 374.18570,326.82620 373.87370,329.64620 C 371.36570,328.07420 370.11370,328.38620 368.86170,330.89420 C 367.60970,333.39420 368.54970,333.71420 369.17770,335.59020 C 366.98570,337.77820 367.29770,342.16620 368.54970,343.41020 C 369.80570,344.66620 371.36970,344.98220 372.62170,342.16220 C 375.75370,342.16220 380.13370,343.09820 382.64170,342.16220 C 382.01370,343.72220 380.13370,344.34620 379.19770,345.28620 C 375.44170,345.91020 373.87370,348.10620 375.44170,350.30220 C 377.00570,352.49020 378.57370,353.12220 380.44970,352.80220 C 382.32570,352.49020 383.57770,351.55020 382.95770,348.73020 C 384.52170,346.85420 386.20170,343.24620 387.96570,344.66220 C 391.09770,347.16620 387.64970,349.04220 393.60570,351.55020 C 392.97770,349.67420 397.67770,349.67420 397.04970,348.10620 C 398.60970,351.86220 399.86170,352.49020 402.36570,354.68220 C 403.61770,352.81020 406.12570,351.55020 405.49770,349.67420 C 407.37770,354.05020 410.50970,354.68220 410.81770,357.18220 C 413.63770,354.05020 414.57770,352.80220 414.26170,349.35420 C 416.45370,354.67420 418.01770,356.24620 420.52570,353.73820 C 423.02970,351.23020 423.65370,350.29420 423.65370,350.29420 C 426.78570,352.49020 430.22970,350.92620 432.42170,345.91020 C 428.03770,348.10620 425.21770,348.41820 422.40170,345.59820 C 421.14570,342.15420 419.89370,341.52620 420.52170,337.14620 C 421.14570,332.76220 424.90570,324.93420 435.23770,325.55820 C 445.57370,326.18220 445.88570,302.38620 438.68170,304.58220"
       id="path1140" />
    <path
       style="fill:none;stroke:#000000;stroke-width:0.50080001"
       d="M 438.68570,304.59020 C 434.61370,304.59020 431.79770,303.96620 428.35770,304.90220 C 424.60170,301.46620 418.96570,301.14620 414.89370,303.65420 C 410.81770,306.16220 407.00170,312.01820 400.17370,308.03420 C 396.41770,305.84620 398.91770,301.15420 400.48970,299.89420 C 395.16570,300.52620 391.72170,305.22220 397.04570,310.85420 C 393.60170,308.98220 390.46970,312.10620 385.45770,305.21420 C 385.77370,311.48220 389.52570,316.80220 398.91770,313.99020 C 391.09370,316.17420 395.47370,323.37820 386.39770,320.87020 C 390.15370,325.57420 395.47770,323.37820 398.91770,318.05020 C 397.98170,322.13020 397.66970,321.81820 398.91770,324.63020 C 402.04970,321.18220 402.98970,324.94220 406.12170,323.06620 C 404.55770,326.19020 406.12170,329.64620 407.68970,331.83420 C 409.25370,334.01820 409.88170,334.33820 408.00170,336.83820 C 400.80170,336.21420 390.46970,334.96620 387.02570,335.90220 C 383.89370,333.39420 382.95370,332.15420 380.44970,330.89420 C 380.76170,326.51020 379.82570,324.32620 377.31770,325.57420 C 374.81370,326.82620 374.18570,326.82620 373.87370,329.64620 C 371.36570,328.07420 370.11370,328.38620 368.86170,330.89420 C 367.60970,333.39420 368.54970,333.71420 369.17770,335.59020 C 366.98570,337.77820 367.29770,342.16620 368.54970,343.41020 C 369.80570,344.66620 371.36970,344.98220 372.62170,342.16220 C 375.75370,342.16220 380.13370,343.09820 382.64170,342.16220 C 382.01370,343.72220 380.13370,344.34620 379.19770,345.28620 C 375.44170,345.91020 373.87370,348.10620 375.44170,350.30220 C 377.00570,352.49020 378.57370,353.12220 380.44970,352.80220 C 382.32570,352.49020 383.57770,351.55020 382.95770,348.73020 C 384.52170,346.85420 386.20170,343.24620 387.96570,344.66220 C 391.09770,347.16620 387.64970,349.04220 393.60570,351.55020 C 392.97770,349.67420 397.67770,349.67420 397.04970,348.10620 C 398.60970,351.86220 399.86170,352.49020 402.36570,354.68220 C 403.61770,352.81020 406.12570,351.55020 405.49770,349.67420 C 407.37770,354.05020 410.50970,354.68220 410.81770,357.18220 C 413.63770,354.05020 414.57770,352.80220 414.26170,349.35420 C 416.45370,354.67420 418.01770,356.24620 420.52570,353.73820 C 423.02970,351.23020 423.65370,350.29420 423.65370,350.29420 C 426.78570,352.49020 430.22970,350.92620 432.42170,345.91020 C 428.03770,348.10620 425.21770,348.41820 422.40170,345.59820 C 421.14570,342.15420 419.89370,341.52620 420.52170,337.14620 C 421.14570,332.76220 424.90570,324.93420 435.23770,325.55820 C 445.57370,326.18220 445.88570,302.38620 438.68170,304.58220 L 438.68570,304.59020 z "
       id="path1142" />
    <path
       style="fill:#ff2020;stroke:none"
       d="M 510.07370,202.51820 C 508.19370,205.96620 504.43770,206.89420 501.93370,205.96620 C 499.42970,205.02620 498.17770,204.08220 497.23770,201.57420 C 496.46970,199.52620 495.35770,195.31820 490.97770,195.63020 C 494.73370,193.13020 495.98570,189.37020 492.22970,185.30220 C 490.03770,193.44220 489.40970,191.87820 477.82570,195.00220 C 466.24170,198.13820 461.41370,209.10620 462.17370,221.31020 C 462.80170,231.33020 465.61770,238.21420 476.26570,248.55020 C 487.74170,259.69020 493.79370,265.45820 493.79370,278.29420 C 490.98170,271.09020 485.34170,270.77820 481.27370,269.21420 C 477.20570,267.64620 476.88970,262.63820 479.70970,258.25420 C 471.56970,259.82620 472.19370,267.01820 475.64170,270.46620 C 473.13770,271.09020 472.82170,271.71420 472.19370,274.22220 C 468.43770,275.47420 465.93370,274.53420 462.80170,270.46620 C 461.23770,276.41020 464.36970,278.29420 469.69370,278.29420 C 461.86570,282.67420 463.11770,293.31820 469.69370,295.19820 C 464.99770,290.50220 469.06570,285.18220 471.88170,282.05020 C 470.94570,289.24620 478.45770,289.87820 480.64970,285.81020 C 475.32570,286.12220 475.95370,277.04220 483.15770,277.04220 C 489.68970,277.04220 493.80170,283.93420 493.48170,289.87820 C 493.17370,295.82620 488.16570,305.84620 476.88970,305.53420 C 466.91370,305.26220 461.84570,298.85420 457.76970,293.69020 C 456.95770,289.94220 455.97370,286.42620 454.97370,284.24620 C 451.52970,276.73020 441.82170,266.71420 439.63370,257.94220 C 437.48970,249.37020 400.49370,258.57420 400.49370,258.57420 C 397.98570,261.08220 394.54570,263.89420 391.41370,266.71420 C 388.28170,269.53420 372.62570,278.61420 369.49770,282.99820 C 366.36970,283.62220 362.92570,283.93420 360.73370,286.44220 C 357.60170,286.44220 351.65370,285.49820 351.65370,285.49820 C 350.08570,282.05820 346.32570,281.74620 345.38970,284.56620 C 344.45370,287.37820 344.13770,290.51020 350.08570,289.26220 L 353.52570,289.88620 C 350.39770,292.08220 349.45770,292.08220 347.58170,293.64620 C 344.13770,293.64620 339.75370,293.95820 341.00970,298.02620 C 342.26170,302.09820 342.88570,301.47420 346.01770,301.16220 C 349.14970,300.84620 350.08970,299.91020 350.39770,297.09020 C 352.90170,296.14620 354.15770,296.77820 356.66170,294.90220 C 356.34570,298.65420 355.40970,301.16220 355.40970,301.16220 C 352.27770,302.41020 351.02570,304.91820 353.21770,306.79420 C 355.40970,308.67420 357.60170,309.30220 359.16570,307.11420 C 360.72970,304.92620 360.72970,303.98220 359.79370,301.47420 C 360.72970,298.97420 362.30170,295.83820 363.86170,294.90220 C 365.42570,293.96620 366.46170,293.69020 366.05370,295.52620 C 364.80170,301.16220 367.93370,301.16220 366.36970,305.23020 C 370.12170,301.16220 372.62970,298.66220 371.37770,293.96620 C 372.94170,298.34620 373.56970,298.97420 373.56970,298.97420 C 375.44970,296.47420 374.82170,294.27820 374.19370,292.08220 C 376.07370,295.21420 376.70170,296.46620 376.70170,296.46620 C 377.63770,294.90220 378.58170,294.90220 378.26570,292.08220 C 380.14570,294.59020 381.39770,294.90220 382.96170,295.21420 C 381.39770,293.33020 383.27370,292.40220 382.96170,290.20620 C 383.89770,293.96620 387.34570,295.21420 390.47370,294.27820 C 387.54970,292.41820 388.44170,290.77820 387.44570,289.17420 C 389.16170,291.17420 391.14570,293.25420 393.60570,292.70620 C 391.72170,291.45820 393.60570,289.27020 392.34970,287.38620 C 394.22970,290.20620 395.16970,291.45820 399.54970,290.83420 C 397.04970,289.27020 398.92170,287.69820 397.04970,286.13820 C 398.92570,288.32620 401.74570,289.57420 406.12970,289.88620 C 405.36170,288.09820 406.88170,287.13820 406.94170,286.16220 C 407.72970,288.87820 407.98570,288.75420 407.69770,290.19820 C 410.51770,287.69020 412.70570,286.76220 413.33370,285.19020 C 415.83770,289.57420 418.72570,292.19020 421.47370,293.95820 C 425.85770,296.77820 433.99370,295.51820 437.12570,300.22220 C 439.62970,303.66620 438.68970,308.99020 436.81370,314.62220 C 434.93770,320.26220 434.62170,325.89420 437.74970,331.21420 C 440.87770,336.53420 443.69770,341.55020 441.50570,344.68220 C 439.31370,347.81820 432.11370,349.06620 435.56170,357.20620 C 436.18970,352.82620 436.49770,352.51020 439.31370,350.94220 C 439.31370,355.01820 438.68970,357.83420 442.12970,360.02620 C 441.50970,356.27020 442.44570,354.69820 443.69770,352.82620 C 445.88970,356.58220 447.45370,358.14620 451.20970,355.95020 C 449.01770,354.69820 443.69770,351.56620 446.82970,345.93420 C 449.95770,349.69020 453.08970,350.94220 454.96970,350.00220 C 456.84970,349.06620 459.04170,349.37820 462.79770,342.81020 C 461.86170,347.81820 462.48570,350.94220 465.30170,354.07420 C 462.16970,356.26220 460.29370,362.21420 459.66570,364.72220 C 459.03770,367.22220 457.78570,367.22220 455.58970,367.85420 C 453.40170,368.48220 453.71370,365.34620 451.20970,365.34620 C 448.70570,365.34620 446.82970,369.10620 447.44970,371.60620 C 448.07370,374.11420 448.38970,375.36220 449.32970,375.99020 C 446.82970,377.55820 447.13770,379.75420 449.01770,381.94220 C 450.89770,384.13020 451.52170,382.55820 453.08970,382.25420 C 455.28170,385.38620 459.03770,387.57420 460.28970,384.76220 C 461.54570,381.94220 459.97370,379.12220 460.28970,376.93420 C 460.60170,374.73820 464.67370,374.11420 465.92570,372.23820 C 467.18170,375.05020 467.49370,377.55820 467.49370,377.55820 C 466.86570,380.37020 466.86570,384.13020 470.93770,381.63020 C 475.00570,379.12220 476.25770,378.49820 475.62970,374.73820 C 475.00170,370.98220 472.49770,372.23820 470.93770,372.85420 C 471.24570,370.66620 471.86970,369.10620 470.62170,365.96620 C 475.00570,367.53420 477.51370,367.22220 480.64170,362.83820 C 477.19770,362.52620 476.56970,360.33020 473.12970,360.01820 C 479.07370,360.01820 482.82970,359.08220 484.08170,353.75420 C 481.46170,355.19020 479.92970,352.81020 478.23370,352.55820 C 481.18970,351.83820 484.75770,352.09820 486.58970,348.43420 C 484.22970,349.74620 482.52170,345.78620 480.36570,345.76220 C 484.40570,344.29420 486.11370,343.78620 487.53370,341.23020 C 485.02970,341.54220 483.14970,337.47420 480.33370,339.98220 C 482.83770,336.84620 489.10170,338.72220 490.03370,334.97420 C 487.53370,335.28620 485.02570,334.65420 483.77370,332.46620 C 482.52170,330.27020 482.21370,327.45820 480.33370,327.45820 C 482.83770,327.77020 484.40170,327.45820 484.40170,327.45820 C 480.96170,325.58220 478.76970,322.76220 479.39370,317.43420 C 475.63770,322.13020 469.37770,326.19820 465.92970,325.58220 C 462.48570,324.95020 458.41770,322.76220 458.72970,317.75420 C 458.99370,313.54220 459.68570,312.61420 459.72170,308.91820 C 463.52170,311.91020 469.20970,314.38620 478.14570,313.05820 C 492.85770,310.87020 501.94170,299.27820 501.31370,283.62220 C 500.68970,267.97420 496.63770,259.80220 483.46570,247.61420 C 470.94570,236.03420 468.71770,230.70620 468.12570,219.74620 C 467.50170,208.16220 473.13770,200.65420 479.39770,198.77020 C 483.85770,197.43420 485.96970,202.21420 483.77770,205.34620 C 481.59370,208.48220 481.27370,213.49020 483.15770,217.24620 C 485.34570,216.62220 485.66170,215.67420 488.47770,213.49020 C 483.78170,217.87020 482.21770,223.81820 484.40570,229.45820 C 486.59770,235.09020 492.54570,234.46620 495.35770,234.46620 C 491.28970,226.95820 497.23770,224.45020 497.23770,218.49820 C 498.17770,225.69820 501.62170,228.20620 507.56970,224.45020 C 502.87770,224.13020 502.24970,218.81020 503.18570,215.99820 C 504.12570,213.17420 506.00570,212.55020 503.18570,209.10620 C 508.50970,210.98220 510.07370,206.59820 510.07370,202.52620"
       id="path1144" />
    <path
       style="fill:none;stroke:#000000;stroke-width:0.50080001"
       d="M 510.07370,202.51820 C 508.19370,205.96620 504.43770,206.89420 501.93370,205.96620 C 499.42970,205.02620 498.17770,204.08220 497.23770,201.57420 C 496.46970,199.52620 495.35770,195.31820 490.97770,195.63020 C 494.73370,193.13020 495.98570,189.37020 492.22970,185.30220 C 490.03770,193.44220 489.40970,191.87820 477.82570,195.00220 C 466.24170,198.13820 461.41370,209.10620 462.17370,221.31020 C 462.80170,231.33020 465.61770,238.21420 476.26570,248.55020 C 487.74170,259.69020 493.79370,265.45820 493.79370,278.29420 C 490.98170,271.09020 485.34170,270.77820 481.27370,269.21420 C 477.20570,267.64620 476.88970,262.63820 479.70970,258.25420 C 471.56970,259.82620 472.19370,267.01820 475.64170,270.46620 C 473.13770,271.09020 472.82170,271.71420 472.19370,274.22220 C 468.43770,275.47420 465.93370,274.53420 462.80170,270.46620 C 461.23770,276.41020 464.36970,278.29420 469.69370,278.29420 C 461.86570,282.67420 463.11770,293.31820 469.69370,295.19820 C 464.99770,290.50220 469.06570,285.18220 471.88170,282.05020 C 470.94570,289.24620 478.45770,289.87820 480.64970,285.81020 C 475.32570,286.12220 475.95370,277.04220 483.15770,277.04220 C 489.68970,277.04220 493.80170,283.93420 493.48170,289.87820 C 493.17370,295.82620 488.16570,305.84620 476.88970,305.53420 C 466.91370,305.26220 461.84570,298.85420 457.76970,293.69020 C 456.95770,289.94220 455.97370,286.42620 454.97370,284.24620 C 451.52970,276.73020 441.82170,266.71420 439.63370,257.94220 C 437.48970,249.37020 400.49370,258.57420 400.49370,258.57420 C 397.98570,261.08220 394.54570,263.89420 391.41370,266.71420 C 388.28170,269.53420 372.62570,278.61420 369.49770,282.99820 C 366.36970,283.62220 362.92570,283.93420 360.73370,286.44220 C 357.60170,286.44220 351.65370,285.49820 351.65370,285.49820 C 350.08570,282.05820 346.32570,281.74620 345.38970,284.56620 C 344.45370,287.37820 344.13770,290.51020 350.08570,289.26220 L 353.52570,289.88620 C 350.39770,292.08220 349.45770,292.08220 347.58170,293.64620 C 344.13770,293.64620 339.75370,293.95820 341.00970,298.02620 C 342.26170,302.09820 342.88570,301.47420 346.01770,301.16220 C 349.14970,300.84620 350.08970,299.91020 350.39770,297.09020 C 352.90170,296.14620 354.15770,296.77820 356.66170,294.90220 C 356.34570,298.65420 355.40970,301.16220 355.40970,301.16220 C 352.27770,302.41020 351.02570,304.91820 353.21770,306.79420 C 355.40970,308.67420 357.60170,309.30220 359.16570,307.11420 C 360.72970,304.92620 360.72970,303.98220 359.79370,301.47420 C 360.72970,298.97420 362.30170,295.83820 363.86170,294.90220 C 365.42570,293.96620 366.46170,293.69020 366.05370,295.52620 C 364.80170,301.16220 367.93370,301.16220 366.36970,305.23020 C 370.12170,301.16220 372.62970,298.66220 371.37770,293.96620 C 372.94170,298.34620 373.56970,298.97420 373.56970,298.97420 C 375.44970,296.47420 374.82170,294.27820 374.19370,292.08220 C 376.07370,295.21420 376.70170,296.46620 376.70170,296.46620 C 377.63770,294.90220 378.58170,294.90220 378.26570,292.08220 C 380.14570,294.59020 381.39770,294.90220 382.96170,295.21420 C 381.39770,293.33020 383.27370,292.40220 382.96170,290.20620 C 383.89770,293.96620 387.34570,295.21420 390.47370,294.27820 C 387.54970,292.41820 388.44170,290.77820 387.44570,289.17420 C 389.16170,291.17420 391.14570,293.25420 393.60570,292.70620 C 391.72170,291.45820 393.60570,289.27020 392.34970,287.38620 C 394.22970,290.20620 395.16970,291.45820 399.54970,290.83420 C 397.04970,289.27020 398.92170,287.69820 397.04970,286.13820 C 398.92570,288.32620 401.74570,289.57420 406.12970,289.88620 C 405.36170,288.09820 406.88170,287.13820 406.94170,286.16220 C 407.72970,288.87820 407.98570,288.75420 407.69770,290.19820 C 410.51770,287.69020 412.70570,286.76220 413.33370,285.19020 C 415.83770,289.57420 418.72570,292.19020 421.47370,293.95820 C 425.85770,296.77820 433.99370,295.51820 437.12570,300.22220 C 439.62970,303.66620 438.68970,308.99020 436.81370,314.62220 C 434.93770,320.26220 434.62170,325.89420 437.74970,331.21420 C 440.87770,336.53420 443.69770,341.55020 441.50570,344.68220 C 439.31370,347.81820 432.11370,349.06620 435.56170,357.20620 C 436.18970,352.82620 436.49770,352.51020 439.31370,350.94220 C 439.31370,355.01820 438.68970,357.83420 442.12970,360.02620 C 441.50970,356.27020 442.44570,354.69820 443.69770,352.82620 C 445.88970,356.58220 447.45370,358.14620 451.20970,355.95020 C 449.01770,354.69820 443.69770,351.56620 446.82970,345.93420 C 449.95770,349.69020 453.08970,350.94220 454.96970,350.00220 C 456.84970,349.06620 459.04170,349.37820 462.79770,342.81020 C 461.86170,347.81820 462.48570,350.94220 465.30170,354.07420 C 462.16970,356.26220 460.29370,362.21420 459.66570,364.72220 C 459.03770,367.22220 457.78570,367.22220 455.58970,367.85420 C 453.40170,368.48220 453.71370,365.34620 451.20970,365.34620 C 448.70570,365.34620 446.82970,369.10620 447.44970,371.60620 C 448.07370,374.11420 448.38970,375.36220 449.32970,375.99020 C 446.82970,377.55820 447.13770,379.75420 449.01770,381.94220 C 450.89770,384.13020 451.52170,382.55820 453.08970,382.25420 C 455.28170,385.38620 459.03770,387.57420 460.28970,384.76220 C 461.54570,381.94220 459.97370,379.12220 460.28970,376.93420 C 460.60170,374.73820 464.67370,374.11420 465.92570,372.23820 C 467.18170,375.05020 467.49370,377.55820 467.49370,377.55820 C 466.86570,380.37020 466.86570,384.13020 470.93770,381.63020 C 475.00570,379.12220 476.25770,378.49820 475.62970,374.73820 C 475.00170,370.98220 472.49770,372.23820 470.93770,372.85420 C 471.24570,370.66620 471.86970,369.10620 470.62170,365.96620 C 475.00570,367.53420 477.51370,367.22220 480.64170,362.83820 C 477.19770,362.52620 476.56970,360.33020 473.12970,360.01820 C 479.07370,360.01820 482.82970,359.08220 484.08170,353.75420 C 481.46170,355.19020 479.92970,352.81020 478.23370,352.55820 C 481.18970,351.83820 484.75770,352.09820 486.58970,348.43420 C 484.22970,349.74620 482.52170,345.78620 480.36570,345.76220 C 484.40570,344.29420 486.11370,343.78620 487.53370,341.23020 C 485.02970,341.54220 483.14970,337.47420 480.33370,339.98220 C 482.83770,336.84620 489.10170,338.72220 490.03370,334.97420 C 487.53370,335.28620 485.02570,334.65420 483.77370,332.46620 C 482.52170,330.27020 482.21370,327.45820 480.33370,327.45820 C 482.83770,327.77020 484.40170,327.45820 484.40170,327.45820 C 480.96170,325.58220 478.76970,322.76220 479.39370,317.43420 C 475.63770,322.13020 469.37770,326.19820 465.92970,325.58220 C 462.48570,324.95020 458.41770,322.76220 458.72970,317.75420 C 458.99370,313.54220 459.68570,312.61420 459.72170,308.91820 C 463.52170,311.91020 469.20970,314.38620 478.14570,313.05820 C 492.85770,310.87020 501.94170,299.27820 501.31370,283.62220 C 500.68970,267.97420 496.63770,259.80220 483.46570,247.61420 C 470.94570,236.03420 468.71770,230.70620 468.12570,219.74620 C 467.50170,208.16220 473.13770,200.65420 479.39770,198.77020 C 483.85770,197.43420 485.96970,202.21420 483.77770,205.34620 C 481.59370,208.48220 481.27370,213.49020 483.15770,217.24620 C 485.34570,216.62220 485.66170,215.67420 488.47770,213.49020 C 483.78170,217.87020 482.21770,223.81820 484.40570,229.45820 C 486.59770,235.09020 492.54570,234.46620 495.35770,234.46620 C 491.28970,226.95820 497.23770,224.45020 497.23770,218.49820 C 498.17770,225.69820 501.62170,228.20620 507.56970,224.45020 C 502.87770,224.13020 502.24970,218.81020 503.18570,215.99820 C 504.12570,213.17420 506.00570,212.55020 503.18570,209.10620 C 508.50970,210.98220 510.07370,206.59820 510.07370,202.52620 L 510.07370,202.51820 z "
       id="path1146" />
    <path
       style="fill:#00ffff;stroke:none"
       d="M 427.10170,226.31820 C 423.03370,225.37820 419.27370,225.37820 414.89370,225.69020 C 410.50970,226.00220 402.68170,220.67420 404.86970,214.73020 C 401.74170,216.30220 400.17370,220.37020 403.30570,225.05820 C 406.43770,229.76220 410.19370,229.44220 415.51370,229.13020 C 420.83770,228.82620 424.90970,228.19820 428.35370,230.69820 C 431.79770,233.20620 430.22970,226.94220 427.09770,226.31820"
       id="path1148" />
    <path
       style="fill:none;stroke:#000000;stroke-width:0.50000000"
       d="M 427.10170,226.31820 C 423.03370,225.37820 419.27370,225.37820 414.89370,225.69020 C 410.50970,226.00220 402.68170,220.67420 404.86970,214.73020 C 401.74170,216.30220 400.17370,220.37020 403.30570,225.05820 C 406.43770,229.76220 410.19370,229.44220 415.51370,229.13020 C 420.83770,228.82620 424.90970,228.19820 428.35370,230.69820 C 431.79770,233.20620 430.22970,226.94220 427.09770,226.31820 L 427.10170,226.31820 z "
       id="path1150" />
    <path
       style="fill:#ff2020;stroke:none"
       d="M 413.94970,220.67420 C 413.32170,222.24620 413.63370,224.44220 415.82970,226.31820 C 416.76570,223.81820 416.76570,221.62220 418.02170,220.67420 C 416.14170,219.74620 413.94970,220.67420 413.94970,220.67420"
       id="path1152" />
    <path
       style="fill:none;stroke:#000000;stroke-width:0.50080001"
       d="M 413.94970,220.67420 C 413.32170,222.24620 413.63370,224.44220 415.82970,226.31820 C 416.76570,223.81820 416.76570,221.62220 418.02170,220.67420 C 416.14170,219.74620 413.94970,220.67420 413.94970,220.67420 z "
       id="path1154" />
    <path
       style="fill:#ff2020;stroke:none"
       d="M 415.51370,229.13020 C 414.88970,230.06620 414.57770,232.57420 414.88970,233.83420 C 416.45370,234.76220 418.01770,234.45820 418.96170,233.83420 C 417.39370,231.95020 415.82970,231.01020 415.51370,229.13020"
       id="path1156" />
    <path
       style="fill:none;stroke:#000000;stroke-width:0.50080001"
       d="M 415.51370,229.13020 C 414.88970,230.06620 414.57770,232.57420 414.88970,233.83420 C 416.45370,234.76220 418.01770,234.45820 418.96170,233.83420 C 417.39370,231.95020 415.82970,231.01020 415.51370,229.13020 z "
       id="path1158" />
    <path
       style="fill:#ff2020;stroke:none"
       d="M 436.18170,198.45020 C 433.98970,201.57420 430.85770,203.77020 428.35370,204.08220 C 425.84570,204.39420 422.08970,203.77020 421.14970,205.65420 C 420.20970,207.52620 419.26970,207.83820 416.14170,207.83820 C 413.00970,207.83820 411.13370,208.46620 409.88170,208.15420 C 408.62970,207.83820 408.31770,210.03420 410.19370,211.91020 C 409.56570,214.41820 410.81770,216.29420 410.19370,217.85420 C 409.56570,219.42620 409.56570,220.67420 412.38570,220.99020 C 415.20170,221.30220 417.39370,221.92620 419.89770,220.67420 C 422.40570,219.42620 423.65370,220.67420 425.84570,219.73820 C 425.84570,221.93420 424.90970,226.31820 427.72570,229.44220 C 428.35370,230.69020 428.35370,231.95020 425.84570,232.57420 C 423.34170,233.19820 415.50970,233.51020 413.94570,232.57420 C 412.38170,231.63820 411.44170,231.01020 411.75370,233.51020 C 412.06570,236.01820 412.06570,238.51820 410.18570,240.09020 C 413.00170,240.71420 412.37770,239.77820 414.25770,237.90220 C 418.64170,238.83820 425.21770,239.15420 428.34970,237.27820 C 427.09370,240.71420 426.78170,243.53420 421.77370,243.53420 C 416.76170,243.53420 415.50970,244.16220 413.94570,247.29420 C 409.87770,247.91820 408.93770,248.54220 405.49370,250.10620 C 402.04970,251.67420 397.66970,251.04220 394.53770,250.41820 C 395.47370,253.23820 398.60970,255.74620 402.04970,255.74620 C 398.91770,256.67420 397.97770,260.12220 397.66970,262.00220 C 397.35370,263.88620 394.84970,265.76220 391.40570,266.69820 C 397.04170,267.01020 399.85770,265.76220 404.86570,259.81020 C 409.87770,253.86220 409.24970,256.67420 413.00570,255.73820 C 410.18970,257.62220 408.31370,257.92620 407.06170,260.74620 C 405.80570,263.56620 405.49370,264.81820 402.67770,265.13020 C 406.43370,267.63820 409.24970,267.01020 410.50570,263.87820 C 411.75770,260.74620 414.88970,258.55820 417.70570,258.24620 C 413.63370,260.43420 413.63370,260.75420 413.63370,263.87820 C 413.63370,267.01020 412.69770,270.45820 410.81370,269.19820 C 412.69370,272.64620 414.88970,272.96620 416.76170,270.77020 C 418.64170,268.57420 418.95770,266.37820 420.83370,264.81820 C 419.26970,267.63820 417.38970,271.39420 416.76170,272.64620 C 416.13770,273.89420 416.13770,275.46620 414.88570,276.71420 C 417.38970,277.03420 421.45770,276.40220 422.70970,274.52620 C 423.96170,272.64620 427.72170,265.13820 428.02970,261.05820 C 427.09370,268.26220 426.77370,269.51820 426.77370,271.38620 C 426.77370,273.27020 425.84170,275.77020 425.84170,275.77020 C 429.28170,275.77020 431.78570,274.20620 432.10570,270.45020 C 432.41770,266.69020 432.10570,265.44220 433.04170,261.99820 C 433.04170,266.37820 433.66970,267.00220 433.66970,270.45020 C 433.66970,273.89420 435.23370,275.45820 438.36570,276.39420 C 437.11370,273.26220 439.30170,272.32620 437.73770,268.56620 C 436.17370,264.81820 436.17370,264.18220 437.10970,261.99820 C 438.36170,266.06620 439.30170,265.75420 438.98970,268.88620 C 438.67370,272.01020 442.43370,275.14620 447.12970,273.89420 C 444.62170,271.38620 443.68570,265.75420 444.93770,257.92620 C 445.25370,267.32620 449.94970,270.45020 454.64570,265.75420 C 451.20170,264.81820 449.94970,262.93420 450.88970,257.92620 C 453.39370,260.43420 456.21370,259.49020 456.83770,256.04220 C 452.76570,255.42620 451.82970,251.97420 452.45370,250.09820 C 453.08170,248.22220 453.08170,246.96620 451.51370,245.09020 C 454.95770,246.02620 458.71370,246.65420 459.34170,242.58220 C 456.21370,242.58220 454.01770,241.64620 453.70570,238.82620 C 453.39370,236.01020 453.07770,233.81820 450.88970,231.94220 C 454.64570,232.87820 455.89770,232.56620 457.77770,228.49820 C 454.33370,229.12220 451.51370,227.55820 451.20170,224.11420 C 450.88970,220.66620 452.76570,216.91020 449.00970,215.02620 C 450.88970,213.46620 451.20170,212.21420 451.51370,209.39420 C 449.94970,210.95820 448.69370,212.83820 445.56570,212.21420 C 444.62970,207.51820 441.49770,203.44220 436.17770,203.75420 C 437.42970,201.56620 437.73770,201.56620 436.17770,198.44220"
       id="path1160" />
    <path
       style="fill:none;stroke:#000000;stroke-width:0.50080001"
       d="M 436.18170,198.45020 C 433.98970,201.57420 430.85770,203.77020 428.35370,204.08220 C 425.84570,204.39420 422.08970,203.77020 421.14970,205.65420 C 420.20970,207.52620 419.26970,207.83820 416.14170,207.83820 C 413.00970,207.83820 411.13370,208.46620 409.88170,208.15420 C 408.62970,207.83820 408.31770,210.03420 410.19370,211.91020 C 409.56570,214.41820 410.81770,216.29420 410.19370,217.85420 C 409.56570,219.42620 409.56570,220.67420 412.38570,220.99020 C 415.20170,221.30220 417.39370,221.92620 419.89770,220.67420 C 422.40570,219.42620 423.65370,220.67420 425.84570,219.73820 C 425.84570,221.93420 424.90970,226.31820 427.72570,229.44220 C 428.35370,230.69020 428.35370,231.95020 425.84570,232.57420 C 423.34170,233.19820 415.50970,233.51020 413.94570,232.57420 C 412.38170,231.63820 411.44170,231.01020 411.75370,233.51020 C 412.06570,236.01820 412.06570,238.51820 410.18570,240.09020 C 413.00170,240.71420 412.37770,239.77820 414.25770,237.90220 C 418.64170,238.83820 425.21770,239.15420 428.34970,237.27820 C 427.09370,240.71420 426.78170,243.53420 421.77370,243.53420 C 416.76170,243.53420 415.50970,244.16220 413.94570,247.29420 C 409.87770,247.91820 408.93770,248.54220 405.49370,250.10620 C 402.04970,251.67420 397.66970,251.04220 394.53770,250.41820 C 395.47370,253.23820 398.60970,255.74620 402.04970,255.74620 C 398.91770,256.67420 397.97770,260.12220 397.66970,262.00220 C 397.35370,263.88620 394.84970,265.76220 391.40570,266.69820 C 397.04170,267.01020 399.85770,265.76220 404.86570,259.81020 C 409.87770,253.86220 409.24970,256.67420 413.00570,255.73820 C 410.18970,257.62220 408.31370,257.92620 407.06170,260.74620 C 405.80570,263.56620 405.49370,264.81820 402.67770,265.13020 C 406.43370,267.63820 409.24970,267.01020 410.50570,263.87820 C 411.75770,260.74620 414.88970,258.55820 417.70570,258.24620 C 413.63370,260.43420 413.63370,260.75420 413.63370,263.87820 C 413.63370,267.01020 412.69770,270.45820 410.81370,269.19820 C 412.69370,272.64620 414.88970,272.96620 416.76170,270.77020 C 418.64170,268.57420 418.95770,266.37820 420.83370,264.81820 C 419.26970,267.63820 417.38970,271.39420 416.76170,272.64620 C 416.13770,273.89420 416.13770,275.46620 414.88570,276.71420 C 417.38970,277.03420 421.45770,276.40220 422.70970,274.52620 C 423.96170,272.64620 427.72170,265.13820 428.02970,261.05820 C 427.09370,268.26220 426.77370,269.51820 426.77370,271.38620 C 426.77370,273.27020 425.84170,275.77020 425.84170,275.77020 C 429.28170,275.77020 431.78570,274.20620 432.10570,270.45020 C 432.41770,266.69020 432.10570,265.44220 433.04170,261.99820 C 433.04170,266.37820 433.66970,267.00220 433.66970,270.45020 C 433.66970,273.89420 435.23370,275.45820 438.36570,276.39420 C 437.11370,273.26220 439.30170,272.32620 437.73770,268.56620 C 436.17370,264.81820 436.17370,264.18220 437.10970,261.99820 C 438.36170,266.06620 439.30170,265.75420 438.98970,268.88620 C 438.67370,272.01020 442.43370,275.14620 447.12970,273.89420 C 444.62170,271.38620 443.68570,265.75420 444.93770,257.92620 C 445.25370,267.32620 449.94970,270.45020 454.64570,265.75420 C 451.20170,264.81820 449.94970,262.93420 450.88970,257.92620 C 453.39370,260.43420 456.21370,259.49020 456.83770,256.04220 C 452.76570,255.42620 451.82970,251.97420 452.45370,250.09820 C 453.08170,248.22220 453.08170,246.96620 451.51370,245.09020 C 454.95770,246.02620 458.71370,246.65420 459.34170,242.58220 C 456.21370,242.58220 454.01770,241.64620 453.70570,238.82620 C 453.39370,236.01020 453.07770,233.81820 450.88970,231.94220 C 454.64570,232.87820 455.89770,232.56620 457.77770,228.49820 C 454.33370,229.12220 451.51370,227.55820 451.20170,224.11420 C 450.88970,220.66620 452.76570,216.91020 449.00970,215.02620 C 450.88970,213.46620 451.20170,212.21420 451.51370,209.39420 C 449.94970,210.95820 448.69370,212.83820 445.56570,212.21420 C 444.62970,207.51820 441.49770,203.44220 436.17770,203.75420 C 437.42970,201.56620 437.73770,201.56620 436.17770,198.44220 L 436.18170,198.45020 z "
       id="path1162" />
    <path
       style="fill:none;stroke:#000000;stroke-width:0.50080001"
       d="M 425.84970,216.30220 C 425.53770,218.80220 428.04170,221.93420 429.92170,223.18220"
       id="path1164" />
    <path
       style="fill:none;stroke:#000000;stroke-width:0.50080001"
       d="M 450.89770,231.95020 C 447.45370,230.06620 446.51370,228.19020 445.26170,225.05820"
       id="path1166" />
    <path
       style="fill:none;stroke:#000000;stroke-width:0.50080001"
       d="M 451.52570,245.10620 C 450.27770,243.84620 448.70570,242.91020 448.08170,240.71420"
       id="path1168" />
    <path
       style="fill:none;stroke:#000000;stroke-width:0.50080001"
       d="M 450.89770,257.94220 C 451.83770,252.92620 449.95770,249.80220 447.45370,248.23820"
       id="path1170" />
    <path
       style="fill:none;stroke:#000000;stroke-width:0.50080001"
       d="M 444.94570,257.94220 C 444.63370,255.43420 444.63370,251.67420 444.32170,250.73820"
       id="path1172" />
    <path
       style="fill:none;stroke:#000000;stroke-width:0.50080001"
       d="M 424.28170,246.98220 C 420.83770,247.91820 418.74970,247.91820 416.14170,248.54220 C 413.53370,249.17420 414.26170,249.80220 410.81770,251.99020 C 407.37370,254.18220 405.80970,255.12220 402.05370,255.74620"
       id="path1174" />
    <path
       style="fill:none;stroke:#000000;stroke-width:0.50080001"
       d="M 429.60570,289.24620 C 434.29770,293.32620 438.05770,298.33020 438.37370,303.02620"
       id="path1176" />
    <path
       style="fill:none;stroke:#000000;stroke-width:0.50080001"
       d="M 413.32570,285.17420 C 416.76970,286.43420 417.70970,286.43420 419.90170,286.12220"
       id="path1178" />
    <path
       style="fill:none;stroke:#000000;stroke-width:0.50080001"
       d="M 359.46970,199.69820 C 362.60170,200.95020 366.66970,204.08220 368.23370,206.89420"
       id="path1180" />
    <path
       style="fill:none;stroke:#000000;stroke-width:0.50080001"
       d="M 367.60970,198.13820 C 368.54970,200.63820 369.48970,202.20620 370.11370,204.08220"
       id="path1182" />
    <path
       style="fill:none;stroke:#000000;stroke-width:0.50080001"
       d="M 488.46970,213.48220 C 489.72170,211.28620 491.28570,210.34620 491.28570,208.16220"
       id="path1184" />
    <path
       style="fill:none;stroke:#000000;stroke-width:0.50080001"
       d="M 488.78570,223.49820 C 488.46970,228.19020 488.78570,231.63820 495.04970,233.51020"
       id="path1186" />
    <path
       style="fill:#000000;stroke:none"
       d="M 421.77770,210.66220 C 422.40570,209.41020 423.34170,208.47420 423.34170,208.47420 C 424.59370,209.72220 427.72570,210.66220 426.78570,212.54220 C 423.34170,213.16620 420.83770,211.91020 419.89770,210.66220 L 421.77770,210.66220"
       id="path1188" />
    <path
       style="fill:none;stroke:#000000;stroke-width:0.50080001"
       d="M 421.77770,210.66220 C 422.40570,209.41020 423.34170,208.47420 423.34170,208.47420 C 424.59370,209.72220 427.72570,210.66220 426.78570,212.54220 C 423.34170,213.16620 420.83770,211.91020 419.89770,210.66220 L 421.77770,210.66220"
       id="path1190" />
    <path
       style="fill:none;stroke:#000000;stroke-width:0.50080001"
       d="M 439.94170,211.28620 C 442.76170,211.59820 447.45370,213.48220 449.02170,215.04220"
       id="path1192" />
    <path
       style="fill:#00ffff;stroke:none"
       d="M 373.24970,195.00220 C 373.56170,192.18220 369.48970,189.37020 366.36170,189.37020 C 368.54970,191.25420 369.17770,192.50220 368.86170,194.69020 C 370.42970,196.87820 371.67770,196.87820 373.24570,195.00220"
       id="path1194" />
    <path
       style="fill:none;stroke:#000000;stroke-width:0.50000000"
       d="M 373.24970,195.00220 C 373.56170,192.18220 369.48970,189.37020 366.36170,189.37020 C 368.54970,191.25420 369.17770,192.50220 368.86170,194.69020 C 370.42970,196.87820 371.67770,196.87820 373.24570,195.00220 L 373.24970,195.00220 z "
       id="path1196" />
    <path
       style="fill:#00ffff;stroke:none"
       d="M 362.91370,194.69020 C 361.34970,193.13020 357.27770,190.93420 354.14970,195.00220 C 358.84570,195.94220 358.21770,195.94220 359.78570,197.82620 C 361.97770,196.87820 362.60170,196.87820 362.91370,194.69020"
       id="path1198" />
    <path
       style="fill:none;stroke:#000000;stroke-width:0.50000000"
       d="M 362.91370,194.69020 C 361.34970,193.13020 357.27770,190.93420 354.14970,195.00220 C 358.84570,195.94220 358.21770,195.94220 359.78570,197.82620 C 361.97770,196.87820 362.60170,196.87820 362.91370,194.69020 z "
       id="path1200" />
    <path
       style="fill:#00ffff;stroke:none"
       d="M 355.08970,200.95020 C 353.20970,200.01020 350.08170,201.57420 348.51370,204.39420 C 352.26570,203.76220 355.08970,203.76220 356.33770,205.64620 C 357.58970,204.39420 356.02570,202.19820 355.08970,200.95020"
       id="path1202" />
    <path
       style="fill:none;stroke:#000000;stroke-width:0.50000000"
       d="M 355.08970,200.95020 C 353.20970,200.01020 350.08170,201.57420 348.51370,204.39420 C 352.26570,203.76220 355.08970,203.76220 356.33770,205.64620 C 357.58970,204.39420 356.02570,202.19820 355.08970,200.95020 z "
       id="path1204" />
    <path
       style="fill:#00ffff;stroke:none"
       d="M 357.59370,217.23020 C 355.40170,216.91820 351.01770,217.54220 349.76570,215.66620 C 351.64570,220.67420 354.77370,221.93420 358.84570,220.67420 C 359.47370,219.11420 358.84570,218.79420 357.59370,217.23020"
       id="path1206" />
    <path
       style="fill:none;stroke:#000000;stroke-width:0.50000000"
       d="M 357.59370,217.23020 C 355.40170,216.91820 351.01770,217.54220 349.76570,215.66620 C 351.64570,220.67420 354.77370,221.93420 358.84570,220.67420 C 359.47370,219.11420 358.84570,218.79420 357.59370,217.23020 z "
       id="path1208" />
    <path
       style="fill:#00ffff;stroke:none"
       d="M 346.31770,283.61420 C 342.87370,281.73020 339.42970,284.86220 339.42970,288.93420 C 341.62170,287.68220 344.12570,287.37020 345.69370,288.31020 C 346.94570,286.43420 346.63370,284.86220 346.31770,283.61420"
       id="path1210" />
    <path
       style="fill:none;stroke:#000000;stroke-width:0.50000000"
       d="M 346.31770,283.61420 C 342.87370,281.73020 339.42970,284.86220 339.42970,288.93420 C 341.62170,287.68220 344.12570,287.37020 345.69370,288.31020 C 346.94570,286.43420 346.63370,284.86220 346.31770,283.61420 z "
       id="path1212" />
    <path
       style="fill:#00ffff;stroke:none"
       d="M 341.00170,298.01020 C 338.80570,300.51820 337.86970,304.27820 340.36970,308.03420 C 341.30970,305.52620 342.87770,301.77820 345.06970,301.14620 C 345.69770,299.27020 343.18970,298.01020 341.00170,298.01020"
       id="path1214" />
    <path
       style="fill:none;stroke:#000000;stroke-width:0.50000000"
       d="M 341.00170,298.01020 C 338.80570,300.51820 337.86970,304.27820 340.36970,308.03420 C 341.30970,305.52620 342.87770,301.77820 345.06970,301.14620 C 345.69770,299.27020 343.18970,298.01020 341.00170,298.01020 z "
       id="path1216" />
    <path
       style="fill:#00ffff;stroke:none"
       d="M 352.58570,305.21420 C 351.64570,307.09820 351.33370,312.41820 354.77370,314.30220 C 355.08970,311.48220 355.08970,308.66220 357.27770,307.41820 C 356.96170,305.53420 355.08570,303.97420 352.58170,305.22220"
       id="path1218" />
    <path
       style="fill:none;stroke:#000000;stroke-width:0.50000000"
       d="M 352.58570,305.21420 C 351.64570,307.09820 351.33370,312.41820 354.77370,314.30220 C 355.08970,311.48220 355.08970,308.66220 357.27770,307.41820 C 356.96170,305.53420 355.08570,303.97420 352.58170,305.22220 L 352.58570,305.21420 z "
       id="path1220" />
    <path
       style="fill:none;stroke:#000000;stroke-width:0.50080001"
       d="M 466.86570,330.89420 C 469.37370,330.58220 470.30970,331.20620 472.18970,329.95820 C 472.18970,332.15420 471.56570,334.02620 471.87770,335.59820"
       id="path1222" />
    <path
       style="fill:none;stroke:#000000;stroke-width:0.50080001"
       d="M 443.06970,327.76220 C 443.38170,330.89420 447.14170,334.33820 450.27370,333.08220"
       id="path1224" />
    <path
       style="fill:none;stroke:#000000;stroke-width:0.50080001"
       d="M 373.87370,329.64620 C 376.06170,330.57420 377.00170,332.15420 377.62970,333.39420 C 378.25770,334.65420 379.82570,335.90220 381.70170,337.16220"
       id="path1226" />
    <path
       style="fill:none;stroke:#000000;stroke-width:0.50080001"
       d="M 369.17770,335.59020 C 371.67770,334.33020 373.56170,334.33020 374.81370,336.21420 C 376.06570,338.09820 377.00570,338.09820 378.88570,338.40220"
       id="path1228" />
    <path
       style="fill:#00ffff;stroke:none"
       d="M 376.06570,325.56620 C 373.87770,324.31820 368.54970,322.75420 367.29770,327.13820 C 369.48970,327.13820 372.62170,328.06620 373.87370,329.63820 C 375.75370,329.63820 376.37770,327.45020 376.06170,325.56620"
       id="path1230" />
    <path
       style="fill:none;stroke:#000000;stroke-width:0.50000000"
       d="M 376.06570,325.56620 C 373.87770,324.31820 368.54970,322.75420 367.29770,327.13820 C 369.48970,327.13820 372.62170,328.06620 373.87370,329.63820 C 375.75370,329.63820 376.37770,327.45020 376.06170,325.56620 L 376.06570,325.56620 z "
       id="path1232" />
    <path
       style="fill:#00ffff;stroke:none"
       d="M 369.80570,330.89420 C 368.54970,329.64620 362.29370,329.95820 364.16570,336.21420 C 366.04570,334.96620 367.29770,335.59020 369.17770,335.59020 C 370.11370,334.33020 370.43370,332.14620 369.80570,330.89420"
       id="path1234" />
    <path
       style="fill:none;stroke:#000000;stroke-width:0.50000000"
       d="M 369.80570,330.89420 C 368.54970,329.64620 362.29370,329.95820 364.16570,336.21420 C 366.04570,334.96620 367.29770,335.59020 369.17770,335.59020 C 370.11370,334.33020 370.43370,332.14620 369.80570,330.89420 z "
       id="path1236" />
    <path
       style="fill:#00ffff;stroke:none"
       d="M 368.54970,337.46620 C 365.73370,336.52620 360.09770,337.15420 361.03370,344.35420 C 363.91770,341.47420 366.36170,341.84620 368.23370,342.16620 C 369.80170,339.34620 369.80170,339.66220 368.54970,337.46620"
       id="path1238" />
    <path
       style="fill:none;stroke:#000000;stroke-width:0.50000000"
       d="M 368.54970,337.46620 C 365.73370,336.52620 360.09770,337.15420 361.03370,344.35420 C 363.91770,341.47420 366.36170,341.84620 368.23370,342.16620 C 369.80170,339.34620 369.80170,339.66220 368.54970,337.46620 z "
       id="path1240" />
    <path
       style="fill:#00ffff;stroke:none"
       d="M 375.75370,349.05020 C 373.87370,351.24620 372.93370,356.25420 377.31770,359.37820 C 377.31770,356.56620 377.94170,355.00220 380.44970,352.81020 C 378.88170,350.31020 379.19770,347.17420 375.75370,349.05020"
       id="path1242" />
    <path
       style="fill:none;stroke:#000000;stroke-width:0.50000000"
       d="M 375.75370,349.05020 C 373.87370,351.24620 372.93370,356.25420 377.31770,359.37820 C 377.31770,356.56620 377.94170,355.00220 380.44970,352.81020 C 378.88170,350.31020 379.19770,347.17420 375.75370,349.05020 z "
       id="path1244" />
    <path
       style="fill:none;stroke:#000000;stroke-width:0.50080001"
       d="M 449.33370,375.98220 C 452.46570,375.04220 453.71770,374.10620 454.96970,371.59820"
       id="path1246" />
    <path
       style="fill:none;stroke:#000000;stroke-width:0.50080001"
       d="M 453.08970,382.23820 C 452.77370,379.73820 453.40570,379.11420 454.96970,378.16620 C 456.53370,377.23020 457.78970,375.66220 458.41370,374.41020"
       id="path1248" />
    <path
       style="fill:#00ffff;stroke:none"
       d="M 447.14170,368.46620 C 444.32570,368.46620 440.25370,372.53420 443.38170,377.54220 C 445.26170,374.41020 446.20170,375.04220 448.07770,374.41020 C 449.32970,372.84620 449.95770,368.77820 447.14170,368.46620"
       id="path1250" />
    <path
       style="fill:none;stroke:#000000;stroke-width:0.50000000"
       d="M 447.14170,368.46620 C 444.32570,368.46620 440.25370,372.53420 443.38170,377.54220 C 445.26170,374.41020 446.20170,375.04220 448.07770,374.41020 C 449.32970,372.84620 449.95770,368.77820 447.14170,368.46620 z "
       id="path1252" />
    <path
       style="fill:#00ffff;stroke:none"
       d="M 447.14170,379.42620 C 445.26170,381.61420 444.94970,385.05820 450.27370,387.56620 C 449.95770,385.05820 449.64570,384.43420 451.20970,382.55020 C 450.89770,380.36220 449.64570,378.80220 447.13770,379.42620"
       id="path1254" />
    <path
       style="fill:none;stroke:#000000;stroke-width:0.50000000"
       d="M 447.14170,379.42620 C 445.26170,381.61420 444.94970,385.05820 450.27370,387.56620 C 449.95770,385.05820 449.64570,384.43420 451.20970,382.55020 C 450.89770,380.36220 449.64570,378.80220 447.13770,379.42620 L 447.14170,379.42620 z "
       id="path1256" />
    <path
       style="fill:#00ffff;stroke:none"
       d="M 453.08970,382.23820 C 449.95770,385.37020 449.64570,390.06620 456.53370,391.63820 C 456.22170,388.50220 455.90970,387.24620 457.16170,385.37020 C 457.78970,383.18220 455.28170,381.31020 453.08970,382.23820"
       id="path1258" />
    <path
       style="fill:none;stroke:#000000;stroke-width:0.50000000"
       d="M 453.08970,382.23820 C 449.95770,385.37020 449.64570,390.06620 456.53370,391.63820 C 456.22170,388.50220 455.90970,387.24620 457.16170,385.37020 C 457.78970,383.18220 455.28170,381.31020 453.08970,382.23820 z "
       id="path1260" />
    <path
       style="fill:#00ffff;stroke:none"
       d="M 475.00970,377.23020 C 476.26170,381.31020 475.63770,384.74620 470.31370,385.99820 C 471.25370,383.17420 471.56970,380.99020 469.68970,380.05020 C 470.62570,378.17420 472.50570,375.98220 475.01370,377.23020"
       id="path1262" />
    <path
       style="fill:none;stroke:#000000;stroke-width:0.50000000"
       d="M 475.00970,377.23020 C 476.26170,381.31020 475.63770,384.74620 470.31370,385.99820 C 471.25370,383.17420 471.56970,380.99020 469.68970,380.05020 C 470.62570,378.17420 472.50570,375.98220 475.01370,377.23020 L 475.00970,377.23020 z "
       id="path1264" />
    <path
       style="fill:#ff2020;stroke:none"
       d="M 330.35370,262.63820 C 339.58970,264.51020 335.51770,272.18220 330.82170,270.31020 C 331.44170,272.18220 334.26570,276.87820 338.96170,274.21420 C 342.85770,272.01020 341.60170,264.75420 336.61370,262.32620 C 341.62570,263.56620 348.97770,261.06620 351.95770,258.25420 C 348.98170,255.43420 341.62570,252.92620 336.61370,254.17420 C 341.59770,251.74620 342.85770,244.49020 338.96170,242.27820 C 334.26970,239.62220 331.44970,244.31820 330.82170,246.19020 C 335.51770,244.31820 339.58570,251.98220 330.35370,253.86220 L 330.35370,262.63020"
       id="path1266" />
    <path
       style="fill:none;stroke:#000000;stroke-width:0.50080001"
       d="M 330.35370,262.63820 C 339.58970,264.51020 335.51770,272.18220 330.82170,270.31020 C 331.44170,272.18220 334.26570,276.87820 338.96170,274.21420 C 342.85770,272.01020 341.60170,264.75420 336.61370,262.32620 C 341.62570,263.56620 348.97770,261.06620 351.95770,258.25420 C 348.98170,255.43420 341.62570,252.92620 336.61370,254.17420 C 341.59770,251.74620 342.85770,244.49020 338.96170,242.27820 C 334.26970,239.62220 331.44970,244.31820 330.82170,246.19020 C 335.51770,244.31820 339.58570,251.98220 330.35370,253.86220 L 330.35370,262.63020 L 330.35370,262.63820 z "
       id="path1268" />
    <path
       style="fill:#ff2020;stroke:none"
       d="M 315.32570,264.51020 C 312.34970,264.35420 310.47370,265.30220 307.80970,267.01820 C 308.74970,263.88620 310.00170,262.32620 312.50970,261.07420 C 308.43770,261.54220 306.40570,259.50220 304.52170,258.25420 C 306.40170,257.00220 308.43770,254.97420 312.50970,255.44220 C 310.00170,254.19020 308.75370,252.62220 307.80970,249.49820 C 310.47370,251.21420 312.34970,252.15420 315.32570,251.99820 L 315.32570,264.51820"
       id="path1270" />
    <path
       style="fill:none;stroke:#000000;stroke-width:0.50080001"
       d="M 315.32570,264.51020 C 312.34970,264.35420 310.47370,265.30220 307.80970,267.01820 C 308.74970,263.88620 310.00170,262.32620 312.50970,261.07420 C 308.43770,261.54220 306.40570,259.50220 304.52170,258.25420 C 306.40170,257.00220 308.43770,254.97420 312.50970,255.44220 C 310.00170,254.19020 308.75370,252.62220 307.80970,249.49820 C 310.47370,251.21420 312.34970,252.15420 315.32570,251.99820 L 315.32570,264.51820 L 315.32570,264.51020 z "
       id="path1272" />
    <path
       style="fill:#ff2020;stroke:none"
       d="M 332.62170,367.87020 C 329.44170,370.14620 324.37770,366.46620 328.80970,361.52620 C 327.19770,358.60620 325.77770,355.69820 324.52170,352.82620 C 317.18170,354.09820 317.32570,346.73020 321.80170,345.96620 C 321.75770,345.84620 321.71770,345.71420 321.67370,345.59020 C 319.92970,344.16620 315.70170,342.06620 313.02170,346.28620 C 310.62170,350.05820 315.14170,355.87820 320.68970,355.68220 C 315.67770,356.92620 314.53370,360.31020 313.23370,364.19020 C 317.18570,365.28620 320.68170,366.33020 324.51370,362.87020 C 321.25770,367.36220 323.55770,374.36220 328.02970,374.47420 C 332.12170,374.58220 333.26970,371.47420 333.44170,369.10620 C 333.16970,368.69820 332.88570,368.29420 332.61770,367.87820"
       id="path1274" />
    <path
       style="fill:none;stroke:#000000;stroke-width:0.50080001"
       d="M 332.62170,367.87020 C 329.44170,370.14620 324.37770,366.46620 328.80970,361.52620 C 327.19770,358.60620 325.77770,355.69820 324.52170,352.82620 C 317.18170,354.09820 317.32570,346.73020 321.80170,345.96620 C 321.75770,345.84620 321.71770,345.71420 321.67370,345.59020 C 319.92970,344.16620 315.70170,342.06620 313.02170,346.28620 C 310.62170,350.05820 315.14170,355.87820 320.68970,355.68220 C 315.67770,356.92620 314.53370,360.31020 313.23370,364.19020 C 317.18570,365.28620 320.68170,366.33020 324.51370,362.87020 C 321.25770,367.36220 323.55770,374.36220 328.02970,374.47420 C 332.12170,374.58220 333.26970,371.47420 333.44170,369.10620 C 333.16970,368.69820 332.88570,368.29420 332.61770,367.87820 L 332.62170,367.87020 z "
       id="path1276" />
    <path
       style="fill:#ff2020;stroke:none"
       d="M 351.75770,353.69820 C 349.45770,351.37820 347.61370,350.59020 344.81370,350.66220 C 348.62970,349.16220 349.46570,346.41020 350.53770,344.42620 C 348.29370,344.20620 345.53770,343.36220 342.16570,345.69020 C 343.78970,343.41020 344.15770,341.43420 343.51370,338.23020 C 342.08170,340.81020 340.89770,342.47420 337.32970,344.49020 C 338.82970,348.17420 340.64570,351.95820 342.84170,355.74620 C 346.63770,353.51020 348.71770,353.45020 351.75770,353.70620"
       id="path1278" />
    <path
       style="fill:none;stroke:#000000;stroke-width:0.50080001"
       d="M 351.75770,353.69820 C 349.45770,351.37820 347.61370,350.59020 344.81370,350.66220 C 348.62970,349.16220 349.46570,346.41020 350.53770,344.42620 C 348.29370,344.20620 345.53770,343.36220 342.16570,345.69020 C 343.78970,343.41020 344.15770,341.43420 343.51370,338.23020 C 342.08170,340.81020 340.89770,342.47420 337.32970,344.49020 C 338.82970,348.17420 340.64570,351.95820 342.84170,355.74620 C 346.63770,353.51020 348.71770,353.45020 351.75770,353.70620 L 351.75770,353.69820 z "
       id="path1280" />
    <path
       style="fill:#ff2020;stroke:none"
       d="M 521.26970,262.63820 C 512.03370,264.51020 516.10170,272.18220 520.79770,270.31020 C 520.16970,272.18220 517.35370,276.87820 512.65770,274.21420 C 508.76170,272.01020 510.01770,264.75420 515.00570,262.32620 C 509.99770,263.56620 502.63770,261.06620 499.66170,258.25420 C 502.63770,255.43420 509.99370,252.92620 515.00570,254.17420 C 510.01770,251.74620 508.76170,244.49020 512.65770,242.27820 C 517.35370,239.62220 520.16970,244.31820 520.79770,246.19020 C 516.10170,244.31820 512.02970,251.98220 521.26970,253.86220 L 521.26970,262.63020"
       id="path1282" />
    <path
       style="fill:none;stroke:#000000;stroke-width:0.50080001"
       d="M 521.26970,262.63820 C 512.03370,264.51020 516.10170,272.18220 520.79770,270.31020 C 520.16970,272.18220 517.35370,276.87820 512.65770,274.21420 C 508.76170,272.01020 510.01770,264.75420 515.00570,262.32620 C 509.99770,263.56620 502.63770,261.06620 499.66170,258.25420 C 502.63770,255.43420 509.99370,252.92620 515.00570,254.17420 C 510.01770,251.74620 508.76170,244.49020 512.65770,242.27820 C 517.35370,239.62220 520.16970,244.31820 520.79770,246.19020 C 516.10170,244.31820 512.02970,251.98220 521.26970,253.86220 L 521.26970,262.63020 L 521.26970,262.63820 z "
       id="path1284" />
    <path
       style="fill:#ff2020;stroke:none"
       d="M 536.29770,264.51020 C 539.27370,264.35420 541.14970,265.30220 543.81370,267.01820 C 542.87370,263.88620 541.62170,262.32620 539.11770,261.07420 C 543.18570,261.54220 545.22170,259.50220 547.10170,258.25420 C 545.22170,257.00220 543.18570,254.97420 539.11770,255.44220 C 541.61770,254.19020 542.87370,252.62220 543.81370,249.49820 C 541.14970,251.21420 539.27370,252.15420 536.29770,251.99820 L 536.29770,264.51820"
       id="path1286" />
    <path
       style="fill:none;stroke:#000000;stroke-width:0.50080001"
       d="M 536.29770,264.51020 C 539.27370,264.35420 541.14970,265.30220 543.81370,267.01820 C 542.87370,263.88620 541.62170,262.32620 539.11770,261.07420 C 543.18570,261.54220 545.22170,259.50220 547.10170,258.25420 C 545.22170,257.00220 543.18570,254.97420 539.11770,255.44220 C 541.61770,254.19020 542.87370,252.62220 543.81370,249.49820 C 541.14970,251.21420 539.27370,252.15420 536.29770,251.99820 L 536.29770,264.51820 L 536.29770,264.51020 z "
       id="path1288" />
    <path
       style="fill:#ff2020;stroke:none"
       d="M 519.70170,367.83820 C 522.88570,370.10620 527.94970,366.46620 523.51370,361.51820 C 525.12570,358.60620 526.35770,355.86220 527.60970,352.81020 C 534.94570,354.08220 534.74570,346.67420 530.27370,345.91820 C 530.31370,345.79420 530.35770,345.67420 530.39770,345.55020 C 532.14970,344.13020 536.61770,342.05820 539.29770,346.28620 C 541.69770,350.05820 537.18170,355.87820 531.63770,355.68220 C 536.64970,356.92620 537.78970,360.31020 539.08570,364.19020 C 535.14170,365.27820 531.64570,366.33020 527.81370,362.87020 C 531.06570,367.35420 528.76570,374.35420 524.29370,374.47420 C 520.20170,374.58220 519.09370,371.62220 518.92170,369.25420 C 519.19370,368.84620 519.43770,368.25420 519.70170,367.84620"
       id="path1290" />
    <path
       style="fill:none;stroke:#000000;stroke-width:0.50080001"
       d="M 519.70170,367.83820 C 522.88570,370.10620 527.94970,366.46620 523.51370,361.51820 C 525.12570,358.60620 526.35770,355.86220 527.60970,352.81020 C 534.94570,354.08220 534.74570,346.67420 530.27370,345.91820 C 530.31370,345.79420 530.35770,345.67420 530.39770,345.55020 C 532.14970,344.13020 536.61770,342.05820 539.29770,346.28620 C 541.69770,350.05820 537.18170,355.87820 531.63770,355.68220 C 536.64970,356.92620 537.78970,360.31020 539.08570,364.19020 C 535.14170,365.27820 531.64570,366.33020 527.81370,362.87020 C 531.06570,367.35420 528.76570,374.35420 524.29370,374.47420 C 520.20170,374.58220 519.09370,371.62220 518.92170,369.25420 C 519.19370,368.84620 519.43770,368.25420 519.70170,367.84620 L 519.70170,367.83820 z "
       id="path1292" />
    <path
       style="fill:#ff2020;stroke:none"
       d="M 500.56570,353.69820 C 502.86970,351.37820 504.70970,350.59020 507.50570,350.66220 C 503.69370,349.16220 502.85370,346.41020 501.78170,344.42620 C 504.02970,344.20620 506.78170,343.36220 510.15370,345.69020 C 508.53370,343.41020 508.16170,341.43420 508.80570,338.23020 C 510.24170,340.81020 511.12570,342.34620 514.68970,344.36220 C 513.18970,348.05020 511.67370,351.95820 509.48170,355.75420 C 505.68170,353.51020 503.60570,353.45020 500.56570,353.71420"
       id="path1294" />
    <path
       style="fill:none;stroke:#000000;stroke-width:0.50080001"
       d="M 500.56570,353.69820 C 502.86970,351.37820 504.70970,350.59020 507.50570,350.66220 C 503.69370,349.16220 502.85370,346.41020 501.78170,344.42620 C 504.02970,344.20620 506.78170,343.36220 510.15370,345.69020 C 508.53370,343.41020 508.16170,341.43420 508.80570,338.23020 C 510.24170,340.81020 511.12570,342.34620 514.68970,344.36220 C 513.18970,348.05020 511.67370,351.95820 509.48170,355.75420 C 505.68170,353.51020 503.60570,353.45020 500.56570,353.71420 L 500.56570,353.69820 z "
       id="path1296" />
    <path
       style="fill:#ff2020;stroke:none"
       d="M 315.34970,162.78620 L 315.34970,160.59020 L 321.47370,160.59020 C 316.36570,152.78620 324.61370,150.26220 326.60570,154.90220 C 327.48570,153.13020 328.81370,147.81820 323.61370,146.37820 C 319.29770,145.19020 315.05770,151.20620 316.86170,156.45820 C 314.20570,152.02620 307.22970,148.59820 303.13370,148.48220 C 303.24570,152.58220 306.67770,159.55020 311.10570,162.20620 C 305.85770,160.40220 299.83770,164.64620 301.02970,168.96620 C 302.46570,174.16620 307.78170,172.83820 309.55370,171.95820 C 304.90570,169.95820 307.44970,161.66220 315.30970,166.86220 L 315.34570,166.82620 L 315.34570,162.78620"
       id="path1298" />
    <path
       style="fill:none;stroke:#000000;stroke-width:0.50080001"
       d="M 315.34970,162.78620 L 315.34970,160.59020 L 317.54170,160.59020 L 321.47370,160.59020 C 316.36570,152.78620 324.61370,150.26220 326.60570,154.90220 C 327.48570,153.13020 328.81370,147.81820 323.61370,146.37820 C 319.29770,145.19020 315.05770,151.20620 316.86170,156.45820 C 314.20570,152.02620 307.22970,148.59820 303.13370,148.48220 C 303.24570,152.58220 306.67770,159.55020 311.10570,162.20620 C 305.85770,160.40220 299.83770,164.64620 301.02970,168.96620 C 302.46570,174.16620 307.78170,172.83820 309.55370,171.95820 C 304.90570,169.95820 307.44970,161.66220 315.30970,166.86220 L 315.34570,166.82620 L 315.34570,162.78620 L 315.34970,162.78620 z "
       id="path1300" />
    <path
       style="fill:#ff2020;stroke:none"
       d="M 330.54170,179.95020 C 333.08970,183.16220 335.96570,183.16220 338.18170,183.60620 C 337.73770,181.38620 337.73770,178.51020 334.52970,175.96620 C 336.78570,176.71420 338.60170,176.61420 340.84970,175.63020 L 330.38970,175.63020 L 330.38970,185.87020 C 331.20970,183.80220 331.25370,182.07420 330.54170,179.95020"
       id="path1302" />
    <path
       style="fill:none;stroke:#000000;stroke-width:0.50080001"
       d="M 330.54170,179.95020 C 333.08970,183.16220 335.96570,183.16220 338.18170,183.60620 C 337.73770,181.38620 337.73770,178.51020 334.52970,175.96620 C 336.78570,176.71420 338.60170,176.61420 340.84970,175.63020 L 330.38970,175.63020 L 330.38970,185.87020 C 331.20970,183.80220 331.25370,182.07420 330.54170,179.95020 z "
       id="path1304" />
    <path
       style="fill:#ff2020;stroke:none"
       d="M 536.34970,162.78620 L 536.34970,160.59020 L 530.22570,160.59020 C 535.33370,152.78620 527.08170,150.26220 525.09370,154.90220 C 524.20970,153.13020 522.88170,147.81820 528.08170,146.37820 C 532.39770,145.19020 536.64170,151.20620 534.83370,156.45820 C 537.49370,152.02620 544.46570,148.59820 548.56170,148.48220 C 548.44970,152.58220 545.01770,159.55020 540.58970,162.20620 C 545.83370,160.40220 551.85770,164.64620 550.66570,168.96620 C 549.22970,174.16620 543.91370,172.83820 542.14170,171.95820 C 546.78970,169.95820 544.24570,161.66220 536.38570,166.86220 L 536.34970,166.82620 L 536.34970,162.78620"
       id="path1306" />
    <path
       style="fill:none;stroke:#000000;stroke-width:0.50080001"
       d="M 536.34970,162.78620 L 536.34970,160.59020 L 534.15770,160.59020 L 530.22570,160.59020 C 535.33370,152.78620 527.08170,150.26220 525.09370,154.90220 C 524.20970,153.13020 522.88170,147.81820 528.08170,146.37820 C 532.39770,145.19020 536.64170,151.20620 534.83370,156.45820 C 537.49370,152.02620 544.46570,148.59820 548.56170,148.48220 C 548.44970,152.58220 545.01770,159.55020 540.58970,162.20620 C 545.83370,160.40220 551.85770,164.64620 550.66570,168.96620 C 549.22970,174.16620 543.91370,172.83820 542.14170,171.95820 C 546.78970,169.95820 544.24570,161.66220 536.38570,166.86220 L 536.34970,166.82620 L 536.34970,162.78620"
       id="path1308" />
    <path
       style="fill:#ff2020;stroke:none"
       d="M 521.15770,179.95020 C 518.61370,183.16220 515.73370,183.16220 513.52170,183.60620 C 513.96570,181.38620 513.96570,178.51020 517.17370,175.96620 C 514.91770,176.71420 513.10170,176.61420 510.85370,175.63020 L 521.31370,175.63020 L 521.31370,185.87020 C 520.48970,183.80220 520.44970,182.07420 521.15770,179.95020"
       id="path1310" />
    <path
       style="fill:none;stroke:#000000;stroke-width:0.50080001"
       d="M 521.15770,179.95020 C 518.61370,183.16220 515.73370,183.16220 513.52170,183.60620 C 513.96570,181.38620 513.96570,178.51020 517.17370,175.96620 C 514.91770,176.71420 513.10170,176.61420 510.85370,175.63020 L 521.31370,175.63020 L 521.31370,185.87020 C 520.48970,183.80220 520.44970,182.07420 521.15770,179.95020 z "
       id="path1312" />
    <path
       style="fill:#ff2020;stroke:none"
       d="M 437.90570,402.38620 C 439.78570,401.76220 444.48170,398.94220 441.81770,394.24620 C 439.60970,390.34620 432.34970,391.60620 429.91770,396.59020 C 431.16970,391.58220 428.66570,384.22220 425.84570,381.25420 C 423.02970,384.22220 420.52570,391.58220 421.77370,396.59020 C 419.34170,391.60620 412.08570,390.34620 409.87370,394.24620 C 407.21770,398.94220 411.90970,401.76220 413.78970,402.38620 C 411.99770,397.91020 418.87370,394.04220 421.14570,406.81820 L 425.80570,408.49820 C 426.83770,408.11420 428.76970,407.41820 430.54570,406.77820 C 432.82570,394.04220 439.68570,397.91820 437.89770,402.38620"
       id="path1314" />
    <path
       style="fill:none;stroke:#000000;stroke-width:0.50080001"
       d="M 437.90570,402.38620 C 439.78570,401.76220 444.48170,398.94220 441.81770,394.24620 C 439.60970,390.34620 432.34970,391.60620 429.91770,396.59020 C 431.16970,391.58220 428.66570,384.22220 425.84570,381.25420 C 423.02970,384.22220 420.52570,391.58220 421.77370,396.59020 C 419.34170,391.60620 412.08570,390.34620 409.87370,394.24620 C 407.21770,398.94220 411.90970,401.76220 413.78970,402.38620 C 411.99770,397.91020 418.87370,394.04220 421.14570,406.81820 L 425.80570,408.49820 C 426.83770,408.11420 428.76970,407.41820 430.54570,406.77820 C 432.82570,394.04220 439.68570,397.91820 437.89770,402.38620 L 437.90570,402.38620 z "
       id="path1316" />
    <path
       style="fill:#ff2020;stroke:none"
       d="M 431.46970,422.42620 C 429.74970,423.05020 428.13770,423.66220 426.62570,424.24620 L 425.82970,424.55820 L 425.03770,424.24620 C 423.51370,423.66220 421.88170,423.05020 420.14970,422.41820 L 419.58570,422.41820 C 419.74570,425.38620 418.80170,427.27020 417.08570,429.93420 C 420.21370,428.99820 421.78170,427.74620 423.03370,425.23820 C 422.56170,429.31020 424.59770,431.33820 425.84970,433.22220 C 427.10170,431.33820 429.13770,429.31020 428.66570,425.23820 C 429.91770,427.74620 431.48170,428.99820 434.60970,429.93420 C 432.89370,427.27020 431.95370,425.39420 432.10570,422.41820 L 431.46970,422.41820"
       id="path1318" />
    <path
       style="fill:none;stroke:#000000;stroke-width:0.50080001"
       d="M 431.46970,422.42620 C 429.74970,423.05020 428.13770,423.66220 426.62570,424.24620 L 425.82970,424.55820 L 425.03770,424.24620 C 423.51370,423.66220 421.88170,423.05020 420.14970,422.41820 L 419.58570,422.41820 C 419.74570,425.38620 418.80170,427.27020 417.08570,429.93420 C 420.21370,428.99820 421.78170,427.74620 423.03370,425.23820 C 422.56170,429.31020 424.59770,431.33820 425.84970,433.22220 C 427.10170,431.33820 429.13770,429.31020 428.66570,425.23820 C 429.91770,427.74620 431.48170,428.99820 434.60970,429.93420 C 432.89370,427.27020 431.95370,425.39420 432.10570,422.41820 L 431.46970,422.41820 L 431.46970,422.42620 z "
       id="path1320" />
    <path
       style="fill:#ff2020;stroke:none"
       d="M 421.46570,175.69020 C 419.58570,184.92620 411.91770,180.86220 413.79370,176.16620 C 411.91370,176.79420 407.21770,179.60620 409.87770,184.31020 C 412.08570,188.19820 419.34570,186.94220 421.77770,181.95820 C 420.52570,186.96620 423.02970,194.32620 425.84970,197.30220 C 428.66570,194.32620 431.17370,186.96620 429.92170,181.95820 C 432.35370,186.94220 439.60570,188.19820 441.81770,184.31020 C 444.47770,179.61420 439.78570,176.79420 437.90970,176.16620 C 439.78970,180.86220 432.11770,184.92620 430.23770,175.69020 L 421.46970,175.69020"
       id="path1322" />
    <path
       style="fill:none;stroke:#000000;stroke-width:0.50080001"
       d="M 421.46570,175.69020 C 419.58570,184.92620 411.91770,180.86220 413.79370,176.16620 C 411.91370,176.79420 407.21770,179.60620 409.87770,184.31020 C 412.08570,188.19820 419.34570,186.94220 421.77770,181.95820 C 420.52570,186.96620 423.02970,194.32620 425.84970,197.30220 C 428.66570,194.32620 431.17370,186.96620 429.92170,181.95820 C 432.35370,186.94220 439.60570,188.19820 441.81770,184.31020 C 444.47770,179.61420 439.78570,176.79420 437.90970,176.16620 C 439.78970,180.86220 432.11770,184.92620 430.23770,175.69020 L 421.46970,175.69020 L 421.46570,175.69020 z "
       id="path1324" />
    <path
       style="fill:#ff2020;stroke:none"
       d="M 419.58570,160.66620 C 419.74570,157.69020 418.80170,155.81820 417.08570,153.15420 C 420.21370,154.09020 421.78170,155.34620 423.03370,157.84620 C 422.56170,153.77820 424.59770,151.74620 425.84970,149.86220 C 427.10170,151.74620 429.13370,153.77820 428.66170,157.84620 C 429.91370,155.34620 431.48170,154.09020 434.60970,153.15420 C 432.88970,155.81820 431.94970,157.69020 432.10570,160.66620 L 419.58170,160.66620"
       id="path1326" />
    <path
       style="fill:none;stroke:#000000;stroke-width:0.50080001"
       d="M 419.58570,160.66620 C 419.74570,157.69020 418.80170,155.81820 417.08570,153.15420 C 420.21370,154.09020 421.78170,155.34620 423.03370,157.84620 C 422.56170,153.77820 424.59770,151.74620 425.84970,149.86220 C 427.10170,151.74620 429.13370,153.77820 428.66170,157.84620 C 429.91370,155.34620 431.48170,154.09020 434.60970,153.15420 C 432.88970,155.81820 431.94970,157.69020 432.10570,160.66620 L 419.58170,160.66620 L 419.58570,160.66620 z "
       id="path1328" />
  </g>
</svg>
