<?xml version="1.0" encoding="UTF-8" standalone="no"?>
<svg
   xmlns:dc="http://purl.org/dc/elements/1.1/"
   xmlns:cc="http://web.resource.org/cc/"
   xmlns:rdf="http://www.w3.org/1999/02/22-rdf-syntax-ns#"
   xmlns:svg="http://www.w3.org/2000/svg"
   xmlns="http://www.w3.org/2000/svg"
   xmlns:sodipodi="http://inkscape.sourceforge.net/DTD/sodipodi-0.dtd"
   xmlns:inkscape="http://www.inkscape.org/namespaces/inkscape"
   width="707pt"
   height="428pt"
   id="svg2"
   sodipodi:version="0.32"
   inkscape:version="0.43"
   sodipodi:docname="canada_british_columbia.svg"
   sodipodi:docbase="/home/demailly/ajour/flags"
   version="1.0">
  <metadata
     id="metadata61">
    <rdf:RDF>
      <cc:Work
         rdf:about="">
        <dc:format>image/svg+xml</dc:format>
        <dc:type
           rdf:resource="http://purl.org/dc/dcmitype/StillImage" />
      </cc:Work>
    </rdf:RDF>
  </metadata>
  <sodipodi:namedview
     inkscape:cy="207.71981"
     inkscape:cx="447.94023"
     inkscape:zoom="0.86831672"
     inkscape:window-height="836"
     inkscape:window-width="1086"
     inkscape:pageshadow="2"
     inkscape:pageopacity="0.0"
     borderopacity="1.0"
     bordercolor="#666666"
     pagecolor="#ffffff"
     id="base"
     inkscape:window-x="15"
     inkscape:window-y="0"
     inkscape:current-layer="svg2" />
  <defs
     id="defs4">
    <marker
       id="ArrowEnd"
       viewBox="0 0 10 10"
       refX="0"
       refY="5"
       markerUnits="strokeWidth"
       markerWidth="4"
       markerHeight="3"
       orient="auto">
      <path
         d="M 0,0 L 10,5 L 0,10 L 0,0 z "
         id="path7" />
    </marker>
    <marker
       id="ArrowStart"
       viewBox="0 0 10 10"
       refX="10"
       refY="5"
       markerUnits="strokeWidth"
       markerWidth="4"
       markerHeight="3"
       orient="auto">
      <path
         d="M 10,0 L 0,5 L 10,10 L 10,0 z "
         id="path10" />
    </marker>
    <sodipodi:namedview
       id="namedview554" />
    <defs
       id="defs3" />
  </defs>
  <rect
     style="opacity:1;fill:#ffffff;fill-opacity:1;stroke:#000000;stroke-width:1;stroke-linecap:butt;stroke-linejoin:bevel;stroke-miterlimit:4;stroke-dasharray:none;stroke-opacity:1"
     id="rect1407"
     width="879.48938"
     height="530.13666"
     x="0.81434202"
     y="0.73466849" />
  <g
     id="g3344"
     style="fill:#000066;fill-opacity:1">
    <path
       style="fill:#000066;stroke:none;fill-opacity:1"
       d="M 879.98929,319.3886 C 868.09429,319.0136 849.47929,317.2186 832.99929,310.3436 C 806.13929,299.1536 772.54929,305.8686 746.80429,313.6836 C 721.06429,321.5136 688.60429,324.8536 668.46429,314.7786 C 648.32929,304.7186 615.84929,299.1136 569.96929,313.6836 C 524.08929,328.2336 498.32929,318.1386 487.13929,313.6836 C 475.96429,309.2086 443.48529,296.9036 407.66529,309.2086 C 371.86429,321.5136 334.91129,322.6486 318.13379,312.5486 C 301.35629,302.4936 258.81729,299.1336 235.30179,309.2086 C 211.80579,319.2886 169.26679,327.1036 140.16529,313.6836 C 111.06329,300.2636 71.88379,304.7186 46.14179,312.5686 C 30.84879,317.2186 13.19229,319.9136 1.37599,321.3186 L 1.37599,272.4336 C 13.13379,270.9881 29.93079,268.3516 44.55979,263.8791 C 70.30179,256.0471 109.48129,251.5741 138.58329,264.9921 C 167.68479,278.4101 210.22379,270.5781 233.71979,260.5196 C 257.21579,250.4611 299.75479,253.8201 316.55179,263.8791 C 333.32929,273.9571 370.26279,272.8241 406.10279,260.5196 C 441.90329,248.2146 474.38429,260.5196 485.57429,264.9921 C 496.74929,269.4646 522.50929,279.5431 568.40929,264.9921 C 614.28429,250.4416 646.76429,256.0471 666.90429,266.1056 C 687.03929,276.1641 719.49929,272.8241 745.24429,264.9921 C 770.98429,257.1601 804.55929,250.4416 831.43429,261.6326 C 848.67929,268.8201 868.22929,270.4611 880.02929,270.7146 L 880.02929,319.3486"
       id="path16" />
    <path
       style="fill:#000066;stroke:none;fill-opacity:1"
       d="M 1.25884,419.6036 C 12.93829,418.3136 32.31329,415.5786 48.91529,410.5386 C 74.65729,402.7086 113.83679,398.2336 142.93829,411.6536 C 172.04029,425.0686 214.57929,417.2386 238.07529,407.1786 C 261.57129,397.1186 304.11029,400.4786 320.90729,410.5386 C 337.68479,420.5986 374.61829,419.4836 410.45829,407.1786 C 446.25879,394.8736 478.73929,407.1786 489.92929,411.6536 C 501.10429,416.1236 526.86429,426.2036 572.74429,411.6536 C 618.62429,397.1186 651.08429,402.7086 671.23929,412.7636 C 691.37429,422.8236 723.85429,419.4636 749.59929,411.6536 C 775.33929,403.8186 808.91429,397.1186 835.76929,408.3136 C 850.98429,414.6386 867.99929,416.6736 879.88929,417.2386 L 879.88929,368.2936 C 868.38929,368.1736 847.64429,366.7486 829.47929,359.1736 C 802.62429,347.9986 769.04929,354.6986 743.30929,362.5286 C 717.56929,370.3636 685.10429,373.7236 664.96929,363.6436 C 644.83429,353.5836 612.37429,347.9786 566.47429,362.5286 C 520.57429,377.0836 494.83429,367.0036 483.63929,362.5286 C 472.46929,358.0586 439.98929,345.7536 404.16879,358.0586 C 368.36829,370.3636 331.41529,371.4936 314.61829,361.4186 C 297.84079,351.3586 255.30179,347.9986 231.78629,358.0586 C 208.29029,368.1186 165.75079,375.9686 136.64929,362.5286 C 107.54779,349.0936 68.36829,353.5836 42.62579,361.4186 C 28.75879,365.6386 12.91879,368.2336 1.27834,369.7386 L 1.27834,419.6186"
       id="path18" />
    <path
       style="fill:#000066;stroke:none;fill-opacity:1"
       d="M 879.98929,466.6136 C 868.11429,466.2786 849.20929,464.5236 832.46929,457.5486 C 805.61429,446.3586 772.03929,453.0786 746.27929,460.8886 C 720.55429,468.7036 688.07429,472.0636 667.91929,462.0036 C 647.76429,451.9436 615.31929,446.3386 569.42429,460.8886 C 523.52429,475.4436 497.78429,465.3636 486.58929,460.8886 C 475.39929,456.4186 442.93829,444.1136 407.11829,456.4186 C 371.31729,468.7236 334.36429,469.8336 317.56729,459.7786 C 300.79029,449.6986 258.25079,446.3386 234.73529,456.4186 C 211.23929,466.4786 168.70029,474.3086 139.59879,460.8886 C 110.49729,447.4736 71.31729,451.9436 45.57529,459.7786 C 30.51679,464.3686 13.15329,467.0236 1.33694,468.4486 L 1.33694,516.8686 C 13.13379,515.4986 31.41529,512.8036 47.17679,507.9986 C 72.91879,500.1686 112.09879,495.6936 141.20029,509.1136 C 170.30179,522.5286 212.82129,514.6986 236.33679,504.6386 C 259.83329,494.5836 302.37229,497.9436 319.16879,507.9786 C 335.94629,518.0386 372.87979,516.9236 408.71979,504.6386 C 444.52029,492.3336 476.97929,504.6386 488.19429,509.1136 C 499.36429,513.5836 525.12429,523.6636 571.02429,509.1136 C 616.90429,494.5836 649.36429,500.1686 669.51929,510.2286 C 689.65929,520.3036 722.13929,516.9436 747.87929,509.1136 C 773.60429,501.2986 807.19429,494.5836 834.06929,505.7736 C 850.06929,512.4336 868.07429,514.3486 880.00929,514.7786 L 880.00929,466.5936"
       id="path20" />
  </g>
  <path
     id="path22"
     d="M 879.98929,89.7986 L 471.41429,89.7986 L 471.41429,1.3786 L 410.96579,1.3786 L 410.96579,89.7986 L 1.27834,89.7986 L 1.27834,151.3586 L 410.96579,151.3586 L 410.96579,236.4186 L 471.41429,236.4186 L 471.41429,151.3586 L 879.98929,151.3586 L 879.98929,89.7986"
     style="fill:#f50025;stroke:none" />
  <path
     id="path24"
     d="M 1.25884,27.1236 L 199.38379,82.3736 L 290.04779,82.3736 L 1.25884,3.0386 L 1.25884,27.1036"
     style="fill:#f50025;stroke:none" />
  <path
     id="path26"
     d="M 370.65329,161.8686 L 282.23529,161.8686 L 1.27834,237.6286 L 89.69629,237.6286 L 370.65329,161.8686"
     style="fill:#f50025;stroke:none" />
  <g
     id="g3334"
     style="fill:#000066;fill-opacity:1">
    <path
       style="fill:#000066;stroke:none;fill-opacity:1"
       d="M 1.25884,82.3936 L 174.75479,82.3936 L 1.25884,34.9936 L 1.25884,82.3936"
       id="path32" />
    <path
       style="fill:#000066;fill-opacity:1;stroke:none"
       d="M 121.02429,237.9986 L 398.62229,161.8886 L 398.62229,234.6386 L 121.02429,237.9786"
       id="path28" />
    <path
       style="fill:#000066;fill-opacity:1;stroke:none"
       d="M 1.25884,211.9086 L 182.58679,161.8886 L 1.25884,161.8886 L 1.25884,211.9086"
       id="path30" />
    <path
       style="fill:#000066;fill-opacity:1;stroke:none"
       d="M 120.36029,1.3786 C 172.39179,16.2236 398.62229,82.3936 398.62229,82.3936 L 398.62229,1.3786 L 120.36029,1.3786"
       id="path34" />
    <path
       style="fill:#000066;fill-opacity:1;stroke:none"
       d="M 760.86929,237.9986 L 483.26929,161.8886 L 483.26929,234.6386 L 760.86929,237.9786"
       id="path36" />
    <path
       style="fill:#000066;fill-opacity:1;stroke:none"
       d="M 879.98929,211.7086 L 699.30429,161.8686 L 879.98929,161.8686 L 879.98929,211.7086"
       id="path38" />
    <path
       style="fill:#000066;fill-opacity:1;stroke:none"
       d="M 879.98929,82.3936 L 707.15929,82.3936 L 879.98929,35.1686 L 879.98929,82.3936"
       id="path40" />
    <path
       style="fill:#000066;fill-opacity:1;stroke:none"
       d="M 761.53429,1.3786 C 709.49929,16.2236 483.24929,82.3936 483.24929,82.3936 L 483.24929,1.3786 L 761.53429,1.3786"
       id="path42" />
  </g>
  <path
     id="path44"
     d="M 684.08929,161.4586 L 879.96929,217.5686 L 879.96929,241.4386 L 586.68929,161.4586 L 684.06929,161.4586"
     style="fill:#f50025;stroke:none" />
  <path
     id="path46"
     d="M 519.53929,82.3936 L 596.76429,82.3936 L 879.96929,6.5936 L 879.96929,1.3786 L 803.58429,1.3786 L 519.53929,82.3936"
     style="fill:#f50025;stroke:none" />
  <path
     id="path48"
     d="M 59.07129,529.7386 C 49.87229,517.7286 31.29779,500.5386 1.25884,502.0836 L 1.25884,498.1536 C 16.29779,490.7336 50.61429,481.6936 82.74329,529.7386 L 59.07129,529.7386"
     style="fill:#ffd600;stroke:none" />
  <path
     id="path50"
     d="M 35.94629,442.4136 C 35.94629,442.4136 72.87979,478.2336 95.26279,499.5036 C 107.21579,510.8536 117.56729,521.8886 124.63779,529.7186 L 180.94629,529.7186 C 142.56729,505.6186 58.97379,453.5086 35.92679,442.4136"
     style="fill:#ffd600;stroke:none" />
  <path
     id="path52"
     d="M 59.46179,403.2336 C 59.46179,403.2336 106.47379,414.4236 116.53229,442.4136 C 126.61029,470.4036 136.66879,486.0686 151.21979,493.8986 C 162.07929,499.7386 181.04379,513.7036 187.17679,529.7186 L 696.29929,529.7186 C 700.43929,520.9486 708.34929,509.5236 723.21429,500.6186 C 751.17929,483.8386 753.42929,473.7636 762.38929,455.8536 C 771.33929,437.9586 770.20429,423.4086 819.47929,404.3686 C 819.47929,404.3686 785.90929,393.1936 756.80429,427.8636 C 727.70429,462.5486 741.13929,460.3236 713.15429,473.7636 C 685.18429,487.1786 671.74929,499.5036 671.74929,499.5036 L 772.48929,350.6186 L 639.28429,477.1036 C 639.28429,477.1036 643.75929,450.2436 662.78429,437.9236 C 681.80429,425.6186 682.91929,398.7436 685.16429,385.3236 C 687.38929,371.9036 697.46929,345.0286 731.04429,330.4786 C 731.04429,330.4786 680.69429,326.0086 670.61429,379.7186 C 670.61429,379.7186 663.89429,403.2136 645.98429,420.0136 C 628.07429,436.7886 619.12929,441.2786 612.40929,451.3386 L 670.61429,290.1486 L 573.22929,441.2636 C 573.22929,441.2636 567.64429,415.5186 584.40429,397.6086 C 601.17929,379.7186 597.81929,343.8986 596.70929,330.4586 C 595.59429,317.0436 605.65429,292.4136 626.92429,272.2576 C 626.92429,272.2576 583.26929,289.0336 582.15929,318.1386 C 581.04429,347.2386 575.45929,367.3936 564.26429,381.9436 C 553.09429,396.4936 540.76929,405.4436 537.40929,424.4636 L 559.79429,248.7226 L 498.22929,425.5786 C 498.22929,425.5786 489.28429,397.6086 500.45929,377.4536 C 511.64929,357.3186 502.68429,328.2136 497.09929,310.3036 C 491.51429,292.3936 499.34429,263.2931 511.64929,245.3836 C 511.64929,245.3836 471.35429,261.0471 481.43429,319.2486 C 491.51429,377.4536 459.04929,381.9236 460.18429,405.4236 L 442.29379,239.7586 L 422.15729,403.1736 C 422.15729,403.1736 422.15729,390.8686 410.96579,375.2086 C 399.77429,359.5436 400.90729,334.9136 404.26679,304.6986 C 407.62579,274.4846 388.60279,252.1016 372.93829,244.2686 C 372.93829,244.2686 395.32129,277.8436 387.48929,303.5836 C 379.65729,329.3286 378.54379,360.6536 384.14929,377.4536 C 389.73529,394.2286 384.14929,419.9736 384.14929,419.9736 L 325.94629,250.9491 L 346.08329,419.9736 C 346.08329,419.9736 334.89179,395.3636 323.70029,388.6436 C 312.52829,381.9436 302.45029,349.4836 303.56329,327.0836 C 304.67679,304.6986 275.57529,275.5976 259.91129,273.3711 C 259.91129,273.3711 286.76679,300.2436 286.76679,338.2936 C 286.76679,376.3386 291.23929,386.4186 302.43079,400.9686 C 313.62229,415.5186 309.12979,440.1286 309.12979,440.1286 L 211.74729,289.0136 L 274.42279,453.5686 C 274.42279,453.5686 258.75879,430.0686 244.20829,424.4636 C 229.67679,418.8786 219.59879,396.4936 212.87979,372.9786 C 206.18079,349.4836 179.30579,330.4586 155.79029,329.3486 C 155.79029,329.3486 188.25079,346.1236 196.08329,379.6986 C 203.89529,413.2736 209.50079,424.4636 224.05179,439.0136 C 238.60279,453.5486 243.07529,477.0636 243.07529,477.0636 L 114.34479,355.0686 L 211.72779,499.4636 C 211.72779,499.4636 191.59079,477.0836 173.68079,477.0836 C 155.79029,477.0836 137.86029,454.6986 130.02829,434.5636 C 122.19629,414.4236 90.84879,395.3836 59.52029,403.2136"
     style="fill:#ffd600;stroke:none" />
  <path
     id="path54"
     d="M 707.42929,529.7386 L 846.39429,441.3186 L 760.04929,529.7386 L 707.44929,529.7386"
     style="fill:#ffd600;stroke:none" />
  <path
     id="path56"
     d="M 800.39929,529.7386 C 809.42429,515.4436 837.03929,479.7586 879.98929,495.4786 L 879.98929,497.8036 C 868.73929,499.4836 839.24929,506.0836 826.02429,529.7186 L 800.41929,529.7186"
     style="fill:#ffd600;stroke:none" />
  <path
     id="path58"
     d="M 387.52829,144.8186 C 390.75079,147.1986 394.26679,148.6636 398.01679,148.7986 C 421.59079,149.5636 478.81929,148.7986 478.81929,148.7986 C 478.81929,148.7986 484.98929,148.9386 493.03429,144.0936 C 454.32529,135.8736 418.89529,136.1236 387.50879,144.8186 L 387.52829,144.8186 z M 372.82129,125.6936 C 376.25879,132.2986 380.39929,138.5686 385.20429,142.9036 C 418.01679,133.4486 455.20429,133.1936 495.92929,142.1786 C 500.57429,138.7986 505.63429,133.7036 510.39929,126.0086 C 444.55979,110.3636 389.95029,121.3586 372.80179,125.7136 L 372.82129,125.6936 z M 489.28429,115.5586 L 482.72429,85.0136 L 458.75929,112.8436 L 441.37579,78.8186 L 424.75479,112.8436 L 400.02829,84.6236 L 393.85629,116.3186 L 361.00479,94.2886 C 361.00479,94.2886 364.75479,109.1936 371.74729,123.4286 C 388.64179,119.0936 444.50079,107.5886 511.82429,123.7436 C 516.19929,116.1036 520.24429,106.1636 523.36929,93.1386 L 489.36429,115.5586"
     style="fill:#ffd600;stroke:#000000;stroke-opacity:1;stroke-width:1.5;stroke-miterlimit:4;stroke-dasharray:none" />
  <path
     d="M 787.61811,650.5144 L 787.61811,675.02027 L 129.35468,868.27142 L 43.52391,869.70493 L 43.523681,846.11126 L 701.38875,650.5144 L 787.61811,650.5144 z M 43.52391,650.5144 L 43.52391,675.02063 L 702.57434,869.63114 L 787.61811,869.70493 L 787.61811,845.1987 L 129.40255,650.5144 L 43.52391,650.5144 z "
     id="path146"
     sodipodi:nodetypes="cccccccccccccc"
     style="font-size:12px;fill:#ffffff;fill-opacity:1;stroke-width:1pt" />
  <path
     d="M 787.61806,1125.4274 C 781.91706,1129.7834 765.33506,1136.6684 754.93206,1136.0024 C 725.24706,1134.1644 698.93606,1114.6774 671.29306,1114.8524 C 648.30406,1114.9974 626.00106,1136.9634 603.03706,1136.9634 C 575.04906,1136.9634 547.58406,1114.8524 518.43706,1114.8524 C 503.05506,1114.8524 470.32406,1135.9994 454.98706,1136.9634 C 441.59206,1138.6454 388.65206,1114.8524 369.42506,1115.8134 C 347.26106,1116.9804 327.38806,1135.8614 305.97606,1136.0024 C 278.67906,1136.1824 247.77906,1116.6014 220.41406,1116.7754 C 197.46706,1116.9214 177.94906,1137.1064 155.04206,1136.9634 C 126.67696,1136.7864 96.01036,1116.7064 69.48046,1115.8134 C 61.65366,1115.8334 49.53659,1122.5544 43.52368,1126.3884 C 43.52368,1135.3724 43.52368,1138.8014 43.52368,1146.5774 C 65.08086,1146.5774 733.66706,1146.5774 787.61806,1146.5774 C 787.61806,1136.3984 787.61806,1139.0764 787.61806,1125.4274 z "
     id="path592"
     sodipodi:nodetypes="csssssssssscccc"
     style="fill:#000066;fill-opacity:1;fill-rule:evenodd;stroke:none;stroke-width:1pt;stroke-linecap:butt;stroke-linejoin:miter;stroke-opacity:1" />
  <g
     id="g3349"
     transform="matrix(1.518638,0,0,1.518638,-181.8657,-1028.895)">
    <path
       transform="matrix(0.837726,0,0,0.753698,100.5272,677.3379)"
       style="fill:none;fill-opacity:1;fill-rule:evenodd;stroke:#000000;stroke-width:1.24015999;stroke-linecap:butt;stroke-linejoin:miter;stroke-dasharray:none;stroke-opacity:1"
       sodipodi:type="arc"
       sodipodi:ry="4.758492"
       sodipodi:rx="6.797852"
       sodipodi:cy="111.98389"
       sodipodi:cx="345.3313"
       id="path583"
       d="M 352.12915 111.98389 A 6.797852 4.758492 0 1 1  338.53345,111.98389 A 6.797852 4.758492 0 1 1  352.12915 111.98389 z" />
    <path
       transform="matrix(1,0,0,0.89417,44.21315,662.3416)"
       style="fill:none;fill-opacity:1;fill-rule:evenodd;stroke:#000000;stroke-width:1.24015999;stroke-linecap:butt;stroke-linejoin:miter;stroke-dasharray:none;stroke-opacity:1"
       sodipodi:type="arc"
       sodipodi:ry="3.908787"
       sodipodi:rx="5.7103729"
       sodipodi:cy="110.45438"
       sodipodi:cx="366.33685"
       id="path584"
       d="M 372.04723 110.45438 A 5.7103729 3.908787 0 1 1  360.62648,110.45438 A 5.7103729 3.908787 0 1 1  372.04723 110.45438 z" />
    <path
       transform="matrix(0.852476,0,0,0.819696,99.93386,670.2612)"
       style="fill:none;fill-opacity:1;fill-rule:evenodd;stroke:#000000;stroke-width:1.24015999;stroke-linecap:butt;stroke-linejoin:miter;stroke-dasharray:none;stroke-opacity:1"
       sodipodi:type="arc"
       sodipodi:ry="4.5885472"
       sodipodi:rx="5.6082458"
       sodipodi:cy="111.81395"
       sodipodi:cx="387.98788"
       id="path585"
       d="M 393.59613 111.81395 A 5.6082458 4.5885472 0 1 1  382.37964,111.81395 A 5.6082458 4.5885472 0 1 1  393.59613 111.81395 z" />
    <path
       transform="matrix(0.956987,0.367353,-0.252008,0.656499,90.62174,538.8579)"
       style="font-size:12px;fill:none;fill-rule:evenodd;stroke:#000000;stroke-width:1.23177004"
       sodipodi:type="arc"
       sodipodi:start="1.845166"
       sodipodi:ry="6.3558202"
       sodipodi:rx="5.438293"
       sodipodi:end="5.034393"
       sodipodi:cy="117.65993"
       sodipodi:cx="407.87161"
       id="path586"
       d="M 406.39816,123.77802 A 5.438293,6.3558202 0 1 1 409.59266,111.63078 L 407.87161,117.65993 z" />
    <path
       transform="matrix(-0.175512,-0.825721,0.87271,-0.185501,338.034,1125.054)"
       style="font-size:12px;fill:none;fill-rule:evenodd;stroke:#000000;stroke-width:1.31789994;stroke-dasharray:none;stroke-opacity:1"
       sodipodi:type="arc"
       sodipodi:start="5.938345"
       sodipodi:ry="6.3558202"
       sodipodi:rx="5.438293"
       sodipodi:end="9.048517"
       sodipodi:cy="117.65993"
       sodipodi:cx="407.87161"
       id="path587"
       d="M 412.98975,115.51137 A 5.438293,6.3558202 0 0 1 402.81376,119.99535 L 407.87161,117.65993 z" />
  </g>
</svg>
