<?xml version="1.0" encoding="UTF-8" standalone="no"?>
<!-- Created with Sodipodi ("http://www.sodipodi.com/") -->
<!-- /Creative Commons Public Domain -->
<!--

-->
<svg
   xmlns:dc="http://purl.org/dc/elements/1.1/"
   xmlns:cc="http://web.resource.org/cc/"
   xmlns:rdf="http://www.w3.org/1999/02/22-rdf-syntax-ns#"
   xmlns:svg="http://www.w3.org/2000/svg"
   xmlns="http://www.w3.org/2000/svg"
   xmlns:sodipodi="http://inkscape.sourceforge.net/DTD/sodipodi-0.dtd"
   xmlns:inkscape="http://www.inkscape.org/namespaces/inkscape"
   sodipodi:docbase="svg"
   inkscape:version="0.41"
   width="790"
   sodipodi:version="0.32"
   sodipodi:docname="united_states.svg"
   id="svg153"
   height="416">
  <desc
     id="desc3">
    The United States of America flag, produced by Daniel McRae
  </desc>
  <defs
     id="defs155" />
  <sodipodi:namedview
     inkscape:current-layer="svg153"
     inkscape:window-y="35"
     inkscape:window-x="115"
     inkscape:window-height="923"
     inkscape:window-width="1260"
     inkscape:cy="482.83692"
     inkscape:cx="264.60691"
     inkscape:zoom="1.3937885"
     id="base" />
  <g
     id="g1546">
    <rect
       height="32.000000"
       id="rect158"
       style="font-size:12.000000;fill:#bd3d44;fill-opacity:1.0000000;fill-rule:evenodd;stroke-width:1.0000000pt"
       width="790.40002"
       x="0.62559599"
       y="64.604660" />
    <rect
       height="32.000000"
       id="rect160"
       style="font-size:12.000000;fill:#bd3d44;fill-opacity:1.0000000;fill-rule:evenodd;stroke-width:1.0000000pt"
       width="790.40002"
       x="0.62559599"
       y="128.60466" />
    <rect
       height="32.000000"
       id="rect162"
       style="font-size:12.000000;fill:#bd3d44;fill-opacity:1.0000000;fill-rule:evenodd;stroke-width:1.0000000pt"
       width="790.40002"
       x="0.62559599"
       y="192.60466" />
    <rect
       height="32.000000"
       id="rect164"
       style="font-size:12.000000;fill:#bd3d44;fill-opacity:1.0000000;fill-rule:evenodd;stroke-width:1.0000000pt"
       width="790.40002"
       x="0.62559599"
       y="256.60464" />
    <rect
       height="32.000000"
       id="rect166"
       style="font-size:12.000000;fill:#bd3d44;fill-opacity:1.0000000;fill-rule:evenodd;stroke-width:1.0000000pt"
       width="790.40002"
       x="0.62559599"
       y="320.60464" />
    <rect
       height="32.000000"
       id="rect168"
       style="font-size:12.000000;fill:#bd3d44;fill-opacity:1.0000000;fill-rule:evenodd;stroke-width:1.0000000pt"
       width="790.40002"
       x="0.62559599"
       y="384.60464" />
    <g
       transform="matrix(3.200000,0.000000,0.000000,3.200000,0.625596,0.604658)"
       id="g177"
       style="fill:#ffffff;font-size:12.000000">
      <rect
         height="10.000000"
         id="rect157"
         style="font-size:12.000000px;fill:#ffffff;fill-opacity:1.0000000;fill-rule:evenodd;stroke-width:1.0000000pt"
         width="247.00000"
         x="0.0000000"
         y="10.000000" />
      <rect
         height="10.000000"
         id="rect159"
         style="font-size:12.000000px;fill:#ffffff;fill-opacity:1.0000000;fill-rule:evenodd;stroke-width:1.0000000pt"
         width="247.00000"
         x="0.0000000"
         y="30.000000" />
      <rect
         height="10.000000"
         id="rect161"
         style="font-size:12.000000px;fill:#ffffff;fill-opacity:1.0000000;fill-rule:evenodd;stroke-width:1.0000000pt"
         width="247.00000"
         x="0.0000000"
         y="50.000000" />
      <rect
         height="10.000000"
         id="rect163"
         style="font-size:12.000000px;fill:#ffffff;fill-opacity:1.0000000;fill-rule:evenodd;stroke-width:1.0000000pt"
         width="247.00000"
         x="0.0000000"
         y="70.000000" />
      <rect
         height="10.000000"
         id="rect165"
         style="font-size:12.000000px;fill:#ffffff;fill-opacity:1.0000000;fill-rule:evenodd;stroke-width:1.0000000pt"
         width="247.00000"
         x="0.0000000"
         y="90.000000" />
      <rect
         height="10.000000"
         id="rect167"
         style="font-size:12.000000px;fill:#ffffff;fill-opacity:1.0000000;fill-rule:evenodd;stroke-width:1.0000000pt"
         width="247.00000"
         x="0.0000000"
         y="110.00000" />
    </g>
    <rect
       height="32.000000"
       id="rect1544"
       style="font-size:12.000000;fill:#bd3d44;fill-opacity:1.0000000;fill-rule:evenodd;stroke-width:1.0000000pt"
       width="790.40002"
       x="0.38058183"
       y="0.61444026" />
    <rect
       height="224.00000"
       id="rect200"
       style="font-size:12.000000;fill:#192f5d;fill-rule:evenodd;stroke-width:1.0000000pt"
       width="316.16000"
       x="0.62559599"
       y="0.60465801" />
    <g
       transform="matrix(3.200000,0.000000,0.000000,3.200000,0.625596,0.604658)"
       id="g274">
      <g
         id="g218">
        <g
           id="g194">
          <polygon
             d="M 1.3084868e-06,-4.0040002 L 0.89895399,-1.2373040 L 3.8080309,-1.2373029 L 1.4545381,0.47260808 L 2.3534912,3.2393050 L 5.9998994e-09,1.5293919 L -2.3534933,3.2393034 L -1.4545381,0.47260809 L -3.8080301,-1.2373053 L -0.89895400,-1.2373040 L 1.3084868e-06,-4.0040002 z "
             inkscape:randomized="0.0000000"
             inkscape:rounded="0.0000000"
             inkscape:flatsided="false"
             id="polygon207"
             points="0,-4.004 0.898954009,-1.2373040455 3.808030291,-1.2373040455 1.454538141067,0.4726080910 2.35349215,3.2393040455 0,1.529391909 -2.35349215,3.2393040455 -1.454538141067,0.472608091 -3.808030291,-1.2373040455 -0.898954009,-1.2373040455 0,-4.004 "
             sodipodi:arg1="-1.5707960"
             sodipodi:arg2="-0.94247780"
             sodipodi:cx="0.0000000"
             sodipodi:cy="0.0000000"
             sodipodi:r1="4.0040002"
             sodipodi:r2="1.5293919"
             sodipodi:sides="5"
             sodipodi:type="star"
             style="font-size:12.000000px;fill:#ffffff;fill-opacity:1.0000000;fill-rule:evenodd;stroke:none;stroke-width:0.12500000;stroke-dasharray:none"
             transform="translate(8.233333,7.000000)" />
          <polygon
             d="M 1.3084868e-06,-4.0040002 L 0.89895399,-1.2373040 L 3.8080309,-1.2373029 L 1.4545381,0.47260808 L 2.3534912,3.2393050 L 5.9998994e-09,1.5293919 L -2.3534933,3.2393034 L -1.4545381,0.47260809 L -3.8080301,-1.2373053 L -0.89895400,-1.2373040 L 1.3084868e-06,-4.0040002 z "
             inkscape:randomized="0.0000000"
             inkscape:rounded="0.0000000"
             inkscape:flatsided="false"
             id="polygon188"
             points="0,-4.004 0.898954009,-1.2373040455 3.808030291,-1.2373040455 1.454538141067,0.4726080910 2.35349215,3.2393040455 0,1.529391909 -2.35349215,3.2393040455 -1.454538141067,0.472608091 -3.808030291,-1.2373040455 -0.898954009,-1.2373040455 0,-4.004 "
             sodipodi:arg1="-1.5707960"
             sodipodi:arg2="-0.94247780"
             sodipodi:cx="0.0000000"
             sodipodi:cy="0.0000000"
             sodipodi:r1="4.0040002"
             sodipodi:r2="1.5293919"
             sodipodi:sides="5"
             sodipodi:type="star"
             style="font-size:12.000000px;fill:#ffffff;fill-opacity:1.0000000;fill-rule:evenodd;stroke:none;stroke-width:0.12500000;stroke-dasharray:none"
             transform="translate(24.70000,7.000000)" />
          <polygon
             d="M 1.3084868e-06,-4.0040002 L 0.89895399,-1.2373040 L 3.8080309,-1.2373029 L 1.4545381,0.47260808 L 2.3534912,3.2393050 L 5.9998994e-09,1.5293919 L -2.3534933,3.2393034 L -1.4545381,0.47260809 L -3.8080301,-1.2373053 L -0.89895400,-1.2373040 L 1.3084868e-06,-4.0040002 z "
             inkscape:randomized="0.0000000"
             inkscape:rounded="0.0000000"
             inkscape:flatsided="false"
             id="polygon189"
             points="0,-4.004 0.898954009,-1.2373040455 3.808030291,-1.2373040455 1.454538141067,0.4726080910 2.35349215,3.2393040455 0,1.529391909 -2.35349215,3.2393040455 -1.454538141067,0.472608091 -3.808030291,-1.2373040455 -0.898954009,-1.2373040455 0,-4.004 "
             sodipodi:arg1="-1.5707960"
             sodipodi:arg2="-0.94247780"
             sodipodi:cx="0.0000000"
             sodipodi:cy="0.0000000"
             sodipodi:r1="4.0040002"
             sodipodi:r2="1.5293919"
             sodipodi:sides="5"
             sodipodi:type="star"
             style="font-size:12.000000px;fill:#ffffff;fill-opacity:1.0000000;fill-rule:evenodd;stroke:none;stroke-width:0.12500000;stroke-dasharray:none"
             transform="translate(41.16667,7.000000)" />
          <polygon
             d="M 1.3084868e-06,-4.0040002 L 0.89895399,-1.2373040 L 3.8080309,-1.2373029 L 1.4545381,0.47260808 L 2.3534912,3.2393050 L 5.9998994e-09,1.5293919 L -2.3534933,3.2393034 L -1.4545381,0.47260809 L -3.8080301,-1.2373053 L -0.89895400,-1.2373040 L 1.3084868e-06,-4.0040002 z "
             inkscape:randomized="0.0000000"
             inkscape:rounded="0.0000000"
             inkscape:flatsided="false"
             id="polygon190"
             points="0,-4.004 0.898954009,-1.2373040455 3.808030291,-1.2373040455 1.454538141067,0.4726080910 2.35349215,3.2393040455 0,1.529391909 -2.35349215,3.2393040455 -1.454538141067,0.472608091 -3.808030291,-1.2373040455 -0.898954009,-1.2373040455 0,-4.004 "
             sodipodi:arg1="-1.5707960"
             sodipodi:arg2="-0.94247780"
             sodipodi:cx="0.0000000"
             sodipodi:cy="0.0000000"
             sodipodi:r1="4.0040002"
             sodipodi:r2="1.5293919"
             sodipodi:sides="5"
             sodipodi:type="star"
             style="font-size:12.000000px;fill:#ffffff;fill-opacity:1.0000000;fill-rule:evenodd;stroke:none;stroke-width:0.12500000;stroke-dasharray:none"
             transform="translate(57.63333,7.000000)" />
          <polygon
             d="M 1.3084868e-06,-4.0040002 L 0.89895399,-1.2373040 L 3.8080309,-1.2373029 L 1.4545381,0.47260808 L 2.3534912,3.2393050 L 5.9998994e-09,1.5293919 L -2.3534933,3.2393034 L -1.4545381,0.47260809 L -3.8080301,-1.2373053 L -0.89895400,-1.2373040 L 1.3084868e-06,-4.0040002 z "
             inkscape:randomized="0.0000000"
             inkscape:rounded="0.0000000"
             inkscape:flatsided="false"
             id="polygon191"
             points="0,-4.004 0.898954009,-1.2373040455 3.808030291,-1.2373040455 1.454538141067,0.4726080910 2.35349215,3.2393040455 0,1.529391909 -2.35349215,3.2393040455 -1.454538141067,0.472608091 -3.808030291,-1.2373040455 -0.898954009,-1.2373040455 0,-4.004 "
             sodipodi:arg1="-1.5707960"
             sodipodi:arg2="-0.94247780"
             sodipodi:cx="0.0000000"
             sodipodi:cy="0.0000000"
             sodipodi:r1="4.0040002"
             sodipodi:r2="1.5293919"
             sodipodi:sides="5"
             sodipodi:type="star"
             style="font-size:12.000000px;fill:#ffffff;fill-opacity:1.0000000;fill-rule:evenodd;stroke:none;stroke-width:0.12500000;stroke-dasharray:none"
             transform="translate(74.10000,7.000000)" />
          <polygon
             d="M 1.3084868e-06,-4.0040002 L 0.89895399,-1.2373040 L 3.8080309,-1.2373029 L 1.4545381,0.47260808 L 2.3534912,3.2393050 L 5.9998994e-09,1.5293919 L -2.3534933,3.2393034 L -1.4545381,0.47260809 L -3.8080301,-1.2373053 L -0.89895400,-1.2373040 L 1.3084868e-06,-4.0040002 z "
             inkscape:randomized="0.0000000"
             inkscape:rounded="0.0000000"
             inkscape:flatsided="false"
             id="polygon192"
             points="0,-4.004 0.898954009,-1.2373040455 3.808030291,-1.2373040455 1.454538141067,0.4726080910 2.35349215,3.2393040455 0,1.529391909 -2.35349215,3.2393040455 -1.454538141067,0.472608091 -3.808030291,-1.2373040455 -0.898954009,-1.2373040455 0,-4.004 "
             sodipodi:arg1="-1.5707960"
             sodipodi:arg2="-0.94247780"
             sodipodi:cx="0.0000000"
             sodipodi:cy="0.0000000"
             sodipodi:r1="4.0040002"
             sodipodi:r2="1.5293919"
             sodipodi:sides="5"
             sodipodi:type="star"
             style="font-size:12.000000px;fill:#ffffff;fill-opacity:1.0000000;fill-rule:evenodd;stroke:none;stroke-width:0.12500000;stroke-dasharray:none"
             transform="translate(90.56667,7.000000)" />
        </g>
        <g
           id="g205">
          <polygon
             d="M 1.3084868e-06,-4.0040002 L 0.89895399,-1.2373040 L 3.8080309,-1.2373029 L 1.4545381,0.47260808 L 2.3534912,3.2393050 L 5.9998994e-09,1.5293919 L -2.3534933,3.2393034 L -1.4545381,0.47260809 L -3.8080301,-1.2373053 L -0.89895400,-1.2373040 L 1.3084868e-06,-4.0040002 z "
             inkscape:randomized="0.0000000"
             inkscape:rounded="0.0000000"
             inkscape:flatsided="false"
             id="polygon193"
             points="0,-4.004 0.898954009,-1.2373040455 3.808030291,-1.2373040455 1.454538141067,0.4726080910 2.35349215,3.2393040455 0,1.529391909 -2.35349215,3.2393040455 -1.454538141067,0.472608091 -3.808030291,-1.2373040455 -0.898954009,-1.2373040455 0,-4.004 "
             sodipodi:arg1="-1.5707960"
             sodipodi:arg2="-0.94247780"
             sodipodi:cx="0.0000000"
             sodipodi:cy="0.0000000"
             sodipodi:r1="4.0040002"
             sodipodi:r2="1.5293919"
             sodipodi:sides="5"
             sodipodi:type="star"
             style="font-size:12.000000px;fill:#ffffff;fill-opacity:1.0000000;fill-rule:evenodd;stroke:none;stroke-width:0.12500000;stroke-dasharray:none"
             transform="translate(16.46667,14.00000)" />
          <polygon
             d="M 1.3084868e-06,-4.0040002 L 0.89895399,-1.2373040 L 3.8080309,-1.2373029 L 1.4545381,0.47260808 L 2.3534912,3.2393050 L 5.9998994e-09,1.5293919 L -2.3534933,3.2393034 L -1.4545381,0.47260809 L -3.8080301,-1.2373053 L -0.89895400,-1.2373040 L 1.3084868e-06,-4.0040002 z "
             inkscape:randomized="0.0000000"
             inkscape:rounded="0.0000000"
             inkscape:flatsided="false"
             id="polygon201"
             points="0,-4.004 0.898954009,-1.2373040455 3.808030291,-1.2373040455 1.454538141067,0.4726080910 2.35349215,3.2393040455 0,1.529391909 -2.35349215,3.2393040455 -1.454538141067,0.472608091 -3.808030291,-1.2373040455 -0.898954009,-1.2373040455 0,-4.004 "
             sodipodi:arg1="-1.5707960"
             sodipodi:arg2="-0.94247780"
             sodipodi:cx="0.0000000"
             sodipodi:cy="0.0000000"
             sodipodi:r1="4.0040002"
             sodipodi:r2="1.5293919"
             sodipodi:sides="5"
             sodipodi:type="star"
             style="font-size:12.000000px;fill:#ffffff;fill-opacity:1.0000000;fill-rule:evenodd;stroke:none;stroke-width:0.12500000;stroke-dasharray:none"
             transform="translate(32.93333,14.00000)" />
          <polygon
             d="M 1.3084868e-06,-4.0040002 L 0.89895399,-1.2373040 L 3.8080309,-1.2373029 L 1.4545381,0.47260808 L 2.3534912,3.2393050 L 5.9998994e-09,1.5293919 L -2.3534933,3.2393034 L -1.4545381,0.47260809 L -3.8080301,-1.2373053 L -0.89895400,-1.2373040 L 1.3084868e-06,-4.0040002 z "
             inkscape:randomized="0.0000000"
             inkscape:rounded="0.0000000"
             inkscape:flatsided="false"
             id="polygon202"
             points="0,-4.004 0.898954009,-1.2373040455 3.808030291,-1.2373040455 1.454538141067,0.4726080910 2.35349215,3.2393040455 0,1.529391909 -2.35349215,3.2393040455 -1.454538141067,0.472608091 -3.808030291,-1.2373040455 -0.898954009,-1.2373040455 0,-4.004 "
             sodipodi:arg1="-1.5707960"
             sodipodi:arg2="-0.94247780"
             sodipodi:cx="0.0000000"
             sodipodi:cy="0.0000000"
             sodipodi:r1="4.0040002"
             sodipodi:r2="1.5293919"
             sodipodi:sides="5"
             sodipodi:type="star"
             style="font-size:12.000000px;fill:#ffffff;fill-opacity:1.0000000;fill-rule:evenodd;stroke:none;stroke-width:0.12500000;stroke-dasharray:none"
             transform="translate(49.40000,14.00000)" />
          <polygon
             d="M 1.3084868e-06,-4.0040002 L 0.89895399,-1.2373040 L 3.8080309,-1.2373029 L 1.4545381,0.47260808 L 2.3534912,3.2393050 L 5.9998994e-09,1.5293919 L -2.3534933,3.2393034 L -1.4545381,0.47260809 L -3.8080301,-1.2373053 L -0.89895400,-1.2373040 L 1.3084868e-06,-4.0040002 z "
             inkscape:randomized="0.0000000"
             inkscape:rounded="0.0000000"
             inkscape:flatsided="false"
             id="polygon203"
             points="0,-4.004 0.898954009,-1.2373040455 3.808030291,-1.2373040455 1.454538141067,0.4726080910 2.35349215,3.2393040455 0,1.529391909 -2.35349215,3.2393040455 -1.454538141067,0.472608091 -3.808030291,-1.2373040455 -0.898954009,-1.2373040455 0,-4.004 "
             sodipodi:arg1="-1.5707960"
             sodipodi:arg2="-0.94247780"
             sodipodi:cx="0.0000000"
             sodipodi:cy="0.0000000"
             sodipodi:r1="4.0040002"
             sodipodi:r2="1.5293919"
             sodipodi:sides="5"
             sodipodi:type="star"
             style="font-size:12.000000px;fill:#ffffff;fill-opacity:1.0000000;fill-rule:evenodd;stroke:none;stroke-width:0.12500000;stroke-dasharray:none"
             transform="translate(65.86667,14.00000)" />
          <polygon
             d="M 1.3084868e-06,-4.0040002 L 0.89895399,-1.2373040 L 3.8080309,-1.2373029 L 1.4545381,0.47260808 L 2.3534912,3.2393050 L 5.9998994e-09,1.5293919 L -2.3534933,3.2393034 L -1.4545381,0.47260809 L -3.8080301,-1.2373053 L -0.89895400,-1.2373040 L 1.3084868e-06,-4.0040002 z "
             inkscape:randomized="0.0000000"
             inkscape:rounded="0.0000000"
             inkscape:flatsided="false"
             id="polygon204"
             points="0,-4.004 0.898954009,-1.2373040455 3.808030291,-1.2373040455 1.454538141067,0.4726080910 2.35349215,3.2393040455 0,1.529391909 -2.35349215,3.2393040455 -1.454538141067,0.472608091 -3.808030291,-1.2373040455 -0.898954009,-1.2373040455 0,-4.004 "
             sodipodi:arg1="-1.5707960"
             sodipodi:arg2="-0.94247780"
             sodipodi:cx="0.0000000"
             sodipodi:cy="0.0000000"
             sodipodi:r1="4.0040002"
             sodipodi:r2="1.5293919"
             sodipodi:sides="5"
             sodipodi:type="star"
             style="font-size:12.000000px;fill:#ffffff;fill-opacity:1.0000000;fill-rule:evenodd;stroke:none;stroke-width:0.12500000;stroke-dasharray:none"
             transform="translate(82.33333,14.00000)" />
        </g>
      </g>
      <g
         id="g232"
         transform="translate(0.000000,14.00000)">
        <g
           id="g233">
          <polygon
             d="M 1.3084868e-06,-4.0040002 L 0.89895399,-1.2373040 L 3.8080309,-1.2373029 L 1.4545381,0.47260808 L 2.3534912,3.2393050 L 5.9998994e-09,1.5293919 L -2.3534933,3.2393034 L -1.4545381,0.47260809 L -3.8080301,-1.2373053 L -0.89895400,-1.2373040 L 1.3084868e-06,-4.0040002 z "
             inkscape:randomized="0.0000000"
             inkscape:rounded="0.0000000"
             inkscape:flatsided="false"
             id="polygon234"
             points="0,-4.004 0.898954009,-1.2373040455 3.808030291,-1.2373040455 1.454538141067,0.4726080910 2.35349215,3.2393040455 0,1.529391909 -2.35349215,3.2393040455 -1.454538141067,0.472608091 -3.808030291,-1.2373040455 -0.898954009,-1.2373040455 0,-4.004 "
             sodipodi:arg1="-1.5707960"
             sodipodi:arg2="-0.94247780"
             sodipodi:cx="0.0000000"
             sodipodi:cy="0.0000000"
             sodipodi:r1="4.0040002"
             sodipodi:r2="1.5293919"
             sodipodi:sides="5"
             sodipodi:type="star"
             style="font-size:12.000000px;fill:#ffffff;fill-opacity:1.0000000;fill-rule:evenodd;stroke:none;stroke-width:0.12500000;stroke-dasharray:none"
             transform="translate(8.233333,7.000000)" />
          <polygon
             d="M 1.3084868e-06,-4.0040002 L 0.89895399,-1.2373040 L 3.8080309,-1.2373029 L 1.4545381,0.47260808 L 2.3534912,3.2393050 L 5.9998994e-09,1.5293919 L -2.3534933,3.2393034 L -1.4545381,0.47260809 L -3.8080301,-1.2373053 L -0.89895400,-1.2373040 L 1.3084868e-06,-4.0040002 z "
             inkscape:randomized="0.0000000"
             inkscape:rounded="0.0000000"
             inkscape:flatsided="false"
             id="polygon235"
             points="0,-4.004 0.898954009,-1.2373040455 3.808030291,-1.2373040455 1.454538141067,0.4726080910 2.35349215,3.2393040455 0,1.529391909 -2.35349215,3.2393040455 -1.454538141067,0.472608091 -3.808030291,-1.2373040455 -0.898954009,-1.2373040455 0,-4.004 "
             sodipodi:arg1="-1.5707960"
             sodipodi:arg2="-0.94247780"
             sodipodi:cx="0.0000000"
             sodipodi:cy="0.0000000"
             sodipodi:r1="4.0040002"
             sodipodi:r2="1.5293919"
             sodipodi:sides="5"
             sodipodi:type="star"
             style="font-size:12.000000px;fill:#ffffff;fill-opacity:1.0000000;fill-rule:evenodd;stroke:none;stroke-width:0.12500000;stroke-dasharray:none"
             transform="translate(24.70000,7.000000)" />
          <polygon
             d="M 1.3084868e-06,-4.0040002 L 0.89895399,-1.2373040 L 3.8080309,-1.2373029 L 1.4545381,0.47260808 L 2.3534912,3.2393050 L 5.9998994e-09,1.5293919 L -2.3534933,3.2393034 L -1.4545381,0.47260809 L -3.8080301,-1.2373053 L -0.89895400,-1.2373040 L 1.3084868e-06,-4.0040002 z "
             inkscape:randomized="0.0000000"
             inkscape:rounded="0.0000000"
             inkscape:flatsided="false"
             id="polygon236"
             points="0,-4.004 0.898954009,-1.2373040455 3.808030291,-1.2373040455 1.454538141067,0.4726080910 2.35349215,3.2393040455 0,1.529391909 -2.35349215,3.2393040455 -1.454538141067,0.472608091 -3.808030291,-1.2373040455 -0.898954009,-1.2373040455 0,-4.004 "
             sodipodi:arg1="-1.5707960"
             sodipodi:arg2="-0.94247780"
             sodipodi:cx="0.0000000"
             sodipodi:cy="0.0000000"
             sodipodi:r1="4.0040002"
             sodipodi:r2="1.5293919"
             sodipodi:sides="5"
             sodipodi:type="star"
             style="font-size:12.000000px;fill:#ffffff;fill-opacity:1.0000000;fill-rule:evenodd;stroke:none;stroke-width:0.12500000;stroke-dasharray:none"
             transform="translate(41.16667,7.000000)" />
          <polygon
             d="M 1.3084868e-06,-4.0040002 L 0.89895399,-1.2373040 L 3.8080309,-1.2373029 L 1.4545381,0.47260808 L 2.3534912,3.2393050 L 5.9998994e-09,1.5293919 L -2.3534933,3.2393034 L -1.4545381,0.47260809 L -3.8080301,-1.2373053 L -0.89895400,-1.2373040 L 1.3084868e-06,-4.0040002 z "
             inkscape:randomized="0.0000000"
             inkscape:rounded="0.0000000"
             inkscape:flatsided="false"
             id="polygon237"
             points="0,-4.004 0.898954009,-1.2373040455 3.808030291,-1.2373040455 1.454538141067,0.4726080910 2.35349215,3.2393040455 0,1.529391909 -2.35349215,3.2393040455 -1.454538141067,0.472608091 -3.808030291,-1.2373040455 -0.898954009,-1.2373040455 0,-4.004 "
             sodipodi:arg1="-1.5707960"
             sodipodi:arg2="-0.94247780"
             sodipodi:cx="0.0000000"
             sodipodi:cy="0.0000000"
             sodipodi:r1="4.0040002"
             sodipodi:r2="1.5293919"
             sodipodi:sides="5"
             sodipodi:type="star"
             style="font-size:12.000000px;fill:#ffffff;fill-opacity:1.0000000;fill-rule:evenodd;stroke:none;stroke-width:0.12500000;stroke-dasharray:none"
             transform="translate(57.63333,7.000000)" />
          <polygon
             d="M 1.3084868e-06,-4.0040002 L 0.89895399,-1.2373040 L 3.8080309,-1.2373029 L 1.4545381,0.47260808 L 2.3534912,3.2393050 L 5.9998994e-09,1.5293919 L -2.3534933,3.2393034 L -1.4545381,0.47260809 L -3.8080301,-1.2373053 L -0.89895400,-1.2373040 L 1.3084868e-06,-4.0040002 z "
             inkscape:randomized="0.0000000"
             inkscape:rounded="0.0000000"
             inkscape:flatsided="false"
             id="polygon238"
             points="0,-4.004 0.898954009,-1.2373040455 3.808030291,-1.2373040455 1.454538141067,0.4726080910 2.35349215,3.2393040455 0,1.529391909 -2.35349215,3.2393040455 -1.454538141067,0.472608091 -3.808030291,-1.2373040455 -0.898954009,-1.2373040455 0,-4.004 "
             sodipodi:arg1="-1.5707960"
             sodipodi:arg2="-0.94247780"
             sodipodi:cx="0.0000000"
             sodipodi:cy="0.0000000"
             sodipodi:r1="4.0040002"
             sodipodi:r2="1.5293919"
             sodipodi:sides="5"
             sodipodi:type="star"
             style="font-size:12.000000px;fill:#ffffff;fill-opacity:1.0000000;fill-rule:evenodd;stroke:none;stroke-width:0.12500000;stroke-dasharray:none"
             transform="translate(74.10000,7.000000)" />
          <polygon
             d="M 1.3084868e-06,-4.0040002 L 0.89895399,-1.2373040 L 3.8080309,-1.2373029 L 1.4545381,0.47260808 L 2.3534912,3.2393050 L 5.9998994e-09,1.5293919 L -2.3534933,3.2393034 L -1.4545381,0.47260809 L -3.8080301,-1.2373053 L -0.89895400,-1.2373040 L 1.3084868e-06,-4.0040002 z "
             inkscape:randomized="0.0000000"
             inkscape:rounded="0.0000000"
             inkscape:flatsided="false"
             id="polygon239"
             points="0,-4.004 0.898954009,-1.2373040455 3.808030291,-1.2373040455 1.454538141067,0.4726080910 2.35349215,3.2393040455 0,1.529391909 -2.35349215,3.2393040455 -1.454538141067,0.472608091 -3.808030291,-1.2373040455 -0.898954009,-1.2373040455 0,-4.004 "
             sodipodi:arg1="-1.5707960"
             sodipodi:arg2="-0.94247780"
             sodipodi:cx="0.0000000"
             sodipodi:cy="0.0000000"
             sodipodi:r1="4.0040002"
             sodipodi:r2="1.5293919"
             sodipodi:sides="5"
             sodipodi:type="star"
             style="font-size:12.000000px;fill:#ffffff;fill-opacity:1.0000000;fill-rule:evenodd;stroke:none;stroke-width:0.12500000;stroke-dasharray:none"
             transform="translate(90.56667,7.000000)" />
        </g>
        <g
           id="g240">
          <polygon
             d="M 1.3084868e-06,-4.0040002 L 0.89895399,-1.2373040 L 3.8080309,-1.2373029 L 1.4545381,0.47260808 L 2.3534912,3.2393050 L 5.9998994e-09,1.5293919 L -2.3534933,3.2393034 L -1.4545381,0.47260809 L -3.8080301,-1.2373053 L -0.89895400,-1.2373040 L 1.3084868e-06,-4.0040002 z "
             inkscape:randomized="0.0000000"
             inkscape:rounded="0.0000000"
             inkscape:flatsided="false"
             id="polygon241"
             points="0,-4.004 0.898954009,-1.2373040455 3.808030291,-1.2373040455 1.454538141067,0.4726080910 2.35349215,3.2393040455 0,1.529391909 -2.35349215,3.2393040455 -1.454538141067,0.472608091 -3.808030291,-1.2373040455 -0.898954009,-1.2373040455 0,-4.004 "
             sodipodi:arg1="-1.5707960"
             sodipodi:arg2="-0.94247780"
             sodipodi:cx="0.0000000"
             sodipodi:cy="0.0000000"
             sodipodi:r1="4.0040002"
             sodipodi:r2="1.5293919"
             sodipodi:sides="5"
             sodipodi:type="star"
             style="font-size:12.000000px;fill:#ffffff;fill-opacity:1.0000000;fill-rule:evenodd;stroke:none;stroke-width:0.12500000;stroke-dasharray:none"
             transform="translate(16.46667,14.00000)" />
          <polygon
             d="M 1.3084868e-06,-4.0040002 L 0.89895399,-1.2373040 L 3.8080309,-1.2373029 L 1.4545381,0.47260808 L 2.3534912,3.2393050 L 5.9998994e-09,1.5293919 L -2.3534933,3.2393034 L -1.4545381,0.47260809 L -3.8080301,-1.2373053 L -0.89895400,-1.2373040 L 1.3084868e-06,-4.0040002 z "
             inkscape:randomized="0.0000000"
             inkscape:rounded="0.0000000"
             inkscape:flatsided="false"
             id="polygon242"
             points="0,-4.004 0.898954009,-1.2373040455 3.808030291,-1.2373040455 1.454538141067,0.4726080910 2.35349215,3.2393040455 0,1.529391909 -2.35349215,3.2393040455 -1.454538141067,0.472608091 -3.808030291,-1.2373040455 -0.898954009,-1.2373040455 0,-4.004 "
             sodipodi:arg1="-1.5707960"
             sodipodi:arg2="-0.94247780"
             sodipodi:cx="0.0000000"
             sodipodi:cy="0.0000000"
             sodipodi:r1="4.0040002"
             sodipodi:r2="1.5293919"
             sodipodi:sides="5"
             sodipodi:type="star"
             style="font-size:12.000000px;fill:#ffffff;fill-opacity:1.0000000;fill-rule:evenodd;stroke:none;stroke-width:0.12500000;stroke-dasharray:none"
             transform="translate(32.93333,14.00000)" />
          <polygon
             d="M 1.3084868e-06,-4.0040002 L 0.89895399,-1.2373040 L 3.8080309,-1.2373029 L 1.4545381,0.47260808 L 2.3534912,3.2393050 L 5.9998994e-09,1.5293919 L -2.3534933,3.2393034 L -1.4545381,0.47260809 L -3.8080301,-1.2373053 L -0.89895400,-1.2373040 L 1.3084868e-06,-4.0040002 z "
             inkscape:randomized="0.0000000"
             inkscape:rounded="0.0000000"
             inkscape:flatsided="false"
             id="polygon243"
             points="0,-4.004 0.898954009,-1.2373040455 3.808030291,-1.2373040455 1.454538141067,0.4726080910 2.35349215,3.2393040455 0,1.529391909 -2.35349215,3.2393040455 -1.454538141067,0.472608091 -3.808030291,-1.2373040455 -0.898954009,-1.2373040455 0,-4.004 "
             sodipodi:arg1="-1.5707960"
             sodipodi:arg2="-0.94247780"
             sodipodi:cx="0.0000000"
             sodipodi:cy="0.0000000"
             sodipodi:r1="4.0040002"
             sodipodi:r2="1.5293919"
             sodipodi:sides="5"
             sodipodi:type="star"
             style="font-size:12.000000px;fill:#ffffff;fill-opacity:1.0000000;fill-rule:evenodd;stroke:none;stroke-width:0.12500000;stroke-dasharray:none"
             transform="translate(49.40000,14.00000)" />
          <polygon
             d="M 1.3084868e-06,-4.0040002 L 0.89895399,-1.2373040 L 3.8080309,-1.2373029 L 1.4545381,0.47260808 L 2.3534912,3.2393050 L 5.9998994e-09,1.5293919 L -2.3534933,3.2393034 L -1.4545381,0.47260809 L -3.8080301,-1.2373053 L -0.89895400,-1.2373040 L 1.3084868e-06,-4.0040002 z "
             inkscape:randomized="0.0000000"
             inkscape:rounded="0.0000000"
             inkscape:flatsided="false"
             id="polygon244"
             points="0,-4.004 0.898954009,-1.2373040455 3.808030291,-1.2373040455 1.454538141067,0.4726080910 2.35349215,3.2393040455 0,1.529391909 -2.35349215,3.2393040455 -1.454538141067,0.472608091 -3.808030291,-1.2373040455 -0.898954009,-1.2373040455 0,-4.004 "
             sodipodi:arg1="-1.5707960"
             sodipodi:arg2="-0.94247780"
             sodipodi:cx="0.0000000"
             sodipodi:cy="0.0000000"
             sodipodi:r1="4.0040002"
             sodipodi:r2="1.5293919"
             sodipodi:sides="5"
             sodipodi:type="star"
             style="font-size:12.000000px;fill:#ffffff;fill-opacity:1.0000000;fill-rule:evenodd;stroke:none;stroke-width:0.12500000;stroke-dasharray:none"
             transform="translate(65.86667,14.00000)" />
          <polygon
             d="M 1.3084868e-06,-4.0040002 L 0.89895399,-1.2373040 L 3.8080309,-1.2373029 L 1.4545381,0.47260808 L 2.3534912,3.2393050 L 5.9998994e-09,1.5293919 L -2.3534933,3.2393034 L -1.4545381,0.47260809 L -3.8080301,-1.2373053 L -0.89895400,-1.2373040 L 1.3084868e-06,-4.0040002 z "
             inkscape:randomized="0.0000000"
             inkscape:rounded="0.0000000"
             inkscape:flatsided="false"
             id="polygon245"
             points="0,-4.004 0.898954009,-1.2373040455 3.808030291,-1.2373040455 1.454538141067,0.4726080910 2.35349215,3.2393040455 0,1.529391909 -2.35349215,3.2393040455 -1.454538141067,0.472608091 -3.808030291,-1.2373040455 -0.898954009,-1.2373040455 0,-4.004 "
             sodipodi:arg1="-1.5707960"
             sodipodi:arg2="-0.94247780"
             sodipodi:cx="0.0000000"
             sodipodi:cy="0.0000000"
             sodipodi:r1="4.0040002"
             sodipodi:r2="1.5293919"
             sodipodi:sides="5"
             sodipodi:type="star"
             style="font-size:12.000000px;fill:#ffffff;fill-opacity:1.0000000;fill-rule:evenodd;stroke:none;stroke-width:0.12500000;stroke-dasharray:none"
             transform="translate(82.33333,14.00000)" />
        </g>
      </g>
      <g
         id="g246"
         transform="translate(0.000000,28.00000)">
        <g
           id="g247">
          <polygon
             d="M 1.3084868e-06,-4.0040002 L 0.89895399,-1.2373040 L 3.8080309,-1.2373029 L 1.4545381,0.47260808 L 2.3534912,3.2393050 L 5.9998994e-09,1.5293919 L -2.3534933,3.2393034 L -1.4545381,0.47260809 L -3.8080301,-1.2373053 L -0.89895400,-1.2373040 L 1.3084868e-06,-4.0040002 z "
             inkscape:randomized="0.0000000"
             inkscape:rounded="0.0000000"
             inkscape:flatsided="false"
             id="polygon248"
             points="0,-4.004 0.898954009,-1.2373040455 3.808030291,-1.2373040455 1.454538141067,0.4726080910 2.35349215,3.2393040455 0,1.529391909 -2.35349215,3.2393040455 -1.454538141067,0.472608091 -3.808030291,-1.2373040455 -0.898954009,-1.2373040455 0,-4.004 "
             sodipodi:arg1="-1.5707960"
             sodipodi:arg2="-0.94247780"
             sodipodi:cx="0.0000000"
             sodipodi:cy="0.0000000"
             sodipodi:r1="4.0040002"
             sodipodi:r2="1.5293919"
             sodipodi:sides="5"
             sodipodi:type="star"
             style="font-size:12.000000px;fill:#ffffff;fill-opacity:1.0000000;fill-rule:evenodd;stroke:none;stroke-width:0.12500000;stroke-dasharray:none"
             transform="translate(8.233333,7.000000)" />
          <polygon
             d="M 1.3084868e-06,-4.0040002 L 0.89895399,-1.2373040 L 3.8080309,-1.2373029 L 1.4545381,0.47260808 L 2.3534912,3.2393050 L 5.9998994e-09,1.5293919 L -2.3534933,3.2393034 L -1.4545381,0.47260809 L -3.8080301,-1.2373053 L -0.89895400,-1.2373040 L 1.3084868e-06,-4.0040002 z "
             inkscape:randomized="0.0000000"
             inkscape:rounded="0.0000000"
             inkscape:flatsided="false"
             id="polygon249"
             points="0,-4.004 0.898954009,-1.2373040455 3.808030291,-1.2373040455 1.454538141067,0.4726080910 2.35349215,3.2393040455 0,1.529391909 -2.35349215,3.2393040455 -1.454538141067,0.472608091 -3.808030291,-1.2373040455 -0.898954009,-1.2373040455 0,-4.004 "
             sodipodi:arg1="-1.5707960"
             sodipodi:arg2="-0.94247780"
             sodipodi:cx="0.0000000"
             sodipodi:cy="0.0000000"
             sodipodi:r1="4.0040002"
             sodipodi:r2="1.5293919"
             sodipodi:sides="5"
             sodipodi:type="star"
             style="font-size:12.000000px;fill:#ffffff;fill-opacity:1.0000000;fill-rule:evenodd;stroke:none;stroke-width:0.12500000;stroke-dasharray:none"
             transform="translate(24.70000,7.000000)" />
          <polygon
             d="M 1.3084868e-06,-4.0040002 L 0.89895399,-1.2373040 L 3.8080309,-1.2373029 L 1.4545381,0.47260808 L 2.3534912,3.2393050 L 5.9998994e-09,1.5293919 L -2.3534933,3.2393034 L -1.4545381,0.47260809 L -3.8080301,-1.2373053 L -0.89895400,-1.2373040 L 1.3084868e-06,-4.0040002 z "
             inkscape:randomized="0.0000000"
             inkscape:rounded="0.0000000"
             inkscape:flatsided="false"
             id="polygon250"
             points="0,-4.004 0.898954009,-1.2373040455 3.808030291,-1.2373040455 1.454538141067,0.4726080910 2.35349215,3.2393040455 0,1.529391909 -2.35349215,3.2393040455 -1.454538141067,0.472608091 -3.808030291,-1.2373040455 -0.898954009,-1.2373040455 0,-4.004 "
             sodipodi:arg1="-1.5707960"
             sodipodi:arg2="-0.94247780"
             sodipodi:cx="0.0000000"
             sodipodi:cy="0.0000000"
             sodipodi:r1="4.0040002"
             sodipodi:r2="1.5293919"
             sodipodi:sides="5"
             sodipodi:type="star"
             style="font-size:12.000000px;fill:#ffffff;fill-opacity:1.0000000;fill-rule:evenodd;stroke:none;stroke-width:0.12500000;stroke-dasharray:none"
             transform="translate(41.16667,7.000000)" />
          <polygon
             d="M 1.3084868e-06,-4.0040002 L 0.89895399,-1.2373040 L 3.8080309,-1.2373029 L 1.4545381,0.47260808 L 2.3534912,3.2393050 L 5.9998994e-09,1.5293919 L -2.3534933,3.2393034 L -1.4545381,0.47260809 L -3.8080301,-1.2373053 L -0.89895400,-1.2373040 L 1.3084868e-06,-4.0040002 z "
             inkscape:randomized="0.0000000"
             inkscape:rounded="0.0000000"
             inkscape:flatsided="false"
             id="polygon251"
             points="0,-4.004 0.898954009,-1.2373040455 3.808030291,-1.2373040455 1.454538141067,0.4726080910 2.35349215,3.2393040455 0,1.529391909 -2.35349215,3.2393040455 -1.454538141067,0.472608091 -3.808030291,-1.2373040455 -0.898954009,-1.2373040455 0,-4.004 "
             sodipodi:arg1="-1.5707960"
             sodipodi:arg2="-0.94247780"
             sodipodi:cx="0.0000000"
             sodipodi:cy="0.0000000"
             sodipodi:r1="4.0040002"
             sodipodi:r2="1.5293919"
             sodipodi:sides="5"
             sodipodi:type="star"
             style="font-size:12.000000px;fill:#ffffff;fill-opacity:1.0000000;fill-rule:evenodd;stroke:none;stroke-width:0.12500000;stroke-dasharray:none"
             transform="translate(57.63333,7.000000)" />
          <polygon
             d="M 1.3084868e-06,-4.0040002 L 0.89895399,-1.2373040 L 3.8080309,-1.2373029 L 1.4545381,0.47260808 L 2.3534912,3.2393050 L 5.9998994e-09,1.5293919 L -2.3534933,3.2393034 L -1.4545381,0.47260809 L -3.8080301,-1.2373053 L -0.89895400,-1.2373040 L 1.3084868e-06,-4.0040002 z "
             inkscape:randomized="0.0000000"
             inkscape:rounded="0.0000000"
             inkscape:flatsided="false"
             id="polygon252"
             points="0,-4.004 0.898954009,-1.2373040455 3.808030291,-1.2373040455 1.454538141067,0.4726080910 2.35349215,3.2393040455 0,1.529391909 -2.35349215,3.2393040455 -1.454538141067,0.472608091 -3.808030291,-1.2373040455 -0.898954009,-1.2373040455 0,-4.004 "
             sodipodi:arg1="-1.5707960"
             sodipodi:arg2="-0.94247780"
             sodipodi:cx="0.0000000"
             sodipodi:cy="0.0000000"
             sodipodi:r1="4.0040002"
             sodipodi:r2="1.5293919"
             sodipodi:sides="5"
             sodipodi:type="star"
             style="font-size:12.000000px;fill:#ffffff;fill-opacity:1.0000000;fill-rule:evenodd;stroke:none;stroke-width:0.12500000;stroke-dasharray:none"
             transform="translate(74.10000,7.000000)" />
          <polygon
             d="M 1.3084868e-06,-4.0040002 L 0.89895399,-1.2373040 L 3.8080309,-1.2373029 L 1.4545381,0.47260808 L 2.3534912,3.2393050 L 5.9998994e-09,1.5293919 L -2.3534933,3.2393034 L -1.4545381,0.47260809 L -3.8080301,-1.2373053 L -0.89895400,-1.2373040 L 1.3084868e-06,-4.0040002 z "
             inkscape:randomized="0.0000000"
             inkscape:rounded="0.0000000"
             inkscape:flatsided="false"
             id="polygon253"
             points="0,-4.004 0.898954009,-1.2373040455 3.808030291,-1.2373040455 1.454538141067,0.4726080910 2.35349215,3.2393040455 0,1.529391909 -2.35349215,3.2393040455 -1.454538141067,0.472608091 -3.808030291,-1.2373040455 -0.898954009,-1.2373040455 0,-4.004 "
             sodipodi:arg1="-1.5707960"
             sodipodi:arg2="-0.94247780"
             sodipodi:cx="0.0000000"
             sodipodi:cy="0.0000000"
             sodipodi:r1="4.0040002"
             sodipodi:r2="1.5293919"
             sodipodi:sides="5"
             sodipodi:type="star"
             style="font-size:12.000000px;fill:#ffffff;fill-opacity:1.0000000;fill-rule:evenodd;stroke:none;stroke-width:0.12500000;stroke-dasharray:none"
             transform="translate(90.56667,7.000000)" />
        </g>
        <g
           id="g254">
          <polygon
             d="M 1.3084868e-06,-4.0040002 L 0.89895399,-1.2373040 L 3.8080309,-1.2373029 L 1.4545381,0.47260808 L 2.3534912,3.2393050 L 5.9998994e-09,1.5293919 L -2.3534933,3.2393034 L -1.4545381,0.47260809 L -3.8080301,-1.2373053 L -0.89895400,-1.2373040 L 1.3084868e-06,-4.0040002 z "
             inkscape:randomized="0.0000000"
             inkscape:rounded="0.0000000"
             inkscape:flatsided="false"
             id="polygon255"
             points="0,-4.004 0.898954009,-1.2373040455 3.808030291,-1.2373040455 1.454538141067,0.4726080910 2.35349215,3.2393040455 0,1.529391909 -2.35349215,3.2393040455 -1.454538141067,0.472608091 -3.808030291,-1.2373040455 -0.898954009,-1.2373040455 0,-4.004 "
             sodipodi:arg1="-1.5707960"
             sodipodi:arg2="-0.94247780"
             sodipodi:cx="0.0000000"
             sodipodi:cy="0.0000000"
             sodipodi:r1="4.0040002"
             sodipodi:r2="1.5293919"
             sodipodi:sides="5"
             sodipodi:type="star"
             style="font-size:12.000000px;fill:#ffffff;fill-opacity:1.0000000;fill-rule:evenodd;stroke:none;stroke-width:0.12500000;stroke-dasharray:none"
             transform="translate(16.46667,14.00000)" />
          <polygon
             d="M 1.3084868e-06,-4.0040002 L 0.89895399,-1.2373040 L 3.8080309,-1.2373029 L 1.4545381,0.47260808 L 2.3534912,3.2393050 L 5.9998994e-09,1.5293919 L -2.3534933,3.2393034 L -1.4545381,0.47260809 L -3.8080301,-1.2373053 L -0.89895400,-1.2373040 L 1.3084868e-06,-4.0040002 z "
             inkscape:randomized="0.0000000"
             inkscape:rounded="0.0000000"
             inkscape:flatsided="false"
             id="polygon256"
             points="0,-4.004 0.898954009,-1.2373040455 3.808030291,-1.2373040455 1.454538141067,0.4726080910 2.35349215,3.2393040455 0,1.529391909 -2.35349215,3.2393040455 -1.454538141067,0.472608091 -3.808030291,-1.2373040455 -0.898954009,-1.2373040455 0,-4.004 "
             sodipodi:arg1="-1.5707960"
             sodipodi:arg2="-0.94247780"
             sodipodi:cx="0.0000000"
             sodipodi:cy="0.0000000"
             sodipodi:r1="4.0040002"
             sodipodi:r2="1.5293919"
             sodipodi:sides="5"
             sodipodi:type="star"
             style="font-size:12.000000px;fill:#ffffff;fill-opacity:1.0000000;fill-rule:evenodd;stroke:none;stroke-width:0.12500000;stroke-dasharray:none"
             transform="translate(32.93333,14.00000)" />
          <polygon
             d="M 1.3084868e-06,-4.0040002 L 0.89895399,-1.2373040 L 3.8080309,-1.2373029 L 1.4545381,0.47260808 L 2.3534912,3.2393050 L 5.9998994e-09,1.5293919 L -2.3534933,3.2393034 L -1.4545381,0.47260809 L -3.8080301,-1.2373053 L -0.89895400,-1.2373040 L 1.3084868e-06,-4.0040002 z "
             inkscape:randomized="0.0000000"
             inkscape:rounded="0.0000000"
             inkscape:flatsided="false"
             id="polygon257"
             points="0,-4.004 0.898954009,-1.2373040455 3.808030291,-1.2373040455 1.454538141067,0.4726080910 2.35349215,3.2393040455 0,1.529391909 -2.35349215,3.2393040455 -1.454538141067,0.472608091 -3.808030291,-1.2373040455 -0.898954009,-1.2373040455 0,-4.004 "
             sodipodi:arg1="-1.5707960"
             sodipodi:arg2="-0.94247780"
             sodipodi:cx="0.0000000"
             sodipodi:cy="0.0000000"
             sodipodi:r1="4.0040002"
             sodipodi:r2="1.5293919"
             sodipodi:sides="5"
             sodipodi:type="star"
             style="font-size:12.000000px;fill:#ffffff;fill-opacity:1.0000000;fill-rule:evenodd;stroke:none;stroke-width:0.12500000;stroke-dasharray:none"
             transform="translate(49.40000,14.00000)" />
          <polygon
             d="M 1.3084868e-06,-4.0040002 L 0.89895399,-1.2373040 L 3.8080309,-1.2373029 L 1.4545381,0.47260808 L 2.3534912,3.2393050 L 5.9998994e-09,1.5293919 L -2.3534933,3.2393034 L -1.4545381,0.47260809 L -3.8080301,-1.2373053 L -0.89895400,-1.2373040 L 1.3084868e-06,-4.0040002 z "
             inkscape:randomized="0.0000000"
             inkscape:rounded="0.0000000"
             inkscape:flatsided="false"
             id="polygon258"
             points="0,-4.004 0.898954009,-1.2373040455 3.808030291,-1.2373040455 1.454538141067,0.4726080910 2.35349215,3.2393040455 0,1.529391909 -2.35349215,3.2393040455 -1.454538141067,0.472608091 -3.808030291,-1.2373040455 -0.898954009,-1.2373040455 0,-4.004 "
             sodipodi:arg1="-1.5707960"
             sodipodi:arg2="-0.94247780"
             sodipodi:cx="0.0000000"
             sodipodi:cy="0.0000000"
             sodipodi:r1="4.0040002"
             sodipodi:r2="1.5293919"
             sodipodi:sides="5"
             sodipodi:type="star"
             style="font-size:12.000000px;fill:#ffffff;fill-opacity:1.0000000;fill-rule:evenodd;stroke:none;stroke-width:0.12500000;stroke-dasharray:none"
             transform="translate(65.86667,14.00000)" />
          <polygon
             d="M 1.3084868e-06,-4.0040002 L 0.89895399,-1.2373040 L 3.8080309,-1.2373029 L 1.4545381,0.47260808 L 2.3534912,3.2393050 L 5.9998994e-09,1.5293919 L -2.3534933,3.2393034 L -1.4545381,0.47260809 L -3.8080301,-1.2373053 L -0.89895400,-1.2373040 L 1.3084868e-06,-4.0040002 z "
             inkscape:randomized="0.0000000"
             inkscape:rounded="0.0000000"
             inkscape:flatsided="false"
             id="polygon259"
             points="0,-4.004 0.898954009,-1.2373040455 3.808030291,-1.2373040455 1.454538141067,0.4726080910 2.35349215,3.2393040455 0,1.529391909 -2.35349215,3.2393040455 -1.454538141067,0.472608091 -3.808030291,-1.2373040455 -0.898954009,-1.2373040455 0,-4.004 "
             sodipodi:arg1="-1.5707960"
             sodipodi:arg2="-0.94247780"
             sodipodi:cx="0.0000000"
             sodipodi:cy="0.0000000"
             sodipodi:r1="4.0040002"
             sodipodi:r2="1.5293919"
             sodipodi:sides="5"
             sodipodi:type="star"
             style="font-size:12.000000px;fill:#ffffff;fill-opacity:1.0000000;fill-rule:evenodd;stroke:none;stroke-width:0.12500000;stroke-dasharray:none"
             transform="translate(82.33333,14.00000)" />
        </g>
      </g>
      <g
         id="g260"
         transform="translate(0.000000,42.00000)">
        <g
           id="g261">
          <polygon
             d="M 1.3084868e-06,-4.0040002 L 0.89895399,-1.2373040 L 3.8080309,-1.2373029 L 1.4545381,0.47260808 L 2.3534912,3.2393050 L 5.9998994e-09,1.5293919 L -2.3534933,3.2393034 L -1.4545381,0.47260809 L -3.8080301,-1.2373053 L -0.89895400,-1.2373040 L 1.3084868e-06,-4.0040002 z "
             inkscape:randomized="0.0000000"
             inkscape:rounded="0.0000000"
             inkscape:flatsided="false"
             id="polygon262"
             points="0,-4.004 0.898954009,-1.2373040455 3.808030291,-1.2373040455 1.454538141067,0.4726080910 2.35349215,3.2393040455 0,1.529391909 -2.35349215,3.2393040455 -1.454538141067,0.472608091 -3.808030291,-1.2373040455 -0.898954009,-1.2373040455 0,-4.004 "
             sodipodi:arg1="-1.5707960"
             sodipodi:arg2="-0.94247780"
             sodipodi:cx="0.0000000"
             sodipodi:cy="0.0000000"
             sodipodi:r1="4.0040002"
             sodipodi:r2="1.5293919"
             sodipodi:sides="5"
             sodipodi:type="star"
             style="font-size:12.000000px;fill:#ffffff;fill-opacity:1.0000000;fill-rule:evenodd;stroke:none;stroke-width:0.12500000;stroke-dasharray:none"
             transform="translate(8.233333,7.000000)" />
          <polygon
             d="M 1.3084868e-06,-4.0040002 L 0.89895399,-1.2373040 L 3.8080309,-1.2373029 L 1.4545381,0.47260808 L 2.3534912,3.2393050 L 5.9998994e-09,1.5293919 L -2.3534933,3.2393034 L -1.4545381,0.47260809 L -3.8080301,-1.2373053 L -0.89895400,-1.2373040 L 1.3084868e-06,-4.0040002 z "
             inkscape:randomized="0.0000000"
             inkscape:rounded="0.0000000"
             inkscape:flatsided="false"
             id="polygon263"
             points="0,-4.004 0.898954009,-1.2373040455 3.808030291,-1.2373040455 1.454538141067,0.4726080910 2.35349215,3.2393040455 0,1.529391909 -2.35349215,3.2393040455 -1.454538141067,0.472608091 -3.808030291,-1.2373040455 -0.898954009,-1.2373040455 0,-4.004 "
             sodipodi:arg1="-1.5707960"
             sodipodi:arg2="-0.94247780"
             sodipodi:cx="0.0000000"
             sodipodi:cy="0.0000000"
             sodipodi:r1="4.0040002"
             sodipodi:r2="1.5293919"
             sodipodi:sides="5"
             sodipodi:type="star"
             style="font-size:12.000000px;fill:#ffffff;fill-opacity:1.0000000;fill-rule:evenodd;stroke:none;stroke-width:0.12500000;stroke-dasharray:none"
             transform="translate(24.70000,7.000000)" />
          <polygon
             d="M 1.3084868e-06,-4.0040002 L 0.89895399,-1.2373040 L 3.8080309,-1.2373029 L 1.4545381,0.47260808 L 2.3534912,3.2393050 L 5.9998994e-09,1.5293919 L -2.3534933,3.2393034 L -1.4545381,0.47260809 L -3.8080301,-1.2373053 L -0.89895400,-1.2373040 L 1.3084868e-06,-4.0040002 z "
             inkscape:randomized="0.0000000"
             inkscape:rounded="0.0000000"
             inkscape:flatsided="false"
             id="polygon264"
             points="0,-4.004 0.898954009,-1.2373040455 3.808030291,-1.2373040455 1.454538141067,0.4726080910 2.35349215,3.2393040455 0,1.529391909 -2.35349215,3.2393040455 -1.454538141067,0.472608091 -3.808030291,-1.2373040455 -0.898954009,-1.2373040455 0,-4.004 "
             sodipodi:arg1="-1.5707960"
             sodipodi:arg2="-0.94247780"
             sodipodi:cx="0.0000000"
             sodipodi:cy="0.0000000"
             sodipodi:r1="4.0040002"
             sodipodi:r2="1.5293919"
             sodipodi:sides="5"
             sodipodi:type="star"
             style="font-size:12.000000px;fill:#ffffff;fill-opacity:1.0000000;fill-rule:evenodd;stroke:none;stroke-width:0.12500000;stroke-dasharray:none"
             transform="translate(41.16667,7.000000)" />
          <polygon
             d="M 1.3084868e-06,-4.0040002 L 0.89895399,-1.2373040 L 3.8080309,-1.2373029 L 1.4545381,0.47260808 L 2.3534912,3.2393050 L 5.9998994e-09,1.5293919 L -2.3534933,3.2393034 L -1.4545381,0.47260809 L -3.8080301,-1.2373053 L -0.89895400,-1.2373040 L 1.3084868e-06,-4.0040002 z "
             inkscape:randomized="0.0000000"
             inkscape:rounded="0.0000000"
             inkscape:flatsided="false"
             id="polygon265"
             points="0,-4.004 0.898954009,-1.2373040455 3.808030291,-1.2373040455 1.454538141067,0.4726080910 2.35349215,3.2393040455 0,1.529391909 -2.35349215,3.2393040455 -1.454538141067,0.472608091 -3.808030291,-1.2373040455 -0.898954009,-1.2373040455 0,-4.004 "
             sodipodi:arg1="-1.5707960"
             sodipodi:arg2="-0.94247780"
             sodipodi:cx="0.0000000"
             sodipodi:cy="0.0000000"
             sodipodi:r1="4.0040002"
             sodipodi:r2="1.5293919"
             sodipodi:sides="5"
             sodipodi:type="star"
             style="font-size:12.000000px;fill:#ffffff;fill-opacity:1.0000000;fill-rule:evenodd;stroke:none;stroke-width:0.12500000;stroke-dasharray:none"
             transform="translate(57.63333,7.000000)" />
          <polygon
             d="M 1.3084868e-06,-4.0040002 L 0.89895399,-1.2373040 L 3.8080309,-1.2373029 L 1.4545381,0.47260808 L 2.3534912,3.2393050 L 5.9998994e-09,1.5293919 L -2.3534933,3.2393034 L -1.4545381,0.47260809 L -3.8080301,-1.2373053 L -0.89895400,-1.2373040 L 1.3084868e-06,-4.0040002 z "
             inkscape:randomized="0.0000000"
             inkscape:rounded="0.0000000"
             inkscape:flatsided="false"
             id="polygon266"
             points="0,-4.004 0.898954009,-1.2373040455 3.808030291,-1.2373040455 1.454538141067,0.4726080910 2.35349215,3.2393040455 0,1.529391909 -2.35349215,3.2393040455 -1.454538141067,0.472608091 -3.808030291,-1.2373040455 -0.898954009,-1.2373040455 0,-4.004 "
             sodipodi:arg1="-1.5707960"
             sodipodi:arg2="-0.94247780"
             sodipodi:cx="0.0000000"
             sodipodi:cy="0.0000000"
             sodipodi:r1="4.0040002"
             sodipodi:r2="1.5293919"
             sodipodi:sides="5"
             sodipodi:type="star"
             style="font-size:12.000000px;fill:#ffffff;fill-opacity:1.0000000;fill-rule:evenodd;stroke:none;stroke-width:0.12500000;stroke-dasharray:none"
             transform="translate(74.10000,7.000000)" />
          <polygon
             d="M 1.3084868e-06,-4.0040002 L 0.89895399,-1.2373040 L 3.8080309,-1.2373029 L 1.4545381,0.47260808 L 2.3534912,3.2393050 L 5.9998994e-09,1.5293919 L -2.3534933,3.2393034 L -1.4545381,0.47260809 L -3.8080301,-1.2373053 L -0.89895400,-1.2373040 L 1.3084868e-06,-4.0040002 z "
             inkscape:randomized="0.0000000"
             inkscape:rounded="0.0000000"
             inkscape:flatsided="false"
             id="polygon267"
             points="0,-4.004 0.898954009,-1.2373040455 3.808030291,-1.2373040455 1.454538141067,0.4726080910 2.35349215,3.2393040455 0,1.529391909 -2.35349215,3.2393040455 -1.454538141067,0.472608091 -3.808030291,-1.2373040455 -0.898954009,-1.2373040455 0,-4.004 "
             sodipodi:arg1="-1.5707960"
             sodipodi:arg2="-0.94247780"
             sodipodi:cx="0.0000000"
             sodipodi:cy="0.0000000"
             sodipodi:r1="4.0040002"
             sodipodi:r2="1.5293919"
             sodipodi:sides="5"
             sodipodi:type="star"
             style="font-size:12.000000px;fill:#ffffff;fill-opacity:1.0000000;fill-rule:evenodd;stroke:none;stroke-width:0.12500000;stroke-dasharray:none"
             transform="translate(90.56667,7.000000)" />
        </g>
        <g
           id="g268">
          <polygon
             d="M 1.3084868e-06,-4.0040002 L 0.89895399,-1.2373040 L 3.8080309,-1.2373029 L 1.4545381,0.47260808 L 2.3534912,3.2393050 L 5.9998994e-09,1.5293919 L -2.3534933,3.2393034 L -1.4545381,0.47260809 L -3.8080301,-1.2373053 L -0.89895400,-1.2373040 L 1.3084868e-06,-4.0040002 z "
             inkscape:randomized="0.0000000"
             inkscape:rounded="0.0000000"
             inkscape:flatsided="false"
             id="polygon269"
             points="0,-4.004 0.898954009,-1.2373040455 3.808030291,-1.2373040455 1.454538141067,0.4726080910 2.35349215,3.2393040455 0,1.529391909 -2.35349215,3.2393040455 -1.454538141067,0.472608091 -3.808030291,-1.2373040455 -0.898954009,-1.2373040455 0,-4.004 "
             sodipodi:arg1="-1.5707960"
             sodipodi:arg2="-0.94247780"
             sodipodi:cx="0.0000000"
             sodipodi:cy="0.0000000"
             sodipodi:r1="4.0040002"
             sodipodi:r2="1.5293919"
             sodipodi:sides="5"
             sodipodi:type="star"
             style="font-size:12.000000px;fill:#ffffff;fill-opacity:1.0000000;fill-rule:evenodd;stroke:none;stroke-width:0.12500000;stroke-dasharray:none"
             transform="translate(16.46667,14.00000)" />
          <polygon
             d="M 1.3084868e-06,-4.0040002 L 0.89895399,-1.2373040 L 3.8080309,-1.2373029 L 1.4545381,0.47260808 L 2.3534912,3.2393050 L 5.9998994e-09,1.5293919 L -2.3534933,3.2393034 L -1.4545381,0.47260809 L -3.8080301,-1.2373053 L -0.89895400,-1.2373040 L 1.3084868e-06,-4.0040002 z "
             inkscape:randomized="0.0000000"
             inkscape:rounded="0.0000000"
             inkscape:flatsided="false"
             id="polygon270"
             points="0,-4.004 0.898954009,-1.2373040455 3.808030291,-1.2373040455 1.454538141067,0.4726080910 2.35349215,3.2393040455 0,1.529391909 -2.35349215,3.2393040455 -1.454538141067,0.472608091 -3.808030291,-1.2373040455 -0.898954009,-1.2373040455 0,-4.004 "
             sodipodi:arg1="-1.5707960"
             sodipodi:arg2="-0.94247780"
             sodipodi:cx="0.0000000"
             sodipodi:cy="0.0000000"
             sodipodi:r1="4.0040002"
             sodipodi:r2="1.5293919"
             sodipodi:sides="5"
             sodipodi:type="star"
             style="font-size:12.000000px;fill:#ffffff;fill-opacity:1.0000000;fill-rule:evenodd;stroke:none;stroke-width:0.12500000;stroke-dasharray:none"
             transform="translate(32.93333,14.00000)" />
          <polygon
             d="M 1.3084868e-06,-4.0040002 L 0.89895399,-1.2373040 L 3.8080309,-1.2373029 L 1.4545381,0.47260808 L 2.3534912,3.2393050 L 5.9998994e-09,1.5293919 L -2.3534933,3.2393034 L -1.4545381,0.47260809 L -3.8080301,-1.2373053 L -0.89895400,-1.2373040 L 1.3084868e-06,-4.0040002 z "
             inkscape:randomized="0.0000000"
             inkscape:rounded="0.0000000"
             inkscape:flatsided="false"
             id="polygon271"
             points="0,-4.004 0.898954009,-1.2373040455 3.808030291,-1.2373040455 1.454538141067,0.4726080910 2.35349215,3.2393040455 0,1.529391909 -2.35349215,3.2393040455 -1.454538141067,0.472608091 -3.808030291,-1.2373040455 -0.898954009,-1.2373040455 0,-4.004 "
             sodipodi:arg1="-1.5707960"
             sodipodi:arg2="-0.94247780"
             sodipodi:cx="0.0000000"
             sodipodi:cy="0.0000000"
             sodipodi:r1="4.0040002"
             sodipodi:r2="1.5293919"
             sodipodi:sides="5"
             sodipodi:type="star"
             style="font-size:12.000000px;fill:#ffffff;fill-opacity:1.0000000;fill-rule:evenodd;stroke:none;stroke-width:0.12500000;stroke-dasharray:none"
             transform="translate(49.40000,14.00000)" />
          <polygon
             d="M 1.3084868e-06,-4.0040002 L 0.89895399,-1.2373040 L 3.8080309,-1.2373029 L 1.4545381,0.47260808 L 2.3534912,3.2393050 L 5.9998994e-09,1.5293919 L -2.3534933,3.2393034 L -1.4545381,0.47260809 L -3.8080301,-1.2373053 L -0.89895400,-1.2373040 L 1.3084868e-06,-4.0040002 z "
             inkscape:randomized="0.0000000"
             inkscape:rounded="0.0000000"
             inkscape:flatsided="false"
             id="polygon272"
             points="0,-4.004 0.898954009,-1.2373040455 3.808030291,-1.2373040455 1.454538141067,0.4726080910 2.35349215,3.2393040455 0,1.529391909 -2.35349215,3.2393040455 -1.454538141067,0.472608091 -3.808030291,-1.2373040455 -0.898954009,-1.2373040455 0,-4.004 "
             sodipodi:arg1="-1.5707960"
             sodipodi:arg2="-0.94247780"
             sodipodi:cx="0.0000000"
             sodipodi:cy="0.0000000"
             sodipodi:r1="4.0040002"
             sodipodi:r2="1.5293919"
             sodipodi:sides="5"
             sodipodi:type="star"
             style="font-size:12.000000px;fill:#ffffff;fill-opacity:1.0000000;fill-rule:evenodd;stroke:none;stroke-width:0.12500000;stroke-dasharray:none"
             transform="translate(65.86667,14.00000)" />
          <polygon
             d="M 1.3084868e-06,-4.0040002 L 0.89895399,-1.2373040 L 3.8080309,-1.2373029 L 1.4545381,0.47260808 L 2.3534912,3.2393050 L 5.9998994e-09,1.5293919 L -2.3534933,3.2393034 L -1.4545381,0.47260809 L -3.8080301,-1.2373053 L -0.89895400,-1.2373040 L 1.3084868e-06,-4.0040002 z "
             inkscape:randomized="0.0000000"
             inkscape:rounded="0.0000000"
             inkscape:flatsided="false"
             id="polygon273"
             points="0,-4.004 0.898954009,-1.2373040455 3.808030291,-1.2373040455 1.454538141067,0.4726080910 2.35349215,3.2393040455 0,1.529391909 -2.35349215,3.2393040455 -1.454538141067,0.472608091 -3.808030291,-1.2373040455 -0.898954009,-1.2373040455 0,-4.004 "
             sodipodi:arg1="-1.5707960"
             sodipodi:arg2="-0.94247780"
             sodipodi:cx="0.0000000"
             sodipodi:cy="0.0000000"
             sodipodi:r1="4.0040002"
             sodipodi:r2="1.5293919"
             sodipodi:sides="5"
             sodipodi:type="star"
             style="font-size:12.000000px;fill:#ffffff;fill-opacity:1.0000000;fill-rule:evenodd;stroke:none;stroke-width:0.12500000;stroke-dasharray:none"
             transform="translate(82.33333,14.00000)" />
        </g>
      </g>
      <g
         id="g211"
         transform="translate(0.000000,56.00000)">
        <polygon
           d="M 1.3084868e-06,-4.0040002 L 0.89895399,-1.2373040 L 3.8080309,-1.2373029 L 1.4545381,0.47260808 L 2.3534912,3.2393050 L 5.9998994e-09,1.5293919 L -2.3534933,3.2393034 L -1.4545381,0.47260809 L -3.8080301,-1.2373053 L -0.89895400,-1.2373040 L 1.3084868e-06,-4.0040002 z "
           inkscape:randomized="0.0000000"
           inkscape:rounded="0.0000000"
           inkscape:flatsided="false"
           id="polygon212"
           points="0,-4.004 0.898954009,-1.2373040455 3.808030291,-1.2373040455 1.454538141067,0.4726080910 2.35349215,3.2393040455 0,1.529391909 -2.35349215,3.2393040455 -1.454538141067,0.472608091 -3.808030291,-1.2373040455 -0.898954009,-1.2373040455 0,-4.004 "
           sodipodi:arg1="-1.5707960"
           sodipodi:arg2="-0.94247780"
           sodipodi:cx="0.0000000"
           sodipodi:cy="0.0000000"
           sodipodi:r1="4.0040002"
           sodipodi:r2="1.5293919"
           sodipodi:sides="5"
           sodipodi:type="star"
           style="font-size:12.000000px;fill:#ffffff;fill-opacity:1.0000000;fill-rule:evenodd;stroke:none;stroke-width:0.12500000;stroke-dasharray:none"
           transform="translate(8.233333,7.000000)" />
        <polygon
           d="M 1.3084868e-06,-4.0040002 L 0.89895399,-1.2373040 L 3.8080309,-1.2373029 L 1.4545381,0.47260808 L 2.3534912,3.2393050 L 5.9998994e-09,1.5293919 L -2.3534933,3.2393034 L -1.4545381,0.47260809 L -3.8080301,-1.2373053 L -0.89895400,-1.2373040 L 1.3084868e-06,-4.0040002 z "
           inkscape:randomized="0.0000000"
           inkscape:rounded="0.0000000"
           inkscape:flatsided="false"
           id="polygon213"
           points="0,-4.004 0.898954009,-1.2373040455 3.808030291,-1.2373040455 1.454538141067,0.4726080910 2.35349215,3.2393040455 0,1.529391909 -2.35349215,3.2393040455 -1.454538141067,0.472608091 -3.808030291,-1.2373040455 -0.898954009,-1.2373040455 0,-4.004 "
           sodipodi:arg1="-1.5707960"
           sodipodi:arg2="-0.94247780"
           sodipodi:cx="0.0000000"
           sodipodi:cy="0.0000000"
           sodipodi:r1="4.0040002"
           sodipodi:r2="1.5293919"
           sodipodi:sides="5"
           sodipodi:type="star"
           style="font-size:12.000000px;fill:#ffffff;fill-opacity:1.0000000;fill-rule:evenodd;stroke:none;stroke-width:0.12500000;stroke-dasharray:none"
           transform="translate(24.70000,7.000000)" />
        <polygon
           d="M 1.3084868e-06,-4.0040002 L 0.89895399,-1.2373040 L 3.8080309,-1.2373029 L 1.4545381,0.47260808 L 2.3534912,3.2393050 L 5.9998994e-09,1.5293919 L -2.3534933,3.2393034 L -1.4545381,0.47260809 L -3.8080301,-1.2373053 L -0.89895400,-1.2373040 L 1.3084868e-06,-4.0040002 z "
           inkscape:randomized="0.0000000"
           inkscape:rounded="0.0000000"
           inkscape:flatsided="false"
           id="polygon214"
           points="0,-4.004 0.898954009,-1.2373040455 3.808030291,-1.2373040455 1.454538141067,0.4726080910 2.35349215,3.2393040455 0,1.529391909 -2.35349215,3.2393040455 -1.454538141067,0.472608091 -3.808030291,-1.2373040455 -0.898954009,-1.2373040455 0,-4.004 "
           sodipodi:arg1="-1.5707960"
           sodipodi:arg2="-0.94247780"
           sodipodi:cx="0.0000000"
           sodipodi:cy="0.0000000"
           sodipodi:r1="4.0040002"
           sodipodi:r2="1.5293919"
           sodipodi:sides="5"
           sodipodi:type="star"
           style="font-size:12.000000px;fill:#ffffff;fill-opacity:1.0000000;fill-rule:evenodd;stroke:none;stroke-width:0.12500000;stroke-dasharray:none"
           transform="translate(41.16667,7.000000)" />
        <polygon
           d="M 1.3084868e-06,-4.0040002 L 0.89895399,-1.2373040 L 3.8080309,-1.2373029 L 1.4545381,0.47260808 L 2.3534912,3.2393050 L 5.9998994e-09,1.5293919 L -2.3534933,3.2393034 L -1.4545381,0.47260809 L -3.8080301,-1.2373053 L -0.89895400,-1.2373040 L 1.3084868e-06,-4.0040002 z "
           inkscape:randomized="0.0000000"
           inkscape:rounded="0.0000000"
           inkscape:flatsided="false"
           id="polygon215"
           points="0,-4.004 0.898954009,-1.2373040455 3.808030291,-1.2373040455 1.454538141067,0.4726080910 2.35349215,3.2393040455 0,1.529391909 -2.35349215,3.2393040455 -1.454538141067,0.472608091 -3.808030291,-1.2373040455 -0.898954009,-1.2373040455 0,-4.004 "
           sodipodi:arg1="-1.5707960"
           sodipodi:arg2="-0.94247780"
           sodipodi:cx="0.0000000"
           sodipodi:cy="0.0000000"
           sodipodi:r1="4.0040002"
           sodipodi:r2="1.5293919"
           sodipodi:sides="5"
           sodipodi:type="star"
           style="font-size:12.000000px;fill:#ffffff;fill-opacity:1.0000000;fill-rule:evenodd;stroke:none;stroke-width:0.12500000;stroke-dasharray:none"
           transform="translate(57.63333,7.000000)" />
        <polygon
           d="M 1.3084868e-06,-4.0040002 L 0.89895399,-1.2373040 L 3.8080309,-1.2373029 L 1.4545381,0.47260808 L 2.3534912,3.2393050 L 5.9998994e-09,1.5293919 L -2.3534933,3.2393034 L -1.4545381,0.47260809 L -3.8080301,-1.2373053 L -0.89895400,-1.2373040 L 1.3084868e-06,-4.0040002 z "
           inkscape:randomized="0.0000000"
           inkscape:rounded="0.0000000"
           inkscape:flatsided="false"
           id="polygon216"
           points="0,-4.004 0.898954009,-1.2373040455 3.808030291,-1.2373040455 1.454538141067,0.4726080910 2.35349215,3.2393040455 0,1.529391909 -2.35349215,3.2393040455 -1.454538141067,0.472608091 -3.808030291,-1.2373040455 -0.898954009,-1.2373040455 0,-4.004 "
           sodipodi:arg1="-1.5707960"
           sodipodi:arg2="-0.94247780"
           sodipodi:cx="0.0000000"
           sodipodi:cy="0.0000000"
           sodipodi:r1="4.0040002"
           sodipodi:r2="1.5293919"
           sodipodi:sides="5"
           sodipodi:type="star"
           style="font-size:12.000000px;fill:#ffffff;fill-opacity:1.0000000;fill-rule:evenodd;stroke:none;stroke-width:0.12500000;stroke-dasharray:none"
           transform="translate(74.10000,7.000000)" />
        <polygon
           d="M 1.3084868e-06,-4.0040002 L 0.89895399,-1.2373040 L 3.8080309,-1.2373029 L 1.4545381,0.47260808 L 2.3534912,3.2393050 L 5.9998994e-09,1.5293919 L -2.3534933,3.2393034 L -1.4545381,0.47260809 L -3.8080301,-1.2373053 L -0.89895400,-1.2373040 L 1.3084868e-06,-4.0040002 z "
           inkscape:randomized="0.0000000"
           inkscape:rounded="0.0000000"
           inkscape:flatsided="false"
           id="polygon217"
           points="0,-4.004 0.898954009,-1.2373040455 3.808030291,-1.2373040455 1.454538141067,0.4726080910 2.35349215,3.2393040455 0,1.529391909 -2.35349215,3.2393040455 -1.454538141067,0.472608091 -3.808030291,-1.2373040455 -0.898954009,-1.2373040455 0,-4.004 "
           sodipodi:arg1="-1.5707960"
           sodipodi:arg2="-0.94247780"
           sodipodi:cx="0.0000000"
           sodipodi:cy="0.0000000"
           sodipodi:r1="4.0040002"
           sodipodi:r2="1.5293919"
           sodipodi:sides="5"
           sodipodi:type="star"
           style="font-size:12.000000px;fill:#ffffff;fill-opacity:1.0000000;fill-rule:evenodd;stroke:none;stroke-width:0.12500000;stroke-dasharray:none"
           transform="translate(90.56667,7.000000)" />
      </g>
    </g>
  </g>
  <metadata
     id="metadata88">
    <rdf:RDF
       id="RDF89">
      <cc:Work
         id="Work91"
         rdf:about="">
        <dc:title
           id="title93">United States</dc:title>
        <dc:description
           id="description95" />
        <dc:subject
           id="subject97">
          <rdf:Bag
             id="Bag99">
            <rdf:li
               id="li101">north_america</rdf:li>
            <rdf:li
               id="li103">signs_and_symbols</rdf:li>
            <rdf:li
               id="li105" />
            <rdf:li
               id="li107">united_nations_member</rdf:li>
            <rdf:li
               id="li109">flags</rdf:li>
            <rdf:li
               id="li111">sign</rdf:li>
            <rdf:li
               id="li113">united_states</rdf:li>
            <rdf:li
               id="li115">america</rdf:li>
          </rdf:Bag>
        </dc:subject>
        <dc:publisher
           id="publisher117">
          <cc:Agent
             id="Agent119"
             rdf:about="http://www.openclipart.org">
            <dc:title
               id="title121">Daniel McRae</dc:title>
          </cc:Agent>
        </dc:publisher>
        <dc:creator
           id="creator123">
          <cc:Agent
             id="Agent125"
             rdf:about="">
            <dc:title
               id="title127">Daniel McRae</dc:title>
          </cc:Agent>
        </dc:creator>
        <dc:rights
           id="rights129">
          <cc:Agent
             id="Agent131"
             rdf:about="">
            <dc:title
               id="title133">Daniel McRae</dc:title>
          </cc:Agent>
        </dc:rights>
        <dc:date
           id="date135" />
        <dc:format
           id="format137">image/svg+xml</dc:format>
        <dc:type
           id="type139"
           rdf:resource="http://purl.org/dc/dcmitype/StillImage" />
        <cc:license
           id="license141"
           rdf:resource="http://web.resource.org/cc/PublicDomain">
          <dc:date
             id="date143" />
        </cc:license>
        <dc:language
           id="language145">en</dc:language>
      </cc:Work>
      <cc:License
         id="License147"
         rdf:about="http://web.resource.org/cc/PublicDomain">
        <cc:permits
           id="permits149"
           rdf:resource="http://web.resource.org/cc/Reproduction" />
        <cc:permits
           id="permits151"
           rdf:resource="http://web.resource.org/cc/Distribution" />
        <cc:permits
           id="permits153"
           rdf:resource="http://web.resource.org/cc/DerivativeWorks" />
      </cc:License>
    </rdf:RDF>
  </metadata>
</svg>
