<?xml version="1.0" encoding="UTF-8" standalone="no"?>
<!-- Created with Sodipodi ("http://www.sodipodi.com/") -->
<svg
   xmlns:dc="http://purl.org/dc/elements/1.1/"
   xmlns:cc="http://web.resource.org/cc/"
   xmlns:rdf="http://www.w3.org/1999/02/22-rdf-syntax-ns#"
   xmlns:svg="http://www.w3.org/2000/svg"
   xmlns="http://www.w3.org/2000/svg"
   xmlns:sodipodi="http://inkscape.sourceforge.net/DTD/sodipodi-0.dtd"
   xmlns:inkscape="http://www.inkscape.org/namespaces/inkscape"
   height="140mm"
   id="svg559"
   sodipodi:docbase="/usr/share/rmap/flags/flags_svg-1.0"
   sodipodi:docname="usa_virgin_islands.svg"
   sodipodi:version="0.32"
   width="210mm"
   inkscape:version="0.42">
  <defs
     id="defs561" />
  <sodipodi:namedview
     id="base"
     inkscape:zoom="0.69346032"
     inkscape:cx="372.04724"
     inkscape:cy="248.03149"
     inkscape:window-width="1369"
     inkscape:window-height="947"
     inkscape:window-x="270"
     inkscape:window-y="139"
     inkscape:current-layer="svg559" />
  <g
     id="g2330">
    <rect
       y="1.4420435"
       x="1.4420435"
       height="493.17889"
       width="741.21039"
       id="rect1401"
       style="fill:#ffffff;fill-opacity:1.0000000;stroke:none;stroke-opacity:1.0000000" />
    <path
       style="font-size:12.000000px;fill:#f7f308;fill-rule:evenodd;stroke:#000000;stroke-width:1.4835540"
       sodipodi:nodetypes="cccccccccccccccccccscc"
       id="path592"
       d="M 437.96150,178.59440 C 437.96150,175.17410 436.85090,168.53310 433.23600,166.23380 C 428.59510,163.82030 428.59510,162.33520 428.22370,159.17930 C 427.85260,156.02330 436.02050,150.08280 436.02050,150.08280 C 436.02050,150.08280 428.59510,146.74110 425.81060,147.11230 C 423.02610,147.48390 417.64260,148.04060 416.90000,148.78320 C 416.15760,149.52590 412.07350,135.41700 414.67250,133.18940 C 417.27130,130.96150 422.65480,138.38740 422.65480,138.38740 C 422.65480,138.38740 426.18190,130.21910 413.74430,114.62490 C 418.01410,84.179450 389.61170,77.125150 383.11450,77.310720 C 377.73100,76.568100 363.80850,81.580530 361.58090,88.263600 C 354.52670,90.676950 354.15540,96.803320 354.15540,96.803320 C 354.15540,96.803320 339.67580,99.401970 337.81950,112.02580 C 346.35880,104.97150 351.92790,112.76860 351.92790,112.76860 C 351.92790,112.76860 359.35320,117.96630 363.25150,118.15220 C 367.14970,118.33790 359.53890,131.14710 357.31120,133.37500 C 355.08360,135.60260 345.80190,144.14230 346.17310,144.69920 C 346.54440,145.25600 353.41280,147.29820 353.04160,150.45400 C 352.67040,153.61020 331.87920,163.26340 332.99300,165.67670 C 338.37650,164.00600 342.57430,165.29240 342.57430,165.29240 C 343.32470,170.56350 341.22490,176.63280 337.64280,178.59740 L 437.96150,178.59440 z " />
    <path
       style="font-size:12.000000px;fill:#f7f308;fill-rule:evenodd;stroke:#000000;stroke-width:1.4835540;stroke-linecap:round;stroke-linejoin:round"
       sodipodi:nodetypes="ccccccccccccccccccc"
       id="path661"
       d="M 432.45880,317.70550 C 432.45880,317.70550 433.40450,328.86540 428.67580,333.59420 C 449.67100,334.91830 461.01960,356.29260 461.20870,361.39980 C 461.39790,366.50670 454.77780,370.47890 454.77780,370.47890 C 454.77780,370.47890 457.04750,379.55820 448.34690,381.07150 C 448.53580,389.77250 442.48350,389.77250 442.48350,389.77250 C 442.48350,389.77250 440.21370,396.96020 433.21540,396.58190 C 431.13470,406.98530 420.35360,406.79620 420.35360,406.79620 C 420.35360,406.79620 414.11180,421.92850 404.84360,416.06470 C 398.98010,428.92700 383.47030,428.35960 377.60680,416.06470 C 374.39150,415.87560 367.20400,420.22590 362.85370,407.36360 C 353.20720,409.06600 349.42450,396.77110 349.42450,396.77110 C 349.42450,396.77110 342.99350,396.20380 340.53450,389.77250 C 332.96890,388.25920 334.29290,380.69320 334.29290,380.69320 C 334.29290,380.69320 326.72710,378.61260 326.91630,370.28980 C 320.86360,366.69590 321.43100,360.26480 321.43100,360.26480 C 321.43100,360.26480 326.15970,337.94470 353.58560,333.21590 C 349.23520,326.97400 349.80280,317.89470 349.80280,317.89470 L 432.45880,317.70550 z " />
    <g
       transform="matrix(-1.483523,0.000000,0.000000,1.483587,758.8501,27.39851)"
       style="fill:#f7f308;fill-opacity:1.0000000"
       id="g638">
      <path
         style="fill:#f7f308;fill-opacity:1.0000000;fill-rule:evenodd;stroke:#000000;stroke-width:1.0000000pt;stroke-linecap:butt;stroke-linejoin:round;stroke-opacity:1.0000000"
         sodipodi:nodetypes="ccccccccccccccccccccccc"
         id="path639"
         d="M 308.57770,109.37570 C 308.57770,109.37570 318.65490,120.21640 323.69350,112.12410 C 328.73220,104.03170 316.67000,101.74140 316.51730,101.58870 C 316.36460,101.43610 309.49380,99.298550 308.88300,86.625600 C 308.27230,73.952640 323.99890,65.707630 328.42680,64.638820 C 332.85470,63.570020 345.83300,63.570020 345.83300,63.570020 C 345.83300,63.570020 393.31820,52.118680 398.20410,48.606870 C 403.09010,45.095060 447.97970,36.850050 447.97970,36.850050 C 447.97970,36.850050 455.15590,35.933910 454.54510,42.346730 C 453.93440,48.759540 447.97970,49.522930 447.97970,49.522930 C 447.97970,49.522930 453.01830,53.492740 452.40750,57.004550 C 451.79680,60.516360 447.97970,66.165620 440.04000,65.249560 C 440.95600,77.769850 423.55000,79.754710 423.55000,79.754710 C 423.55000,79.754710 421.71770,97.771680 405.68570,96.855550 C 401.86850,109.22300 387.51610,109.68110 387.51610,109.68110 C 387.51610,109.68110 380.79800,118.07880 371.02610,118.68950 C 365.37670,132.73670 353.16190,128.76680 353.16190,128.76680 C 353.16190,128.76680 354.07800,137.62260 348.42860,137.62260 C 351.32960,147.69990 340.48900,149.07390 336.36650,147.08910 C 335.29770,149.22670 331.63310,155.79220 323.23550,151.66970 C 318.19690,159.15120 309.95180,155.63950 309.95180,155.63950 C 309.95180,155.63950 308.11960,161.59430 300.94340,159.30390 C 293.76720,157.01360 308.73040,109.68110 308.57770,109.37570 z " />
      <path
         style="fill:#f7f308;fill-opacity:1.0000000;fill-rule:evenodd;stroke:#000000;stroke-width:1.0000000pt;stroke-linecap:round;stroke-linejoin:round;stroke-opacity:1.0000000"
         id="path640"
         d="M 339.72550,72.425810 C 339.72550,72.425810 328.57950,73.647350 329.95370,90.900770" />
      <path
         style="fill:#f7f308;fill-opacity:1.0000000;fill-rule:evenodd;stroke:#000000;stroke-width:1.0000000pt;stroke-linecap:round;stroke-linejoin:round;stroke-opacity:1.0000000"
         id="path641"
         d="M 382.17210,54.561580 C 382.17210,54.561580 403.54820,69.219330 363.54450,73.799940" />
      <path
         style="fill:#f7f308;fill-opacity:1.0000000;fill-rule:evenodd;stroke:#000000;stroke-width:1.0000000pt;stroke-linecap:round;stroke-linejoin:round;stroke-opacity:1.0000000"
         sodipodi:nodetypes="ccccccccc"
         id="path642"
         d="M 376.06470,71.815110 C 376.21740,72.120440 386.14200,83.877180 367.81970,87.388990 C 376.52270,95.634080 360.18540,98.382340 360.18540,98.382340 C 360.18540,98.382340 363.54450,107.08550 353.77260,109.37570 C 356.97900,118.38420 346.44370,117.92610 346.44370,117.92610 C 346.44370,117.92610 346.13840,128.91940 333.61810,128.76680 C 333.77080,136.24840 325.06770,136.70640 325.06770,136.70640 C 325.06770,136.70640 322.47210,144.79870 314.07430,142.35580 C 313.15820,148.00510 307.35620,146.78370 307.35620,146.78370" />
      <path
         style="fill:#f7f308;fill-opacity:1.0000000;fill-rule:evenodd;stroke:#000000;stroke-width:1.0000000pt;stroke-linecap:round;stroke-linejoin:round;stroke-opacity:1.0000000"
         id="path643"
         d="M 309.79920,155.79210 C 309.79920,155.79210 309.34110,148.00520 311.17330,146.47830" />
      <path
         style="fill:#f7f308;fill-opacity:1.0000000;fill-rule:evenodd;stroke:#000000;stroke-width:1.0000000pt;stroke-linecap:round;stroke-linejoin:round;stroke-opacity:1.0000000"
         id="path644"
         d="M 323.69350,151.51690 C 323.54080,151.36430 320.02910,144.34070 321.25060,143.11920" />
      <path
         style="fill:#f7f308;fill-opacity:1.0000000;fill-rule:evenodd;stroke:#000000;stroke-width:1.0000000pt;stroke-linecap:round;stroke-linejoin:round;stroke-opacity:1.0000000"
         id="path645"
         d="M 336.51910,147.08910 L 327.05260,137.77520" />
      <path
         style="fill:#f7f308;fill-opacity:1.0000000;fill-rule:evenodd;stroke:#000000;stroke-width:1.0000000pt;stroke-linecap:round;stroke-linejoin:round;stroke-opacity:1.0000000"
         id="path646"
         d="M 348.42860,137.92790 C 348.27590,137.77520 334.07620,128.91950 334.07620,128.91950" />
      <path
         style="fill:#f7f308;fill-opacity:1.0000000;fill-rule:evenodd;stroke:#000000;stroke-width:1.0000000pt;stroke-linecap:round;stroke-linejoin:round;stroke-opacity:1.0000000"
         id="path647"
         d="M 353.46730,128.91950 C 353.31460,128.76680 345.37490,125.40780 345.06950,122.50670" />
      <path
         style="fill:#f7f308;fill-opacity:1.0000000;fill-rule:evenodd;stroke:#000000;stroke-width:1.0000000pt;stroke-linecap:round;stroke-linejoin:round;stroke-opacity:1.0000000"
         id="path648"
         d="M 371.02610,118.68950 C 371.02610,118.68950 351.78770,122.81200 348.42860,118.38410" />
      <path
         style="fill:#f7f308;fill-opacity:1.0000000;fill-rule:evenodd;stroke:#000000;stroke-width:1.0000000pt;stroke-linecap:round;stroke-linejoin:round;stroke-opacity:1.0000000"
         id="path649"
         d="M 387.05810,109.52840 C 386.29470,109.52840 358.20050,112.58210 355.60490,109.07030" />
      <path
         style="fill:#f7f308;fill-opacity:1.0000000;fill-rule:evenodd;stroke:#000000;stroke-width:1.0000000pt;stroke-linecap:round;stroke-linejoin:round;stroke-opacity:1.0000000"
         id="path650"
         d="M 405.68570,96.855510 C 405.22770,96.702770 372.40020,102.96290 363.08640,98.229640" />
      <path
         style="fill:#f7f308;fill-opacity:1.0000000;fill-rule:evenodd;stroke:#000000;stroke-width:1.0000000pt;stroke-linecap:round;stroke-linejoin:round;stroke-opacity:1.0000000"
         id="path651"
         d="M 421.41240,79.907350 C 420.64890,79.907350 377.74420,90.290040 371.33140,87.083630" />
      <path
         style="fill:#f7f308;fill-opacity:1.0000000;fill-rule:evenodd;stroke:#000000;stroke-width:1.0000000pt;stroke-linecap:round;stroke-linejoin:round;stroke-opacity:1.0000000"
         id="path652"
         d="M 437.74970,64.944200 C 437.44430,64.944200 386.60000,76.853680 380.18720,71.967740" />
      <path
         style="fill:#f7f308;fill-opacity:1.0000000;fill-rule:evenodd;stroke:#000000;stroke-width:1.0000000pt;stroke-linecap:round;stroke-linejoin:round;stroke-opacity:1.0000000"
         id="path653"
         d="M 444.31520,50.439040 C 444.16250,50.439040 395.60850,66.318330 391.48600,62.348530" />
    </g>
    <g
       transform="matrix(1.483523,0.000000,0.000000,1.483587,24.09617,27.91796)"
       style="fill:#f7f308;fill-opacity:1.0000000"
       id="g622">
      <path
         style="fill:#f7f308;fill-opacity:1.0000000;fill-rule:evenodd;stroke:#000000;stroke-width:1.0000000pt;stroke-linecap:butt;stroke-linejoin:round;stroke-opacity:1.0000000"
         sodipodi:nodetypes="ccccccccccccccccccccccc"
         id="path607"
         d="M 308.57770,109.37570 C 308.57770,109.37570 318.65490,120.21640 323.69350,112.12410 C 328.73220,104.03170 316.67000,101.74140 316.51730,101.58870 C 316.36460,101.43610 309.49380,99.298550 308.88300,86.625600 C 308.27230,73.952640 323.99890,65.707630 328.42680,64.638820 C 332.85470,63.570020 345.83300,63.570020 345.83300,63.570020 C 345.83300,63.570020 393.31820,52.118680 398.20410,48.606870 C 403.09010,45.095060 447.97970,36.850050 447.97970,36.850050 C 447.97970,36.850050 455.15590,35.933910 454.54510,42.346730 C 453.93440,48.759540 447.97970,49.522930 447.97970,49.522930 C 447.97970,49.522930 453.01830,53.492740 452.40750,57.004550 C 451.79680,60.516360 447.97970,66.165620 440.04000,65.249560 C 440.95600,77.769850 423.55000,79.754710 423.55000,79.754710 C 423.55000,79.754710 421.71770,97.771680 405.68570,96.855550 C 401.86850,109.22300 387.51610,109.68110 387.51610,109.68110 C 387.51610,109.68110 380.79800,118.07880 371.02610,118.68950 C 365.37670,132.73670 353.16190,128.76680 353.16190,128.76680 C 353.16190,128.76680 354.07800,137.62260 348.42860,137.62260 C 351.32960,147.69990 340.48900,149.07390 336.36650,147.08910 C 335.29770,149.22670 331.63310,155.79220 323.23550,151.66970 C 318.19690,159.15120 309.95180,155.63950 309.95180,155.63950 C 309.95180,155.63950 308.11960,161.59430 300.94340,159.30390 C 293.76720,157.01360 308.73040,109.68110 308.57770,109.37570 z " />
      <path
         style="fill:#f7f308;fill-opacity:1.0000000;fill-rule:evenodd;stroke:#000000;stroke-width:1.0000000pt;stroke-linecap:round;stroke-linejoin:round;stroke-opacity:1.0000000"
         id="path608"
         d="M 339.72550,72.425810 C 339.72550,72.425810 328.57950,73.647350 329.95370,90.900770" />
      <path
         style="fill:#f7f308;fill-opacity:1.0000000;fill-rule:evenodd;stroke:#000000;stroke-width:1.0000000pt;stroke-linecap:round;stroke-linejoin:round;stroke-opacity:1.0000000"
         id="path609"
         d="M 382.17210,54.561580 C 382.17210,54.561580 403.54820,69.219330 363.54450,73.799940" />
      <path
         style="fill:#f7f308;fill-opacity:1.0000000;fill-rule:evenodd;stroke:#000000;stroke-width:1.0000000pt;stroke-linecap:round;stroke-linejoin:round;stroke-opacity:1.0000000"
         sodipodi:nodetypes="ccccccccc"
         id="path610"
         d="M 376.06470,71.815110 C 376.21740,72.120440 386.14200,83.877180 367.81970,87.388990 C 376.52270,95.634080 360.18540,98.382340 360.18540,98.382340 C 360.18540,98.382340 363.54450,107.08550 353.77260,109.37570 C 356.97900,118.38420 346.44370,117.92610 346.44370,117.92610 C 346.44370,117.92610 346.13840,128.91940 333.61810,128.76680 C 333.77080,136.24840 325.06770,136.70640 325.06770,136.70640 C 325.06770,136.70640 322.47210,144.79870 314.07430,142.35580 C 313.15820,148.00510 307.35620,146.78370 307.35620,146.78370" />
      <path
         style="fill:#f7f308;fill-opacity:1.0000000;fill-rule:evenodd;stroke:#000000;stroke-width:1.0000000pt;stroke-linecap:round;stroke-linejoin:round;stroke-opacity:1.0000000"
         id="path611"
         d="M 309.79920,155.79210 C 309.79920,155.79210 309.34110,148.00520 311.17330,146.47830" />
      <path
         style="fill:#f7f308;fill-opacity:1.0000000;fill-rule:evenodd;stroke:#000000;stroke-width:1.0000000pt;stroke-linecap:round;stroke-linejoin:round;stroke-opacity:1.0000000"
         id="path612"
         d="M 323.69350,151.51690 C 323.54080,151.36430 320.02910,144.34070 321.25060,143.11920" />
      <path
         style="fill:#f7f308;fill-opacity:1.0000000;fill-rule:evenodd;stroke:#000000;stroke-width:1.0000000pt;stroke-linecap:round;stroke-linejoin:round;stroke-opacity:1.0000000"
         id="path613"
         d="M 336.51910,147.08910 L 327.05260,137.77520" />
      <path
         style="fill:#f7f308;fill-opacity:1.0000000;fill-rule:evenodd;stroke:#000000;stroke-width:1.0000000pt;stroke-linecap:round;stroke-linejoin:round;stroke-opacity:1.0000000"
         id="path614"
         d="M 348.42860,137.92790 C 348.27590,137.77520 334.07620,128.91950 334.07620,128.91950" />
      <path
         style="fill:#f7f308;fill-opacity:1.0000000;fill-rule:evenodd;stroke:#000000;stroke-width:1.0000000pt;stroke-linecap:round;stroke-linejoin:round;stroke-opacity:1.0000000"
         id="path615"
         d="M 353.46730,128.91950 C 353.31460,128.76680 345.37490,125.40780 345.06950,122.50670" />
      <path
         style="fill:#f7f308;fill-opacity:1.0000000;fill-rule:evenodd;stroke:#000000;stroke-width:1.0000000pt;stroke-linecap:round;stroke-linejoin:round;stroke-opacity:1.0000000"
         id="path616"
         d="M 371.02610,118.68950 C 371.02610,118.68950 351.78770,122.81200 348.42860,118.38410" />
      <path
         style="fill:#f7f308;fill-opacity:1.0000000;fill-rule:evenodd;stroke:#000000;stroke-width:1.0000000pt;stroke-linecap:round;stroke-linejoin:round;stroke-opacity:1.0000000"
         id="path617"
         d="M 387.05810,109.52840 C 386.29470,109.52840 358.20050,112.58210 355.60490,109.07030" />
      <path
         style="fill:#f7f308;fill-opacity:1.0000000;fill-rule:evenodd;stroke:#000000;stroke-width:1.0000000pt;stroke-linecap:round;stroke-linejoin:round;stroke-opacity:1.0000000"
         id="path618"
         d="M 405.68570,96.855510 C 405.22770,96.702770 372.40020,102.96290 363.08640,98.229640" />
      <path
         style="fill:#f7f308;fill-opacity:1.0000000;fill-rule:evenodd;stroke:#000000;stroke-width:1.0000000pt;stroke-linecap:round;stroke-linejoin:round;stroke-opacity:1.0000000"
         id="path619"
         d="M 421.41240,79.907350 C 420.64890,79.907350 377.74420,90.290040 371.33140,87.083630" />
      <path
         style="fill:#f7f308;fill-opacity:1.0000000;fill-rule:evenodd;stroke:#000000;stroke-width:1.0000000pt;stroke-linecap:round;stroke-linejoin:round;stroke-opacity:1.0000000"
         id="path620"
         d="M 437.74970,64.944200 C 437.44430,64.944200 386.60000,76.853680 380.18720,71.967740" />
      <path
         style="fill:#f7f308;fill-opacity:1.0000000;fill-rule:evenodd;stroke:#000000;stroke-width:1.0000000pt;stroke-linecap:round;stroke-linejoin:round;stroke-opacity:1.0000000"
         id="path621"
         d="M 444.31520,50.439040 C 444.16250,50.439040 395.60850,66.318330 391.48600,62.348530" />
    </g>
    <path
       style="font-size:12.000000px;fill:#8cc2ef;fill-rule:evenodd;stroke:#000000;stroke-width:1.4835540"
       sodipodi:nodetypes="ccccccccccccc"
       id="path572"
       d="M 568.43300,217.64130 C 568.43300,217.64130 564.00390,280.93770 563.78940,280.79330 C 563.57490,280.64880 554.55150,269.73570 554.55150,269.73570 L 526.70510,357.03840 L 533.21430,376.08290 L 517.00100,429.24640 L 503.63020,412.28560 L 482.02920,420.97110 L 499.36820,364.97890 L 515.38650,353.46840 L 544.23090,267.46180 L 528.22240,269.46590 L 568.43300,217.64130 z " />
    <path
       style="font-size:12.000000px;fill:#8cc2ef;fill-rule:evenodd;stroke:#000000;stroke-width:1.4835540"
       sodipodi:nodetypes="cccccccccccc"
       id="path571"
       d="M 629.97230,243.74820 C 629.97230,243.74820 596.29190,297.52180 596.17050,297.29330 C 596.04920,297.06510 593.21950,283.19010 593.21950,283.19010 L 537.87500,334.52970 L 478.77730,391.55470 L 478.61380,379.80950 L 458.39300,377.31310 L 485.14000,356.84750 L 498.83660,354.59070 L 585.18130,276.32870 L 570.11180,270.56670 L 629.97230,243.74820 z " />
    <path
       style="font-size:12.000000px;fill:none;fill-rule:evenodd;stroke:#000000;stroke-width:1.5150110"
       id="path574"
       d="M 478.81730,379.71650 C 479.18320,378.95360 509.54680,353.01020 509.54680,353.01020" />
    <path
       style="font-size:12.000000px;fill:#8cc2ef;fill-rule:evenodd;stroke:#000000;stroke-width:1.4835540"
       id="path570"
       d="M 611.97790,198.25890 C 611.97790,198.25890 595.51570,259.53710 595.33290,259.35420 C 595.14990,259.17150 588.38230,246.73300 588.38230,246.73300 L 521.61890,361.42410 L 524.36250,381.36250 L 500.40100,425.26340 L 490.52370,406.05670 L 467.65970,410.44690 L 493.26750,363.98510 L 511.19290,355.75340 L 578.68770,242.52560 L 562.59150,241.42820 L 611.97790,198.25890 z " />
    <path
       style="font-size:12.000000px;fill:none;fill-rule:evenodd;stroke:#000000;stroke-width:1.4835540"
       id="path573"
       d="M 490.88970,405.32560 C 490.88970,404.95970 513.93660,364.71720 513.93660,364.71720" />
    <path
       style="font-size:12.000000px;fill:#8cc2ef;fill-rule:evenodd;stroke:#000000;stroke-width:1.4835540"
       sodipodi:nodetypes="cccccccccccccc"
       id="path563"
       d="M 37.631690,186.73510 L 77.872540,186.91820 L 73.848470,196.61280 L 91.408040,266.12270 L 112.62600,196.79570 L 105.12650,186.73520 L 147.01370,186.73520 L 138.05080,196.43010 L 103.48040,295.75580 L 112.44300,308.74310 L 72.202210,308.74310 L 81.164910,295.75580 L 47.326070,196.79550 L 37.631690,186.73510 z " />
    <path
       style="font-size:12.000000px;fill:#8cc2ef;fill-rule:evenodd;stroke:#000000;stroke-width:1.4835540"
       sodipodi:nodetypes="ccccccccc"
       id="path566"
       d="M 654.96250,189.11320 L 693.19120,189.11320 L 686.97220,197.71030 L 686.78940,298.86540 L 695.38630,308.37730 L 654.96250,308.37730 L 663.01060,298.13390 L 662.82790,197.89320 L 654.96250,189.11320 z " />
    <path
       style="font-size:12.000000px;fill:none;fill-rule:evenodd;stroke:#000000;stroke-width:1.4835540"
       id="path583"
       d="M 353.58620,97.640210 C 353.58620,97.640210 358.48860,103.79720 360.31280,104.36740 C 362.13690,104.93730 372.39780,109.95400 371.82790,113.37450 C 371.25770,116.79490 364.53110,118.50520 364.53110,118.50520" />
    <path
       style="font-size:12.000000px;fill:none;fill-rule:evenodd;stroke:#000000;stroke-width:1.4835540"
       id="path584"
       d="M 361.68090,88.519110 L 371.94170,98.324480 C 371.94170,98.324480 373.76590,106.76140 381.06260,106.07750 C 388.35930,105.39340 387.33320,102.31480 387.33320,102.31480 C 387.33320,102.31480 378.55440,96.158200 371.59970,97.640210" />
    <path
       style="font-size:12.000000px;fill:#219e4a;fill-rule:evenodd;stroke:#000000;stroke-width:1.4835540;stroke-linejoin:round"
       sodipodi:nodetypes="ccccccccccccccccccccccccccccccccccccccccccccccccccccccccccccccccccccccc"
       id="path585"
       d="M 299.11630,397.53770 L 312.82090,386.15550 C 312.82090,386.15550 309.80130,379.88340 298.88400,380.11570 C 288.66380,372.91490 271.01050,355.95750 271.01050,355.95750 L 262.18380,332.03160 C 262.18380,332.03160 269.38450,329.94110 271.01050,324.13380 C 272.63640,318.32650 270.54590,311.12560 269.84900,310.42860 C 269.15220,309.73170 261.95150,311.59010 259.86110,314.60980 C 257.77040,317.62970 254.51850,329.24430 249.64070,325.29520 C 244.76280,321.34630 250.33740,316.93280 250.33740,316.93280 C 250.33740,316.93280 255.21540,310.89330 254.98300,307.64110 C 254.75080,304.38900 248.47930,294.63280 247.78230,294.40060 C 247.08550,294.16830 245.69190,307.17650 243.83360,308.57030 C 241.97540,309.96420 239.42030,315.77130 235.70370,312.51930 C 231.98730,309.26720 237.56200,304.38900 237.56200,304.38900 C 237.56200,304.38900 248.01470,298.81420 237.79410,280.46330 C 234.77460,288.36120 228.96780,293.47140 228.96780,293.47140 C 228.96780,293.47140 226.18020,298.34960 223.62520,294.16830 C 221.07020,289.98710 226.64470,286.03830 226.64470,286.03830 C 226.64470,286.03830 235.70370,280.69560 235.93610,272.79750 C 236.16820,264.89970 225.01880,255.84030 225.01880,255.84030 C 225.01880,255.84030 224.32210,270.47460 220.83790,272.33290 C 217.35370,274.19120 215.95980,277.21130 212.01120,273.95910 C 208.06230,270.70690 215.03080,263.50600 215.03080,263.50600 C 215.03080,263.50600 227.10950,251.42680 226.41250,244.45820 C 225.71570,237.48950 225.01880,236.32800 225.01880,236.32800 C 225.01880,236.32800 215.95980,241.90300 214.79860,244.69050 C 213.63720,247.47800 209.92060,257.46640 205.27490,254.44650 C 202.02310,250.73000 208.06230,243.52890 208.06230,243.52890 C 208.06230,243.52890 212.47560,238.65060 212.24340,236.56020 C 212.01120,234.46940 208.52680,228.19780 201.79070,222.15830 C 200.86170,220.30000 200.39720,212.86670 200.39720,212.86670 C 200.39720,212.86670 195.28700,218.90640 195.51940,222.15830 C 195.75150,225.41040 195.05460,231.91430 195.75150,239.11550 C 196.44850,246.31640 190.17680,236.79250 190.17680,236.79250 L 191.33820,213.56350 C 191.33820,213.56350 182.51150,202.87820 171.82650,198.92920 C 175.77550,204.73650 175.54310,210.31130 175.54310,210.31130 C 175.54310,210.31130 171.12980,219.83530 171.12980,222.39040 C 171.12980,224.94580 176.23990,236.09560 185.76360,243.52890 C 171.36200,227.96560 153.47640,233.07580 148.13400,230.05610 C 150.68910,233.07580 158.35450,244.45820 157.42530,247.47800 C 156.49620,250.49760 171.12980,256.76950 171.12980,256.76950 L 186.69270,257.00190 C 186.69270,257.00190 194.35790,262.34430 195.05460,265.82880 C 195.75150,269.31330 183.90520,259.32480 179.25960,259.55700 C 174.61400,259.78930 162.30310,257.93100 162.30310,257.93100 C 162.30310,257.93100 169.73610,264.89970 169.96840,267.91960 C 170.20060,270.93920 173.45260,277.90790 177.86600,279.76640 C 182.27930,281.62460 194.12550,282.32160 194.12550,282.32160 C 194.12550,282.32160 199.23570,279.30190 200.16480,282.55380 C 201.09400,285.80590 193.42870,288.36100 193.42870,288.36100 C 193.42870,288.36100 185.53110,288.36120 182.97610,286.27050 C 180.42100,284.17980 179.95640,280.69540 168.57470,279.30160 C 167.41330,288.82570 174.84620,298.58170 174.84620,298.58170 C 174.84620,298.58170 206.20400,296.02670 205.97190,302.76310 C 205.73960,309.49940 179.95640,303.45990 179.02730,301.36920 C 178.09820,299.27870 180.18880,314.60990 186.22800,317.86200 C 192.26730,321.11390 205.73960,319.48810 207.36560,318.79120 C 208.99160,318.09430 215.03080,317.39750 215.03080,320.88180 C 215.03080,324.36610 184.36970,327.15360 183.90520,326.22430 C 183.44060,325.29520 188.55080,338.07120 200.86170,337.37440 C 213.17270,336.67750 218.51510,332.96070 218.51510,332.96070 C 218.51510,332.96070 225.94800,331.56700 226.64470,334.58700 C 227.34160,337.60660 219.21200,339.00040 219.21200,339.00040 C 219.21200,339.00040 199.70030,339.46490 199.00360,338.53570 C 198.30660,337.60660 203.41680,350.84720 217.12130,350.61490 C 227.34160,349.68570 228.03840,345.27210 230.12900,344.57540 C 233.14870,343.87850 239.65270,343.87860 240.58170,344.11080 C 241.51080,344.34310 257.77040,355.72530 257.77040,355.72530 L 299.11630,397.53770 z " />
    <path
       style="font-size:12.000000px;fill:none;fill-rule:evenodd;stroke:#000000;stroke-width:1.4835540;stroke-linecap:round;stroke-linejoin:round"
       id="path593"
       d="M 179.25960,214.02800 C 179.25960,214.02800 178.79500,236.32800 189.94460,243.06450" />
    <path
       style="font-size:12.000000px;fill:none;fill-rule:evenodd;stroke:#000000;stroke-width:1.4835540;stroke-linecap:round;stroke-linejoin:round"
       id="path594"
       d="M 202.71990,231.68220 C 202.71990,231.68220 210.15300,243.06450 197.60980,247.24560" />
    <path
       style="font-size:12.000000px;fill:none;fill-rule:evenodd;stroke:#000000;stroke-width:1.4835540;stroke-linecap:round;stroke-linejoin:round"
       id="path595"
       d="M 164.16130,239.34770 C 164.16130,239.34770 163.23220,252.12370 185.76360,251.19450" />
    <path
       style="font-size:12.000000px;fill:none;fill-rule:evenodd;stroke:#000000;stroke-width:1.4835540;stroke-linecap:round;stroke-linejoin:round"
       id="path596"
       d="M 219.90870,250.49760 C 219.90870,250.49760 216.19220,259.55690 207.13320,259.09240" />
    <path
       style="font-size:12.000000px;fill:none;fill-rule:evenodd;stroke:#000000;stroke-width:1.4835540;stroke-linecap:round;stroke-linejoin:round"
       id="path597"
       d="M 228.27070,270.93920 C 228.27070,272.10070 229.89690,284.41200 218.05050,284.17980" />
    <path
       style="font-size:12.000000px;fill:none;fill-rule:evenodd;stroke:#000000;stroke-width:1.4835540;stroke-linecap:round;stroke-linejoin:round"
       id="path598"
       d="M 171.59440,265.82880 C 171.59440,265.82880 186.46040,275.12050 193.19640,274.42360" />
    <path
       style="font-size:12.000000px;fill:none;fill-rule:evenodd;stroke:#000000;stroke-width:1.4835540;stroke-linecap:round;stroke-linejoin:round"
       id="path599"
       d="M 174.84620,288.36100 C 174.84620,288.36100 181.81470,295.79430 194.59010,293.93610" />
    <path
       style="font-size:12.000000px;fill:none;fill-rule:evenodd;stroke:#000000;stroke-width:1.4835540;stroke-linecap:round;stroke-linejoin:round"
       id="path600"
       d="M 236.16820,293.47140 C 236.16820,294.40060 233.84550,301.60170 228.73540,302.53100" />
    <path
       style="font-size:12.000000px;fill:none;fill-rule:evenodd;stroke:#000000;stroke-width:1.4835540;stroke-linecap:round;stroke-linejoin:round"
       id="path601"
       d="M 186.46040,309.96420 C 186.46040,309.96420 192.03510,317.16520 206.66880,313.21610" />
    <path
       style="font-size:12.000000px;fill:none;fill-rule:evenodd;stroke:#000000;stroke-width:1.4835540;stroke-linecap:round;stroke-linejoin:round"
       id="path602"
       d="M 250.10520,306.94420 C 250.10520,306.94420 247.78230,318.32650 241.74310,318.55880" />
    <path
       style="font-size:12.000000px;fill:none;fill-rule:evenodd;stroke:#000000;stroke-width:1.4835540;stroke-linecap:round;stroke-linejoin:round"
       id="path603"
       d="M 264.27430,319.25570 C 264.27430,319.25570 259.62870,332.96070 247.78230,330.87020" />
    <path
       style="font-size:12.000000px;fill:none;fill-rule:evenodd;stroke:#000000;stroke-width:1.4835540;stroke-linecap:round;stroke-linejoin:round"
       id="path604"
       d="M 209.68830,343.64600 C 209.68830,343.64600 214.33390,347.82760 225.71570,342.71710" />
    <path
       style="font-size:12.000000px;fill:none;fill-rule:evenodd;stroke:#000000;stroke-width:1.4835540;stroke-linecap:round;stroke-linejoin:round"
       id="path605"
       d="M 196.91290,329.70880 C 197.84210,329.70880 203.64900,334.58670 217.58600,327.15360" />
    <path
       style="font-size:12.000000px;fill:none;fill-rule:evenodd;stroke:#000000;stroke-width:1.4835540;stroke-linecap:round;stroke-linejoin:round"
       id="path606"
       d="M 299.09410,380.46630 C 299.09410,380.46630 290.41530,384.35240 298.83510,397.43600" />
    <path
       style="font-size:12.000000px;fill:#f7f308;fill-rule:evenodd;stroke:#000000;stroke-width:1.4835540"
       sodipodi:nodetypes="ccccccccccccccc"
       id="path654"
       d="M 469.59250,266.32460 C 469.59250,266.32460 478.71410,275.08130 478.89640,276.90590 C 479.07890,278.73040 481.26820,287.30480 483.63980,288.58200 C 486.01120,289.85910 495.31530,297.33900 496.59240,300.25800 C 497.86940,303.17710 506.07870,315.58280 506.07870,315.58280 C 506.07870,315.58280 513.74080,331.27270 518.84890,332.54980 C 523.95700,333.82680 538.36900,331.63770 541.28790,338.57020 C 544.20670,345.50300 543.47710,355.53700 543.47710,355.53700 C 543.47710,355.53700 540.01090,358.63860 538.36900,356.81410 C 536.72720,354.98970 533.80820,365.93610 528.70010,362.83470 C 521.74240,348.01840 503.53250,350.43670 503.53250,350.43670 C 503.53250,350.43670 507.53800,344.22570 491.30180,338.75260 C 465.94380,343.13130 458.46410,316.67770 458.46410,316.67770 L 444.03060,304.15850 L 469.59250,266.32460 z " />
    <path
       style="font-size:12.000000px;fill:#f7f308;fill-rule:evenodd;stroke:#000000;stroke-width:1.4835540"
       id="path655"
       d="M 454.99810,303.90690 L 466.30870,309.19760 L 465.39660,299.52840" />
    <path
       style="font-size:12.000000px;fill:#f7f308;fill-rule:evenodd;stroke:#000000;stroke-width:1.4835540"
       id="path656"
       d="M 471.05210,302.44720 L 481.45050,307.55570 L 477.25460,299.16340" />
    <path
       style="font-size:12.000000px;fill:#f7f308;fill-rule:evenodd;stroke:#000000;stroke-width:1.4835540"
       id="path657"
       d="M 470.50460,288.76460 L 480.72070,294.23750 L 475.97760,283.65610" />
    <path
       style="font-size:12.000000px;fill:#f7f308;fill-rule:evenodd;stroke:#000000;stroke-width:1.4835540"
       id="path658"
       d="M 486.74100,338.93520 C 486.74100,338.93520 475.06540,323.61020 475.24780,323.61020 C 475.43040,323.61020 495.13290,327.44160 495.13290,327.44160 L 487.83550,311.75170 L 505.89620,316.49510" />
    <path
       style="font-size:12.000000px;fill:#f7f308;fill-rule:evenodd;stroke:#000000;stroke-width:1.4835540"
       id="path659"
       d="M 520.30820,341.30690 C 520.30820,341.30690 531.80140,343.86100 531.43660,363.01690" />
    <path
       style="font-size:12.000000px;fill:#f7f308;fill-rule:evenodd;stroke:#000000;stroke-width:1.4835540"
       id="path660"
       d="M 526.32850,338.38780 C 526.32850,338.38780 538.73400,337.65810 538.00420,356.99660" />
    <path
       style="font-size:12.000000px;fill:#f7f308;fill-rule:evenodd;stroke:#000000;stroke-width:1.4835540"
       sodipodi:nodetypes="ccccccccccsccccc"
       id="path670"
       d="M 312.37950,268.69830 C 312.37950,268.69830 303.25790,277.45520 303.07560,279.27970 C 302.89310,281.10420 299.19060,288.54360 296.81910,289.82090 C 294.44760,291.09790 286.27840,299.33450 285.00140,302.25340 C 283.72440,305.17260 275.89330,317.95660 275.89330,317.95660 C 275.89330,317.95660 266.90720,330.99840 261.79910,332.27530 C 255.55630,332.79600 243.60310,334.01140 240.68410,340.94400 C 237.76530,347.87670 242.27790,358.47820 245.68250,358.47820 C 250.78940,360.74790 253.12060,363.09280 254.76260,361.26840 C 257.53930,362.09220 255.95130,364.46840 261.05960,361.36710 C 257.17700,356.39160 257.59140,351.58300 261.48360,350.32270 C 265.36590,348.99420 271.68810,354.90280 271.68810,354.90280 C 271.68810,354.90280 273.99030,344.15900 290.22660,338.68600 C 315.58460,343.06450 322.39840,322.60110 324.17350,317.72020 C 328.17220,312.27840 334.38950,310.83020 339.49760,307.38530 L 312.37950,268.69830 z " />
    <path
       style="font-size:12.000000px;fill:none;fill-rule:evenodd;stroke:#000000;stroke-width:1.4835540;stroke-linecap:round;stroke-linejoin:round"
       sodipodi:nodetypes="ccc"
       id="path671"
       d="M 327.41760,304.06200 L 315.66330,310.24020 L 316.57550,301.90210" />
    <path
       style="font-size:12.000000px;fill:none;fill-rule:evenodd;stroke:#000000;stroke-width:1.4835540;stroke-linecap:round;stroke-linejoin:round"
       sodipodi:nodetypes="ccc"
       id="path672"
       d="M 311.80750,302.38050 L 300.74330,307.48890 L 305.82680,298.87490" />
    <path
       style="font-size:12.000000px;fill:none;fill-rule:evenodd;stroke:#000000;stroke-width:1.4835540;stroke-linecap:round;stroke-linejoin:round"
       sodipodi:nodetypes="ccc"
       id="path673"
       d="M 312.13300,288.91960 L 302.58250,293.06150 L 305.99450,286.02990" />
    <path
       style="font-size:12.000000px;fill:none;fill-rule:evenodd;stroke:#000000;stroke-width:1.4835540;stroke-linecap:round;stroke-linejoin:round"
       sodipodi:nodetypes="ccccc"
       id="path674"
       d="M 295.67480,338.86830 C 297.44970,335.31850 306.46290,324.20900 306.28050,324.20900 C 306.09800,324.20900 287.72670,328.04040 287.72670,328.04040 L 293.69280,312.57230 L 277.62870,315.76280" />
    <path
       style="font-size:12.000000px;fill:none;fill-rule:evenodd;stroke:#000000;stroke-width:1.4835540;stroke-linecap:round;stroke-linejoin:round"
       sodipodi:nodetypes="cc"
       id="path675"
       d="M 262.42040,341.22160 C 262.42040,341.22160 248.46830,343.77560 253.93990,361.04020" />
    <path
       style="font-size:12.000000px;fill:none;fill-rule:evenodd;stroke:#000000;stroke-width:1.4835540"
       sodipodi:nodetypes="cc"
       id="path676"
       d="M 256.40010,338.87000 C 256.40010,338.87000 241.15750,339.27520 246.42680,358.23540" />
    <path
       style="font-size:12.000000px;fill:none;fill-rule:evenodd;stroke:#000000;stroke-width:1.8544420;stroke-linecap:round;stroke-linejoin:round"
       sodipodi:nodetypes="ccc"
       id="path662"
       d="M 424.32550,324.89330 C 424.32550,324.70390 429.43240,337.75570 418.46200,340.02550 C 446.64450,337.94490 454.58870,370.10070 454.58870,370.10070" />
    <path
       style="font-size:12.000000px;fill:none;fill-rule:evenodd;stroke:#000000;stroke-width:1.4835540;stroke-linecap:round;stroke-linejoin:round"
       sodipodi:nodetypes="ccc"
       id="path663"
       d="M 417.89460,329.62210 C 417.89460,329.62210 420.35360,339.07970 412.22020,343.80850 C 441.72680,350.23960 448.53600,380.88230 448.53600,380.88230" />
    <path
       style="font-size:12.000000px;fill:none;fill-rule:evenodd;stroke:#000000;stroke-width:1.4835540;stroke-linecap:round;stroke-linejoin:round"
       sodipodi:nodetypes="ccc"
       id="path664"
       d="M 411.65280,333.97250 C 411.65280,334.35090 414.49000,346.26750 405.22190,348.15900 C 423.56900,343.24090 442.67250,389.77250 442.67250,389.77250" />
    <path
       style="font-size:12.000000px;fill:none;fill-rule:evenodd;stroke:#000000;stroke-width:1.4835540;stroke-linecap:round;stroke-linejoin:round"
       sodipodi:nodetypes="ccc"
       id="path665"
       d="M 402.76310,339.26890 C 402.76310,339.26890 407.49170,348.34800 398.79110,351.18540 C 415.24650,352.88760 420.54270,406.98550 420.54270,406.98550" />
    <path
       style="font-size:12.000000px;fill:none;fill-rule:evenodd;stroke:#000000;stroke-width:1.4835540;stroke-linecap:round;stroke-linejoin:round"
       sodipodi:nodetypes="ccc"
       id="path666"
       d="M 397.08880,342.48430 C 397.08880,342.48430 399.73660,352.50950 391.22530,355.53580 C 408.43740,346.45680 405.22190,416.44300 405.22190,416.44300" />
    <path
       style="font-size:12.000000px;fill:none;fill-rule:evenodd;stroke:#000000;stroke-width:1.4835540;stroke-linecap:round;stroke-linejoin:round"
       sodipodi:nodetypes="ccc"
       id="path667"
       d="M 385.74020,343.05190 C 385.74020,343.05190 382.14630,353.64440 390.09040,355.72490 C 374.39150,351.37460 377.41770,416.44300 377.41770,416.44300" />
    <path
       style="font-size:12.000000px;fill:none;fill-rule:evenodd;stroke:#000000;stroke-width:1.4835540;stroke-linecap:round;stroke-linejoin:round"
       sodipodi:nodetypes="ccc"
       id="path668"
       d="M 378.36340,338.89050 C 378.36340,338.89050 375.90470,348.53730 385.55090,353.45520 C 369.47380,343.24110 362.85370,407.74190 362.85370,407.74190" />
    <path
       style="font-size:12.000000px;fill:none;fill-rule:evenodd;stroke:#000000;stroke-width:1.4835540;stroke-linecap:round;stroke-linejoin:round"
       id="path669"
       d="M 403.89800,347.78080 C 403.89800,347.78080 433.21520,375.96440 433.02610,396.77110" />
    <path
       style="font-size:12.000000px;fill:none;fill-rule:evenodd;stroke:#000000;stroke-width:1.4835540;stroke-linecap:round;stroke-linejoin:round"
       id="path677"
       d="M 357.55770,325.08250 C 357.55770,325.27160 353.96390,340.21460 364.36680,340.59290" />
    <path
       style="font-size:12.000000px;fill:none;fill-rule:evenodd;stroke:#000000;stroke-width:1.4835540;stroke-linecap:round;stroke-linejoin:round"
       id="path678"
       d="M 364.93420,330.56770 C 364.93420,330.94610 362.09710,343.24090 370.41940,343.80850" />
    <path
       style="font-size:12.000000px;fill:none;fill-rule:evenodd;stroke:#000000;stroke-width:1.4835540;stroke-linecap:round;stroke-linejoin:round"
       id="path679"
       d="M 371.55420,334.16170 C 371.55420,334.16170 366.44740,346.45670 378.93090,348.15900" />
    <path
       style="font-size:12.000000px;fill:none;fill-rule:evenodd;stroke:#000000;stroke-width:1.4835540;stroke-linecap:round;stroke-linejoin:round"
       id="path680"
       d="M 377.98510,348.34810 C 377.79600,348.34810 353.58560,370.85720 349.80280,396.96020" />
    <path
       style="font-size:12.000000px;fill:none;fill-rule:evenodd;stroke:#000000;stroke-width:1.4835540;stroke-linecap:round;stroke-linejoin:round"
       id="path681"
       d="M 373.44570,346.07830 C 373.25660,346.07830 342.61520,365.18260 340.53450,389.58320" />
    <path
       style="font-size:12.000000px;fill:none;fill-rule:evenodd;stroke:#000000;stroke-width:1.4835540;stroke-linecap:round;stroke-linejoin:round"
       id="path682"
       d="M 366.63650,342.86260 C 366.63650,342.86260 332.59060,362.72380 334.10380,380.69320" />
    <path
       style="font-size:12.000000px;fill:none;fill-rule:evenodd;stroke:#000000;stroke-width:1.4835540;stroke-linecap:round;stroke-linejoin:round"
       id="path683"
       d="M 358.50330,338.51220 C 358.50330,338.51220 333.15790,343.24110 326.91630,370.47890" />
    <path
       style="font-size:12.000000px;fill:none;fill-rule:evenodd;stroke:#000000;stroke-width:1.4835540"
       sodipodi:nodetypes="csssscs"
       id="path689"
       d="M 305.05030,164.23620 C 305.05030,164.23620 329.56060,177.77230 347.12010,177.04060 C 364.67990,176.30880 391.01930,164.96780 391.01930,164.96780 C 391.01930,164.96780 414.43210,178.13790 433.45500,176.30880 C 452.47800,174.47980 478.81730,164.23620 478.81730,164.23620 C 494.54800,242.76990 458.69690,313.25560 391.01930,344.96180 C 319.19550,312.15800 284.32010,233.25830 305.05030,164.23620 z " />
    <g
       transform="matrix(1.483523,0.000000,0.000000,1.483587,24.09617,27.91796)"
       id="g697">
      <path
         style="fill:#bd0029;fill-opacity:1.0000000;fill-rule:evenodd;stroke:#000000;stroke-width:1.0000000pt;stroke-linecap:butt;stroke-linejoin:miter;stroke-opacity:1.0000000"
         sodipodi:nodetypes="csssscs"
         id="path581"
         d="M 189.38310,91.884310 C 189.38310,91.884310 205.90480,101.00820 217.74120,100.51500 C 229.57770,100.02170 247.33230,92.377470 247.33230,92.377470 C 247.33230,92.377470 263.11420,101.25470 275.93700,100.02180 C 288.75990,98.788910 306.51450,91.884310 306.51450,91.884310 C 317.11800,144.81940 292.95190,192.32970 247.33230,213.70100 C 198.91800,191.58990 175.40950,138.40810 189.38310,91.884310 z " />
      <path
         style="fill:#3a59a5;fill-opacity:1.0000000;fill-rule:evenodd;stroke:#000000;stroke-width:1.0000000pt;stroke-linecap:butt;stroke-linejoin:miter;stroke-opacity:1.0000000"
         sodipodi:nodetypes="cccsscccc"
         id="path582"
         d="M 189.38310,91.884310 C 189.38310,91.884310 193.51350,94.165270 199.12350,96.384580 C 204.73350,98.603970 211.82300,100.76160 217.74120,100.51500 C 229.57770,100.02170 247.33230,92.377470 247.33230,92.377470 C 247.33230,92.377470 263.11420,101.25470 275.93700,100.02180 C 288.75990,98.788910 306.51450,91.884310 306.51450,91.884310 C 309.10380,107.25520 310.39830,115.10500 308.11730,130.35270 L 186.08490,129.64380 C 184.53340,114.42700 184.61560,108.24160 189.38310,91.884310 z " />
      <path
         style="font-size:12.000000px;fill:#ffffff;fill-opacity:1.0000000;fill-rule:evenodd"
         sodipodi:nodetypes="ccccc"
         id="path586"
         d="M 193.74360,130.22570 L 193.66550,159.07460 L 201.71270,173.48860 L 201.63460,130.22570 L 193.74360,130.22570 z " />
      <path
         style="font-size:12.000000px;fill:#ffffff;fill-opacity:1.0000000;fill-rule:evenodd"
         sodipodi:nodetypes="ccccc"
         id="path587"
         d="M 213.94900,130.32620 L 214.04230,189.78150 L 221.93330,196.96900 L 221.84000,130.32620 L 213.94900,130.32620 z " />
      <path
         style="font-size:12.000000px;fill:#ffffff;fill-opacity:1.0000000;fill-rule:evenodd"
         sodipodi:nodetypes="ccccc"
         id="path588"
         d="M 233.76970,130.54630 L 233.76970,206.30320 L 241.73880,210.63910 L 241.66070,130.54630 L 233.76970,130.54630 z " />
      <path
         style="font-size:12.000000px;fill:#ffffff;fill-opacity:1.0000000;fill-rule:evenodd"
         sodipodi:nodetypes="ccccc"
         id="path589"
         d="M 302.04260,130.87420 L 302.21330,155.55420 L 294.72200,170.70930 L 294.15160,130.87420 L 302.04260,130.87420 z " />
      <path
         style="font-size:12.000000px;fill:#ffffff;fill-opacity:1.0000000;fill-rule:evenodd"
         sodipodi:nodetypes="ccccc"
         id="path590"
         d="M 282.48570,130.69670 L 282.20710,188.02120 L 274.50140,195.30140 L 274.59470,130.69670 L 282.48570,130.69670 z " />
      <path
         style="font-size:12.000000px;fill:#ffffff;fill-opacity:1.0000000;fill-rule:evenodd"
         sodipodi:nodetypes="ccccc"
         id="path591"
         d="M 261.92390,130.63890 L 262.01650,205.37670 L 253.95480,210.36110 L 254.03290,130.63890 L 261.92390,130.63890 z " />
    </g>
    <path
       style="font-size:12.000000px;fill:none;fill-rule:evenodd;stroke:#000000;stroke-width:1.4835540"
       sodipodi:nodetypes="csssscs"
       id="path707"
       d="M 305.05030,164.23620 C 305.05030,164.23620 329.56060,177.77230 347.12010,177.04060 C 364.67990,176.30880 391.01930,164.96780 391.01930,164.96780 C 391.01930,164.96780 414.43210,178.13790 433.45500,176.30880 C 452.47800,174.47980 478.81730,164.23620 478.81730,164.23620 C 494.54800,242.76990 458.69690,313.25560 391.01930,344.96180 C 319.19550,312.15800 284.32010,233.25830 305.05030,164.23620 z " />
  </g>
  <metadata
     id="metadata103">
    <rdf:RDF>
      <cc:Work
         rdf:about="">
        <dc:title>Clipart by Tobias Jakobs - United States - US Virgin Islands</dc:title>
        <dc:description />
        <dc:subject>
          <rdf:Bag>
            <rdf:li>north_america</rdf:li>
            <rdf:li>signs_and_symbols</rdf:li>
            <rdf:li />
            <rdf:li>0xa0f5150</rdf:li>
            <rdf:li>flags</rdf:li>
            <rdf:li>sign</rdf:li>
            <rdf:li>united_states</rdf:li>
            <rdf:li>america</rdf:li>
          </rdf:Bag>
        </dc:subject>
        <dc:publisher>
          <cc:Agent
             rdf:about="http://www.openclipart.org">
            <dc:title>Tobias Jakobs</dc:title>
          </cc:Agent>
        </dc:publisher>
        <dc:creator>
          <cc:Agent
             rdf:about="">
            <dc:title>Tobias Jakobs</dc:title>
          </cc:Agent>
        </dc:creator>
        <dc:rights>
          <cc:Agent
             rdf:about="">
            <dc:title>Tobias Jakobs</dc:title>
          </cc:Agent>
        </dc:rights>
        <dc:date />
        <dc:format>image/svg+xml</dc:format>
        <dc:type
           rdf:resource="http://purl.org/dc/dcmitype/StillImage" />
        <cc:license
           rdf:resource="http://web.resource.org/cc/PublicDomain">
          <dc:date />
        </cc:license>
        <dc:language>en</dc:language>
      </cc:Work>
      <cc:License
         rdf:about="http://web.resource.org/cc/PublicDomain">
        <cc:permits
           rdf:resource="http://web.resource.org/cc/Reproduction" />
        <cc:permits
           rdf:resource="http://web.resource.org/cc/Distribution" />
        <cc:permits
           rdf:resource="http://web.resource.org/cc/DerivativeWorks" />
      </cc:License>
    </rdf:RDF>
  </metadata>
</svg>
