<?xml version="1.0" encoding="UTF-8" standalone="no"?>
<svg
   xmlns:dc="http://purl.org/dc/elements/1.1/"
   xmlns:cc="http://web.resource.org/cc/"
   xmlns:rdf="http://www.w3.org/1999/02/22-rdf-syntax-ns#"
   xmlns:svg="http://www.w3.org/2000/svg"
   xmlns="http://www.w3.org/2000/svg"
   xmlns:sodipodi="http://inkscape.sourceforge.net/DTD/sodipodi-0.dtd"
   xmlns:inkscape="http://www.inkscape.org/namespaces/inkscape"
   width="748"
   height="457"
   id="svg2"
   sodipodi:version="0.32"
   inkscape:version="0.42"
   sodipodi:docname="usa_oregon.svg"
   sodipodi:docbase="/home/demailly/gis_data/flags/svg_all/eps">
  <metadata
     id="metadata425">
    <rdf:RDF>
      <cc:Work
         rdf:about="">
        <dc:format>image/svg+xml</dc:format>
        <dc:type
           rdf:resource="http://purl.org/dc/dcmitype/StillImage" />
      </cc:Work>
    </rdf:RDF>
  </metadata>
  <sodipodi:namedview
     inkscape:cy="237.75812"
     inkscape:cx="397.67612"
     inkscape:zoom="1.2279853"
     inkscape:window-height="835"
     inkscape:window-width="1538"
     inkscape:pageshadow="2"
     inkscape:pageopacity="0.0"
     borderopacity="1.0"
     bordercolor="#666666"
     pagecolor="#ffffff"
     id="base"
     inkscape:window-x="62"
     inkscape:window-y="27"
     inkscape:current-layer="svg2" />
  <defs
     id="defs4">
    <marker
       id="ArrowEnd"
       viewBox="0 0 10 10"
       refX="0"
       refY="5"
       markerUnits="strokeWidth"
       markerWidth="4"
       markerHeight="3"
       orient="auto">
      <path
         d="M 0 0 L 10 5 L 0 10 z"
         id="path7" />
    </marker>
    <marker
       id="ArrowStart"
       viewBox="0 0 10 10"
       refX="10"
       refY="5"
       markerUnits="strokeWidth"
       markerWidth="4"
       markerHeight="3"
       orient="auto">
      <path
         d="M 10 0 L 0 5 L 10 10 z"
         id="path10" />
    </marker>
  </defs>
  <g
     id="g3037"
     transform="translate(0.000000,2.443026)">
    <path
       style="fill:#000000;stroke:none"
       d="M -2428.4570,2314.4430 L -2428.4570,2314.4430 L -2428.4570,2314.4430 z "
       id="path14" />
    <path
       style="fill:#3c3c9e;fill-opacity:1.0000000;stroke:none"
       d="M 0.94300000,455.04300 L 751.54300,455.04300 L 751.54300,-1.5570000 L 0.94300000,-1.5570000 L 0.94300000,455.04300 z "
       id="path76" />
    <path
       style="fill:#000000;stroke:none"
       d="M 344.12500,165.78900 C 344.67700,166.05900 345.04900,166.34700 344.23900,167.15700 C 344.06500,167.18100 343.91500,167.15700 343.77700,167.10900"
       id="path78" />
    <path
       style="fill:#3c3c9e;stroke:none"
       d="M 345.32500,166.88700 C 344.94100,167.91900 344.53300,168.93900 344.16100,169.98300 L 341.74300,169.60500 C 340.29700,168.83100 339.27700,167.58900 338.80300,165.87900 C 337.99300,165.30900 337.29700,166.34700 336.94900,166.80900 C 336.37300,166.34700 336.14500,165.87900 336.03100,165.30900 C 335.56900,164.49900 334.63900,163.22100 333.60100,163.79700 C 332.44300,163.91100 333.36700,165.18900 332.55700,165.54300 C 331.39900,164.26500 329.77900,163.79700 328.73500,162.41100 C 328.04500,161.82300 327.23500,162.29700 327.11500,163.22100 C 326.42500,163.44300 326.53900,162.63300 326.30500,162.41100 C 325.27300,161.25300 323.53300,161.25300 322.37500,161.36700 C 322.26100,166.11300 319.48300,160.08900 317.51500,161.72100 C 317.74900,166.23300 314.50900,161.13300 312.54100,162.76500 C 310.92100,164.26500 313.23700,165.87900 311.49700,167.15700 C 310.80700,167.96700 310.92100,169.46700 312.07900,170.05500 C 314.16100,170.85900 314.62300,168.08100 316.70500,167.61300 C 317.16700,168.18900 315.78100,168.89100 316.24300,169.46700 C 316.93900,170.51100 318.21100,170.96700 319.36900,170.51100 C 321.45100,170.39100 321.45100,168.08100 322.37500,166.80900 C 322.72300,166.68900 323.07100,166.80900 323.41900,167.15700 L 322.95700,167.61300 C 322.60900,168.65700 322.60900,170.04300 323.76700,170.74500 C 324.92500,170.84700 325.50100,170.51100 326.08300,169.70100 L 327.35500,171.09300 C 329.20900,172.01100 330.70900,170.27700 332.32900,169.46700 C 333.36700,170.04300 332.21500,170.96700 332.55700,171.55500 C 333.94900,174.21300 335.79700,171.31500 337.76500,171.31500 C 339.27100,171.77700 338.22700,173.63700 339.38500,174.44700 C 340.54300,175.49100 341.81500,174.44700 342.97300,174.21300 C 345.63700,176.99100 348.76300,173.16900 351.54100,175.94700 L 352.00300,178.74900 L 384.26500,178.74900 L 387.30100,176.87100 C 390.54100,176.30100 390.66100,174.32700 393.78100,174.21300 C 396.09700,173.74500 400.26100,175.13700 402.34900,172.59300 C 402.45700,172.02300 402.11500,171.43500 401.88700,171.09300 C 401.30500,170.05500 399.68500,170.74500 398.99500,170.51100 C 395.28700,169.46700 392.04700,172.47900 388.34500,172.02300 L 388.57300,171.78900 C 389.04100,171.55500 389.49700,171.09300 389.85100,171.31500 C 392.62300,168.20100 397.02100,168.89100 400.60900,167.61300 C 401.07100,167.39100 401.64700,166.80900 402.10900,166.92300 C 403.15300,165.87900 406.27900,165.87900 405.00700,163.68900 C 403.85500,162.17700 400.72900,162.76500 399.45700,163.22100 L 399.56500,162.17700 C 399.10300,161.60100 398.52700,161.26500 397.95100,161.14500 C 396.21700,160.91100 394.59700,162.98700 393.55300,164.26500 C 388.45900,166.34700 384.64300,170.16900 379.20100,171.31500 L 378.39100,169.01100 C 376.88500,166.34700 380.82100,167.27700 381.05500,165.06900 L 381.51700,165.54300 C 382.09300,165.87900 383.01700,165.87900 383.36500,165.06900 C 383.47900,162.64500 385.33300,163.80900 386.95300,163.22100 C 387.41500,161.60100 390.07900,161.48700 390.88300,160.10100 C 392.96500,161.36700 393.19900,158.01900 395.28100,158.48700 C 396.32500,155.81700 399.33100,157.67700 400.83700,155.35500 C 402.10900,154.78500 402.57700,156.85500 403.61500,157.56300 C 406.50700,156.51900 407.43700,160.44300 409.63300,161.14500 C 410.44300,161.48700 411.83500,161.48700 412.29700,160.67700 C 414.61300,161.83500 416.69500,163.80900 418.54900,165.54300 C 420.04900,166.81500 421.32700,165.06900 421.66900,163.80900 C 423.40300,164.95500 424.21300,166.70100 426.06100,167.39100 C 428.61100,162.76500 430.45900,169.46700 433.81900,167.62500 C 436.13500,164.73300 438.21700,169.46700 440.88100,168.43500 C 440.99500,168.08100 441.80500,168.08100 441.45700,167.39100 C 441.57100,166.81500 442.03900,166.34700 442.72900,166.58100 C 445.15900,169.01100 446.31700,165.42300 448.17100,165.30900 C 448.63300,164.49900 449.90500,164.37900 450.01900,163.23300 C 451.75900,161.03100 447.36100,159.86700 448.98100,157.78500 C 448.63300,156.75300 448.05700,155.81700 447.36100,154.88700 C 440.07100,148.29300 431.26900,144.58500 423.51700,138.69300 C 415.06900,130.58100 405.92500,124.22100 394.35700,124.92300 C 389.03500,124.11300 385.67500,129.43500 381.73900,132.44700 C 378.61300,133.82700 375.49300,134.87100 371.90500,134.63700 C 370.39900,134.40300 368.77900,133.82700 368.19700,132.44700 C 368.43100,129.43500 365.65300,127.34700 366.69700,124.22100 L 367.96900,124.22100 C 369.58900,122.60100 370.28500,125.61300 371.90500,125.14500 C 373.29100,125.03100 373.05700,123.53100 373.41100,122.60100 C 373.29100,121.22100 372.71500,120.06300 371.67100,119.01900 C 370.05100,118.78500 368.66500,117.85500 367.15900,119.01900 L 366.22900,119.01900 C 364.14700,115.88700 360.55900,117.74100 357.55300,118.43100 C 354.07900,120.28500 353.96500,124.33500 353.61700,127.80900 C 352.23100,130.01100 350.73100,133.35900 347.47900,133.25700 C 341.92900,131.97900 337.53100,127.80900 332.55700,125.14500 C 323.41300,121.33500 313.57300,126.06900 306.28300,130.93500 C 296.56300,140.19300 285.10300,145.51500 275.84500,155.47500 C 273.76300,157.78500 271.44700,159.51900 270.86500,162.42300 C 270.98500,163.56900 272.14300,164.04300 272.95300,164.73300 L 272.71900,164.84700 C 274.22500,163.92300 276.07300,164.04300 277.35100,162.64500 L 278.38900,164.49900 C 279.54700,165.65700 281.05300,164.84700 282.32500,165.06900 C 282.55300,165.77700 283.48300,165.54300 283.93900,166.11300 C 284.98300,166.58100 286.48900,166.34700 287.06500,165.54300 L 287.29900,165.76500 L 288.57100,164.73300 C 289.38100,163.80900 290.30500,164.61300 290.88700,165.30900 C 294.47500,165.30900 297.71500,163.68900 301.53100,163.80900 C 302.57500,162.87900 303.73300,161.95500 305.00500,161.14500 C 308.59300,165.99900 310.44700,158.13300 314.03500,159.86700 C 316.11700,159.63300 316.46500,157.32300 317.96500,156.16500 C 318.76900,156.05100 319.23700,156.51900 319.81300,156.97500 C 321.43300,156.05100 322.70500,158.36700 324.44500,156.97500 C 324.79300,158.24100 325.95100,159.06300 327.33700,158.47500 C 329.76700,160.10100 332.54500,160.91100 334.86100,162.98700 C 335.20900,163.22100 335.78500,163.68900 336.24700,163.22100 L 337.29100,164.03100 C 339.48700,163.22100 340.06900,165.54300 341.45500,166.11300 C 342.67300,164.69700 342.82300,166.73700 343.77100,167.10900 L 345.31900,166.88700 C 345.41500,166.62900 345.51100,166.37100 345.60100,166.11300"
       id="path80" />
    <path
       style="fill:#ffb30f;stroke:none"
       d="M 343.74700,165.58500 C 343.20100,165.31500 342.85300,165.24900 342.96700,164.49900 C 342.27100,164.37900 342.04300,165.18900 341.23300,164.83500 C 340.53700,163.91100 340.99900,162.53100 340.88500,161.36700 C 339.84700,161.25300 339.49300,162.63300 338.80300,163.22100 C 337.99900,163.33500 337.53100,162.86700 337.06900,162.41100 C 336.84100,159.63300 335.10100,163.45500 334.17700,160.91100 C 334.75300,160.67700 334.63900,159.98700 335.22100,159.63300 C 334.87300,159.51900 335.10100,159.05100 334.98700,158.82300 L 334.41100,158.82300 C 334.06300,159.39900 333.71500,159.98700 333.36700,160.56300 C 332.09500,158.94300 330.01300,159.39900 328.73500,157.78500 C 329.20300,157.43100 329.55100,156.50700 328.73500,156.16500 C 327.92500,155.93100 328.15900,156.97500 327.58300,157.20900 C 323.06500,158.70900 328.27300,154.43100 326.30500,153.38700 C 325.84300,155.00700 324.45700,155.93100 322.95100,156.39900 C 321.33700,155.46300 323.52700,154.65300 323.52700,153.62100 C 323.52700,153.15300 323.64700,152.68500 323.17900,152.34300 C 322.37500,153.27300 321.67900,154.65300 320.87500,155.69700 C 319.83100,156.97500 319.48300,155.12100 318.78700,154.88700 C 319.48300,152.46300 320.75500,150.37500 322.14700,148.17300 C 322.25500,147.83100 322.72300,148.17300 322.48900,147.59700 C 322.37500,147.26100 321.91300,147.26100 321.68500,147.02700 C 320.17900,148.76100 318.90700,151.41900 317.97700,153.84300 C 316.35700,155.35500 315.54700,159.63300 312.54100,158.25300 C 312.88900,156.75300 314.16100,155.47500 315.20500,154.43100 C 315.31900,153.84300 315.20500,153.62100 314.62300,153.38700 C 311.95900,156.05100 310.92100,158.94300 308.37100,161.36700 C 307.33300,161.36700 306.52300,160.91100 305.82700,160.10100 L 307.56100,157.78500 L 307.79500,158.01900 C 308.49100,156.16500 309.52900,154.43100 310.92100,152.81700 C 311.03500,150.72900 314.27500,150.60900 313.35100,148.40700 C 308.25700,151.53900 307.56100,157.89900 302.70100,161.36700 C 302.00500,162.53100 300.50500,163.11300 299.22700,162.76500 C 299.80900,161.60100 300.85300,160.56300 301.66300,159.51900 L 301.31500,159.06300 C 300.03700,159.39900 298.07500,161.26500 297.72700,162.64500 C 295.29700,162.53100 292.86700,165.30900 290.89900,163.45500 C 293.20900,161.26500 296.33500,159.17700 298.76500,157.20900 C 301.77700,155.00700 304.20700,151.77300 307.55500,149.91900 C 307.21900,148.99500 308.71300,149.45100 308.13700,148.41900 C 308.02300,148.18500 307.55500,148.07100 307.33300,147.83100 C 303.85900,151.19700 300.61900,153.97500 296.68300,157.20900 C 292.63300,159.51900 289.50700,164.37900 284.41300,165.06900 C 283.95100,164.84700 283.25500,164.73300 283.37500,164.04300 C 287.88700,161.14500 291.93700,158.36700 295.87300,154.43100 C 296.33500,153.85500 297.84100,153.74100 297.95500,152.81700 C 297.60700,152.22900 296.33500,152.81700 295.63900,153.27300 C 291.24100,157.08900 286.15300,160.67700 281.52100,163.80900 L 279.66700,163.80900 C 278.85700,163.58100 278.39500,162.53100 278.62900,161.95500 C 282.79300,158.48700 289.15900,157.56300 290.89900,151.77300 C 291.01300,152.46300 291.82300,152.12100 292.17100,152.81700 C 293.20900,152.57700 294.13900,151.65300 295.29700,151.30500 C 296.91700,150.38700 298.88500,149.80500 299.80900,148.18500 L 300.03700,148.41900 L 300.03700,148.07100 C 300.50500,147.83100 300.85300,147.48300 301.54300,147.60900 L 301.31500,147.37500 L 301.66300,147.02700 C 302.93500,146.57100 303.62500,145.99500 304.78300,145.29300 C 304.89700,144.83100 304.66900,144.48300 304.43500,144.02700 C 301.08100,145.52700 298.18900,147.95100 295.06300,149.91900 C 293.44300,150.27300 292.17100,151.88700 290.66500,151.53900 L 290.66500,150.15300 C 297.14500,147.83100 301.08100,142.74900 306.75100,138.45900 C 306.98500,137.76900 306.17500,138.00300 305.82700,137.64900 L 300.85300,141.81900 C 298.07500,145.05900 293.55700,147.02700 289.85500,149.22900 C 289.74700,150.26100 288.24100,149.68500 287.54500,150.72900 C 287.43100,152.12100 289.04500,151.19700 289.62100,151.77300 L 289.39900,152.81700 C 286.50700,156.63300 281.76100,158.01900 278.74900,160.56300 C 276.55300,161.26500 273.77500,164.73300 271.92100,162.18900 C 280.71700,149.68500 295.64500,142.97100 306.52900,132.21300 L 307.10500,132.21300 C 310.23100,136.25700 313.69900,131.51100 316.93900,130.93500 C 320.41300,135.09300 326.08300,135.44700 330.48100,135.68100 C 331.63900,135.56700 332.67700,134.40300 333.83500,134.52300 C 334.29700,136.37100 335.68900,138.00300 336.72700,139.50300 C 341.24500,142.97100 346.45300,146.31900 351.88900,146.55900 C 354.66700,143.89500 358.02700,142.85100 360.45700,139.83900 C 363.23500,142.28100 366.58900,143.55900 369.36700,145.98300 C 370.06300,146.31900 370.87300,147.12900 371.45500,147.12900 L 371.33500,147.02700 L 371.68300,146.55900 C 368.90500,143.55900 364.62100,142.62900 361.96300,139.26900 L 361.72900,139.50300 C 361.50100,138.81300 360.57100,138.33900 359.99500,138.81300 L 351.88900,145.29300 C 351.42700,145.62900 350.50300,145.62900 350.04100,145.05900 C 351.07900,143.78100 351.66100,142.04700 351.07900,140.31300 C 349.92100,138.45900 347.37700,137.53500 345.41500,137.41500 C 346.45300,139.26900 348.88300,139.26900 350.26900,140.89500 C 350.16100,142.39500 349.69300,143.89500 348.99700,145.05900 C 343.33300,142.85100 335.91700,139.83900 334.18300,133.02300 L 330.71500,134.52300 C 325.85500,135.09300 321.45700,133.47900 317.98300,130.47900 C 321.45700,126.99900 328.86700,127.58100 332.91700,128.39100 L 332.91700,127.23300 C 326.89900,126.77700 322.26700,125.95500 317.52100,128.85900 C 317.17300,130.47900 314.74300,129.66900 314.05300,130.70100 C 313.12300,131.16900 312.08500,131.97900 311.27500,131.97900 L 310.92700,132.44700 C 309.76900,132.78900 308.72500,132.90300 308.14900,131.51100 C 313.00900,127.58100 320.29900,125.14500 326.08900,124.92300 C 333.84100,124.68900 339.04900,132.09300 346.11100,134.06700 C 348.88900,135.09300 350.97100,133.13700 352.93900,131.74500 C 354.79300,133.25700 356.87500,134.06700 358.84300,135.56700 C 361.96900,136.83900 365.20900,135.10500 367.29100,133.02300 C 368.44900,135.33900 372.03700,135.44700 374.23300,135.33900 C 383.72500,137.41500 387.77500,123.41100 397.15300,125.73300 C 405.82900,125.95500 412.54300,131.05500 419.25100,136.37100 C 418.67500,136.83900 418.44700,136.49100 417.75100,136.72500 C 414.97900,135.44700 412.08100,134.18100 409.65100,131.97900 C 408.84100,131.97900 407.80300,131.85900 407.56900,132.56700 C 405.71500,135.10500 402.24700,135.80100 399.46900,135.10500 C 397.96300,135.68100 396.69100,133.60500 395.41900,133.47900 C 391.36300,133.47900 388.81900,138.57300 384.88300,139.50300 C 384.42100,139.97100 383.61100,140.76900 382.80100,140.76900 C 379.78900,142.51500 375.85900,145.17300 372.73300,145.29300 C 372.27100,144.12900 371.46100,142.97100 371.46100,141.58500 C 373.19500,140.42700 375.39100,140.42700 377.35900,139.85100 C 382.68700,137.88300 390.78700,135.44700 391.13500,128.39100 L 390.67300,128.39100 C 388.24300,135.44700 380.37100,138.00300 373.77100,139.50300 C 372.73300,140.31300 369.84100,139.38300 370.41700,141.81900 C 371.68900,144.59700 373.19500,148.29300 372.49900,151.53900 C 370.30300,151.31700 368.22100,151.19700 366.13900,151.77300 C 362.20300,153.62100 364.63300,158.72100 364.86700,161.72100 C 363.01300,162.53100 360.46900,162.99900 358.84900,162.18900 C 359.31100,159.64500 359.65900,156.97500 359.19700,154.31700 C 358.27300,152.69700 357.22900,151.30500 355.48900,150.26100 C 353.64100,150.03900 352.24900,150.03900 350.62900,150.96300 C 350.16700,152.93100 349.00900,154.78500 347.97100,156.39900 C 340.90900,153.85500 336.51100,147.60900 331.30300,142.16100 C 330.72100,141.11700 330.84100,139.61700 330.03100,138.81300 C 328.06300,140.19300 327.48100,143.89500 324.48100,142.62900 L 325.51300,141.81900 C 325.74700,141.11700 325.98100,140.43900 325.29100,140.08500 C 323.55100,144.71700 319.50100,142.74900 316.14700,142.62900 C 316.14700,142.17300 316.72300,141.93900 316.95100,141.58500 C 317.17900,139.97100 319.49500,138.47100 318.22300,137.19300 C 317.06500,138.92700 315.79300,140.54700 315.44500,142.62900 C 314.86900,142.05900 314.05900,141.81900 313.36300,141.36300 C 313.71100,140.31900 314.28700,139.28100 315.09700,138.47100 L 314.17300,137.66100 L 311.97700,140.55900 C 308.85700,139.16100 314.05900,137.78100 312.31900,135.91500 C 311.62900,136.72500 310.93300,137.19300 310.23700,138.23700 C 309.31900,138.11700 309.43300,136.72500 308.62300,136.14900 C 307.92700,135.57300 309.08500,133.72500 307.57900,133.83900 L 307.35100,135.33900 C 308.62300,140.20500 313.59700,142.86300 317.30500,144.02700 C 321.58900,144.02700 326.91100,145.52700 329.68900,141.12900 C 330.26500,141.70500 330.03700,142.62900 330.72700,143.21700 C 334.43500,147.26100 338.48500,152.35500 343.23100,154.89900 C 344.26900,156.86700 350.40700,156.51900 346.93300,160.11300 C 346.87300,162.26100 345.90700,164.42700 345.22900,166.32300 L 343.77700,165.60900"
       id="path82" />
    <path
       style="fill:#ffb30f;stroke:none"
       d="M 341.68900,170.60100 C 340.10500,170.00700 337.96900,169.46700 338.34100,167.15700 C 337.18300,166.92300 337.18300,168.77700 336.02500,167.84700 C 335.21500,166.92300 335.32900,165.30900 333.94300,164.83500 C 333.70900,165.54300 333.70900,166.34700 333.12700,166.92300 C 331.39300,165.99900 329.42500,165.06900 328.15300,163.45500 C 327.57700,164.26500 328.04500,164.60100 327.69100,165.54300 C 325.60900,164.83500 325.72900,162.29700 323.17300,162.41100 C 322.83700,162.98700 322.95100,164.03100 322.95100,164.49900 C 321.67900,165.64500 320.40700,162.98700 318.78100,162.98700 L 318.55300,162.76500 C 317.74300,163.67700 318.66700,164.49900 317.74300,165.30900 C 316.23700,164.60100 314.61700,163.10100 312.99700,164.26500 C 313.11100,165.99900 313.45900,167.27700 312.07900,168.65700 C 313.46500,169.93500 314.04100,167.61300 315.08500,167.15700 C 316.47700,167.04300 317.50900,164.83500 319.01500,165.87900 C 319.59700,167.51100 317.74300,168.08100 317.50900,169.24500 C 322.14100,171.78900 319.24900,162.98700 324.22300,166.11300 C 325.15300,167.73300 322.02700,169.12500 324.57100,169.70100 C 325.49500,168.65700 326.07700,167.27700 327.58300,166.92300 C 328.04500,167.51100 328.39300,168.42300 327.92500,169.01100 C 327.69700,169.34700 327.34900,169.46700 327.58300,169.93500 C 329.77900,171.31500 330.82300,166.68900 333.60100,168.65700 C 333.71500,169.93500 333.25300,170.74500 333.94900,171.55500 C 335.44900,171.20100 336.84100,169.58100 338.57500,170.51100 C 339.61900,171.09300 339.61900,175.49100 341.92900,173.16900 C 344.13100,173.16900 345.97900,175.25700 348.18100,173.85900 C 349.68700,173.28900 350.98300,173.72100 353.01700,177.30900 L 384.22900,178.25700 C 389.14900,173.85900 395.28100,172.59300 400.83700,172.59300 C 401.07100,172.35900 401.41900,172.24500 401.29900,172.02300 C 395.28100,170.05500 391.57900,173.74500 385.67500,173.85900 C 385.45300,173.28900 384.75700,172.82700 384.97900,172.35900 C 389.37700,170.85900 392.73700,167.04300 397.94500,167.15700 C 400.26100,166.68900 402.57700,165.76500 404.42500,164.26500 C 403.26700,163.79700 402.10900,163.67700 400.83700,164.03100 C 398.98900,165.18900 396.55900,167.73300 394.59700,166.11300 C 395.16700,164.26500 397.71100,163.91100 398.75500,162.41100 C 398.52700,161.72100 397.71700,161.95500 397.36300,162.17700 C 392.85700,166.34700 386.95300,169.34700 381.74500,171.55500 C 377.46700,172.94700 372.83500,173.85900 368.32300,174.09300 C 367.86100,174.66900 368.55100,175.13700 367.74100,175.71300 L 367.97500,175.94700 C 366.58300,177.91500 363.92500,177.10500 362.07100,176.99100 C 359.75500,175.94700 354.78100,178.38300 353.97100,174.90300 L 353.16100,173.85900 C 350.19100,173.09700 346.90900,172.85100 344.20900,171.33900 L 341.69500,170.60100"
       id="path84" />
    <path
       style="fill:#ffb30f;stroke:none"
       d="M 363.10900,118.65300 C 363.68500,118.88700 364.03300,119.12100 364.60900,118.88700 C 365.30500,119.35500 365.53900,121.78500 366.92500,120.28500 C 367.73500,119.47500 369.35500,119.24100 370.62700,119.69700 C 372.01900,120.62100 372.36700,122.35500 371.90500,123.86700 C 371.09500,124.10100 370.51300,123.16500 370.28500,122.58900 C 368.31700,123.16500 366.69700,122.13300 365.41900,123.86700 C 364.03300,126.75300 367.15900,129.53100 366.69700,131.96700 C 364.60900,133.35900 363.10900,135.55500 360.21100,134.62500 C 359.86300,134.16900 359.05900,134.51100 358.82500,133.81500 C 359.40100,133.35900 359.17300,132.43500 359.40100,131.73300 C 359.17300,131.39100 358.82500,131.27700 358.36300,131.39100 C 357.66700,133.46700 356.04700,132.43500 354.78100,131.73300 C 354.66100,131.27700 354.08500,131.04300 353.62300,131.15700 L 353.38900,131.39100 C 353.50300,130.23300 354.54700,128.95500 354.78100,127.56900 C 355.12900,124.20900 355.47100,120.05100 358.94500,119.00700 C 359.86300,118.55100 361.83700,118.31700 363.34300,118.41900 L 363.11500,118.65300"
       id="path86" />
    <path
       style="fill:#3c3c9e;stroke:none"
       d="M 363.79900,121.55100 C 364.03300,122.35500 363.10900,122.70900 362.76100,123.06300 C 361.95100,122.70900 361.48900,121.89900 361.71700,120.97500 C 362.29900,120.05100 363.22300,120.97500 363.79900,121.55100"
       id="path88" />
    <path
       style="fill:#ffb30f;stroke:none"
       d="M 411.25300,134.85900 C 414.26500,136.13700 417.04300,138.80100 420.63100,137.99100 C 426.30100,141.57300 432.43300,146.55900 438.33700,149.43900 C 441.11500,152.68500 445.51300,153.96300 447.71500,157.55100 C 441.00100,152.68500 433.82500,150.59700 427.11100,145.51500 C 424.44700,144.58500 421.66900,145.62900 419.35900,143.88300 C 415.65100,142.38300 412.75900,138.68100 409.17100,136.71300 C 408.59500,135.68100 407.66500,134.63700 408.12700,133.47900 C 409.75300,132.55500 409.86700,134.74500 411.25300,134.87100"
       id="path90" />
    <path
       style="fill:#3c3c9e;stroke:none"
       d="M 344.01100,137.16900 C 342.73900,137.75700 341.92300,136.13700 340.88500,135.55500 C 340.65100,135.21300 340.42300,134.63700 340.65100,134.52300 C 341.92300,134.97900 343.54900,135.90300 344.01100,137.18100"
       id="path92" />
    <path
       style="fill:#ffb30f;stroke:none"
       d="M 396.67300,135.55500 C 396.09100,144.35100 385.90900,149.90700 380.00500,155.34300 C 378.61300,155.57700 377.57500,156.96300 375.84100,156.74100 C 374.44900,153.60900 373.52500,149.90700 373.41700,146.55900 C 379.89100,144.81900 385.44700,140.30100 391.23100,137.16900 C 392.04100,136.02300 393.19900,135.09300 394.35700,134.52300 C 395.28100,134.39100 396.21100,134.85900 396.67300,135.55500"
       id="path94" />
    <path
       style="fill:#ffb30f;stroke:none"
       d="M 413.10700,141.57300 C 411.71500,143.20500 410.09500,142.85100 408.12700,142.61700 C 408.36100,141.91500 407.55100,141.91500 407.55100,141.33900 C 406.27900,141.69300 405.12100,144.23700 403.61500,142.38300 C 401.19100,141.57300 400.84300,144.81900 398.52700,143.19300 L 396.09700,143.42700 C 395.28700,146.31300 398.87500,143.76900 399.80500,144.92700 C 401.53900,146.54700 402.58300,141.45900 404.43100,144.47100 C 405.82300,144.92700 406.63300,143.66100 407.55700,143.42700 C 408.25300,144.92700 409.63900,144.00300 411.03100,144.23700 C 411.60700,144.11700 412.06300,143.66100 412.75900,143.88300 C 413.91700,146.89500 416.46100,149.33100 419.23900,151.18500 C 420.04900,149.33100 417.27100,148.17300 416.23300,147.01500 C 415.07500,145.62900 413.45500,143.66100 413.80300,142.38300 L 413.34700,141.91500 C 413.68300,142.03500 414.03700,141.45900 414.37900,142.14900 L 414.61300,141.91500 L 414.37900,142.14900 C 417.61900,143.66100 421.90300,147.93900 425.02900,146.08500 C 425.02900,146.31300 424.91500,146.43900 424.79500,146.54700 C 428.61700,146.08500 431.16100,150.24900 434.63500,151.29300 C 437.29900,153.14100 440.07700,154.41900 442.96900,156.38700 C 445.74700,157.65300 447.59500,158.57700 448.98700,161.58900 C 448.98700,162.39900 448.98700,163.56300 448.17700,163.79700 L 447.37300,163.67700 C 442.16500,159.74100 437.07100,155.80500 431.74900,152.57100 C 430.81900,153.02700 431.86300,153.83100 432.09700,154.30500 C 436.72300,157.65300 442.05100,160.78500 446.10100,164.48700 C 445.63300,165.29700 445.05700,166.91100 443.78500,165.86700 C 439.96300,165.17700 436.37500,162.06300 433.13500,159.62100 C 429.89500,155.46300 425.03500,153.49500 422.71900,148.86300 C 422.37100,149.08500 421.90900,149.08500 421.67500,149.43900 L 421.67500,150.12900 C 427.69900,155.57700 433.13500,162.98700 440.43100,166.33500 C 440.43100,166.80900 440.54500,167.37900 440.08300,167.61300 C 438.46900,166.56900 436.72900,165.29700 434.86900,165.53100 C 433.72300,167.14500 431.63500,165.99900 430.24300,165.76500 C 427.47100,162.63300 423.30100,159.38700 421.10500,155.68500 C 420.75700,155.57700 420.52300,155.91900 420.29500,156.15300 C 421.10500,159.05100 425.04100,162.06300 427.12300,164.72100 C 426.54700,165.17700 426.19900,166.33500 425.50300,165.86700 L 421.68100,162.16500 C 421.56700,162.51900 420.99100,162.51900 420.87100,162.16500 C 417.51700,159.05100 414.85300,156.27300 413.11900,152.21700 C 412.77100,152.09700 412.42300,152.21700 412.07500,152.57100 C 413.58100,157.30500 417.16900,160.08900 420.40900,163.78500 C 420.06100,164.01900 420.29500,164.36700 420.29500,164.72100 C 417.28900,163.56300 415.32700,160.31700 412.31500,159.50700 C 411.73300,156.38700 409.42300,154.41900 408.84100,151.51500 C 408.37900,151.40700 408.26500,151.74900 407.91700,151.98300 C 408.26500,154.87500 410.80900,157.19700 410.92900,159.84300 C 411.04300,159.84300 411.15700,159.97500 411.27100,160.07700 C 409.07500,160.07700 407.91700,157.65300 405.83500,156.49500 C 405.83500,154.64100 405.25300,152.33100 404.44300,150.48300 L 403.74700,150.48300 C 403.63300,152.33100 405.02500,154.87500 404.21500,156.49500 C 403.17100,155.80500 402.59500,153.48300 400.85500,153.83100 C 399.46900,156.37500 395.29900,154.76100 394.37500,157.53900 L 394.60900,157.77300 L 394.26100,157.77300 C 394.26100,157.07100 394.26100,156.49500 393.56500,156.15300 C 392.52700,156.96300 393.10300,158.69700 391.95100,159.62100 C 391.14100,158.93100 389.74900,159.50700 389.86900,158.00700 C 388.01500,158.10900 389.52100,160.43100 388.12900,161.13300 C 387.20500,160.89900 387.55300,158.57700 386.04700,159.50700 L 385.93300,162.39900 C 385.12300,162.16500 383.85100,161.94300 383.15500,162.62100 C 382.57300,163.08900 382.57300,163.78500 382.35100,164.48700 C 381.65500,164.36700 381.07900,163.32300 380.26900,164.01900 C 379.45300,164.48700 379.68700,166.33500 378.41500,165.75300 C 378.64300,164.72100 377.25700,164.48700 377.37100,163.66500 C 377.14300,161.70900 375.98500,159.62100 376.68100,158.00700 C 382.81300,156.96300 386.63500,151.40700 391.14700,147.58500 C 395.54500,144.57300 396.81700,140.52300 398.20900,136.12500 C 401.10100,137.05500 404.22700,136.34700 406.76500,135.08100 C 407.34100,138.21300 411.04900,139.13700 413.13100,141.56700"
       id="path96" />
    <path
       style="fill:#ffb30f;stroke:none"
       d="M 358.59100,155.10900 C 358.47700,161.01900 357.20500,166.56900 356.50900,172.02300 L 355.23700,172.02300 C 355.46500,170.97900 355.69900,169.46700 355.00300,168.65700 C 353.03500,169.01100 355.58500,174.32700 351.64900,172.35900 C 350.60500,171.66900 352.11100,170.39100 350.49100,170.27700 C 350.26300,170.74500 349.79500,171.31500 350.26300,171.78900 C 349.45300,171.89100 348.52900,171.55500 347.71900,171.31500 C 347.95300,169.46700 350.73100,167.73300 349.45300,165.87900 C 348.18100,167.27700 346.67500,169.12500 346.67500,170.97900 L 345.63700,170.97900 C 347.71900,166.70100 346.67500,161.95500 348.99100,157.78500 L 348.76300,157.55100 L 349.45300,157.20900 C 349.33900,156.27300 350.03500,155.12100 350.49700,154.07700 C 350.73100,153.15300 351.65500,152.22900 352.57900,151.99500 C 353.04100,152.46300 353.97100,151.99500 353.73100,151.30500 C 356.04700,151.41900 357.55300,153.27300 358.59100,155.12100"
       id="path98" />
    <path
       style="fill:#ffb30f;stroke:none"
       d="M 372.71500,153.03900 C 376.06900,156.74100 374.21500,161.82300 377.11300,165.76500 C 376.53100,166.11300 376.53100,166.45500 376.87900,166.92300 C 377.57500,168.18900 377.22700,169.93500 377.92300,171.09300 L 371.44300,172.81500 C 371.20900,171.09300 371.32300,169.23300 370.39900,167.61300 C 368.31700,168.18900 370.16500,170.39100 370.05100,171.77700 L 370.28500,172.58100 C 369.24100,172.58100 368.08300,173.62500 367.27300,172.35900 C 365.53900,166.92300 366.46300,161.13300 365.07700,155.46300 C 365.19100,154.53900 365.30500,153.26100 366.46300,152.80500 C 369.35500,152.80500 370.28500,152.68500 372.71500,153.02700"
       id="path100" />
    <path
       style="fill:#ffb30f;stroke:none"
       d="M 364.60900,163.79700 C 364.72900,167.37900 364.84300,171.43500 366.92500,174.44700 C 367.27300,175.25700 366.34900,175.71300 366.11500,176.18100 C 364.60900,176.87100 363.45700,174.44700 361.95100,175.25700 C 362.06500,174.56700 362.52700,173.40300 361.95100,172.82700 C 361.36900,173.05500 360.67300,173.63700 360.67300,174.21300 L 360.67300,175.49100 L 358.94500,175.49100 C 358.36900,174.44700 359.52700,172.59300 357.90700,171.78900 C 358.25500,169.46700 358.25500,166.34700 358.83100,163.45500 C 360.55900,164.49900 363.22900,163.10100 364.60900,163.79700"
       id="path102" />
    <path
       style="fill:#3c3c9e;stroke:none"
       d="M 375.25900,171.31500 C 375.02500,171.66900 374.68300,171.55500 374.44900,171.55500 C 374.21500,170.62500 373.17700,169.46700 374.21500,168.65700 C 375.14500,169.12500 375.02500,170.39100 375.25900,171.31500"
       id="path104" />
    <path
       style="fill:#ffb30f;stroke:none"
       d="M 355.69900,175.72500 L 355.69900,173.63700 C 356.39500,173.85900 356.74300,173.18100 357.31900,173.05500 L 357.54700,175.72500 L 355.69900,175.72500"
       id="path106" />
    <path
       style="fill:#3c3c9e;stroke:none"
       d="M 372.71500,176.30100 C 372.36700,177.10500 371.09500,176.63700 370.28500,176.76900 L 370.05100,176.53500 C 370.74700,176.53500 372.13300,174.80100 372.71500,176.30100"
       id="path108" />
    <path
       style="fill:#3c3c9e;stroke:none"
       d="M 379.42300,176.53500 C 378.38500,176.87100 376.41700,176.87100 376.30300,175.72500 C 377.34100,175.95900 379.08100,175.02300 379.42300,176.53500"
       id="path110" />
    <path
       style="fill:#3c3c9e;stroke:none"
       d="M 300.49300,177.84300 C 300.49300,177.84300 296.73100,170.80500 291.81100,170.22900 C 286.89100,169.64100 284.09500,169.82700 280.62100,171.85500 C 277.14700,173.88300 270.61900,177.93900 266.92300,191.62500 C 263.26300,205.23300 262.87300,212.84700 264.03100,221.43900 C 264.03100,221.43900 268.66300,255.86700 286.60300,280.46700 C 304.54300,305.06700 319.39300,316.92300 329.71300,322.71300 C 338.54500,327.65700 363.85900,336.89100 363.85900,336.89100 C 363.85900,336.89100 395.97700,329.07300 420.57100,303.02700 C 445.16500,276.98700 448.83100,267.15300 455.77900,250.37100 C 462.72100,233.58900 463.10500,220.56900 461.94700,211.02300 C 460.79500,201.47100 457.03300,182.08500 448.06300,176.00700 C 439.09300,169.93500 433.59100,170.80500 429.25300,172.53900 C 424.91500,174.27300 421.15300,178.89900 421.15300,178.89900 L 300.49300,177.84300"
       id="path112" />
    <path
       style="fill:none;stroke:#ffb30f;stroke-width:3.4740000"
       d="M 300.49300,177.84300 C 300.49300,177.84300 296.73100,170.80500 291.81100,170.22900 C 286.89100,169.64100 284.09500,169.82700 280.62100,171.85500 C 277.14700,173.88300 270.61900,177.93900 266.92300,191.62500 C 263.26300,205.23300 262.87300,212.84700 264.03100,221.43900 C 264.03100,221.43900 268.66300,255.86700 286.60300,280.46700 C 304.54300,305.06700 319.39300,316.92300 329.71300,322.71300 C 338.54500,327.65700 363.85900,336.89100 363.85900,336.89100 C 363.85900,336.89100 395.97700,329.07300 420.57100,303.02700 C 445.16500,276.98700 448.83100,267.15300 455.77900,250.37100 C 462.72100,233.58900 463.10500,220.56900 461.94700,211.02300 C 460.79500,201.47100 457.03300,182.08500 448.06300,176.00700 C 439.09300,169.93500 433.59100,170.80500 429.25300,172.53900 C 424.91500,174.27300 421.15300,178.89900 421.15300,178.89900 L 300.49300,177.84300 z "
       id="path114" />
    <path
       style="fill:#ffb30f;stroke:none"
       d="M 404.26900,220.66500 C 404.26900,220.66500 399.45100,212.18100 392.11900,211.98300 C 384.78700,211.79700 379.96900,220.66500 379.96900,220.66500 L 365.30500,218.34300 L 365.68900,219.89100 L 357.20500,219.31500 L 361.44700,217.97100 L 361.83100,218.74500 L 364.33900,217.97100 L 350.83900,214.49100 L 349.48900,217.97100 L 345.82300,217.58100 L 342.73900,189.80100 C 342.73900,189.80100 343.89700,186.91500 341.77900,186.91500 C 339.65500,186.91500 341.77900,189.99900 341.77900,189.99900 L 343.50700,217.77300 L 340.80700,217.58100 L 340.23100,208.71300 L 335.98900,209.08500 L 335.98900,216.23700 L 331.74700,216.23700 L 328.85500,218.93100 L 328.27300,210.63300 L 334.25500,210.24900 L 333.67300,207.74100 L 327.85900,208.32300 L 326.53900,194.24100 L 324.41500,194.24100 L 324.80500,219.70500 L 319.59700,218.93100 L 315.93100,201.76500 L 314.38900,201.95100 L 313.62100,202.72500 L 309.37900,202.34700 L 309.37900,208.12500 L 314.38900,208.89900 L 316.89700,220.28100 C 316.89700,220.28100 314.97100,220.66500 315.35500,221.62500 C 315.74500,222.59700 317.67100,224.72100 317.67100,224.72100 L 328.66900,223.76100 L 330.21100,222.01500 L 332.13100,223.56300 L 335.79700,223.76100 L 337.14700,221.82300 L 339.84700,223.35900 C 339.84700,223.35900 346.79500,221.25300 349.68700,221.25300 C 352.57900,221.25300 402.73300,222.59700 402.73300,222.59700 L 400.99900,225.29700 C 400.99900,225.29700 401.19100,227.03100 402.92500,227.22900 C 404.66500,227.41500 434.17900,227.41500 434.17900,227.41500 L 432.43900,232.43100 L 433.21300,235.71300 L 429.73900,240.54300 L 433.02100,240.72900 L 428.19700,247.66500 L 431.28100,248.06700 L 428.19700,251.14500 L 432.63700,250.94700 L 432.63700,261.75300 L 434.94700,261.55500 L 434.94700,257.69700 L 438.03700,257.69700 L 437.84500,261.75300 L 440.92300,261.75300 L 440.92300,255.76500 L 442.65700,255.96300 L 442.65700,262.13700 L 444.78100,262.13700 L 445.74700,245.15700 L 448.44700,246.90300 L 448.06300,242.26500 L 449.21500,242.07300 C 449.21500,242.07300 446.51500,237.63300 446.51500,235.71300 C 446.51500,233.78100 446.32300,231.45900 446.32300,231.45900 L 448.44700,232.43100 L 449.79100,234.74100 L 448.83100,237.24900 L 451.14700,236.28900 L 450.76300,253.65300 L 448.06300,257.31300 L 450.57100,256.16100 L 451.14700,257.51100 L 454.03900,251.90700 L 454.03900,236.47500 L 454.80700,231.65700 L 457.89100,231.27300 L 458.08300,229.73700 L 455.19100,228.00300 L 458.28100,226.26900 L 455.96500,223.94700 L 455.57500,219.12900 L 458.47300,216.62100 L 455.57500,215.64900 L 454.80700,210.83100 L 456.73300,209.47500 C 456.73300,209.47500 455.19100,206.96700 454.80700,206.01900 C 454.42300,205.04700 454.03900,203.10900 454.03900,203.10900 L 457.89100,201.76500 C 457.89100,201.76500 453.46300,197.90700 450.75700,196.35900 C 448.05700,194.82300 443.23300,192.90300 442.46500,192.12900 C 441.69700,191.35500 439.38100,188.84700 439.38100,188.84700 C 439.38100,188.84700 436.87300,188.07300 436.09900,188.84700 C 435.33100,189.62100 422.01700,200.41500 421.63300,201.18900 C 421.24900,201.96300 420.09100,206.01900 419.50900,206.97900 C 418.93300,207.93900 417.00100,210.63300 416.04100,211.99500 C 415.07500,213.33900 414.69100,214.50300 414.69100,214.50300 C 414.69100,214.50300 415.65100,215.27700 416.23300,215.07300 C 416.80900,214.88700 419.31700,213.92700 420.28300,214.30500 C 421.24900,214.68900 421.82500,215.46300 421.82500,215.46300 C 421.82500,215.46300 420.85900,215.46300 419.31700,215.46300 C 417.77500,215.46300 414.69100,217.01100 413.53300,217.97100 C 412.37500,218.93100 409.86700,220.08900 409.86700,220.08900 L 409.09300,219.70500 L 414.49900,215.84700 C 414.49900,215.84700 413.34100,214.88700 412.75900,215.27700 C 412.18300,215.64900 408.71500,217.19700 407.16700,217.97100 C 405.62500,218.74500 404.27500,220.08900 404.27500,220.08900"
       id="path116" />
    <path
       style="fill:#3c3c9e;stroke:none"
       d="M 428.96500,210.63300 C 428.96500,210.63300 437.44900,207.55500 438.03100,207.16500 C 438.60700,206.78100 440.14900,206.78100 440.14900,206.78100 L 441.30100,202.14900 C 441.30100,202.14900 439.95700,200.80500 439.95700,200.21700 C 439.95700,199.64100 443.04100,197.90700 443.04100,197.90700 L 442.08100,199.45500 L 443.80900,201.37500 C 443.80900,201.37500 443.04100,205.04700 443.61700,206.00700 C 444.19900,206.96700 446.31700,208.12500 444.77500,211.98300 C 443.23300,215.83500 443.04100,217.58100 443.23300,219.11700 C 443.42500,220.66500 443.23300,222.78900 443.23300,222.78900 L 442.27300,222.59700 L 441.69700,219.11700 L 441.11500,217.77300 C 441.11500,217.77300 441.69700,214.49100 441.69700,212.94300 C 441.69700,211.40700 440.53900,208.51500 440.53900,208.51500 C 440.53900,208.51500 434.36500,209.66100 433.20700,210.24900 C 432.04900,210.81900 429.34900,211.79700 429.34900,211.79700 L 428.96500,210.63300"
       id="path118" />
    <path
       style="fill:#3c3c9e;stroke:none"
       d="M 445.55500,196.93500 C 445.55500,196.93500 447.48100,198.66900 447.28900,199.82700 C 447.09700,200.99100 447.48100,202.53900 447.48100,202.53900 C 447.48100,202.53900 446.51500,203.49900 447.09700,205.23300 C 447.67300,206.96700 446.90500,208.12500 446.90500,208.12500 C 446.90500,208.12500 445.55500,211.40700 446.70700,212.94300 C 447.86500,214.49100 448.63900,216.03900 448.63900,216.03900 L 445.55500,217.56900 L 448.63900,223.35900 L 446.32300,224.52300 L 449.21500,230.31300 C 449.21500,230.31300 452.10700,229.33500 452.10700,225.09300 C 452.10700,220.85100 451.91500,219.11700 451.14700,218.54700 C 450.37300,217.95900 449.79700,217.38300 449.79700,217.38300 C 449.79700,217.38300 451.53100,217.38300 451.53100,215.26500 C 451.53100,213.14100 451.72300,210.43500 451.72300,210.43500 C 451.72300,210.43500 451.53100,208.89900 450.57100,208.89900 C 449.60500,208.89900 449.41300,208.51500 449.41300,208.51500 L 451.72300,203.88300 L 450.76300,203.88300 L 449.41300,206.39100 L 448.06300,204.06900 C 448.06300,204.06900 448.44700,202.91100 448.44700,201.17700 C 448.44700,199.45500 448.44700,198.29700 447.67300,197.89500 C 446.90500,197.52300 445.55500,196.94700 445.55500,196.94700"
       id="path120" />
    <path
       style="fill:#3c3c9e;stroke:none"
       d="M 443.43100,224.72100 L 441.11500,225.68100 L 441.69700,229.92300 L 442.08100,230.69700 L 443.23900,227.60100 L 443.43100,224.70900"
       id="path122" />
    <path
       style="fill:#3c3c9e;stroke:none"
       d="M 443.62300,235.71300 L 441.88900,235.32300 L 441.11500,240.91500 L 442.46500,243.23700 C 442.46500,243.23700 443.81500,239.57100 443.81500,238.79700 C 443.81500,238.03500 443.62300,235.71300 443.62300,235.71300"
       id="path124" />
    <path
       style="fill:#3c3c9e;stroke:none"
       d="M 440.53900,246.70500 L 442.46500,247.08900 L 441.50500,253.26900 L 440.53900,253.07100 L 440.53900,246.70500"
       id="path126" />
    <path
       style="fill:#3c3c9e;stroke:none"
       d="M 438.60700,250.76100 L 436.09900,249.98700 L 434.94100,250.94700 L 435.13900,254.04300 L 435.90700,254.41500 L 438.79900,251.53500 L 438.60700,250.76100"
       id="path128" />
    <path
       style="fill:#3c3c9e;stroke:none"
       d="M 437.25700,244.39500 L 435.52300,246.90300 L 437.44900,247.08900 L 438.03100,246.12900 L 437.25700,244.39500"
       id="path130" />
    <path
       style="fill:#3c3c9e;stroke:none"
       d="M 436.48900,238.22100 L 435.52300,239.18100 L 435.52300,242.46300 L 436.68100,242.64900 L 437.44900,239.76900 L 436.48900,238.22100"
       id="path132" />
    <path
       style="fill:#3c3c9e;stroke:none"
       d="M 437.44900,230.31300 L 436.29100,232.81500 L 436.29100,236.09700 L 437.64700,235.12500 L 438.60700,232.61700 L 437.44900,230.31300"
       id="path134" />
    <path
       style="fill:#3c3c9e;stroke:none"
       d="M 437.83900,228.18900 L 438.41500,226.07100 C 438.41500,226.07100 437.25700,224.72100 438.03100,222.98700 C 438.79900,221.25300 439.95700,218.15700 439.95700,217.39500 C 439.95700,216.62100 439.57300,214.88700 439.57300,214.88700 L 438.41500,215.46300 L 437.44900,219.70500 L 434.74900,218.34300 L 433.98100,217.58100 L 435.33100,214.68900 C 435.33100,214.68900 435.52300,213.14100 434.74900,212.95500 C 433.98100,212.75700 433.39900,213.53100 432.63100,214.30500 C 431.85700,215.07300 430.89100,216.81300 431.85700,217.97100 C 432.82300,219.11700 437.25700,221.05500 437.25700,221.05500 L 436.29100,223.56300 L 433.59100,223.17300 L 432.24100,221.25300 L 430.51300,222.59700 C 430.51300,222.59700 428.58100,222.21300 428.19700,220.08900 C 427.81300,217.97100 427.81300,216.99900 427.81300,216.99900 L 428.97100,215.64900 L 428.77900,214.11300 L 424.72300,217.39500 L 425.68900,218.35500 L 426.65500,217.97100 C 426.65500,217.97100 427.23100,221.05500 427.80700,222.21300 C 428.38300,223.35900 429.54100,224.52300 430.12300,224.13300 C 430.69900,223.76100 431.47300,223.56300 431.47300,223.56300 C 431.47300,223.56300 433.20700,224.72100 433.78300,224.72100 C 434.36500,224.72100 435.52300,223.94700 436.29100,224.90700 C 437.06500,225.86700 436.87300,227.03100 436.87300,227.03100 L 436.87300,228.18900 L 437.83900,228.18900"
       id="path136" />
    <path
       style="fill:#ffb30f;stroke:none"
       d="M 431.08300,253.46700 L 431.27500,261.93900 L 429.15700,262.52700 L 428.77300,259.24500 L 427.80700,262.91100 L 434.17300,263.48700 C 434.17300,263.48700 433.20700,264.06900 432.04900,265.03500 C 430.89100,265.99500 429.73300,266.76900 427.99900,266.57100 C 426.27100,266.37900 423.55900,266.57100 422.60500,266.57100 C 421.63900,266.57100 419.51500,266.19300 419.51500,266.19300 C 419.51500,266.19300 420.09700,271.20900 419.13100,273.51900 C 418.16500,275.82300 414.11500,280.07100 409.48900,280.46700 C 404.85700,280.83900 417.78100,280.26900 417.78100,280.26900 L 422.22100,281.81700 C 422.22100,281.81700 422.22100,282.77700 420.86500,282.97500 C 419.51500,283.16100 404.47300,281.42700 401.76700,281.22900 C 399.06700,281.04300 387.69100,280.83900 384.98500,280.83900 C 382.28500,280.83900 372.64300,280.07100 369.75100,280.07100 C 366.85300,280.07100 355.27900,279.30900 350.46100,279.30900 C 345.63700,279.30900 340.81300,279.87900 336.57100,280.07100 C 332.32900,280.26900 322.87300,280.65300 318.04900,280.65300 C 313.23100,280.65300 307.25500,280.26900 305.13100,280.26900 C 303.01300,280.26900 300.50500,279.11700 301.08100,278.34300 C 301.66300,277.56900 305.13100,276.98700 305.13100,276.98700 C 305.13100,276.98700 306.09700,271.59300 305.32300,269.84700 C 304.55500,268.11300 302.82100,264.06900 302.82100,264.06900 C 302.82100,264.06900 300.31300,264.44700 299.34700,264.64500 C 298.38100,264.84300 295.68100,263.87100 295.68100,263.87100 C 295.68100,263.87100 295.09900,262.72500 295.09900,261.95100 C 295.09900,261.17700 295.48900,260.58900 295.48900,260.58900 L 293.36500,262.91100 C 293.36500,262.91100 291.24100,262.91100 290.08900,262.33500 C 288.93100,261.75300 287.19100,259.82700 287.58100,258.66900 C 287.96500,257.51100 289.50700,249.98700 289.50700,249.98700 L 288.73300,246.70500 L 291.24100,246.51900 L 293.17300,244.98300 L 296.64700,247.86300 C 296.64700,247.86300 305.32300,245.94300 310.53100,246.12900 C 315.74500,246.32700 322.30300,245.16900 324.61300,245.16900 C 326.92900,245.16900 334.64500,245.75700 335.99500,246.12900 C 337.34500,246.51900 339.27700,247.29300 339.46900,247.86300 C 339.66100,248.45100 339.66100,249.60900 339.66100,249.60900 L 345.63700,249.98700 C 345.63700,249.98700 347.75500,250.37100 347.95300,252.69300 C 348.14500,255.00300 347.95300,263.88300 347.95300,267.15300 C 347.95300,270.43500 347.75500,272.94300 347.37100,273.51900 C 346.98700,274.10100 345.64300,273.71700 345.45100,272.94300 C 345.25900,272.16900 344.48500,267.54300 344.48500,267.54300 L 343.13500,270.63300 L 341.40100,277.38300 L 365.12500,278.53500 L 363.77500,277.38300 C 363.77500,277.38300 359.72500,277.95900 357.98500,276.99900 C 356.25100,276.02700 352.20100,274.29300 351.81700,269.85900 C 351.42700,265.41900 352.96900,261.75300 353.55100,260.79300 C 354.12700,259.82700 355.09300,259.05900 355.09300,259.05900 L 351.42700,252.11700 C 351.42700,252.11700 343.90900,241.11300 342.94300,236.87100 C 341.98300,232.62900 339.85300,227.04300 341.79100,225.49500 C 343.71100,223.95900 346.60900,221.63700 349.88500,224.14500 C 353.16700,226.65300 353.35900,227.22900 356.44300,227.04300 C 359.53300,226.83900 365.12500,224.91900 367.44100,225.87900 C 369.75700,226.83900 369.55900,227.81700 373.42300,227.41500 C 377.27500,227.04300 378.43300,226.65300 380.17300,227.81700 C 381.90700,228.96300 384.79900,228.96300 385.57300,228.38700 C 386.34700,227.81700 389.42500,226.83900 391.35700,228.38700 C 393.28300,229.92300 395.01700,230.12100 396.94900,229.73700 C 398.87500,229.34700 401.57500,228.38700 404.27500,229.92300 C 406.98100,231.47100 410.64100,231.08100 411.41500,230.31900 C 412.18900,229.55100 416.43100,228.77700 418.35700,229.55100 C 420.28900,230.31900 422.41300,229.16100 424.53100,229.16100 C 426.65500,229.16100 430.70500,230.12100 431.08900,231.08100 C 431.47900,232.04700 431.47900,234.75300 429.35500,236.87100 C 427.23100,238.99500 421.25500,251.33100 421.06300,255.00300 C 420.86500,258.66900 420.67300,262.52700 420.67300,262.52700 L 424.53100,262.52700 L 425.11300,259.62900 L 423.76300,259.62900 L 426.46300,254.62500 L 427.81300,256.93500 L 428.97100,256.16100 L 428.19700,255.57300 L 430.51300,253.07100"
       id="path138" />
    <path
       style="fill:#3c3c9e;stroke:none"
       d="M 381.12100,268.70100 L 390.96100,268.88700 C 390.96100,268.88700 390.19300,272.55900 390.96100,274.10100 C 391.73500,275.63700 393.27700,277.77300 393.27700,277.77300 L 376.68700,277.77300 C 376.68700,277.77300 379.77100,274.29300 380.16100,272.94300 C 380.54500,271.59300 381.12100,268.70100 381.12100,268.70100"
       id="path140" />
    <path
       style="fill:#3c3c9e;stroke:none"
       d="M 384.40300,264.26100 L 389.41900,264.45900 L 389.61100,265.60500 L 384.59500,265.60500 L 384.40300,264.26100"
       id="path142" />
    <path
       style="fill:#3c3c9e;stroke:none"
       d="M 385.94500,260.01900 L 385.36900,261.17700 L 385.36900,263.30100 L 386.71900,263.09700 L 386.71900,261.17700 L 385.94500,260.01900"
       id="path144" />
    <path
       style="fill:#3c3c9e;stroke:none"
       d="M 394.43500,261.17700 L 395.78500,261.56700 L 395.01100,264.64500 L 394.24300,262.52700 L 394.43500,261.17700"
       id="path146" />
    <path
       style="fill:#3c3c9e;stroke:none"
       d="M 395.20300,270.43500 L 395.20300,272.75700 L 396.16900,271.98300 L 396.36100,270.43500 L 395.20300,270.43500"
       id="path148" />
    <path
       style="fill:#3c3c9e;stroke:none"
       d="M 399.06100,264.45900 C 399.06100,264.45900 401.95900,259.24500 406.58500,259.24500 C 411.21700,259.24500 413.14300,259.44300 414.69100,260.01900 C 416.23300,260.58900 417.58300,262.91100 417.58300,262.91100 L 417.19900,257.70900 L 363.57100,259.05900 L 365.49100,260.20500 C 365.49100,260.20500 374.75500,260.97900 376.48900,262.52700 C 378.22300,264.06900 379.57300,265.41900 379.96300,266.57700 C 380.34700,267.72900 381.11500,268.70100 381.11500,268.70100 L 381.69700,267.92700 C 381.69700,267.92700 379.76500,263.87100 377.83900,262.33500 C 375.90700,260.79300 373.59700,259.82700 373.59700,259.82700 L 399.25300,259.05900 L 398.09500,264.06900 L 399.05500,264.44700"
       id="path150" />
    <path
       style="fill:#3c3c9e;stroke:none"
       d="M 408.51700,270.44700 C 409.11700,270.44700 409.60900,269.83500 409.60900,269.08500 C 409.60900,268.32300 409.11700,267.71700 408.51700,267.71700 C 407.91100,267.71700 407.42500,268.32300 407.42500,269.08500 C 407.42500,269.83500 407.91100,270.44700 408.51700,270.44700"
       id="path152" />
    <path
       style="fill:#3c3c9e;stroke:none"
       d="M 409.09300,260.99100 L 410.05900,261.93900 L 409.28500,265.22100 L 408.70900,265.03500 L 409.09300,260.99100"
       id="path154" />
    <path
       style="fill:#3c3c9e;stroke:none"
       d="M 406.97500,261.17700 L 407.55100,264.84300 L 405.81700,265.22100 L 404.65900,261.75300 L 406.97500,261.17700"
       id="path156" />
    <path
       style="fill:#3c3c9e;stroke:none"
       d="M 402.72700,262.13700 L 401.18500,264.45900 L 403.69300,265.60500 L 404.07700,264.84300 L 402.72700,262.13700"
       id="path158" />
    <path
       style="fill:#3c3c9e;stroke:none"
       d="M 400.80100,265.60500 L 400.99300,269.66100 L 403.69300,268.70100 L 403.50100,267.35100 L 400.80100,265.60500"
       id="path160" />
    <path
       style="fill:#3c3c9e;stroke:none"
       d="M 400.60900,271.20900 L 401.37700,273.51900 L 403.88500,271.78500 L 403.50100,270.62100 L 400.60900,271.20900"
       id="path162" />
    <path
       style="fill:#3c3c9e;stroke:none"
       d="M 404.46700,274.49100 L 404.26900,276.80100 L 402.91900,276.22500 L 404.46700,274.49100"
       id="path164" />
    <path
       style="fill:#3c3c9e;stroke:none"
       d="M 406.58500,275.26500 L 405.81700,277.56900 L 407.55100,277.56900 L 407.55100,275.64900 L 406.58500,275.26500"
       id="path166" />
    <path
       style="fill:#3c3c9e;stroke:none"
       d="M 410.44300,271.98300 L 409.09300,272.35500 L 409.48300,276.21300 L 411.60100,275.26500 L 410.44300,271.98300"
       id="path168" />
    <path
       style="fill:#3c3c9e;stroke:none"
       d="M 412.18300,269.84700 L 412.18300,270.81900 L 413.91700,271.01100 L 414.10900,270.05100 L 412.18300,269.84700"
       id="path170" />
    <path
       style="fill:#3c3c9e;stroke:none"
       d="M 411.79300,266.57700 L 411.99100,268.50300 L 414.69100,267.74100 L 414.88300,266.37900 L 411.79300,266.57700"
       id="path172" />
    <path
       style="fill:#3c3c9e;stroke:none"
       d="M 411.60100,265.60500 L 413.14300,263.48700 L 412.18300,262.33500 L 410.83300,265.23300 L 411.60100,265.60500"
       id="path174" />
    <path
       style="fill:none;stroke:#3c3c9e;stroke-width:1.1580000;stroke-linecap:round"
       d="M 349.48900,240.54300 C 349.48900,240.54300 346.78900,235.71300 346.59700,233.78100 C 346.39900,231.85500 347.55700,227.80500 350.25700,230.51100 C 352.95700,233.20500 353.73100,234.93900 353.53900,236.09700 C 353.34700,237.26100 353.34700,239.18100 353.34700,239.18100 M 356.23900,229.92300 C 356.23900,229.92300 359.13100,237.26100 360.28900,240.14100 C 361.44700,243.05100 361.83100,246.90300 361.83100,246.90300 M 365.88700,245.93100 L 364.72900,234.75300 M 378.22900,248.82300 L 378.81100,238.79700 M 390.57700,244.39500 L 391.15300,238.22100 M 400.99300,246.90300 L 402.15100,237.06300 M 412.37500,248.63700 L 415.45900,239.57100 M 363.76300,248.63700 C 363.76300,248.63700 367.04500,249.21300 368.00500,249.80100 C 368.97100,250.37100 370.32100,250.56300 370.32100,251.53500 C 370.32100,252.49500 370.32100,254.41500 370.32100,254.41500 M 370.32100,251.53500 C 370.32100,251.53500 370.51300,249.41100 373.21300,249.59700 C 375.91300,249.80100 377.65300,249.59700 377.84500,251.90700 C 378.03700,254.22900 378.03700,255.00300 378.03700,255.00300 M 380.54500,254.81700 C 380.54500,254.81700 379.77100,250.76100 382.66900,250.76100 C 385.56100,250.76100 388.45300,250.95900 388.64500,252.30900 C 388.83700,253.65300 389.03500,255.00300 389.03500,255.00300 M 396.55900,255.00300 C 396.55900,255.00300 396.55900,250.76100 399.45100,250.95900 M 409.09300,249.80100 C 409.09300,249.80100 405.42700,250.37100 405.61900,252.30900 C 405.81700,254.22900 406.20100,254.81700 406.20100,254.81700 M 411.79300,254.41500 C 411.79300,254.41500 412.75900,251.14500 414.10900,250.76100 C 415.45900,250.37100 417.19900,249.98700 417.19900,249.98700 M 354.88900,250.37100 L 358.36300,248.82300"
       id="path176" />
    <path
       style="fill:none;stroke:#ffb30f;stroke-width:1.1580000;stroke-linecap:round"
       d="M 422.79100,269.27700 L 424.91500,269.27700 M 427.22500,269.08500 L 438.22300,266.76900 M 423.36700,272.75700 L 426.26500,272.55900 M 419.70700,275.45100 L 425.68300,274.29300 M 425.87500,276.80100 C 425.87500,276.80100 431.27500,278.14500 432.24100,277.56900"
       id="path178" />
    <path
       style="fill:none;stroke:#3c3c9e;stroke-width:1.1580000;stroke-linecap:round"
       d="M 355.85500,252.32700 L 359.32300,250.78500 M 356.38300,254.04300 L 359.85700,252.49500 M 357.54100,255.77700 L 361.01500,254.22900 M 358.12300,257.48700 L 361.59100,255.95100"
       id="path180" />
    <path
       style="fill:#3c3c9e;stroke:none"
       d="M 362.02900,261.93900 L 359.90500,263.68500 L 357.58900,262.33500 L 358.17100,261.17700 L 362.02900,261.93900"
       id="path182" />
    <path
       style="fill:#3c3c9e;stroke:none"
       d="M 356.04700,264.26100 L 355.46500,265.03500 L 359.13100,265.99500 L 359.52100,265.41900 L 356.04700,264.26100"
       id="path184" />
    <path
       style="fill:#3c3c9e;stroke:none"
       d="M 358.74700,267.74100 L 354.88900,266.96700 L 354.88900,268.31700 L 358.74700,267.74100"
       id="path186" />
    <path
       style="fill:#3c3c9e;stroke:none"
       d="M 359.32300,269.84700 L 355.46500,271.01100 L 356.43100,272.55900 L 359.71300,270.81900 L 359.32300,269.84700"
       id="path188" />
    <path
       style="fill:#3c3c9e;stroke:none"
       d="M 361.06300,272.94300 L 360.28900,272.16900 L 358.36300,274.10100 L 360.28900,274.86300 L 361.06300,272.94300"
       id="path190" />
    <path
       style="fill:#3c3c9e;stroke:none"
       d="M 366.84700,266.96700 L 365.88700,268.50300 L 363.95500,268.31700 L 365.11300,265.41900 L 366.84700,266.95500"
       id="path192" />
    <path
       style="fill:#3c3c9e;stroke:none"
       d="M 366.65500,270.05100 L 363.76300,270.05100 L 365.11300,273.12900 L 366.84700,271.20900 L 366.65500,270.05100"
       id="path194" />
    <path
       style="fill:#3c3c9e;stroke:none"
       d="M 368.39500,273.32700 L 367.23700,275.83500 L 369.74500,276.02700 L 369.93700,274.49100 L 368.39500,273.32700"
       id="path196" />
    <path
       style="fill:#3c3c9e;stroke:none"
       d="M 371.09500,273.12900 L 371.28700,275.83500 L 372.63700,275.26500 L 372.05500,273.14100 L 371.09500,273.14100"
       id="path198" />
    <path
       style="fill:#3c3c9e;stroke:none"
       d="M 373.21300,271.01100 L 372.82900,272.55900 L 375.33700,273.12900 L 375.91300,271.59300 L 373.21300,271.01100"
       id="path200" />
    <path
       style="fill:#3c3c9e;stroke:none"
       d="M 373.41100,269.66100 L 375.72100,269.47500 L 375.52900,266.57700 L 374.37100,266.57700 L 373.02100,268.70100 L 373.41100,269.66100"
       id="path202" />
    <path
       style="fill:#3c3c9e;stroke:none"
       d="M 372.63700,266.96700 L 373.79500,264.26100 L 372.05500,262.72500 L 371.28700,265.99500 L 371.47900,266.96700 L 372.63700,266.96700"
       id="path204" />
    <path
       style="fill:#3c3c9e;stroke:none"
       d="M 369.35500,262.52700 L 368.97100,266.19300 L 366.46300,264.06900 L 367.62100,262.33500 L 369.35500,262.52700"
       id="path206" />
    <path
       style="fill:#3c3c9e;stroke:none"
       d="M 369.54700,270.86700 C 370.00300,270.86700 370.36900,270.50700 370.36900,270.05100 C 370.36900,269.58900 370.00300,269.22900 369.54700,269.22900 C 369.09700,269.22900 368.73100,269.58900 368.73100,270.05100 C 368.73100,270.50700 369.09700,270.86700 369.54700,270.86700"
       id="path208" />
    <path
       style="fill:#3c3c9e;stroke:none"
       d="M 334.44100,263.68500 L 330.58300,276.80100 L 337.33300,276.60900 L 339.07300,268.70100 L 335.01700,266.37900 L 334.44100,263.68500"
       id="path210" />
    <path
       style="fill:#3c3c9e;stroke:none"
       d="M 330.00700,267.92700 L 321.13300,268.11300 C 321.13300,268.11300 320.94100,273.51900 321.13300,274.47900 C 321.32500,275.45100 322.09900,276.98700 322.09900,276.98700 L 326.34100,276.80100 L 330.00700,267.92700"
       id="path212" />
    <path
       style="fill:#3c3c9e;stroke:none"
       d="M 312.25900,266.19300 L 316.88500,269.84700 L 316.88500,276.60900 L 311.29300,276.02700 L 312.25900,266.19300"
       id="path214" />
    <path
       style="fill:#3c3c9e;stroke:none"
       d="M 304.15300,262.52700 L 308.01100,261.17700 L 308.97700,263.30100 L 308.01100,275.45100 C 308.01100,275.45100 306.46900,266.37900 305.89300,265.80900 C 305.31100,265.23300 304.15300,262.52700 304.15300,262.52700"
       id="path216" />
    <path
       style="fill:#3c3c9e;stroke:none"
       d="M 293.73700,254.04300 C 293.73700,254.04300 292.38700,254.22900 292.00300,255.00300 C 291.61900,255.77700 292.58500,256.16100 292.58500,256.16100 C 292.58500,256.16100 293.73700,255.96300 293.73700,255.38700 C 293.73700,254.81700 293.73700,254.04300 293.73700,254.04300"
       id="path218" />
    <path
       style="fill:#3c3c9e;stroke:none"
       d="M 301.65100,256.16100 C 301.65100,256.16100 301.06900,255.77700 300.30100,256.16100 C 299.52700,256.55100 299.91100,257.89500 299.91100,257.89500 C 299.91100,257.89500 300.30100,258.28500 300.87700,257.69700 C 301.45300,257.12100 301.65100,256.16100 301.65100,256.16100"
       id="path220" />
    <path
       style="fill:none;stroke:#3c3c9e;stroke-width:1.1580000;stroke-linecap:round"
       d="M 298.36900,250.76100 C 298.36900,250.76100 304.92700,249.02700 306.66100,249.02700 C 308.40100,249.02700 310.13500,250.17300 310.71700,249.98700 C 311.29300,249.80100 313.41700,249.21300 314.95300,248.82300 C 316.49500,248.45100 326.91100,249.59700 326.91100,249.59700 M 338.88100,249.98700 L 336.37300,250.17300 M 311.48500,252.30900 C 311.48500,252.30900 309.55900,253.07100 309.94300,254.04300 C 310.32700,255.00300 310.90900,256.55100 310.51900,257.12100 C 310.13500,257.69700 308.59300,259.24500 309.75100,259.82700 C 310.90900,260.40300 311.86900,260.58900 311.86900,260.58900 M 313.22500,257.51100 C 313.22500,257.51100 312.64300,254.81700 313.99300,254.42700 C 315.34300,254.04300 316.69300,254.22900 316.69300,254.22900 M 319.59100,258.85500 L 321.90100,265.41900"
       id="path222" />
    <path
       style="fill:#ffb30f;stroke:none"
       d="M 303.96100,210.81900 L 308.97700,210.81900 L 308.78500,211.79700 L 307.81900,211.59300 L 307.62700,216.81300 L 305.70100,219.31500 L 304.92700,222.20100 L 277.34500,221.62500 L 267.88900,210.63300 L 276.18700,202.92300 L 276.37900,198.48300 L 278.30500,194.24100 L 280.81300,192.11700 L 280.81300,190.58100 L 277.53700,190.38300 L 280.81300,188.83500 L 281.01100,187.88700 L 282.35500,187.68900 L 283.12900,192.50700 L 287.56900,193.47900 L 284.47900,195.78900 L 284.28700,205.43100 L 286.02100,205.43100 L 286.02100,199.83900 L 291.42100,200.22900 L 291.42100,198.10500 L 288.52900,197.72100 L 288.91900,195.98700 L 291.22300,193.47900 L 291.61300,189.42300 L 293.73100,189.42300 L 294.12100,192.12900 L 296.04700,192.31500 L 296.23900,198.10500 L 293.92900,197.90700 L 293.92900,200.41500 L 296.82100,200.81700 L 296.82100,210.44700 L 293.73100,210.06900 L 293.92900,216.62100 L 298.93900,216.81300 L 298.55500,202.73700 L 304.53700,203.12100 L 304.72900,204.85500 L 302.02900,205.61700 L 301.44700,216.62100 L 303.57100,216.05100 L 304.91500,213.92700 L 303.37900,213.54300 L 303.95500,210.83100"
       id="path224" />
    <path
       style="fill:#3c3c9e;stroke:none"
       d="M 272.32900,210.63300 L 270.97900,211.20900 L 272.13700,212.36700 L 272.32900,210.63300"
       id="path226" />
    <path
       style="fill:#3c3c9e;stroke:none"
       d="M 276.18700,208.89900 L 274.64500,214.30500 L 276.76300,216.22500 L 276.76300,208.70100 L 276.18700,208.89900"
       id="path228" />
    <path
       style="fill:#3c3c9e;stroke:none"
       d="M 279.27100,206.78100 L 279.07900,216.99900 L 281.39500,217.18500 L 280.62100,206.57700 L 279.27100,206.78100"
       id="path230" />
    <path
       style="fill:#3c3c9e;stroke:none"
       d="M 283.12900,213.72900 L 283.12900,217.38300 L 291.22900,217.38300 L 291.22900,208.89900 L 288.91900,208.71300 L 288.52900,214.67700 L 284.09500,214.87500 L 284.28700,213.91500 L 283.12900,213.72900"
       id="path232" />
    <path
       style="fill:none;stroke:#ffb30f;stroke-width:2.3160000"
       d="M 405.23500,215.64900 L 417.00100,210.81900 M 403.88500,214.10100 L 419.50900,205.81500 L 454.80700,188.06700 M 453.27100,183.24900 L 403.50100,212.36700 M 446.70700,176.87100 L 402.15100,210.43500 M 427.61500,174.56700 L 400.99300,210.81900 L 439.76500,173.01900 M 418.15900,179.76900 L 398.48500,210.06300 M 407.55100,179.57700 L 396.36100,208.31700 M 401.76100,179.19300 L 395.20300,208.31700 M 395.40100,179.37900 L 392.89300,207.55500 M 389.22700,179.37900 L 390.19300,207.55500 M 381.12100,179.57700 L 387.87700,206.96700 M 368.19700,179.37900 L 385.75300,207.35100 L 374.37100,179.57700 M 359.90500,179.37900 L 383.24500,209.08500 M 352.57300,179.19300 L 381.31900,211.20900 M 344.47300,179.19300 L 379.77100,211.98300 M 332.51500,179.19300 L 379.38700,211.02300 M 320.55100,179.00700 L 378.61300,212.36700 M 282.93700,172.24500 L 377.65300,213.53100 M 275.60500,176.68500 L 375.14500,216.81300 M 270.78700,183.43500 L 374.56300,218.54700 M 268.27900,188.63700 L 364.53700,216.03900 M 266.73100,196.16100 L 276.95500,198.66900 M 317.08300,207.55500 L 337.52500,213.71700 M 264.61300,220.08900 L 277.14700,220.47900 M 304.35100,220.47900 L 316.11700,221.25300"
       id="path234" />
    <path
       style="fill:#ffb30f;stroke:none"
       d="M 275.22100,224.13300 C 275.22100,224.13300 273.29500,222.59700 272.32900,222.78900 C 271.36300,222.98700 268.85500,223.76100 268.85500,223.76100 C 268.85500,223.76100 270.39700,224.52300 271.74700,224.72100 C 273.09700,224.90700 275.22100,224.13300 275.22100,224.13300"
       id="path236" />
    <path
       style="fill:#ffb30f;stroke:none"
       d="M 275.34100,228.16500 C 275.34100,228.16500 273.41500,226.61700 272.44900,226.81500 C 271.48300,227.00700 268.97500,227.78100 268.97500,227.78100 C 268.97500,227.78100 270.51700,228.55500 271.86700,228.74100 C 273.21700,228.92700 275.34100,228.16500 275.34100,228.16500"
       id="path238" />
    <path
       style="fill:#ffb30f;stroke:none"
       d="M 281.01100,228.18900 C 281.01100,228.18900 279.07900,226.64100 278.11300,226.83900 C 277.14700,227.03100 274.64500,227.80500 274.64500,227.80500 C 274.64500,227.80500 276.18700,228.57300 277.53700,228.76500 C 278.88700,228.96300 281.01100,228.18900 281.01100,228.18900"
       id="path240" />
    <path
       style="fill:#ffb30f;stroke:none"
       d="M 276.76300,231.65700 C 276.76300,231.65700 274.83700,230.10900 273.87100,230.31300 C 272.90500,230.51100 270.39700,231.27300 270.39700,231.27300 C 270.39700,231.27300 271.93900,232.04700 273.29500,232.24500 C 274.64500,232.43100 276.76300,231.65700 276.76300,231.65700"
       id="path242" />
    <path
       style="fill:#ffb30f;stroke:none"
       d="M 281.03500,226.26900 C 281.03500,226.26900 279.10300,224.72100 278.13700,224.90700 C 277.17700,225.10500 274.66900,225.86700 274.66900,225.86700 C 274.66900,225.86700 276.21100,226.64100 277.56100,226.83900 C 278.91100,227.03100 281.03500,226.26900 281.03500,226.26900"
       id="path244" />
    <path
       style="fill:#ffb30f;stroke:none"
       d="M 287.76100,225.68100 C 287.76100,225.68100 285.82900,224.13300 284.86300,224.33100 C 283.90300,224.52300 281.39500,225.29700 281.39500,225.29700 C 281.39500,225.29700 282.93700,226.07100 284.28700,226.26900 C 285.63700,226.45500 287.76100,225.68100 287.76100,225.68100"
       id="path246" />
    <path
       style="fill:#ffb30f;stroke:none"
       d="M 287.76100,228.96300 C 287.76100,228.96300 285.82900,227.41500 284.86300,227.60100 C 283.90300,227.80500 281.39500,228.57300 281.39500,228.57300 C 281.39500,228.57300 282.93700,229.34700 284.28700,229.53900 C 285.63700,229.73700 287.76100,228.96300 287.76100,228.96300"
       id="path248" />
    <path
       style="fill:#ffb30f;stroke:none"
       d="M 294.70300,225.56700 C 294.70300,225.56700 292.77700,224.01900 291.81100,224.21700 C 290.84500,224.40300 288.33700,225.17700 288.33700,225.17700 C 288.33700,225.17700 289.87900,225.93900 291.22900,226.13700 C 292.58500,226.33500 294.70300,225.56700 294.70300,225.56700"
       id="path250" />
    <path
       style="fill:#ffb30f;stroke:none"
       d="M 287.03500,231.31500 C 287.03500,231.31500 285.10900,229.78500 284.14300,229.97100 C 283.17700,230.16900 280.66900,230.93100 280.66900,230.93100 C 280.66900,230.93100 282.21100,231.70500 283.56700,231.90300 C 284.91100,232.08900 287.03500,231.31500 287.03500,231.31500"
       id="path252" />
    <path
       style="fill:#ffb30f;stroke:none"
       d="M 294.77500,232.08900 C 294.77500,232.08900 292.84900,230.55900 291.88300,230.74500 C 290.91700,230.94300 288.40900,231.71700 288.40900,231.71700 C 288.40900,231.71700 289.95100,232.47900 291.30100,232.67700 C 292.65100,232.86300 294.77500,232.08900 294.77500,232.08900"
       id="path254" />
    <path
       style="fill:#ffb30f;stroke:none"
       d="M 292.19500,235.52700 C 292.19500,235.52700 290.26900,233.97900 289.30300,234.17700 C 288.33700,234.36300 285.82900,235.12500 285.82900,235.12500 C 285.82900,235.12500 287.37100,235.89900 288.72100,236.09700 C 290.07700,236.28900 292.19500,235.52700 292.19500,235.52700"
       id="path256" />
    <path
       style="fill:#ffb30f;stroke:none"
       d="M 297.81700,227.62500 C 297.81700,227.62500 295.88500,226.08900 294.91900,226.29300 C 293.95900,226.47900 291.45100,227.25300 291.45100,227.25300 C 291.45100,227.25300 292.99300,228.02700 294.34300,228.21300 C 295.69300,228.39900 297.81700,227.62500 297.81700,227.62500"
       id="path258" />
    <path
       style="fill:#ffb30f;stroke:none"
       d="M 302.22700,228.96300 C 302.22700,228.96300 300.30100,227.41500 299.33500,227.60100 C 298.36900,227.80500 295.86100,228.57300 295.86100,228.57300 C 295.86100,228.57300 297.40300,229.34700 298.75300,229.53900 C 300.10300,229.73700 302.22700,228.96300 302.22700,228.96300"
       id="path260" />
    <path
       style="fill:#ffb30f;stroke:none"
       d="M 305.50300,226.83900 C 305.50300,226.83900 303.57700,225.29700 302.61100,225.49500 C 301.65100,225.68100 299.14300,226.45500 299.14300,226.45500 C 299.14300,226.45500 300.68500,227.22900 302.03500,227.41500 C 303.38500,227.60100 305.50300,226.83900 305.50300,226.83900"
       id="path262" />
    <path
       style="fill:#ffb30f;stroke:none"
       d="M 313.99300,224.90700 C 313.99300,224.90700 312.06700,223.35900 311.10100,223.56300 C 310.13500,223.76100 307.62700,224.52300 307.62700,224.52300 C 307.62700,224.52300 309.16900,225.29700 310.51900,225.49500 C 311.86900,225.68100 313.99300,224.90700 313.99300,224.90700"
       id="path264" />
    <path
       style="fill:#ffb30f;stroke:none"
       d="M 313.02700,228.18900 C 313.02700,228.18900 311.10100,226.64100 310.13500,226.83900 C 309.16900,227.03100 306.66100,227.80500 306.66100,227.80500 C 306.66100,227.80500 308.20900,228.57300 309.55900,228.76500 C 310.90900,228.96300 313.02700,228.18900 313.02700,228.18900"
       id="path266" />
    <path
       style="fill:#ffb30f;stroke:none"
       d="M 319.97500,228.37500 C 319.97500,228.37500 318.04300,226.83900 317.08300,227.03100 C 316.11700,227.22900 313.60900,228.00300 313.60900,228.00300 C 313.60900,228.00300 315.15100,228.76500 316.50100,228.96300 C 317.85100,229.14900 319.97500,228.37500 319.97500,228.37500"
       id="path268" />
    <path
       style="fill:#ffb30f;stroke:none"
       d="M 308.40100,233.01900 C 308.40100,233.01900 306.46900,231.47100 305.50300,231.66900 C 304.54300,231.85500 302.03500,232.61700 302.03500,232.61700 C 302.03500,232.61700 303.57700,233.39100 304.92700,233.58900 C 306.27700,233.78100 308.40100,233.01900 308.40100,233.01900"
       id="path270" />
    <path
       style="fill:#ffb30f;stroke:none"
       d="M 314.37700,234.93900 C 314.37700,234.93900 312.45100,233.39100 311.48500,233.58900 C 310.51900,233.78100 308.01100,234.55500 308.01100,234.55500 C 308.01100,234.55500 309.55900,235.32300 310.90900,235.52700 C 312.25900,235.71300 314.37700,234.93900 314.37700,234.93900"
       id="path272" />
    <path
       style="fill:#ffb30f;stroke:none"
       d="M 323.92900,234.29700 C 323.92900,234.29700 321.99700,232.74900 321.03700,232.94700 C 320.07100,233.13300 317.56300,233.89500 317.56300,233.89500 C 317.56300,233.89500 319.10500,234.66900 320.45500,234.86700 C 321.80500,235.05900 323.92900,234.29700 323.92900,234.29700"
       id="path274" />
    <path
       style="fill:none;stroke:#ffb30f;stroke-width:2.3160000"
       d="M 279.85300,266.76900 L 291.03700,267.35100 L 288.33700,269.27700 L 292.38700,266.76900 L 304.15300,266.37900"
       id="path276" />
    <path
       style="fill:#ffb30f;stroke:none"
       d="M 300.46900,271.39500 C 300.46900,271.39500 298.53700,269.84700 297.57100,270.05100 C 296.61100,270.24900 294.10300,271.01100 294.10300,271.01100 C 294.10300,271.01100 295.64500,271.78500 296.99500,271.98300 C 298.34500,272.16900 300.46900,271.39500 300.46900,271.39500"
       id="path278" />
    <path
       style="fill:#ffb30f;stroke:none"
       d="M 301.65100,274.10100 C 301.65100,274.10100 299.71900,272.55900 298.75300,272.75700 C 297.79300,272.94300 295.28500,273.71700 295.28500,273.71700 C 295.28500,273.71700 296.82700,274.49100 298.17700,274.67700 C 299.52700,274.86300 301.65100,274.10100 301.65100,274.10100"
       id="path280" />
    <path
       style="fill:#ffb30f;stroke:none"
       d="M 294.70300,277.18500 C 294.70300,277.18500 292.77700,275.63700 291.81100,275.83500 C 290.84500,276.02700 288.33700,276.80100 288.33700,276.80100 C 288.33700,276.80100 289.87900,277.56900 291.22900,277.77300 C 292.58500,277.95900 294.70300,277.18500 294.70300,277.18500"
       id="path282" />
    <path
       style="fill:#ffb30f;stroke:none"
       d="M 303.57700,285.48300 C 303.57700,285.48300 301.65100,283.93500 300.68500,284.13300 C 299.71900,284.31900 297.21100,285.09300 297.21100,285.09300 C 297.21100,285.09300 298.75300,285.86700 300.10300,286.05900 C 301.45300,286.25700 303.57700,285.48300 303.57700,285.48300"
       id="path284" />
    <path
       style="fill:none;stroke:#ffb30f;stroke-width:2.3160000;stroke-linecap:round"
       d="M 315.39100,292.18500 C 315.39100,292.18500 319.24900,291.41100 321.56500,291.22500 C 323.88100,291.02700 324.65500,291.41100 326.96500,292.56900 C 329.28100,293.72100 327.54100,294.10500 327.73300,296.42700 C 327.92500,298.73700 322.72300,299.51100 318.28300,299.89500 C 313.84900,300.28500 315.39100,296.42700 315.58300,291.59700 C 315.77500,286.78500 314.42500,287.55900 310.56700,287.55900 C 306.71500,287.55900 300.73300,290.83500 300.73300,290.83500 L 305.94100,293.53500 L 305.35900,297.00300 L 314.81500,295.85100"
       id="path286" />
    <path
       style="fill:none;stroke:#ffb30f;stroke-width:2.3160000"
       d="M 421.68100,293.34300 C 421.68100,293.34300 415.69900,288.51900 411.84100,287.94300 C 407.98300,287.35500 405.09100,287.35500 405.67300,291.41100 C 406.24900,295.45500 406.97500,298.02300 406.97500,298.02300 C 406.97500,298.02300 407.98300,297.77700 410.88100,297.77700 C 413.77300,297.77700 415.50700,298.93500 415.50700,298.93500 L 415.89700,294.50700 L 421.68100,293.34300 z M 323.29900,284.84700 C 323.29900,284.84700 321.37300,292.94700 330.43900,292.56900 C 339.50500,292.18500 398.14900,292.37100 398.14900,292.37100 C 398.14900,292.37100 402.39100,291.80100 402.19900,288.12900 C 402.00700,284.47500 404.11900,281.76900 391.97500,281.19300 C 379.81900,280.60500 329.28100,280.60500 329.28100,280.60500 C 329.28100,280.60500 322.91500,280.03500 323.29900,284.84700 z "
       id="path288" />
    <path
       style="fill:none;stroke:#ffb30f;stroke-width:2.3160000;stroke-linecap:round"
       d="M 396.94300,292.80900 C 396.94300,292.80900 397.06900,297.30900 400.02700,298.59300 C 406.20100,301.30500 408.90100,298.40700 408.90100,298.40700 M 405.23500,290.30100 L 401.95900,291.06900"
       id="path290" />
    <path
       style="fill:#ffb30f;stroke:none"
       d="M 395.66500,299.05500 L 395.47300,300.59700 L 388.14100,301.37100 L 386.01700,304.83900 L 389.29900,302.72100 L 398.17300,302.90700 L 398.17300,304.83900 L 389.87500,305.03100 L 385.05100,311.97900 L 388.33300,313.32300 L 385.44100,314.48700 C 385.44100,314.48700 382.54900,321.81300 379.84900,322.97100 C 377.14300,324.12900 375.79300,325.08900 375.79300,325.08900 L 376.37500,329.33100 C 376.37500,329.33100 363.25900,330.49500 358.43500,329.90700 C 353.61100,329.33100 350.53300,327.98700 350.53300,327.98700 L 348.98500,323.35500 L 339.72700,320.46300 L 339.34300,317.18100 L 344.55100,318.33900 L 343.58500,314.67300 L 334.90300,314.09700 L 336.64300,321.42300 L 334.51900,321.42300 L 331.43500,311.00700 L 342.42700,311.20500 L 340.50100,302.72100 L 343.39300,302.33100 L 346.47700,311.00700 L 355.15900,311.78100 L 356.12500,305.03100 L 346.67500,303.49500 L 348.60100,299.43900 L 353.41900,300.21300 L 350.53300,297.31500 L 351.68500,295.58100 L 356.11900,297.50700 L 353.61100,293.26500 L 357.08500,293.46300 L 358.05100,295.97100 L 358.24300,293.26500 L 361.51900,293.26500 L 362.67700,296.35500 L 363.06100,293.46300 L 370.20100,293.46300 L 369.23500,296.73300 L 373.09300,293.46300 L 375.40900,294.81300 L 372.70900,297.89100 L 378.48700,299.05500 L 377.34100,301.17300 L 378.68500,302.33100 L 376.17700,303.09300 L 377.52700,305.03100 L 374.43700,304.25700 L 374.05300,310.80900 L 376.56100,311.20500 L 386.78500,298.85100 L 395.65900,299.04300"
       id="path292" />
    <path
       style="fill:#3c3c9e;stroke:none"
       d="M 347.82700,314.48700 L 349.75300,319.31700 L 353.22700,316.23300 L 352.83700,314.30100 L 347.82700,314.48700"
       id="path294" />
    <path
       style="fill:none;stroke:#3c3c9e;stroke-width:2.3160000;stroke-linecap:round"
       d="M 355.15300,321.43500 L 353.03500,324.51900 M 361.13500,326.63700 L 362.29300,324.51900 M 366.72700,327.41100 L 367.30900,325.29300 M 359.01100,311.58900 L 367.69300,311.58900 M 372.90100,315.06900 L 368.26900,322.01100 L 374.63500,322.01100"
       id="path296" />
    <path
       style="fill:#ffb30f;stroke:none"
       d="M 333.70300,284.73300 L 331.45900,284.73300 L 331.45900,283.43100 L 338.04100,283.43100 L 338.04100,284.73300 L 335.73700,284.73300 L 335.73700,290.10900 L 333.70300,290.10900 L 333.70300,284.73300"
       id="path298" />
    <path
       style="fill:#ffb30f;stroke:none"
       d="M 338.82100,290.10900 L 338.82100,283.43100 L 340.86700,283.43100 L 340.86700,286.07700 L 343.35700,286.07700 L 343.35700,283.43100 L 345.38500,283.43100 L 345.38500,290.10900 L 343.35700,290.10900 L 343.35700,287.36700 L 340.85500,287.36700 L 340.85500,290.10900 L 338.82100,290.10900"
       id="path300" />
    <path
       style="fill:#ffb30f;stroke:none"
       d="M 346.77100,290.10900 L 346.77100,283.43100 L 352.36900,283.43100 L 352.36900,284.73300 L 348.80500,284.73300 L 348.80500,286.10100 L 352.08100,286.10100 L 352.08100,287.39100 L 348.80500,287.39100 L 348.80500,288.81300 L 352.36900,288.81300 L 352.36900,290.09700 L 346.77100,290.09700"
       id="path302" />
    <path
       style="fill:#ffb30f;stroke:none"
       d="M 364.00300,283.43100 L 364.00300,287.66100 C 363.98500,289.51500 362.34700,290.24100 360.49900,290.24100 C 358.64500,290.24100 357.00700,289.52700 356.98900,287.66100 L 356.98900,283.43100 L 359.02300,283.43100 L 359.02300,287.57100 C 359.05300,288.41100 359.53900,288.95100 360.49900,288.95100 C 361.45300,288.95100 361.93900,288.41100 361.96900,287.57100 L 361.96900,283.43100 L 363.99700,283.43100"
       id="path304" />
    <path
       style="fill:#ffb30f;stroke:none"
       d="M 365.39500,283.43100 L 368.24500,283.43100 L 370.70500,288.39900 L 370.72900,288.38700 L 370.72900,283.43100 L 372.55300,283.43100 L 372.55300,290.10900 L 369.73300,290.10900 L 367.24900,284.99100 L 367.23100,284.99100 L 367.23100,290.10900 L 365.39500,290.10900 L 365.39500,283.43100"
       id="path306" />
    <path
       style="fill:#ffb30f;fill-opacity:1.0000000;stroke:none"
       d="M 373.54300,290.63700 L 375.94300,290.63700 L 375.94300,282.84300 L 373.54300,282.84300 L 373.54300,290.63700 z "
       id="path308" />
    <path
       style="fill:#ffb30f;stroke:none"
       d="M 377.04700,286.77300 C 377.04700,284.57100 378.41500,283.29300 380.85100,283.29300 C 383.28100,283.29300 384.65500,284.57100 384.65500,286.77300 C 384.65500,288.97500 383.28100,290.25300 380.85100,290.25300 C 378.41500,290.25300 377.04700,288.97500 377.04700,286.77300 z M 380.85100,284.57700 C 379.46500,284.57700 379.18300,285.75300 379.18300,286.79700 C 379.18300,287.79300 379.46500,288.95100 380.85100,288.95100 C 382.23100,288.95100 382.51900,287.79300 382.51900,286.79700 C 382.51900,285.75300 382.23100,284.57700 380.85100,284.57700"
       id="path310" />
    <path
       style="fill:#ffb30f;stroke:none"
       d="M 385.74700,283.43100 L 388.59700,283.43100 L 391.05700,288.39900 L 391.08100,288.38700 L 391.08100,283.43100 L 392.91100,283.43100 L 392.91100,290.10900 L 390.09100,290.10900 L 387.60100,284.99100 L 387.58300,284.99100 L 387.58300,290.10900 L 385.74700,290.10900 L 385.74700,283.43100"
       id="path312" />
    <path
       style="fill:#ffb30f;stroke:none"
       d="M 253.48300,216.02700 L 255.43900,219.10500 L 258.49900,219.49500 L 256.45300,222.21300 L 256.95100,225.65700 L 253.80700,224.13300 L 250.39300,225.28500 L 251.16700,222.22500 L 249.04300,219.49500 L 252.17500,219.10500 L 253.48300,216.02700"
       id="path314" />
    <path
       style="fill:#ffb30f;stroke:none"
       d="M 253.42300,202.53900 L 255.38500,205.61700 L 258.43900,206.00700 L 256.39300,208.72500 L 256.89700,212.16900 L 253.75300,210.64500 L 250.33900,211.79700 L 251.10700,208.73700 L 248.98900,206.00700 L 252.12100,205.61700 L 253.42300,202.53900"
       id="path316" />
    <path
       style="fill:#ffb30f;stroke:none"
       d="M 257.48500,187.49100 L 259.05700,190.79700 L 262.03900,191.54700 L 259.67500,193.99500 L 259.75300,197.48700 L 256.81900,195.58500 L 253.29100,196.29300 L 254.43100,193.34700 L 252.66100,190.38300 L 255.81700,190.39500 L 257.48500,187.47900"
       id="path318" />
    <path
       style="fill:#ffb30f;stroke:none"
       d="M 262.33900,173.61300 L 263.90500,176.91900 L 266.89300,177.66900 L 264.52900,180.12900 L 264.60100,183.60900 L 261.66700,181.71300 L 258.13900,182.42700 L 259.28500,179.47500 L 257.50900,176.51100 L 260.66500,176.52300 L 262.33900,173.61300"
       id="path320" />
    <path
       style="fill:#ffb30f;stroke:none"
       d="M 254.41900,228.97500 L 256.42300,232.04700 L 259.48300,232.37100 L 257.47300,235.12500 L 258.02500,238.56900 L 254.85700,237.08100 L 251.46100,238.28100 L 252.19300,235.20900 L 250.02700,232.51500 L 253.15900,232.08900 L 254.41900,228.97500"
       id="path322" />
    <path
       style="fill:#ffb30f;stroke:none"
       d="M 256.07500,242.87100 L 258.07900,245.93100 L 261.13900,246.28500 L 259.12900,249.02700 L 259.67500,252.47100 L 256.51900,250.98300 L 253.11700,252.17700 L 253.84900,249.10500 L 251.68900,246.41100 L 254.81500,245.99100 L 256.07500,242.87100"
       id="path324" />
    <path
       style="fill:#ffb30f;stroke:none"
       d="M 260.67100,255.62100 L 262.81900,258.58500 L 265.89100,258.78900 L 264.01300,261.63300 L 264.72700,265.03500 L 261.49900,263.70900 L 258.15700,265.05900 L 258.73900,261.95100 L 256.45300,259.35900 L 259.56100,258.80100 L 260.67100,255.62100"
       id="path326" />
    <path
       style="fill:#ffb30f;stroke:none"
       d="M 265.17100,267.26100 L 267.31900,270.22500 L 270.39100,270.41100 L 268.51300,273.27300 L 269.22700,276.66900 L 265.99900,275.34300 L 262.65700,276.69300 L 263.23900,273.58500 L 260.95300,270.99900 L 264.05500,270.42300 L 265.17100,267.26100"
       id="path328" />
    <path
       style="fill:#ffb30f;stroke:none"
       d="M 272.11300,279.41100 L 274.26100,282.37500 L 277.33300,282.57300 L 275.46100,285.41100 L 276.17500,288.81900 L 272.94100,287.49900 L 269.60500,288.84300 L 270.18700,285.74100 L 267.90100,283.14900 L 271.00300,282.57300 L 272.11300,279.41100"
       id="path330" />
    <path
       style="fill:#ffb30f;stroke:none"
       d="M 279.63700,290.99100 L 281.78500,293.95500 L 284.85700,294.14100 L 282.98500,296.99100 L 283.69900,300.39900 L 280.46500,299.07300 L 277.12900,300.41100 L 277.71100,297.31500 L 275.42500,294.72900 L 278.52700,294.15300 L 279.63700,290.99100"
       id="path332" />
    <path
       style="fill:#ffb30f;stroke:none"
       d="M 288.12700,301.40700 L 290.27500,304.37100 L 293.34700,304.56300 L 291.46900,307.40700 L 292.18300,310.81500 L 288.94900,309.48300 L 285.61300,310.83900 L 286.19500,307.72500 L 283.90900,305.14500 L 287.01100,304.56900 L 288.12700,301.40700"
       id="path334" />
    <path
       style="fill:#ffb30f;stroke:none"
       d="M 298.73500,311.24100 L 300.88300,314.20500 L 303.95500,314.40300 L 302.08300,317.24100 L 302.79100,320.64900 L 299.56300,319.32300 L 296.22100,320.67300 L 296.80900,317.57100 L 294.51700,314.97900 L 297.62500,314.40300 L 298.73500,311.24100"
       id="path336" />
    <path
       style="fill:#ffb30f;stroke:none"
       d="M 310.70500,318.74100 L 312.59500,321.86700 L 315.64300,322.32300 L 313.53700,324.99900 L 313.96300,328.45500 L 310.85500,326.85900 L 307.41100,327.92700 L 308.25100,324.87900 L 306.19300,322.11300 L 309.33100,321.80100 L 310.70500,318.74100"
       id="path338" />
    <path
       style="fill:#ffb30f;stroke:none"
       d="M 321.40300,326.53500 L 323.29300,329.66100 L 326.34100,330.11700 L 324.23500,332.79300 L 324.66100,336.24900 L 321.54700,334.65300 L 318.10900,335.72100 L 318.94900,332.67300 L 316.89100,329.90700 L 320.02900,329.58900 L 321.40300,326.53500"
       id="path340" />
    <path
       style="fill:#ffb30f;stroke:none"
       d="M 333.55300,333.48300 L 335.44900,336.60900 L 338.49100,337.05900 L 336.38500,339.74100 L 336.81100,343.19700 L 333.70300,341.60100 L 330.26500,342.65700 L 331.10500,339.62100 L 329.04100,336.84300 L 332.17900,336.54300 L 333.54700,333.48300"
       id="path342" />
    <path
       style="fill:#ffb30f;stroke:none"
       d="M 348.01900,337.72500 L 349.91500,340.85100 L 352.95700,341.30100 L 350.85100,343.98300 L 351.27700,347.43900 L 348.16900,345.84300 L 344.73100,346.91100 L 345.57100,343.86300 L 343.50700,341.08500 L 346.65100,340.78500 L 348.01300,337.72500"
       id="path344" />
    <path
       style="fill:#ffb30f;stroke:none"
       d="M 362.87500,340.41900 L 364.76500,343.56300 L 367.81300,344.00700 L 365.70700,346.67700 L 366.13300,350.13300 L 363.02500,348.54300 L 359.58100,349.60500 L 360.42700,346.56300 L 358.36300,343.79700 L 361.50100,343.49100 L 362.86900,340.41900"
       id="path346" />
    <path
       style="fill:#ffb30f;fill-opacity:1.0000000;stroke:none"
       d="M 287.14300,416.04300 L 299.74300,416.04300 L 299.74300,371.63700 L 287.14300,371.63700 L 287.14300,416.04300 z "
       id="path348" />
    <path
       style="fill:#ffb30f;stroke:none"
       d="M 325.53700,393.85500 C 320.12500,393.09300 318.24100,389.64900 318.24100,383.85900 C 318.24100,374.82300 325.47100,372.28500 332.79100,372.28500 C 340.74700,372.28500 346.78900,374.75700 346.78900,383.85900 C 346.78900,389.33100 345.39100,393.22500 340.55500,393.91500 L 340.55500,394.24500 C 346.79500,394.87500 350.25700,400.13700 350.25700,407.00700 C 350.25700,417.44700 339.97900,418.23300 331.57900,418.23300 C 323.88100,418.23300 315.15100,415.02300 315.15100,405.84300 C 315.15100,398.90700 319.17100,394.87500 325.53700,394.04700 L 325.53700,393.85500 z M 339.60100,403.91100 C 339.60100,399.71700 336.54700,397.86300 332.79100,397.86300 C 329.03500,397.86300 325.98100,399.71700 325.98100,403.91100 C 325.98100,408.11700 329.03500,409.95900 332.79100,409.95900 C 336.54700,409.95900 339.60100,408.11700 339.60100,403.91100 z M 326.86900,384.75300 C 326.86900,388.18500 329.28700,390.22500 332.79100,390.22500 C 336.28900,390.22500 338.70700,388.18500 338.70700,384.75300 C 338.70700,381.31500 336.28900,379.28100 332.79100,379.28100 C 329.28700,379.28100 326.86900,381.31500 326.86900,384.75300"
       id="path350" />
    <path
       style="fill:#ffb30f;stroke:none"
       d="M 366.84700,404.31300 C 368.00500,405.08100 371.76700,407.39100 374.95300,407.39100 C 379.34500,407.39100 380.73100,406.12500 380.73100,402.37500 C 380.73100,398.31300 378.81100,395.42700 376.88500,395.58900 C 374.66500,395.76900 369.09700,396.60900 368.77900,398.90700 L 361.83100,396.21300 L 366.19900,373.50300 L 390.79300,373.55100 L 390.79300,381.81900 L 375.33700,381.54300 L 373.79500,388.49100 C 374.17900,387.32700 374.55100,388.10100 379.19500,388.10100 C 387.78700,388.10100 393.08500,393.39900 393.08500,401.60100 C 393.08500,411.85500 386.93500,417.42300 376.87900,417.42300 C 367.58500,417.42300 364.92100,414.33900 362.98900,413.57100 L 366.84700,404.31300"
       id="path352" />
    <path
       style="fill:#ffb30f;stroke:none"
       d="M 412.75900,407.78100 C 412.82500,409.24500 417.36700,408.38700 418.44700,409.02300 C 419.53300,409.65300 420.69700,408.35100 422.01700,408.16500 C 424.71700,407.78100 428.32300,405.72900 428.57500,400.07100 C 426.09700,403.18500 422.52100,402.90300 418.54900,402.37500 C 412.75900,401.60100 407.35900,396.30900 407.35900,387.71700 C 407.35900,377.08500 413.29900,372.48300 422.97100,372.23700 C 435.90100,371.90700 440.98300,383.61300 440.53900,396.97500 C 440.34700,403.08900 437.68300,409.93500 435.13900,412.41900 C 430.61500,416.80500 425.87500,417.81300 421.82500,418.18500 C 414.02500,418.91100 409.28500,416.66100 409.28500,416.66100 L 412.75900,407.78100 z M 422.77900,380.51100 C 418.51300,380.51100 415.90300,383.10900 415.90300,387.12900 C 415.90300,391.70100 418.83100,393.74100 422.77900,393.74100 C 427.36300,393.74100 429.64900,390.17700 429.64900,387.12900 C 429.64900,382.86300 426.91300,380.51100 422.77900,380.51100"
       id="path354" />
    <path
       style="fill:#ffb30f;stroke:none"
       d="M 132.66700,74.157000 L 126.30100,79.359000 C 126.30100,79.359000 122.53900,75.597000 119.06500,75.891000 C 115.60300,76.185000 111.85300,80.427000 119.64700,85.443000 C 127.74700,90.645000 129.13300,97.233000 128.90500,102.51900 C 128.61700,109.16100 123.14500,113.89500 117.33100,114.08100 C 108.36100,114.37500 99.391000,108.58500 99.391000,108.58500 L 104.59900,100.19700 L 114.14500,104.25300 C 114.14500,104.25300 118.77700,104.25300 117.90700,99.327000 C 117.04300,94.419000 108.23500,85.407000 106.04500,81.387000 C 102.57700,75.027000 110.38900,65.193000 116.17300,65.769000 C 124.81300,66.633000 127.74700,67.797000 129.19300,69.531000 C 130.63900,71.265000 132.66700,74.157000 132.66700,74.157000"
       id="path356" />
    <path
       style="fill:#ffb30f;stroke:none"
       d="M 138.74500,68.367000 L 138.74500,79.077000 L 149.16100,78.213000 L 149.44900,112.05900 L 160.15300,110.90700 L 159.86500,77.343000 L 169.12300,75.597000 L 168.54700,66.063000 L 138.74500,68.379000"
       id="path358" />
    <path
       style="fill:#ffb30f;stroke:none"
       d="M 185.61700,63.741000 L 175.77700,110.04300 L 186.48700,109.74900 L 189.09100,102.51900 L 200.95300,101.35500 L 203.26900,106.28100 L 212.80900,104.25300 L 199.50700,62.577000 L 185.61700,63.741000"
       id="path360" />
    <path
       style="fill:#3c3c9e;stroke:none"
       d="M 193.42900,75.891000 L 189.66700,94.125000 L 199.21900,92.673000 L 193.42900,75.891000"
       id="path362" />
    <path
       style="fill:#ffb30f;stroke:none"
       d="M 214.26100,59.391000 L 214.26100,69.237000 L 226.12900,67.797000 L 226.70500,103.08900 L 239.43100,101.06700 L 239.14900,66.339000 L 247.53700,63.741000 L 247.53700,53.613000 L 214.26100,59.391000"
       id="path364" />
    <path
       style="fill:#ffb30f;stroke:none"
       d="M 257.08900,51.879000 L 258.24700,96.435000 L 286.02100,92.379000 L 285.44500,83.121000 L 269.23900,84.855000 L 269.52700,77.343000 L 276.75700,75.891000 L 276.47500,67.503000 L 270.10900,67.797000 L 269.52700,58.815000 L 286.60300,55.641000 L 285.73300,46.371000 L 257.08900,51.879000"
       id="path366" />
    <path
       style="fill:#ffb30f;stroke:none"
       d="M 332.89900,44.067000 C 323.34100,44.463000 313.51300,50.133000 314.67100,64.899000 C 316.34500,86.277000 324.79900,92.097000 334.63300,92.097000 C 344.47300,92.097000 352.28500,78.789000 351.70900,67.209000 C 351.12700,55.641000 346.78900,43.491000 332.89900,44.067000"
       id="path368" />
    <path
       style="fill:#3c3c9e;stroke:none"
       d="M 333.76900,52.749000 C 328.55500,52.563000 323.05900,59.979000 323.92900,66.063000 C 324.79900,72.129000 324.50500,80.817000 332.61100,81.093000 C 340.71100,81.387000 341.86900,72.423000 341.86900,67.209000 C 341.86900,62.007000 341.86900,53.043000 333.76900,52.749000"
       id="path370" />
    <path
       style="fill:#ffb30f;stroke:none"
       d="M 382.08700,45.225000 L 358.65100,44.637000 L 358.36300,90.363000 L 369.64300,90.363000 L 369.64300,70.983000 L 374.85700,70.983000 L 374.56300,62.301000 L 369.35500,62.007000 L 369.35500,53.043000 L 382.38100,53.319000 L 382.08700,45.225000"
       id="path372" />
    <path
       style="fill:#ffb30f;stroke:none"
       d="M 427.87300,48.189000 C 418.30900,48.213000 408.26500,53.511000 408.84700,68.301000 C 409.68700,89.721000 417.90700,95.871000 427.73500,96.249000 C 437.56900,96.633000 445.89100,83.649000 445.76500,72.063000 C 445.63900,60.471000 441.77500,48.153000 427.87300,48.189000"
       id="path374" />
    <path
       style="fill:#3c3c9e;stroke:none"
       d="M 428.40100,56.895000 C 423.19900,56.511000 417.42700,63.705000 418.05100,69.819000 C 418.68100,75.927000 418.05700,84.585000 426.13900,85.185000 C 434.22700,85.797000 435.73300,76.875000 435.93700,71.673000 C 436.14100,66.471000 436.48300,57.507000 428.40100,56.895000"
       id="path376" />
    <path
       style="fill:#ffb30f;stroke:none"
       d="M 453.55900,51.585000 L 452.40100,100.19700 L 461.65900,101.93100 L 462.24100,90.939000 L 478.15300,105.69300 L 479.88700,95.571000 L 471.78700,87.177000 C 471.78700,87.177000 483.07300,81.093000 482.78500,74.157000 C 482.49100,67.221000 480.75700,58.815000 470.62900,54.777000 C 460.50100,50.721000 453.55900,51.585000 453.55900,51.585000"
       id="path378" />
    <path
       style="fill:#3c3c9e;stroke:none"
       d="M 462.24100,64.317000 L 461.65900,81.093000 C 461.65900,81.093000 470.62900,80.523000 471.78700,77.055000 C 472.94500,73.569000 474.10300,66.633000 470.34100,64.899000 C 466.57900,63.165000 462.24100,64.317000 462.24100,64.317000"
       id="path380" />
    <path
       style="fill:#ffb30f;stroke:none"
       d="M 493.48900,60.843000 L 490.59700,105.69300 L 514.61500,110.90700 L 515.19100,101.06700 L 502.45900,97.023000 L 502.74700,89.781000 L 509.40100,89.781000 L 509.69500,80.241000 L 503.61700,79.077000 L 503.61700,71.277000 L 515.19100,72.717000 L 515.76700,64.035000 L 493.48900,60.855000"
       id="path382" />
    <path
       style="fill:#ffb30f;stroke:none"
       d="M 554.83300,79.359000 L 547.88500,84.573000 C 547.88500,84.573000 543.83500,77.055000 536.60500,81.093000 C 529.36900,85.149000 529.36900,92.673000 530.52700,97.875000 C 531.68500,103.08900 533.17900,108.20100 538.05100,108.87900 C 546.43900,110.03100 544.41700,104.82300 544.41700,104.82300 L 539.20900,104.25300 L 538.91500,94.701000 L 554.54500,95.571000 C 554.54500,95.571000 555.09100,112.45500 551.07100,115.53900 C 546.15100,119.30100 534.72100,122.33100 527.63500,115.24500 C 521.55700,109.16100 519.29500,100.68900 520.40500,91.527000 C 521.10100,85.749000 523.87300,76.185000 529.36900,73.293000 C 534.86500,70.395000 541.51900,69.531000 544.99300,70.983000 C 548.46700,72.423000 554.83300,79.371000 554.83300,79.371000"
       id="path384" />
    <path
       style="fill:#ffb30f;stroke:none"
       d="M 579.78700,75.315000 C 570.22900,75.705000 560.40100,81.387000 561.55900,96.141000 C 563.23300,117.53100 571.68700,123.33900 581.52700,123.33900 C 591.36100,123.33900 599.17300,110.04300 598.59700,98.463000 C 598.01500,86.883000 593.67700,74.733000 579.78700,75.315000"
       id="path386" />
    <path
       style="fill:#3c3c9e;stroke:none"
       d="M 580.65700,84.003000 C 575.44300,83.817000 569.94700,91.221000 570.81700,97.305000 C 571.68700,103.38300 571.39900,112.05900 579.49900,112.34700 C 587.59900,112.64100 588.75700,103.66500 588.75700,98.463000 C 588.75700,93.249000 588.75700,84.285000 580.65700,83.991000"
       id="path388" />
    <path
       style="fill:#ffb30f;stroke:none"
       d="M 605.76100,77.055000 L 606.33700,121.89900 L 616.17700,121.60500 L 616.46500,102.51900 L 629.19100,119.87100 L 640.18300,119.87100 L 638.73700,74.157000 L 628.60900,75.027000 L 629.76700,98.745000 L 612.98500,76.761000 L 605.75500,77.055000"
       id="path390" />
    <path
       style="fill:#ffb30f;stroke:none"
       d="M 471.58300,217.17300 L 469.62100,220.26900 L 466.56700,220.65300 L 468.61300,223.37100 L 468.11500,226.81500 L 471.25900,225.29700 L 474.67300,226.43100 L 473.89900,223.37100 L 476.02300,220.65300 L 472.89100,220.26900 L 471.58300,217.18500"
       id="path392" />
    <path
       style="fill:#ffb30f;stroke:none"
       d="M 471.64300,203.68500 L 469.68100,206.78100 L 466.62700,207.16500 L 468.67300,209.88300 L 468.16900,213.32700 L 471.31300,211.80900 L 474.72700,212.94300 L 473.95900,209.88300 L 476.07700,207.16500 L 472.94500,206.78100 L 471.64300,203.69700"
       id="path394" />
    <path
       style="fill:#ffb30f;stroke:none"
       d="M 467.57500,188.63700 L 466.00900,191.95500 L 463.02700,192.70500 L 465.39100,195.15300 L 465.31300,198.64500 L 468.24700,196.73700 L 471.77500,197.45100 L 470.63500,194.51100 L 472.40500,191.54700 L 469.24900,191.55900 L 467.57500,188.63700"
       id="path396" />
    <path
       style="fill:#ffb30f;stroke:none"
       d="M 462.72700,174.77700 L 461.16100,178.07700 L 458.17300,178.82700 L 460.53700,181.29300 L 460.46500,184.76100 L 463.39300,182.85900 L 466.92700,183.58500 L 465.78100,180.63300 L 467.55700,177.66900 L 464.40100,177.68100 L 462.72700,174.77700"
       id="path398" />
    <path
       style="fill:#ffb30f;stroke:none"
       d="M 470.64700,230.13300 L 468.64300,233.19300 L 465.58300,233.53500 L 467.59300,236.28900 L 467.04100,239.73300 L 470.20900,238.24500 L 473.60500,239.42700 L 472.87300,236.36700 L 475.03300,233.66100 L 471.90700,233.25300 L 470.64700,230.13300"
       id="path400" />
    <path
       style="fill:#ffb30f;stroke:none"
       d="M 468.99100,244.03500 L 466.98700,247.08900 L 463.92700,247.43100 L 465.93700,250.18500 L 465.38500,253.62900 L 468.54700,252.14100 L 471.94900,253.33500 L 471.21700,250.26900 L 473.37700,247.56300 L 470.25100,247.14900 L 468.99100,244.03500"
       id="path402" />
    <path
       style="fill:#ffb30f;stroke:none"
       d="M 464.39500,256.78500 L 462.24700,259.74900 L 459.17500,259.93500 L 461.05300,262.78500 L 460.33900,266.19300 L 463.56700,264.86700 L 466.90900,266.21700 L 466.32700,263.10900 L 468.61300,260.52300 L 465.51100,259.94700 L 464.39500,256.78500"
       id="path404" />
    <path
       style="fill:#ffb30f;stroke:none"
       d="M 459.89500,268.41900 L 457.74700,271.38300 L 454.67500,271.56900 L 456.55300,274.41900 L 455.83900,277.82700 L 459.06700,276.49500 L 462.40900,277.85100 L 461.82700,274.74900 L 464.11300,272.15700 L 461.01100,271.58100 L 459.89500,268.41900"
       id="path406" />
    <path
       style="fill:#ffb30f;stroke:none"
       d="M 452.95300,280.56900 L 450.80500,283.53900 L 447.73300,283.73700 L 449.60500,286.56900 L 448.89100,289.98300 L 452.12500,288.64500 L 455.46100,289.99500 L 454.87900,286.89900 L 457.16500,284.31300 L 454.06300,283.73700 L 452.95300,280.56900"
       id="path408" />
    <path
       style="fill:#ffb30f;stroke:none"
       d="M 445.42900,292.14900 L 443.28100,295.11300 L 440.20900,295.30500 L 442.08100,298.14900 L 441.37300,301.56300 L 444.60100,300.22500 L 447.93700,301.56900 L 447.35500,298.46700 L 449.64100,295.88700 L 446.53900,295.31700 L 445.42900,292.14900"
       id="path410" />
    <path
       style="fill:#ffb30f;stroke:none"
       d="M 436.93900,302.57100 L 434.79100,305.53500 L 431.71900,305.72100 L 433.59700,308.57100 L 432.88300,311.96700 L 436.11700,310.64100 L 439.45300,311.99100 L 438.87100,308.88300 L 441.15700,306.30900 L 438.05500,305.72100 L 436.93900,302.57100"
       id="path412" />
    <path
       style="fill:#ffb30f;stroke:none"
       d="M 426.33100,312.39900 L 424.18300,315.36300 L 421.11100,315.56700 L 422.98900,318.39900 L 422.27500,321.81300 L 425.50300,320.47500 L 428.84500,321.83100 L 428.25700,318.72900 L 430.54300,316.13700 L 427.44100,315.56700 L 426.33100,312.39900"
       id="path414" />
    <path
       style="fill:#ffb30f;stroke:none"
       d="M 414.36100,319.89900 L 412.47100,323.03100 L 409.42300,323.48700 L 411.52900,326.15700 L 411.10300,329.61300 L 414.21100,328.02300 L 417.65500,329.08500 L 416.80900,326.04300 L 418.87300,323.27700 L 415.73500,322.95900 L 414.36100,319.89900"
       id="path416" />
    <path
       style="fill:#ffb30f;stroke:none"
       d="M 403.66300,327.68100 L 401.77300,330.81900 L 398.72500,331.26900 L 400.83100,333.95100 L 400.40500,337.40700 L 403.51900,335.81700 L 406.95700,336.87900 L 406.11700,333.83100 L 408.17500,331.05900 L 405.03700,330.75300 L 403.66300,327.69300"
       id="path418" />
    <path
       style="fill:#ffb30f;stroke:none"
       d="M 391.51300,334.62900 L 389.62300,337.77300 L 386.57500,338.21700 L 388.68100,340.88700 L 388.25500,344.35500 L 391.36300,342.75300 L 394.80100,343.81500 L 393.96100,340.78500 L 396.02500,338.00700 L 392.88700,337.70100 L 391.51300,334.64100"
       id="path420" />
    <path
       style="fill:#ffb30f;stroke:none"
       d="M 377.04100,338.87100 L 375.15100,342.01500 L 372.10900,342.45900 L 374.21500,345.14100 L 373.78900,348.59700 L 376.89700,346.99500 L 380.33500,348.06300 L 379.49500,345.01500 L 381.55900,342.24900 L 378.41500,341.93100 L 377.04100,338.87100"
       id="path422" />
  </g>
</svg>
