<?xml version="1.0" encoding="UTF-8" standalone="no"?>
<svg
   xmlns:dc="http://purl.org/dc/elements/1.1/"
   xmlns:cc="http://web.resource.org/cc/"
   xmlns:rdf="http://www.w3.org/1999/02/22-rdf-syntax-ns#"
   xmlns:svg="http://www.w3.org/2000/svg"
   xmlns="http://www.w3.org/2000/svg"
   xmlns:sodipodi="http://inkscape.sourceforge.net/DTD/sodipodi-0.dtd"
   xmlns:inkscape="http://www.inkscape.org/namespaces/inkscape"
   width="676"
   height="457"
   id="svg2"
   sodipodi:version="0.32"
   inkscape:version="0.42"
   sodipodi:docname="usa_mississippi.svg"
   sodipodi:docbase="/home/demailly">
  <metadata
     id="metadata165">
    <rdf:RDF>
      <cc:Work
         rdf:about="">
        <dc:format>image/svg+xml</dc:format>
        <dc:type
           rdf:resource="http://purl.org/dc/dcmitype/StillImage" />
      </cc:Work>
    </rdf:RDF>
  </metadata>
  <sodipodi:namedview
     inkscape:cy="646.49495"
     inkscape:cx="484.60257"
     inkscape:zoom="0.86831672"
     inkscape:window-height="909"
     inkscape:window-width="1464"
     inkscape:pageshadow="2"
     inkscape:pageopacity="0.0"
     borderopacity="1.0"
     bordercolor="#666666"
     pagecolor="#ffffff"
     id="base"
     showguides="true"
     inkscape:guide-bbox="true"
     inkscape:window-x="97"
     inkscape:window-y="261"
     inkscape:current-layer="svg2" />
  <defs
     id="defs4">
    <marker
       id="ArrowEnd"
       viewBox="0 0 10 10"
       refX="0"
       refY="5"
       markerUnits="strokeWidth"
       markerWidth="4"
       markerHeight="3"
       orient="auto">
      <path
         d="M 0 0 L 10 5 L 0 10 z"
         id="path7" />
    </marker>
    <marker
       id="ArrowStart"
       viewBox="0 0 10 10"
       refX="10"
       refY="5"
       markerUnits="strokeWidth"
       markerWidth="4"
       markerHeight="3"
       orient="auto">
      <path
         d="M 10 0 L 0 5 L 10 10 z"
         id="path10" />
    </marker>
  </defs>
  <g
     id="g2387">
    <path
       style="fill:#000000;stroke:none"
       d="M -2502.7736,2316.6668 L -2502.7736,2316.6668 L -2502.7736,2316.6668 z "
       id="path14" />
    <path
       style="fill:#ffffff;fill-opacity:1.0000000;stroke:none"
       d="M 0.42640403,305.47277 L 677.22638,305.47277 L 677.22638,151.26677 L 0.42640403,151.26677 L 0.42640403,305.47277 z "
       id="path122" />
    <path
       sodipodi:nodetypes="ccccc"
       style="fill:#3c3c9e;stroke:none"
       d="M 677.22638,151.84877 L 677.22638,0.66677305 L 313.57036,-0.14756896 L 313.70393,150.74652 L 677.22638,151.84877"
       id="path124" />
    <path
       style="fill:#e2184f;fill-opacity:1.0000000;stroke:none"
       d="M 0.42640403,456.66677 L 677.22638,456.66677 L 677.22638,304.86077 L 0.42640403,304.86077 L 0.42640403,456.66677 z "
       id="path126" />
    <path
       style="fill:#e2184f;stroke:none"
       d="M 0.42640403,294.06677 L 302.22641,294.06677 L 302.22641,0.66677305 L 0.42640403,0.66677305 L 0.42640403,294.06677 z "
       id="path128" />
    <path
       sodipodi:nodetypes="cccccc"
       style="fill:#ffffff;stroke:none;fill-opacity:1.0000000"
       d="M 0.25862058,294.54060 L 56.970664,294.72051 L 302.79024,56.118817 L 302.87424,0.090946293 L 244.53041,0.23490298 L 0.25862058,238.36851"
       id="path130" />
    <path
       sodipodi:nodetypes="cccccc"
       style="fill:#ffffff;stroke:none;fill-opacity:1.0000000"
       d="M 303.16215,239.18442 L 57.060664,0.090946293 L 0.069503456,0.11564536 L -0.24310898,55.299260 L 245.20815,294.31247 L 303.13219,294.36047"
       id="path132" />
    <path
       style="fill:#3c3c9e;stroke:none"
       d="M 0.97840403,293.83277 L 41.406404,293.88077 L 302.21441,40.308773 L 302.16041,0.66677305 L 260.79641,0.66677305 L 0.97840403,253.45277 L 0.97840403,293.83277"
       id="path134" />
    <path
       style="fill:#3c3c9e;stroke:none"
       d="M 302.28041,293.49677 L 302.32841,254.00477 L 41.520404,0.66677305 L 0.97840403,0.66677305 L 0.97840403,40.710773 L 260.74241,293.30477 L 302.28041,293.49677"
       id="path136" />
    <path
       style="fill:#ffffff;stroke:none"
       d="M 151.72840,131.41277 L 155.94040,143.20277 L 168.76240,143.44877 L 158.53840,150.98477 L 162.25840,162.92477 L 151.72840,155.79677 L 141.19840,162.92477 L 144.91240,150.98477 L 134.68840,143.44877 L 147.51640,143.20277 L 151.72840,131.41277"
       id="path138" />
    <path
       style="fill:#ffffff;stroke:none"
       d="M 113.44840,94.206768 L 117.66040,105.98477 L 130.48840,106.24277 L 120.26440,113.77877 L 123.97840,125.70677 L 113.44840,118.59077 L 102.91840,125.70677 L 106.63240,113.77877 L 96.414404,106.24277 L 109.23640,105.98477 L 113.44840,94.206768"
       id="path140" />
    <path
       style="fill:#ffffff;stroke:none"
       d="M 113.44840,169.38077 L 117.66040,181.15877 L 130.48840,181.41677 L 120.26440,188.95277 L 123.97840,200.89277 L 113.44840,193.77077 L 102.91840,200.89277 L 106.63240,188.96477 L 96.414404,181.42877 L 109.23640,181.17077 L 113.44840,169.39277"
       id="path142" />
    <path
       style="fill:#ffffff;stroke:none"
       d="M 72.078404,53.988773 L 76.290404,65.766773 L 89.118404,66.024773 L 78.894404,73.554773 L 82.608404,85.500773 L 72.078404,78.372773 L 61.548404,85.500773 L 65.262404,73.554773 L 55.038404,66.024773 L 67.866404,65.766773 L 72.078404,53.988773"
       id="path144" />
    <path
       style="fill:#ffffff;stroke:none"
       d="M 72.078404,204.33677 L 76.290404,216.11477 L 89.118404,216.37277 L 78.894404,223.90877 L 82.608404,235.84877 L 72.078404,228.72677 L 61.548404,235.84877 L 65.262404,223.90877 L 55.038404,216.37277 L 67.866404,216.12677 L 72.078404,204.33677"
       id="path146" />
    <path
       style="fill:#ffffff;stroke:none"
       d="M 32.256404,15.270773 L 36.468404,27.042773 L 49.296404,27.300773 L 39.072404,34.836773 L 42.786404,46.782773 L 32.256404,39.654773 L 21.726404,46.782773 L 25.440404,34.836773 L 15.216404,27.300773 L 28.044404,27.042773 L 32.256404,15.270773"
       id="path148" />
    <path
       style="fill:#ffffff;stroke:none"
       d="M 32.256404,246.06677 L 36.468404,257.84477 L 49.296404,258.10277 L 39.072404,265.63877 L 42.786404,277.56677 L 32.256404,270.44477 L 21.726404,277.56677 L 25.440404,265.63877 L 15.216404,258.10277 L 28.044404,257.84477 L 32.256404,246.06677"
       id="path150" />
    <path
       style="fill:#ffffff;stroke:none"
       d="M 190.77641,169.38077 L 194.98841,181.15877 L 207.81041,181.41677 L 197.59241,188.95277 L 201.30641,200.89277 L 190.77641,193.77077 L 180.24641,200.89277 L 183.96041,188.95277 L 173.73640,181.41677 L 186.56441,181.15877 L 190.77641,169.38077"
       id="path152" />
    <path
       style="fill:#ffffff;stroke:none"
       d="M 190.77641,91.956768 L 194.98841,103.73477 L 207.81041,103.99277 L 197.59241,111.52877 L 201.30641,123.45677 L 190.77641,116.32877 L 180.24641,123.45677 L 183.96041,111.52877 L 173.73640,103.99277 L 186.56441,103.73477 L 190.77641,91.956768"
       id="path154" />
    <path
       style="fill:#ffffff;stroke:none"
       d="M 231.37241,208.84877 L 235.58441,220.62677 L 248.41241,220.88477 L 238.18841,228.42077 L 241.90241,240.36077 L 231.37241,233.23877 L 220.84241,240.36077 L 224.55641,228.42077 L 214.33241,220.88477 L 227.16041,220.62677 L 231.37241,208.84877"
       id="path156" />
    <path
       style="fill:#ffffff;stroke:none"
       d="M 231.37241,53.238773 L 235.58441,65.016773 L 248.41241,65.274773 L 238.18841,72.804773 L 241.90241,84.738773 L 231.37241,77.610773 L 220.84241,84.750773 L 224.55641,72.804773 L 214.33241,65.274773 L 227.16041,65.016773 L 231.37241,53.238773"
       id="path158" />
    <path
       style="fill:#ffffff;stroke:none"
       d="M 271.96841,248.31677 L 276.18041,260.09477 L 289.00841,260.35277 L 278.78441,267.88877 L 282.49841,279.82877 L 271.96841,272.70677 L 261.43841,279.82877 L 265.15241,267.88877 L 254.92841,260.35277 L 267.75641,260.10677 L 271.96841,248.31677"
       id="path160" />
    <path
       style="fill:#ffffff;stroke:none"
       d="M 271.96841,12.258773 L 276.18041,24.042773 L 289.00841,24.294773 L 278.78441,31.824773 L 282.49841,43.770773 L 271.96841,36.642773 L 261.43841,43.770773 L 265.15241,31.824773 L 254.92841,24.300773 L 267.75641,24.042773 L 271.96841,12.258773"
       id="path162" />
  </g>
</svg>
