<?xml version="1.0" encoding="UTF-8" standalone="no"?>
<!-- Created with Sodipodi ("http://www.sodipodi.com/") -->
<!-- /Creative Commons Public Domain -->
<!--

-->
<svg
   xmlns:dc="http://purl.org/dc/elements/1.1/"
   xmlns:cc="http://web.resource.org/cc/"
   xmlns:rdf="http://www.w3.org/1999/02/22-rdf-syntax-ns#"
   xmlns:svg="http://www.w3.org/2000/svg"
   xmlns="http://www.w3.org/2000/svg"
   xmlns:sodipodi="http://inkscape.sourceforge.net/DTD/sodipodi-0.dtd"
   xmlns:inkscape="http://www.inkscape.org/namespaces/inkscape"
   height="140mm"
   id="svg576"
   sodipodi:docname="usa_california.svg"
   sodipodi:version="0.32"
   width="210mm"
   inkscape:version="0.43"
   sodipodi:docbase="/usr/share/rmap/flags/src">
  <metadata
     id="metadata3">
    <rdf:RDF>
      <cc:Work
         rdf:about="">
        <dc:title>Clipart by Jon A. Cruz - United States - California</dc:title>
        <dc:description />
        <dc:subject>
          <rdf:Bag>
            <rdf:li />
            <rdf:li>america</rdf:li>
            <rdf:li>flag</rdf:li>
            <rdf:li>0x9c7e034</rdf:li>
            <rdf:li>unitedstates</rdf:li>
            <rdf:li>north_america</rdf:li>
            <rdf:li>sign</rdf:li>
          </rdf:Bag>
        </dc:subject>
        <dc:publisher>
          <cc:Agent
             rdf:about="http://www.openclipart.org">
            <dc:title>Jon A. Cruz</dc:title>
          </cc:Agent>
        </dc:publisher>
        <dc:creator>
          <cc:Agent>
            <dc:title>Jon A. Cruz</dc:title>
          </cc:Agent>
        </dc:creator>
        <dc:rights>
          <cc:Agent>
            <dc:title>Jon A. Cruz</dc:title>
          </cc:Agent>
        </dc:rights>
        <dc:date />
        <dc:format>image/svg+xml</dc:format>
        <dc:type
           rdf:resource="http://purl.org/dc/dcmitype/StillImage" />
        <cc:license
           rdf:resource="http://web.resource.org/cc/PublicDomain" />
        <dc:language>en</dc:language>
      </cc:Work>
      <cc:License
         rdf:about="http://web.resource.org/cc/PublicDomain">
        <cc:permits
           rdf:resource="http://web.resource.org/cc/Reproduction" />
        <cc:permits
           rdf:resource="http://web.resource.org/cc/Distribution" />
        <cc:permits
           rdf:resource="http://web.resource.org/cc/DerivativeWorks" />
      </cc:License>
    </rdf:RDF>
  </metadata>
  <defs
     id="defs578" />
  <sodipodi:namedview
     id="base"
     inkscape:zoom="1.507873"
     inkscape:cx="401.28652"
     inkscape:cy="255.24303"
     inkscape:window-width="1462"
     inkscape:window-height="1070"
     inkscape:window-x="0"
     inkscape:window-y="72"
     inkscape:current-layer="svg576" />
  <rect
     y="0"
     x="0"
     width="744.09448"
     style="fill:#ffffff;fill-opacity:1;fill-rule:evenodd;stroke:none"
     sodipodi:insensitive="true"
     id="flag"
     height="496.06299" />
  <g
     id="g2667">
    <rect
       ry="0"
       y="0.66318142"
       x="0.66318583"
       height="494.73657"
       width="742.76813"
       id="rect2504"
       style="fill:#ffffff;fill-opacity:1;stroke:#000000;stroke-width:2;stroke-miterlimit:4;stroke-dasharray:none;stroke-opacity:1;stroke-linejoin:bevel" />
    <path
       d="M 168.105,303.6285 L 609.2955,304.863 L 609.9735,298.7655 C 609.1035,297.369 605.3235,298.128 604.1145,298.128 C 602.388,296.055 601.143,292.761 598.9335,291.9105 C 596.6535,291.033 593.8845,291.327 591.1215,291.672 C 590.2575,289.2525 589.7835,286.6005 588.0525,285.693 C 586.1565,284.7 583.164,286.251 580.401,286.7685 C 579.192,284.8695 578.661,282.7305 576.1365,281.5485 C 574.347,280.824 571.647,280.6185 569.4015,280.791 C 568.6575,278.5455 567.729,275.673 565.2555,275.331 C 560.3085,274.6245 560.421,277.749 558.003,278.958 C 557.0865,276.2745 555.264,274.257 553.3395,273.777 C 551.1195,273.222 548.1585,275.1585 545.568,275.85 L 504.996,275.0115 C 504.996,275.0115 497.3055,271.665 494.634,270.867 C 492.555,270.3705 487.62,266.961 487.62,266.961 C 484.179,267.5865 484.056,269.766 482.877,269.4705 C 481.293,269.0745 481.431,265.8375 478.0545,265.527 C 475.0485,264.9315 472.899,268.671 470.283,269.073 C 468.4095,269.3625 468.1605,266.0265 464.5845,265.686 C 462.7605,265.5945 460.4955,268.74 458.247,268.8345 L 409.7445,270.867 C 408.9465,269.751 409.029,267.879 406.1175,267.24 C 401.9325,266.4435 358.5315,269.6325 358.5315,269.6325 C 355.941,267.042 353.559,263.4735 349.8015,263.6145 C 344.538,263.8065 344.5425,268.077 344.0235,268.077 C 343.506,268.077 341.196,265.767 338.325,267.042 C 336.0735,268.227 336.252,268.4235 335.2155,269.1135 C 333.3165,267.9045 331.5345,265.6485 329.517,265.4865 C 327.216,265.302 324.681,267.213 322.263,268.077 L 254.9085,279.4755 L 250.2465,281.031 C 250.2465,281.031 240.9315,275.2845 236.376,277.1655 C 232.758,278.532 229.5225,284.139 229.5225,284.139 C 226.587,283.275 223.26,280.692 220.7145,281.5485 C 213.9675,283.8735 215.5335,286.038 212.943,288.2835 C 209.4885,287.4195 202.128,283.9365 199.0725,285.2145 C 193.467,287.4255 194.6355,290.184 190.6635,292.4295 C 188.5245,291.7515 187.0395,289.839 184.089,290.5545 C 180.3825,291.8535 181.485,293.16 180.1035,294.5415 C 176.688,294.8595 170.8725,292.455 168.585,296.9325 L 168.105,303.6285 z "
       id="Grass"
       sodipodi:nodetypes="ccccscscscscscsssssssscccscscscccscscscsccc"
       style="fill:#7e965a;fill-opacity:1;fill-rule:evenodd;stroke:none" />
    <polygon
       id="star"
       points="73.8187,78.8757 53.0477,66.6403 31.193,76.8146 36.411,53.2792 19.9812,35.6383 43.9771,33.328 55.6776,12.251 65.2899,34.3585 88.9509,38.9732 70.8958,54.9467 73.8187,78.8757 "
       sodipodi:arg1="0.945"
       sodipodi:arg2="1.55"
       sodipodi:cx="82.677162"
       sodipodi:cy="66.141731"
       sodipodi:r1="37"
       sodipodi:r2="14"
       sodipodi:sides="5"
       sodipodi:type="star"
       style="fill:#ff0101;fill-opacity:1;fill-rule:evenodd"
       transform="matrix(1.5,0,0,1.5,-17.2209,-17.13379)"
       inkscape:flatsided="false"
       inkscape:rounded="0"
       inkscape:randomized="0"
       d="M 104.34965,96.130118 L 82.96829,80.138704 L 60.853678,96.020412 L 69.455213,70.743912 L 47.517021,54.619385 L 74.214421,54.989063 L 82.770484,29.141849 L 90.668849,54.646822 L 117.89498,54.796893 L 96.079038,70.190155 L 104.34965,96.130118 z " />
    <rect
       style="fill:#fe0101;fill-opacity:1"
       height="101.25"
       id="Stripe"
       width="744.09448"
       x="0"
       y="394.78345" />
    <path
       d="M 212.6775,296.9715 L 224.3385,297.111 C 225.4485,296.8335 224.8935,289.3365 218.7855,289.1985 C 212.6775,289.059 212.4,296.832 212.6775,296.9715 z "
       id="Lump1"
       sodipodi:nodetypes="cccc"
       style="fill:#70582d;fill-opacity:1;fill-rule:evenodd" />
    <path
       d="M 236.8335,294.3345 L 248.4945,294.474 C 249.6045,294.1965 249.0495,286.6995 242.9415,286.5615 C 236.8335,286.422 236.556,294.195 236.8335,294.3345 z "
       id="path583"
       sodipodi:nodetypes="cccc"
       style="fill:#70582d;fill-opacity:1;fill-rule:evenodd" />
    <path
       d="M 261.2565,298.665 L 271.0575,298.7775 C 271.9905,298.554 271.524,292.503 266.3895,292.392 C 261.2565,292.2795 261.0225,298.5525 261.2565,298.665 z "
       id="path584"
       sodipodi:nodetypes="cccc"
       style="fill:#70582d;fill-opacity:1;fill-rule:evenodd" />
    <path
       d="M 297.9405,294.471 L 313.719,294.6135 C 315.2205,294.33 314.469,286.7025 306.2055,286.5615 C 297.9405,286.419 297.5655,294.3285 297.9405,294.471 z "
       id="path585"
       sodipodi:nodetypes="cccc"
       style="fill:#70582d;fill-opacity:1;fill-rule:evenodd" />
    <path
       d="M 324.7455,281.838 L 342.6495,281.9805 C 344.3535,281.697 343.5,274.0695 334.1235,273.9285 C 324.7455,273.786 324.321,281.6955 324.7455,281.838 z "
       id="path586"
       sodipodi:nodetypes="cccc"
       style="fill:#70582d;fill-opacity:1;fill-rule:evenodd" />
    <path
       d="M 347.5125,293.916 L 365.4165,294.0585 C 367.1205,293.775 366.267,286.1475 356.8905,286.0065 C 347.5125,285.864 347.088,293.7735 347.5125,293.916 z "
       id="path587"
       sodipodi:nodetypes="cccc"
       style="fill:#70582d;fill-opacity:1;fill-rule:evenodd" />
    <path
       d="M 384.3015,289.335 L 402.2055,289.4775 C 403.9095,289.194 403.056,281.5665 393.6795,281.4255 C 384.3015,281.283 383.877,289.1925 384.3015,289.335 z "
       id="path588"
       sodipodi:nodetypes="cccc"
       style="fill:#70582d;fill-opacity:1;fill-rule:evenodd" />
    <path
       d="M 421.3665,293.6715 L 439.2705,293.7795 C 440.9745,293.565 440.121,287.778 430.7445,287.6715 C 421.3665,287.5635 420.942,293.5635 421.3665,293.6715 z "
       id="path589"
       sodipodi:nodetypes="cccc"
       style="fill:#70582d;fill-opacity:1;fill-rule:evenodd" />
    <path
       d="M 451.896,292.665 L 467.808,292.8105 C 469.323,292.521 468.564,284.763 460.2315,284.619 C 451.896,284.4735 451.5195,292.5195 451.896,292.665 z "
       id="path590"
       sodipodi:nodetypes="cccc"
       style="fill:#70582d;fill-opacity:1;fill-rule:evenodd" />
    <path
       d="M 484.9365,286.557 L 500.8485,286.7025 C 502.3635,286.413 501.6045,278.655 493.272,278.511 C 484.9365,278.3655 484.56,286.4115 484.9365,286.557 z "
       id="path591"
       sodipodi:nodetypes="cccc"
       style="fill:#70582d;fill-opacity:1;fill-rule:evenodd" />
    <path
       d="M 536.025,294.63 L 551.937,294.753 C 553.452,294.5085 552.693,287.9325 544.3605,287.811 C 536.025,287.688 535.6485,294.507 536.025,294.63 z "
       id="path592"
       sodipodi:nodetypes="cccc"
       style="fill:#70582d;fill-opacity:1;fill-rule:evenodd" />
    <path
       d="M 564.606,298.944 L 577.7295,299.058 C 578.979,298.833 578.352,292.782 571.4805,292.671 C 564.606,292.557 564.2955,298.8315 564.606,298.944 z "
       id="path593"
       sodipodi:nodetypes="cccc"
       style="fill:#775c2a;fill-opacity:1;fill-rule:evenodd" />
    <path
       d="M 429.92828,247.35173 L 429.92828,266.02673 L 431.17328,266.02673 L 429.92828,247.35173 z "
       id="path1653"
       style="fill:#e6dcb6;stroke:none" />
    <path
       d="M 285.50828,259.80173 L 283.01828,267.27173 L 284.26328,267.27173 L 285.50828,259.80173 z "
       id="path794"
       style="fill:#a18e61;stroke:none" />
    <path
       d="M 280.11369,268.93132 L 280.94286,269.34715 L 280.11369,268.93132 z "
       id="path823"
       style="fill:#cbbe8c;stroke:none" />
    <path
       d="M 266.41869,271.42131 L 267.24786,271.83715 L 266.41869,271.42131 z "
       id="path829"
       style="fill:#d8c8a5;stroke:none" />
    <path
       d="M 265.58828,272.25173 L 265.58828,273.49673 L 273.05828,272.25173 L 265.58828,272.25173 z "
       id="path830"
       style="fill:#938759;stroke:none" />
    <path
       d="M 261.85328,272.25173 L 261.85328,273.49673 L 265.58828,273.49673 L 261.85328,272.25173 z "
       id="path833"
       style="fill:#e7d3b3;stroke:none" />
    <g
       transform="scale(1.5,1.5)"
       id="Words">
      <path
         d="M 68.2099,228.178 C 68.0349,225.973 67.5799,224.573 66.4949,223.138 C 64.5349,220.548 61.3849,219.113 57.5699,219.113 C 50.3599,219.113 45.8799,224.258 45.8799,232.518 C 45.8799,240.708 50.3249,245.853 57.4299,245.853 C 63.7649,245.853 67.9999,242.178 68.3149,236.333 L 63.2049,236.333 C 62.8899,239.588 60.8249,241.443 57.5699,241.443 C 53.5099,241.443 51.1299,238.153 51.1299,232.588 C 51.1299,226.953 53.6149,223.593 57.7449,223.593 C 59.5649,223.593 61.0699,224.223 62.0499,225.448 C 62.6099,226.148 62.8899,226.813 63.2049,228.178 L 68.2099,228.178 z "
         id="LetterC"
         style="fill:#775c2a;fill-opacity:1" />
      <path
         d="M 84.2152,239.903 L 85.8952,245.048 L 91.2852,245.048 L 82.4652,219.533 L 76.6552,219.533 L 67.5902,245.048 L 72.9452,245.048 L 74.6602,239.903 L 84.2152,239.903 z M 82.7802,235.528 L 76.1302,235.528 L 79.4552,225.553 L 82.7802,235.528 z "
         id="LetterA"
         style="fill:#775c2a;fill-opacity:1" />
      <path
         d="M 100.547,219.533 L 95.2971,219.533 L 95.2971,245.048 L 109.207,245.048 L 109.168,240.634 L 100.547,240.673 L 100.547,219.533 z "
         id="LetterL"
         sodipodi:nodetypes="ccccccc"
         style="fill:#775c2a;fill-opacity:1" />
      <path
         d="M 117.782,219.533 L 112.532,219.533 L 112.532,245.048 L 117.782,245.048 L 117.782,219.533 z "
         id="LetterI"
         style="fill:#775c2a;fill-opacity:1" />
      <path
         d="M 130.28,234.058 L 138.867,234.058 L 138.867,229.722 L 130.28,229.683 L 130.28,223.908 L 140.489,223.869 L 140.45,219.494 L 125.03,219.533 L 125.03,245.048 L 130.28,245.048 L 130.28,234.058 z "
         id="LetterF"
         sodipodi:nodetypes="ccccccccccc"
         style="fill:#775c2a;fill-opacity:1" />
      <path
         d="M 154.35,219.113 C 150.78,219.113 147.84,220.303 145.67,222.648 C 143.395,225.098 142.1,228.668 142.1,232.483 C 142.1,236.298 143.395,239.903 145.67,242.318 C 147.875,244.698 150.745,245.853 154.385,245.853 C 158.025,245.853 160.895,244.698 163.1,242.318 C 165.305,239.973 166.67,236.263 166.67,232.658 C 166.67,228.668 165.375,225.098 163.1,222.648 C 160.86,220.233 158.025,219.113 154.35,219.113 z M 154.385,223.593 C 158.69,223.593 161.42,227.093 161.42,232.623 C 161.42,237.838 158.585,241.373 154.385,241.373 C 150.15,241.373 147.35,237.838 147.35,232.483 C 147.35,227.128 150.15,223.593 154.385,223.593 z "
         id="LetterO"
         style="fill:#775c2a;fill-opacity:1" />
      <path
         d="M 176.201,234.933 L 181.4,234.933 C 183.364,234.933 184.21,235.843 184.21,237.978 C 184.21,238.188 184.21,238.538 184.18,238.993 C 184.15,239.658 184.15,240.288 184.15,240.673 C 184.15,243.053 184.27,243.823 184.845,245.048 L 189.71,245.048 L 189.71,244.103 C 189.015,243.648 188.743,243.123 188.743,242.003 C 188.623,234.478 188.501,234.128 185.691,232.728 C 188.17,231.608 189.409,229.543 189.409,226.428 C 189.409,224.398 188.804,222.543 187.746,221.283 C 186.749,220.093 185.359,219.533 183.484,219.533 L 171.667,219.533 L 171.667,245.048 L 176.201,245.048 L 176.201,234.933 z M 176.201,230.558 L 176.201,223.908 L 181.671,223.908 C 182.971,223.908 183.515,224.048 184.06,224.573 C 184.604,225.098 184.876,225.973 184.876,227.163 C 184.876,228.388 184.573,229.368 184.06,229.893 C 183.576,230.383 182.971,230.558 181.671,230.558 L 176.201,230.558 z "
         id="LetterR"
         style="fill:#775c2a;fill-opacity:1" />
      <path
         d="M 208.621,245.048 L 213.328,245.048 L 213.328,219.533 L 208.621,219.533 L 208.621,236.893 L 199.553,219.533 L 194.721,219.533 L 194.721,245.048 L 199.428,245.048 L 199.428,227.408 L 208.621,245.048 z "
         id="LetterN"
         style="fill:#775c2a;fill-opacity:1" />
      <path
         d="M 225.456,219.533 L 220.206,219.533 L 220.206,245.048 L 225.456,245.048 L 225.456,219.533 z "
         id="LetterI2"
         style="fill:#775c2a;fill-opacity:1" />
      <path
         d="M 245.696,239.903 L 247.376,245.048 L 252.766,245.048 L 243.946,219.533 L 238.136,219.533 L 229.071,245.048 L 234.426,245.048 L 236.141,239.903 L 245.696,239.903 z M 244.261,235.528 L 237.611,235.528 L 240.936,225.553 L 244.261,235.528 z "
         id="LetterA2"
         style="fill:#775c2a;fill-opacity:1" />
      <path
         d="M 283.67,234.933 L 289.104,234.933 C 291.158,234.933 292.043,235.843 292.043,237.978 C 292.043,238.188 292.043,238.538 292.011,238.993 C 291.98,239.658 291.98,240.288 291.98,240.673 C 291.98,243.053 292.106,243.823 292.707,245.048 L 297.794,245.048 L 297.794,244.103 C 297.067,243.648 296.783,243.123 296.783,242.003 C 296.656,234.478 296.53,234.128 293.591,232.728 C 296.182,231.608 297.478,229.543 297.478,226.428 C 297.478,224.398 296.846,222.543 295.74,221.283 C 294.697,220.093 293.244,219.533 291.285,219.533 L 278.93,219.533 L 278.93,245.048 L 283.67,245.048 L 283.67,234.933 z M 283.67,230.558 L 283.67,223.908 L 289.389,223.908 C 290.747,223.908 291.316,224.048 291.885,224.573 C 292.454,225.098 292.738,225.973 292.738,227.163 C 292.738,228.388 292.422,229.368 291.885,229.893 C 291.379,230.383 290.747,230.558 289.389,230.558 L 283.67,230.558 z "
         id="LetterR2"
         style="fill:#775c2a;fill-opacity:1" />
      <path
         d="M 308.087,234.058 L 315.029,234.097 L 315.029,229.722 L 308.087,229.683 L 308.087,223.908 L 317.337,223.908 L 317.337,219.533 L 302.837,219.533 L 302.837,245.048 L 317.107,245.087 L 317.068,240.751 L 308.087,240.673 L 308.087,234.058 z "
         id="LetterE"
         sodipodi:nodetypes="ccccccccccccc"
         style="fill:#775c2a;fill-opacity:1" />
      <path
         d="M 328.091,235.948 L 333.718,235.948 C 337.75,235.948 340.338,232.623 340.338,227.443 C 340.338,222.333 337.84,219.533 333.266,219.533 L 323.577,219.533 L 323.577,245.048 L 328.091,245.048 L 328.091,235.948 z M 328.091,231.573 L 328.091,223.908 L 332.303,223.908 C 334.711,223.908 335.824,225.133 335.824,227.758 C 335.824,230.348 334.711,231.573 332.303,231.573 L 328.091,231.573 z "
         id="LetterP"
         style="fill:#775c2a;fill-opacity:1" />
      <path
         d="M 357.707,219.533 L 357.707,236.823 C 357.707,239.903 356.244,241.373 353.189,241.373 C 350.134,241.373 348.672,239.903 348.672,236.823 L 348.672,219.533 L 343.797,219.533 L 343.797,236.823 C 343.797,239.693 344.512,241.723 346.104,243.263 C 347.827,244.943 350.329,245.853 353.189,245.853 C 356.049,245.853 358.552,244.943 360.274,243.263 C 361.867,241.723 362.582,239.693 362.582,236.823 L 362.582,219.533 L 357.707,219.533 z "
         id="LetterU"
         style="fill:#775c2a;fill-opacity:1" />
      <path
         d="M 369.902,245.048 L 379.671,245.048 C 382.172,245.048 383.84,244.488 385.151,243.193 C 386.461,241.898 387.295,239.728 387.295,237.698 C 387.295,235.178 386.134,233.183 383.691,231.503 C 385.836,229.893 386.67,228.423 386.67,226.253 C 386.67,224.503 385.925,222.648 384.704,221.388 C 383.423,220.093 381.904,219.533 379.581,219.533 L 369.902,219.533 L 369.902,245.048 z M 374.369,223.908 L 379.224,223.908 C 381.279,223.908 382.381,224.923 382.381,226.813 C 382.381,228.668 381.279,229.683 379.224,229.683 L 374.369,229.683 L 374.369,223.908 z M 374.369,234.058 L 379.701,234.058 C 381.875,234.058 383.006,235.213 383.006,237.383 C 383.006,239.518 381.875,240.673 379.701,240.673 L 374.369,240.673 L 374.369,234.058 z "
         id="LetterB"
         style="fill:#775c2a;fill-opacity:1" />
      <path
         d="M 398.32,219.533 L 393.07,219.533 L 393.07,245.048 L 407.683,244.97 L 407.605,240.673 L 398.32,240.673 L 398.32,219.533 z "
         id="LetterL2"
         sodipodi:nodetypes="ccccccc"
         style="fill:#775c2a;fill-opacity:1" />
      <path
         d="M 416.259,219.533 L 411.009,219.533 L 411.009,245.048 L 416.259,245.048 L 416.259,219.533 z "
         id="LetterI3"
         style="fill:#775c2a;fill-opacity:1" />
      <path
         d="M 443.81,228.178 C 443.635,225.973 443.18,224.573 442.095,223.138 C 440.135,220.548 436.985,219.113 433.17,219.113 C 425.96,219.113 421.48,224.258 421.48,232.518 C 421.48,240.708 425.925,245.853 433.03,245.853 C 439.365,245.853 443.6,242.178 443.915,236.333 L 438.805,236.333 C 438.49,239.588 436.425,241.443 433.17,241.443 C 429.11,241.443 426.73,238.153 426.73,232.588 C 426.73,226.953 429.215,223.593 433.345,223.593 C 435.165,223.593 436.67,224.223 437.65,225.448 C 438.21,226.148 438.49,226.813 438.805,228.178 L 443.81,228.178 z "
         id="LetterC2"
         style="fill:#775c2a;fill-opacity:1" />
    </g>
    <path
       sodipodi:nodetypes="ccccscssscscccccccccccsccsscccscscscccccscccscccscccsccccscccccsccccccccccsccccccccccsccsccccccccccccccccc"
       d="M 351.49825,97.814862 C 342.56305,99.837925 307.49662,120.15285 295.10536,130.52105 C 291.81788,133.30276 291.31212,133.47135 288.78329,132.62841 C 287.35028,132.03835 284.99004,130.94252 283.55704,130.09958 C 278.41509,126.98069 273.8632,129.17234 273.8632,134.65147 C 273.8632,136.50595 273.27313,137.26459 270.74431,138.27613 C 268.13118,139.37195 267.54112,139.37195 266.361,138.36042 C 264.00076,136.33736 259.44887,134.31429 258.18446,134.82006 C 256.49857,135.49441 254.47551,140.55207 254.47551,144.09243 C 254.47551,146.19979 253.88545,147.4642 252.11527,148.9815 C 244.02301,155.80934 239.30253,164.74454 239.30253,173.08967 C 239.30253,177.47297 239.04965,178.23162 236.68941,180.50757 C 235.25641,181.85628 232.55899,185.14376 230.78881,187.75688 C 228.93433,190.37 226.15262,193.57319 224.55103,194.8376 C 221.09496,197.45072 220.75779,200.06385 223.28662,203.60421 C 225.30968,206.38592 231.21028,209.50481 234.75064,209.50481 C 236.858,209.5891 244.2759,212.70799 242.42142,212.87658 C 241.57848,212.87658 244.78166,219.03006 246.38325,220.46307 C 248.15343,221.89607 254.39121,221.13742 259.53316,218.94577 C 266.4453,215.91118 266.4453,215.91118 272.51449,220.0416 C 276.7292,222.9919 278.58368,223.75055 280.01668,223.32907 C 282.46121,222.65472 291.81788,215.82688 300.50019,208.49328 C 307.49662,202.67697 315.1674,198.54655 319.12923,198.54655 C 321.1523,198.54655 321.23659,198.71514 320.73083,202.08691 C 319.21353,211.69646 297.71848,259.74421 293.41947,263.20028 C 292.66082,263.87463 289.79482,264.2961 286.76022,264.2961 C 278.75226,264.2961 268.80554,268.7637 268.80554,272.38836 C 268.80554,272.97842 267.62542,274.58001 266.10812,276.01301 C 263.57929,278.37325 263.495,278.71043 264.50653,280.6492 C 265.43376,282.33508 266.10812,282.67226 268.04689,282.25079 C 270.06995,281.82932 270.49142,282.0822 270.49142,283.5152 C 270.49142,285.53827 271.75584,286.63409 272.59878,285.36968 C 273.35743,284.10526 274.70614,284.35815 274.70614,285.70686 C 274.70614,287.64563 276.13914,288.0671 278.2465,286.71839 C 279.51091,285.95974 283.47275,285.36968 289.87911,285.1168 C 309.09821,284.35815 317.27476,279.89055 338.51692,258.31121 C 353.43701,243.13823 361.27638,234.11874 367.42987,224.84637 C 368.69428,222.9919 368.77858,223.07619 374.342,230.3255 C 377.46089,234.37163 382.68714,240.77799 386.05891,244.40265 C 391.62233,250.64043 391.95951,251.14619 390.52651,252.24202 C 389.68356,252.83208 388.33485,253.33784 387.49191,253.33784 C 384.37302,253.33784 376.61795,256.87821 375.18494,258.98556 C 374.42629,260.16568 372.74041,262.10445 371.47599,263.36887 C 368.77858,265.98199 367.93563,270.70247 370.21158,270.53388 C 370.97023,270.44959 371.64458,270.95535 371.64458,271.62971 C 371.64458,272.55695 372.23464,272.72553 373.66765,272.38836 C 374.93206,272.05118 375.8593,272.30406 376.11218,272.97842 C 376.36506,273.73707 376.87083,273.73707 378.30383,272.89412 C 379.23107,272.38836 381.7599,271.88259 383.78296,271.88259 C 387.74479,271.88259 397.18576,269.26947 401.99053,266.82493 C 407.46966,263.95893 411.2629,258.56409 414.80326,248.28019 C 417.07921,241.70523 416.91062,236.2261 414.2975,230.49409 C 412.35873,226.36367 410.41996,218.94577 410.41996,215.82688 C 410.41996,215.06823 413.28597,214.64676 420.36669,214.30958 C 425.76152,214.0567 430.98777,213.63523 431.9993,213.29805 C 433.68519,212.79229 433.76948,213.12946 434.35954,222.65472 C 435.11819,235.38316 436.97267,249.71319 438.65855,255.27661 C 439.33291,257.63685 439.92297,259.82851 439.92297,260.24998 C 439.92297,260.58715 434.86531,260.67145 428.62753,260.33427 L 417.41639,259.82851 L 415.47762,262.44163 C 414.12891,264.21181 412.61161,265.22334 410.50426,265.56052 C 408.81837,265.8134 406.96389,266.31917 406.37383,266.74064 C 405.02513,267.49929 405.95236,272.72553 407.46966,272.72553 C 408.05972,272.72553 409.49272,273.65277 410.58855,274.83289 C 412.27444,276.51878 413.11738,276.85595 414.71897,276.26589 C 416.23627,275.67583 417.50068,276.01301 420.02951,277.6989 C 422.89552,279.63767 424.24423,279.89055 429.72336,279.80626 C 442.03032,279.63767 457.28759,276.01301 461.24942,272.38836 C 462.42954,271.29253 463.86255,268.7637 464.36831,266.74064 C 465.63273,261.93586 467.82438,258.4798 474.06216,251.23049 C 484.59895,238.92352 496.65303,228.38673 499.09756,229.31397 C 499.68762,229.56685 501.12063,231.58992 502.30075,233.78157 C 506.17829,241.19947 518.48525,252.07343 528.93775,257.38397 C 532.98387,259.49133 534.92264,261.51439 533.82682,262.61022 C 533.40534,263.03169 530.11787,263.95893 526.49321,264.63328 C 517.97949,266.31917 509.29717,270.95535 507.69558,274.91719 C 505.9254,279.04761 506.17829,280.5649 508.36994,279.89055 C 509.80294,279.38478 510.05582,279.55337 509.55006,280.73349 C 508.79141,282.75656 509.80294,283.93668 511.23594,282.75656 C 512.24748,281.91361 512.58465,282.0822 513.00612,283.5995 C 513.4276,285.28538 513.59618,285.36968 515.02919,284.02097 C 516.04072,283.17803 517.13654,282.92514 518.48525,283.26232 C 519.58108,283.5995 520.17114,283.5995 519.83396,283.26232 C 518.73814,282.0822 521.85703,280.5649 524.55444,280.90208 C 528.85345,281.40785 547.98826,278.62613 551.19144,277.02454 C 555.74333,274.7486 558.18787,269.01658 558.27216,260.50286 C 558.27216,254.34938 557.93499,253.08496 554.64751,245.75136 C 548.8312,232.85433 547.81967,228.97679 547.81967,219.62013 C 547.81967,209.84199 547.22961,206.6388 542.17195,189.27418 C 540.06459,182.10916 537.78865,174.1012 537.11429,171.57237 C 536.52423,169.04354 535.597,166.17754 535.25982,165.2503 C 534.83835,164.32306 534.0797,160.867 533.48964,157.49523 C 532.98387,154.20775 531.38228,149.15009 530.03357,146.28408 C 527.58904,140.97354 521.01408,132.12264 517.30513,129.00375 C 506.76835,120.06856 497.91744,115.09519 485.18901,110.71189 C 477.77111,108.18306 476.84387,108.01447 464.78978,108.01447 C 453.83153,108.09877 450.45975,108.43594 439.08002,110.88048 C 421.6311,114.50513 416.82633,114.25225 403.50783,108.77312 C 377.62948,98.152039 363.38374,95.117444 351.49825,97.814862 z M 256.16139,202.67697 C 256.16139,204.70003 249.75503,210.51634 247.81626,210.17916 C 246.97331,210.01057 245.7089,210.43205 244.95025,211.02211 C 243.85442,211.94934 241.25319,212.25032 240.74742,210.73303 C 240.07307,208.62567 242.25283,208.40898 247.98484,204.36286 C 252.87391,200.7382 256.16139,200.14814 256.16139,202.67697 z "
       id="path6"
       style="fill:#633918;fill-opacity:1;stroke:none" />
    <path
       d="M 251.2736,202.09107 C 249.50342,203.43978 246.21595,209.1718 246.80601,209.76186 C 247.90183,210.85768 249.75631,210.09903 252.95949,207.23303 C 256.75273,203.77696 257.42709,200.99525 254.47679,200.99525 C 253.38096,200.99525 251.94796,201.50101 251.2736,202.09107 z "
       id="path32"
       style="fill:#e73131;fill-opacity:1;stroke:none" />
    <g
       style="fill:#ad5118;fill-opacity:1"
       transform="matrix(0.842943,0,0,0.842943,186.9347,-202.7398)"
       id="g1359">
      <path
         style="fill:#ad5118;fill-opacity:1;stroke:none"
         id="path8"
         d="M 185,371.6 C 181.6,373.7 175.4,382.7 174.6,386.7 C 173.7,390.5 176.3,396.6 179.1,397.5 C 180.1,397.8 181.8,397.6 182.9,397.1 C 186.3,395.2 186.2,395.9 182.7,400.2 C 178,406.1 174.8,412.2 175.9,413.3 C 176.5,413.9 178.5,412.9 180.9,410.8 C 184.6,407.7 197.6,402.3 198.8,403.4 C 200.4,405 196.7,408.5 188.4,413.1 C 176.5,419.9 174.2,422 175.8,425.4 C 176.4,426.8 178.7,428.8 180.9,429.9 C 185.5,432.3 188,435.4 188,438.8 C 188,441.5 190.2,446.1 192.4,447.9 C 193.3,448.7 194,449.7 194,450.3 C 194,450.8 188.5,456.7 181.7,463.4 C 168.1,476.8 167.5,477.8 156.4,504 C 149,521.8 141.4,536.9 138.3,540.1 C 136.6,542 136.1,543.4 136.5,545.1 C 137,547.1 136.2,548.2 131.5,551.8 C 128.4,554.2 126.2,556.5 126.6,557.1 C 127.6,558.7 134.8,557.3 139.7,554.5 C 143.5,552.4 143.9,552.4 143,554 C 140.8,558.1 142.4,563 146,563 C 146.9,563 150.2,559.8 153.5,555.8 C 172.6,532.9 185.6,518.3 194.9,509 C 200.7,503.2 207.9,495.1 210.8,491 C 224.6,471.4 225.4,469.4 222,466 C 218.5,462.5 216.2,463.8 212.1,471.4 C 209.9,475.6 203.2,484.3 194.5,494.2 C 179.1,511.8 167.8,523.9 170.3,520 C 171.2,518.6 174.8,513.2 178.4,507.9 C 195.3,482.7 211.2,454.1 214.7,442.7 C 215.5,440 216.3,433.7 216.5,428.7 C 217.1,415.2 219,415.3 222.1,429 C 224.3,439.3 225.7,441.7 231.5,444.9 C 234.4,446.5 237,448.6 237.3,449.4 C 238.2,451.7 239.5,451.3 239.7,448.7 C 239.7,447.5 240.3,441.8 240.8,436 L 241.9,425.5 L 241.5,439 C 241.2,448.5 240.4,456 238.6,464.5 C 237.2,471.1 236,476.7 236,477 C 236,477.3 238.9,477.4 242.4,477.2 C 248.1,476.8 249.7,477.2 257.2,480.5 C 268,485.4 270.2,485.7 274.2,483.2 C 278.6,480.5 290.8,467.1 294.2,461.2 C 296.9,456.6 298.7,449.9 297.6,448.2 C 297.3,447.7 294.5,448.1 291.4,449.2 C 288.3,450.2 285.4,451 284.9,450.8 C 284.4,450.6 286.7,448.4 289.9,445.8 C 293.2,443.2 296.9,439.6 298.3,437.8 C 299.6,436 303.1,427.3 306,418.5 C 308.9,409.7 312.3,400.4 313.6,397.8 C 316.3,392.4 316.6,388.8 314.6,387 C 311.4,384.4 299.8,382.9 287.5,383.4 C 280.9,383.8 272.6,383.6 269,383 C 265.4,382.5 257.6,381.6 251.5,381 C 229.8,378.8 217.8,376.9 212.7,374.8 C 200.9,370 189.6,368.7 185,371.6 z M 236.1,404.6 C 237.3,407.1 238,409.3 237.8,409.6 C 237.6,409.8 236.4,407.7 235.3,405 C 234.1,402.2 233.4,400 233.6,400 C 233.9,400 235,402.1 236.1,404.6 z " />
      <path
         style="fill:#ad5118;fill-opacity:1;stroke:none"
         id="path10"
         d="M 348.7,386.1 C 341.6,390.8 334.4,401.5 327.9,417.3 C 321.5,432.5 313.9,447.2 307.3,456.9 C 302.5,463.9 302.2,465 304.8,465 C 307.3,465 331,450.9 339.6,444.4 C 350,436.4 351.6,437.3 345.4,447.6 C 343.5,450.8 337.9,458.9 333.1,465.5 C 328.3,472.1 323.2,479.3 321.7,481.5 C 320.2,483.7 315.8,489.5 312,494.5 C 308,499.6 304.5,505.2 303.9,507.5 C 302.6,512 303.4,524 305.5,534 C 306.7,539.9 306.7,541 304.9,546.2 C 302.5,553.3 302.5,553.7 305.1,554.5 C 309.9,556 314.6,546.6 315.9,533.1 C 316.5,526.4 317.5,522.7 319.8,517.9 C 324.1,509.1 330.1,498.3 337.5,486.5 C 340.9,481 345,473.8 346.5,470.5 C 355.8,451 362.8,441 376.2,427.7 C 385.9,418.3 389.9,410.7 388,405.9 C 386.5,402.4 383.4,399.9 381.3,400.7 C 380.5,401 378.9,403.3 377.9,405.8 C 375.7,410.8 372.7,414.9 362.8,426.3 L 356,434 L 356,428.7 C 356,422.1 357.7,412.5 359.6,408.5 C 360.4,406.8 362.8,404.4 365,403 C 371.5,399 370,397 361.9,398.9 L 358.2,399.7 L 357.8,392.9 C 357.3,386.7 355.9,383 354,383 C 353.7,383 351.3,384.4 348.7,386.1 z " />
      <path
         style="fill:#ad5118;fill-opacity:1;stroke:none"
         id="path12"
         d="M 107.2,396.7 C 105.2,402.1 104.9,409 106.6,412.6 C 110.9,421.6 122.7,425.8 120.6,417.6 C 120.3,416.2 118.6,414.6 116.7,413.7 C 110.8,410.9 107.8,405.1 110,400.9 C 110.9,399.3 111.7,399 114.6,399.6 C 120.9,400.8 117.6,396.8 110.4,394.6 C 108.7,394.1 108,394.5 107.2,396.7 z " />
      <path
         style="fill:#ad5118;fill-opacity:1;stroke:none"
         id="path14"
         d="M 156,398.8 C 156,399.2 154.1,399.7 151.8,399.9 C 146.2,400.2 142.8,401.9 141.2,405.2 C 140.2,407.5 140.3,408.6 142,413.3 C 143.1,416.3 145.2,420 146.6,421.5 C 149.7,424.8 149.3,425.4 145.5,423.3 C 141.7,421.3 129.7,417 129.2,417.5 C 128.6,418.1 138.1,433.3 140.4,435.2 C 144.4,438.8 162.5,435.6 165,430.9 C 166.6,428.1 166.2,425.5 163.9,423.4 C 160.2,420.1 159.7,417.2 162.1,413.4 C 164.4,409.6 164.1,406.4 161,401.2 C 159.2,398.3 156,396.8 156,398.8 z " />
      <path
         style="fill:#ad5118;fill-opacity:1;stroke:none"
         id="path16"
         d="M 96,418.1 C 96,422 95.4,425.2 94.4,427 C 92.1,430.8 93.1,432.6 97.9,433.4 C 103,434.2 106,432.8 106,429.5 C 106,424.7 99.3,412 96.8,412 C 96.4,412 96,414.7 96,418.1 z " />
      <path
         style="fill:#ad5118;fill-opacity:1;stroke:none"
         id="path18"
         d="M 87.3,417.2 C 83.6,421.2 79,429.3 79,431.7 C 79,433.8 79.4,433.7 83.3,429.8 C 85.6,427.4 89.3,424 91.4,422.3 C 95.2,419.1 95.3,419 93.5,417 C 91.2,414.4 89.8,414.5 87.3,417.2 z " />
      <path
         style="fill:#ad5118;fill-opacity:1;stroke:none"
         id="path20"
         d="M 400,430.4 C 397,432.1 394.6,435.2 388.1,446.2 C 381.8,456.9 376.8,462.5 371.6,465.1 C 366.6,467.7 347.3,487 339.3,497.7 C 329.9,510.1 322.2,524.7 322.1,530.2 C 322,533.4 322.6,533.7 324.9,531.5 C 325.8,530.7 328.8,528.3 331.6,526.2 C 334.3,524.2 338.7,520.9 341.3,519 C 343.9,517.1 349.7,511.5 354.2,506.6 C 358.8,501.8 371.3,488.7 382,477.5 C 403,455.7 409,447.5 409,440.7 C 409,435.7 405.5,428.9 403,429.1 C 402.7,429.1 401.4,429.7 400,430.4 z " />
      <path
         style="fill:#ad5118;fill-opacity:1;stroke:none"
         id="path22"
         d="M 121.6,436.1 C 120.8,440.4 113.8,452.7 109.4,457.5 C 105.1,462.4 104.1,464.5 104.6,468.7 C 105.8,478.3 109.5,479.7 113.5,472.1 C 114.4,470.2 117.5,466.4 120.4,463.6 C 126.2,457.8 128,453.3 128,444.6 C 128,435.4 123.1,428.8 121.6,436.1 z " />
      <path
         style="fill:#ad5118;fill-opacity:1;stroke:none"
         id="path26"
         d="M 159,440.7 C 157.1,442.1 152.1,444.8 148,446.7 C 135.9,452.3 134.9,454.4 142.2,458.1 C 146.8,460.4 149.2,460 150.9,456.4 C 152,453.9 152.3,453.8 158,454.5 C 166.1,455.4 167,454.6 167,446 C 167,440.7 166.6,439.1 165.4,438.6 C 163.2,437.7 162.9,437.8 159,440.7 z " />
      <path
         style="fill:#ad5118;fill-opacity:1;stroke:none"
         id="path28"
         d="M 69.9,462.3 C 67.4,464.1 64.4,466 63.4,466.6 C 61.8,467.6 61.7,467.9 62.9,469.4 C 63.6,470.3 65.7,471 67.6,471 C 71.4,471 89.5,462.5 89.5,460.7 C 89.5,459.9 87.1,459.4 82,459.3 C 75.1,459.2 74.1,459.4 69.9,462.3 z " />
      <path
         style="fill:#ad5118;fill-opacity:1;stroke:none"
         id="path30"
         d="M 47.3,474.3 C 43.5,475.6 43.1,477.3 46.1,479.4 C 48,480.7 48.7,480.7 51,479.5 C 53.9,478 55.4,475.5 54.4,473.9 C 53.8,472.8 51.6,472.9 47.3,474.3 z " />
      <path
         style="fill:#ad5118;fill-opacity:1;stroke:none"
         id="path36"
         d="M 247.4,502.9 C 243.2,504 242.2,504.7 240.5,508.1 C 238.8,511.4 238.3,516.3 239.4,519.8 C 240.3,522.7 244.8,525 250.9,525.7 C 255.7,526.2 256.3,526.1 264.3,521.7 L 267.1,520.2 L 261.8,518.5 C 252.4,515.4 251.8,514.8 252.6,507.9 C 253.3,501.5 253.4,501.5 247.4,502.9 z " />
    </g>
    <g
       style="fill:#ad5118;fill-opacity:1"
       transform="matrix(0.842943,0,0,0.842943,183.4122,-188.6495)"
       id="g1373">
      <path
         style="fill:#ad5118;fill-opacity:1;stroke:none"
         id="path34"
         d="M 404.5,486 C 401.2,487.1 397.7,488 396.7,488 C 395.2,488 395,488.6 395.5,492.2 C 396.6,499.3 399.8,504 405.9,507.2 C 408.9,508.7 413,511.5 415,513.5 C 417,515.4 418.9,517 419.2,517 C 419.6,517 419,514.4 417.9,511.3 L 416,505.6 L 418.7,508.1 C 422.8,511.9 426.2,514 428.2,514 C 430.4,514 430.2,513.1 425.8,499.5 C 422,487.8 419.2,484 414.2,484.1 C 412.2,484.1 407.8,485 404.5,486 z " />
      <path
         style="fill:#ad5118;fill-opacity:1;stroke:none"
         id="path38"
         d="M 422.8,525.7 C 420.4,526.3 420.3,532.5 422.6,533.4 C 424.3,534.1 432.3,530.9 433.4,529.2 C 434.6,527.3 426.8,524.8 422.8,525.7 z " />
    </g>
    <path
       sodipodi:nodetypes="ccsssc"
       d="M 264.02248,277.9399 C 263.17953,279.54149 262.11941,282.54536 262.21498,283.32322 C 263.04441,283.22045 264.24446,281.33871 265.50705,280.3408 C 266.90733,279.23407 268.7152,278.33658 268.7152,277.91511 C 268.7152,277.15646 266.78311,275.9917 266.05608,276.17083 C 265.32904,276.34995 264.48609,277.1391 264.02248,277.9399 z "
       id="path2331"
       style="fill:#000000;stroke:none" />
    <path
       d="M 259.06109,171.90861 C 256.36367,172.0772 254.17202,172.41437 254.17202,172.66726 C 254.17202,172.92014 254.93067,174.52173 255.77361,176.29191 C 257.54379,179.74798 262.51716,183.96269 264.70881,183.96269 C 267.06905,183.96269 271.03088,179.32651 271.03088,176.4605 C 271.03088,173.67879 268.41776,171.23425 265.55175,171.48714 C 264.62451,171.57143 261.67421,171.74002 259.06109,171.90861 z "
       id="path2327"
       style="fill:#dcdcdc;fill-opacity:1;stroke:none" />
    <path
       d="M 253.29175,172.64244 C 254.1347,175.33986 257.84364,180.73469 260.28818,182.67346 C 263.15419,184.86511 266.02019,184.69652 268.46473,182.0834 C 270.99356,179.30169 271.16214,177.53151 268.8862,177.53151 C 267.4532,177.53151 267.28461,177.27863 267.95896,175.92992 C 268.63332,174.6655 268.54902,174.24403 267.53749,173.82256 C 265.43013,173.06391 264.50289,173.2325 264.92437,174.32833 C 265.51443,176.01421 263.91283,178.37445 262.31124,178.37445 C 260.54106,178.37445 256.57923,174.83409 255.82058,172.47385 C 255.06193,170.02932 252.6174,170.1979 253.29175,172.64244 z "
       id="path24"
       style="fill:#c97218;fill-opacity:1;stroke:none" />
    <path
       sodipodi:nodetypes="cscsccscscsc"
       d="M 258.3671,170.17719 C 256.55478,170.34577 255.58539,170.47222 255.12177,170.78832 C 254.65815,171.10442 254.7003,171.61019 254.91104,172.53743 C 254.99533,173.12749 256.65272,175.64591 256.88453,175.91987 C 257.11634,176.19383 257.09676,173.12252 257.34964,172.95392 C 257.77111,172.70105 258.55157,174.8104 259.14163,175.56904 C 260.74323,177.84499 264.0307,177.00205 264.36788,174.22034 C 264.62076,172.11298 264.87365,171.94439 267.31817,172.36586 C 268.58259,172.5766 270.70359,175.03033 270.85111,174.92496 C 270.99862,174.81959 269.17265,172.15513 268.414,171.52292 C 267.48676,170.76427 265.96946,170.2585 265.04223,170.3428 C 264.0307,170.42709 260.47446,170.0086 258.3671,170.17719 z "
       id="path2323"
       style="fill:#000000;stroke:none" />
    <path
       transform="matrix(0.842943,0,0,0.842943,180.1154,246.7397)"
       d="M 97.593727 -87.194946 A 1.3929523 1.3058928 0 1 1  94.807823,-87.194946 A 1.3929523 1.3058928 0 1 1  97.593727 -87.194946 z"
       sodipodi:ry="1.3058928"
       sodipodi:rx="1.3929523"
       sodipodi:cy="-87.194946"
       sodipodi:cx="96.200775"
       id="path2391"
       style="fill:#dcdcdc;fill-opacity:1;stroke:#000000;stroke-width:0.2;stroke-linecap:butt;stroke-linejoin:bevel;stroke-miterlimit:4;stroke-dasharray:none;stroke-opacity:1"
       sodipodi:type="arc" />
    <path
       sodipodi:nodetypes="ccsssc"
       d="M 267.83447,280.28431 C 266.99152,281.8859 265.9314,284.88977 266.02697,285.66763 C 266.8564,285.56486 268.05645,283.68312 269.31904,282.68521 C 270.71932,281.57848 272.52719,280.68099 272.52719,280.25952 C 272.52719,279.50087 270.5951,278.33611 269.86807,278.51524 C 269.14103,278.69436 268.29809,279.48351 267.83447,280.28431 z "
       id="path2403"
       style="fill:#000000;stroke:none" />
    <path
       sodipodi:nodetypes="ccsssc"
       d="M 271.65055,283.07298 C 270.80761,284.67457 269.74748,287.67844 269.84306,288.45631 C 270.67249,288.35354 271.87253,286.47179 273.13513,285.47388 C 274.53541,284.36715 276.34328,283.46967 276.34328,283.0482 C 276.34328,282.28955 274.41119,281.12479 273.68415,281.30391 C 272.95712,281.48304 272.11417,282.27218 271.65055,283.07298 z "
       id="path2405"
       style="fill:#000000;stroke:none" />
    <path
       sodipodi:nodetypes="ccsssc"
       d="M 274.92991,285.03138 C 274.08696,286.63297 273.02684,289.63684 273.12241,290.41471 C 273.95184,290.31194 275.15189,288.43019 276.41448,287.43228 C 277.81476,286.32555 279.62263,285.42807 279.62263,285.0066 C 279.62263,284.24795 277.69054,283.08319 276.96351,283.26231 C 276.23647,283.44144 275.39352,284.23058 274.92991,285.03138 z "
       id="path2407"
       style="fill:#000000;stroke:none" />
    <path
       sodipodi:nodetypes="ccsssc"
       d="M 368.00665,265.82722 C 367.16371,267.42881 366.10358,270.43268 366.19915,271.21055 C 367.02858,271.10777 368.22863,269.22603 369.49123,268.22812 C 370.89151,267.12139 372.69937,266.22391 372.69937,265.80243 C 372.69937,265.04379 370.76729,263.87902 370.04025,264.05815 C 369.31321,264.23728 368.47027,265.02642 368.00665,265.82722 z "
       id="path2409"
       style="fill:#000000;stroke:none" />
    <path
       sodipodi:nodetypes="ccsssc"
       d="M 371.08887,269.49653 C 370.24593,271.09812 369.1858,274.10199 369.28138,274.87986 C 370.11081,274.77709 371.31085,272.89534 372.57345,271.89744 C 373.97373,270.7907 375.7816,269.89322 375.7816,269.47175 C 375.7816,268.7131 373.84951,267.54834 373.12247,267.72746 C 372.39543,267.90659 371.55249,268.69574 371.08887,269.49653 z "
       id="path2411"
       style="fill:#000000;stroke:none" />
    <path
       sodipodi:nodetypes="ccsssc"
       d="M 376.00575,271.33118 C 375.16281,272.93277 374.10268,275.93664 374.19825,276.71451 C 375.02768,276.61174 376.22773,274.72999 377.49033,273.73208 C 378.89061,272.62535 380.69847,271.72787 380.69847,271.3064 C 380.69847,270.54775 378.76639,269.38299 378.03935,269.56211 C 377.31231,269.74124 376.46937,270.53038 376.00575,271.33118 z "
       id="path2413"
       style="fill:#000000;stroke:none" />
    <path
       sodipodi:nodetypes="ccsssc"
       d="M 404.84654,267.95542 C 404.0036,269.55701 402.94347,272.56088 403.03904,273.33875 C 403.86847,273.23598 405.06852,271.35423 406.33111,270.35632 C 407.73139,269.24959 409.53926,268.35211 409.53926,267.93064 C 409.53926,267.17199 407.60718,266.00723 406.88014,266.18635 C 406.1531,266.36548 405.31016,267.15462 404.84654,267.95542 z "
       id="path2415"
       style="fill:#000000;stroke:none" />
    <path
       sodipodi:nodetypes="ccsssc"
       d="M 407.26828,270.89087 C 406.42534,272.49246 405.36521,275.49633 405.46078,276.2742 C 406.29021,276.17143 407.49026,274.28968 408.75286,273.29177 C 410.15314,272.18504 411.961,271.28756 411.961,270.86609 C 411.961,270.10744 410.02892,268.94268 409.30188,269.1218 C 408.57484,269.30093 407.7319,270.09007 407.26828,270.89087 z "
       id="path2417"
       style="fill:#000000;stroke:none" />
    <path
       sodipodi:nodetypes="ccsssc"
       d="M 410.13034,273.60616 C 409.2874,275.20775 408.22727,278.21162 408.32285,278.98949 C 409.15228,278.88671 410.35232,277.00497 411.61492,276.00706 C 413.0152,274.90033 414.82307,274.00285 414.82307,273.58137 C 414.82307,272.82273 412.89098,271.65796 412.16394,271.83709 C 411.4369,272.01621 410.59396,272.80536 410.13034,273.60616 z "
       id="path2419"
       style="fill:#000000;stroke:none" />
    <path
       sodipodi:nodetypes="ccsssc"
       d="M 413.87303,275.44082 C 413.03009,277.04241 411.96996,280.04628 412.06554,280.82415 C 412.89497,280.72138 414.09502,278.83964 415.35761,277.84173 C 416.75789,276.73499 418.56576,275.83751 418.56576,275.41604 C 418.56576,274.65739 416.63367,273.49263 415.90663,273.67175 C 415.1796,273.85088 414.33665,274.64003 413.87303,275.44082 z "
       id="path2421"
       style="fill:#000000;stroke:none" />
    <path
       sodipodi:nodetypes="ccsssc"
       d="M 506.11952,276.68838 C 505.27657,278.28997 504.21645,281.29384 504.31202,282.07171 C 505.14145,281.96894 506.3415,280.08719 507.60409,279.08928 C 509.00437,277.98255 510.81224,277.08507 510.81224,276.6636 C 510.81224,275.90495 508.88015,274.74018 508.15312,274.91931 C 507.42608,275.09844 506.58313,275.88758 506.11952,276.68838 z "
       id="path2423"
       style="fill:#000000;stroke:none" />
    <path
       sodipodi:nodetypes="ccsssc"
       d="M 508.8348,279.47705 C 507.99185,281.07864 506.93173,284.08251 507.0273,284.86038 C 507.85673,284.75761 509.05678,282.87587 510.31937,281.87796 C 511.71965,280.77122 513.52752,279.87374 513.52752,279.45227 C 513.52752,278.69362 511.59543,277.52886 510.8684,277.70798 C 510.14136,277.88711 509.29841,278.67626 508.8348,279.47705 z "
       id="path2427"
       style="fill:#000000;stroke:none" />
    <path
       sodipodi:nodetypes="ccsssc"
       d="M 511.77025,281.75203 C 510.92731,283.35362 509.86718,286.35749 509.96275,287.13536 C 510.79218,287.03259 511.99223,285.15084 513.25483,284.15293 C 514.65511,283.0462 516.46297,282.14872 516.46297,281.72725 C 516.46297,280.9686 514.53089,279.80384 513.80385,279.98296 C 513.07681,280.16209 512.23387,280.95123 511.77025,281.75203 z "
       id="path2429"
       style="fill:#000000;stroke:none" />
    <path
       sodipodi:nodetypes="cccc"
       id="path2433"
       d="M 237.82808,210.38386 C 238.70871,209.79677 240.91029,208.53087 240.91029,208.53087 L 240.92864,211.44798 L 237.82808,210.38386 z "
       style="fill:#afafaf;fill-opacity:1;fill-rule:evenodd;stroke:none;stroke-width:1px;stroke-linecap:butt;stroke-linejoin:miter;stroke-opacity:1" />
    <path
       sodipodi:nodetypes="cccc"
       id="path2435"
       d="M 242.56148,214.32836 C 242.04779,213.08081 241.05707,211.53971 241.05707,211.53971 L 244.39613,211.75988 L 242.56148,214.32836 z "
       style="fill:#afafaf;fill-opacity:1;fill-rule:evenodd;stroke:none;stroke-width:1px;stroke-linecap:butt;stroke-linejoin:miter;stroke-opacity:1" />
  </g>
</svg>
